<svg width="360" height="780" viewBox="0 0 360 780" fill="none" xmlns="http://www.w3.org/2000/svg">
<g clip-path="url(#clip0_2009_682)">
<rect width="360" height="780" fill="#21042F"/>
<path d="M115.828 326.85C116.956 326.888 118.091 327.195 119.137 327.799C120.183 328.403 121.017 329.232 121.613 330.19C121.651 329.062 121.959 327.927 122.563 326.881C123.166 325.835 123.996 325.001 124.953 324.405C123.826 324.367 122.69 324.059 121.645 323.456C120.599 322.852 119.765 322.022 119.168 321.065C119.131 322.192 118.823 323.328 118.219 324.373C117.615 325.419 116.786 326.253 115.828 326.85Z" fill="white" fill-opacity="0.1"/>
<path d="M334.797 352.18C335.925 352.218 337.06 352.525 338.106 353.129C339.151 353.733 339.986 354.562 340.582 355.52C340.62 354.392 340.928 353.257 341.531 352.211C342.135 351.165 342.964 350.331 343.922 349.735C342.794 349.697 341.659 349.389 340.613 348.786C339.568 348.182 338.734 347.353 338.137 346.395C338.099 347.523 337.792 348.658 337.188 349.703C336.584 350.749 335.755 351.583 334.797 352.18Z" fill="white" fill-opacity="0.1"/>
<path d="M53.3686 120.684C54.1396 121.508 54.7248 122.528 55.0373 123.695C55.3498 124.861 55.3532 126.037 55.0977 127.136C55.9219 126.365 56.9423 125.78 58.1086 125.468C59.2748 125.155 60.451 125.152 61.5503 125.407C60.7794 124.583 60.1942 123.563 59.8817 122.396C59.5692 121.23 59.5658 120.054 59.8213 118.955C58.9971 119.726 57.9767 120.311 56.8105 120.623C55.6442 120.936 54.4679 120.939 53.3686 120.684Z" fill="white" fill-opacity="0.1"/>
<path d="M247.212 328.061C247.983 328.885 248.569 329.905 248.881 331.071C249.194 332.238 249.197 333.414 248.941 334.513C249.766 333.742 250.786 333.157 251.952 332.845C253.119 332.532 254.295 332.529 255.394 332.784C254.623 331.96 254.038 330.94 253.725 329.773C253.413 328.607 253.41 327.431 253.665 326.332C252.841 327.102 251.82 327.688 250.654 328C249.488 328.313 248.312 328.316 247.212 328.061Z" fill="white" fill-opacity="0.1"/>
<path d="M280.248 660.421C281.018 661.245 281.604 662.266 281.916 663.432C282.229 664.598 282.232 665.774 281.977 666.874C282.801 666.103 283.821 665.517 284.987 665.205C286.154 664.892 287.33 664.889 288.429 665.145C287.658 664.32 287.073 663.3 286.761 662.134C286.448 660.967 286.445 659.791 286.7 658.692C285.876 659.463 284.856 660.048 283.689 660.361C282.523 660.673 281.347 660.676 280.248 660.421Z" fill="white" fill-opacity="0.1"/>
<path d="M19.1382 357.912C19.9091 358.736 20.4943 359.757 20.8068 360.923C21.1193 362.089 21.1227 363.266 20.8672 364.365C21.6915 363.594 22.7118 363.009 23.8781 362.696C25.0443 362.384 26.2205 362.38 27.3198 362.636C26.5489 361.812 25.9637 360.791 25.6513 359.625C25.3388 358.459 25.3354 357.282 25.5909 356.183C24.7666 356.954 23.7463 357.539 22.58 357.852C21.4138 358.164 20.2375 358.168 19.1382 357.912Z" fill="white" fill-opacity="0.1"/>
<path d="M9.58348 211.437C10.3544 212.261 10.9396 213.281 11.2521 214.447C11.5646 215.614 11.568 216.79 11.3125 217.889C12.1368 217.118 13.1572 216.533 14.3234 216.221C15.4896 215.908 16.6659 215.905 17.7651 216.16C16.9942 215.336 16.4091 214.316 16.0966 213.149C15.7841 211.983 15.7807 210.807 16.0362 209.708C15.2119 210.478 14.1916 211.064 13.0253 211.376C11.8591 211.689 10.6828 211.692 9.58348 211.437Z" fill="white" fill-opacity="0.1"/>
<path d="M338.05 553.212C337.226 553.983 336.205 554.569 335.039 554.881C333.873 555.194 332.696 555.197 331.597 554.941C332.368 555.766 332.953 556.786 333.266 557.952C333.578 559.119 333.582 560.295 333.326 561.394C334.15 560.623 335.171 560.038 336.337 559.725C337.503 559.413 338.679 559.41 339.779 559.665C339.008 558.841 338.423 557.82 338.11 556.654C337.798 555.488 337.794 554.312 338.05 553.212Z" fill="white" fill-opacity="0.1"/>
<path d="M311.784 235.58C310.96 236.351 309.94 236.936 308.773 237.248C307.607 237.561 306.431 237.564 305.332 237.309C306.102 238.133 306.688 239.153 307 240.32C307.313 241.486 307.316 242.662 307.061 243.761C307.885 242.99 308.905 242.405 310.071 242.093C311.238 241.78 312.414 241.777 313.513 242.032C312.742 241.208 312.157 240.188 311.845 239.021C311.532 237.855 311.529 236.679 311.784 235.58Z" fill="white" fill-opacity="0.1"/>
<path d="M165.304 690.137C164.479 690.908 163.459 691.493 162.293 691.806C161.127 692.118 159.95 692.122 158.851 691.866C159.622 692.69 160.207 693.711 160.52 694.877C160.832 696.043 160.836 697.22 160.58 698.319C161.404 697.548 162.425 696.963 163.591 696.65C164.757 696.338 165.933 696.334 167.033 696.59C166.262 695.766 165.677 694.745 165.364 693.579C165.052 692.413 165.048 691.236 165.304 690.137Z" fill="white" fill-opacity="0.1"/>
<path d="M5.69044 586.249C4.86618 587.02 3.8458 587.606 2.67952 587.918C1.51327 588.231 0.337031 588.234 -0.762233 587.979C0.00868079 588.803 0.593879 589.823 0.906378 590.989C1.21887 592.156 1.22226 593.332 0.966785 594.431C1.79102 593.66 2.81136 593.075 3.97758 592.763C5.14384 592.45 6.3201 592.447 7.41938 592.702C6.64849 591.878 6.0633 590.858 5.75081 589.691C5.4383 588.525 5.43492 587.349 5.69044 586.249Z" fill="white" fill-opacity="0.1"/>
<path d="M308.198 325.138C307.374 325.909 306.354 326.494 305.187 326.807C304.021 327.119 302.845 327.123 301.746 326.867C302.516 327.691 303.102 328.712 303.414 329.878C303.727 331.044 303.73 332.221 303.475 333.32C304.299 332.549 305.319 331.964 306.485 331.651C307.652 331.339 308.828 331.335 309.927 331.591C309.156 330.767 308.571 329.746 308.259 328.58C307.946 327.414 307.943 326.237 308.198 325.138Z" fill="white" fill-opacity="0.1"/>
<path d="M350.394 44.1245C349.569 44.8954 348.549 45.4807 347.383 45.7932C346.216 46.1056 345.04 46.109 343.941 45.8535C344.712 46.6778 345.297 47.6982 345.61 48.8644C345.922 50.0306 345.925 51.2069 345.67 52.3061C346.494 51.5352 347.514 50.9501 348.681 50.6376C349.847 50.3251 351.023 50.3217 352.123 50.5772C351.352 49.753 350.766 48.7326 350.454 47.5664C350.141 46.4001 350.138 45.2238 350.394 44.1245Z" fill="white" fill-opacity="0.1"/>
<path d="M290.855 55.9335C290.818 57.0615 290.51 58.1968 289.906 59.2425C289.302 60.2881 288.473 61.1222 287.515 61.7189C288.643 61.7566 289.778 62.0643 290.824 62.668C291.87 63.2717 292.704 64.101 293.3 65.0589C293.338 63.931 293.646 62.7957 294.25 61.7501C294.853 60.7045 295.683 59.8704 296.641 59.2737C295.513 59.236 294.377 58.9283 293.332 58.3246C292.286 57.7209 291.452 56.8915 290.855 55.9335Z" fill="white" fill-opacity="0.1"/>
<path d="M348.836 138.118C348.798 139.246 348.49 140.381 347.887 141.427C347.283 142.473 346.454 143.307 345.496 143.903C346.624 143.941 347.759 144.249 348.805 144.853C349.85 145.456 350.684 146.286 351.281 147.243C351.319 146.116 351.626 144.98 352.23 143.935C352.834 142.889 353.663 142.055 354.621 141.458C353.493 141.421 352.358 141.113 351.312 140.509C350.267 139.905 349.432 139.076 348.836 138.118Z" fill="white" fill-opacity="0.1"/>
<path d="M339.262 421.824C339.224 422.952 338.916 424.087 338.312 425.133C337.709 426.179 336.879 427.013 335.921 427.609C337.049 427.647 338.185 427.955 339.23 428.559C340.276 429.162 341.11 429.992 341.707 430.95C341.744 429.822 342.052 428.686 342.656 427.641C343.259 426.595 344.089 425.761 345.047 425.164C343.919 425.127 342.784 424.819 341.738 424.215C340.692 423.612 339.858 422.782 339.262 421.824Z" fill="white" fill-opacity="0.1"/>
<path d="M96.0857 215.8C96.048 216.928 95.7403 218.063 95.1366 219.109C94.5329 220.154 93.7036 220.988 92.7456 221.585C93.8736 221.623 95.0089 221.931 96.0545 222.534C97.1001 223.138 97.9342 223.967 98.5309 224.925C98.5686 223.797 98.8763 222.662 99.48 221.616C100.084 220.571 100.913 219.737 101.871 219.14C100.743 219.102 99.6078 218.794 98.5622 218.191C97.5165 217.587 96.6824 216.758 96.0857 215.8Z" fill="white" fill-opacity="0.1"/>
<path d="M313.933 640.796C313.896 641.924 313.588 643.059 312.984 644.105C312.381 645.15 311.551 645.985 310.593 646.581C311.721 646.619 312.857 646.927 313.902 647.53C314.948 648.134 315.782 648.963 316.379 649.921C316.416 648.793 316.724 647.658 317.328 646.612C317.931 645.567 318.761 644.733 319.719 644.136C318.591 644.098 317.455 643.791 316.41 643.187C315.364 642.583 314.53 641.754 313.933 640.796Z" fill="white" fill-opacity="0.1"/>
<path d="M127.613 680.198C127.575 681.326 127.268 682.461 126.664 683.507C126.06 684.553 125.231 685.387 124.273 685.984C125.401 686.021 126.536 686.329 127.582 686.933C128.627 687.536 129.462 688.366 130.058 689.324C130.096 688.196 130.404 687.06 131.007 686.015C131.611 684.969 132.44 684.135 133.398 683.538C132.27 683.501 131.135 683.193 130.09 682.589C129.044 681.986 128.21 681.156 127.613 680.198Z" fill="white" fill-opacity="0.1"/>
<path d="M156.879 281.66C156.841 282.788 156.533 283.923 155.93 284.969C155.326 286.015 154.497 286.849 153.539 287.445C154.667 287.483 155.802 287.791 156.847 288.395C157.893 288.998 158.727 289.828 159.324 290.785C159.362 289.658 159.669 288.522 160.273 287.477C160.877 286.431 161.706 285.597 162.664 285C161.536 284.963 160.401 284.655 159.355 284.051C158.309 283.447 157.475 282.618 156.879 281.66Z" fill="white" fill-opacity="0.1"/>
<path d="M253.703 171.33C253.665 172.458 253.358 173.593 252.754 174.639C252.15 175.685 251.321 176.519 250.363 177.115C251.491 177.153 252.626 177.461 253.672 178.064C254.717 178.668 255.551 179.497 256.148 180.455C256.186 179.327 256.494 178.192 257.097 177.147C257.701 176.101 258.53 175.267 259.488 174.67C258.36 174.632 257.225 174.325 256.179 173.721C255.134 173.117 254.3 172.288 253.703 171.33Z" fill="white" fill-opacity="0.1"/>
</g>
<defs>
<clipPath id="clip0_2009_682">
<rect width="360" height="780" fill="white"/>
</clipPath>
</defs>
</svg>
