<svg width="768" height="972" viewBox="0 0 768 972" fill="none" xmlns="http://www.w3.org/2000/svg">
<g clip-path="url(#clip0_2009_342)">
<rect width="768" height="972" fill="#21042F"/>
<path d="M36.121 317.28C37.249 317.317 38.3843 317.625 39.43 318.229C40.4756 318.832 41.3097 319.662 41.9064 320.62C41.9441 319.492 42.2518 318.356 42.8555 317.311C43.4592 316.265 44.2885 315.431 45.2464 314.834C44.1185 314.797 42.9832 314.489 41.9376 313.885C40.892 313.282 40.0579 312.452 39.4612 311.494C39.4235 312.622 39.1158 313.757 38.5121 314.803C37.9084 315.849 37.079 316.683 36.121 317.28Z" fill="white" fill-opacity="0.1"/>
<path d="M319.828 326.85C320.956 326.888 322.091 327.195 323.137 327.799C324.183 328.403 325.017 329.232 325.613 330.19C325.651 329.062 325.959 327.927 326.563 326.881C327.166 325.835 327.996 325.001 328.953 324.405C327.826 324.367 326.69 324.059 325.645 323.456C324.599 322.852 323.765 322.022 323.168 321.065C323.131 322.192 322.823 323.328 322.219 324.373C321.615 325.419 320.786 326.253 319.828 326.85Z" fill="white" fill-opacity="0.1"/>
<path d="M737.504 373.008C738.632 373.046 739.767 373.353 740.813 373.957C741.858 374.561 742.693 375.39 743.289 376.348C743.327 375.22 743.635 374.085 744.238 373.039C744.842 371.994 745.671 371.16 746.629 370.563C745.501 370.525 744.366 370.217 743.32 369.614C742.275 369.01 741.441 368.181 740.844 367.223C740.806 368.351 740.499 369.486 739.895 370.532C739.291 371.577 738.462 372.411 737.504 373.008Z" fill="white" fill-opacity="0.1"/>
<path d="M749.324 302.081C750.452 302.119 751.587 302.427 752.633 303.03C753.679 303.634 754.513 304.463 755.109 305.421C755.147 304.293 755.455 303.158 756.059 302.112C756.662 301.067 757.492 300.233 758.45 299.636C757.322 299.598 756.186 299.291 755.141 298.687C754.095 298.083 753.261 297.254 752.664 296.296C752.627 297.424 752.319 298.559 751.715 299.605C751.112 300.65 750.282 301.485 749.324 302.081Z" fill="white" fill-opacity="0.1"/>
<path d="M113.805 570.026C114.933 570.063 116.068 570.371 117.114 570.975C118.159 571.578 118.993 572.408 119.59 573.366C119.628 572.238 119.935 571.102 120.539 570.057C121.143 569.011 121.972 568.177 122.93 567.58C121.802 567.543 120.667 567.235 119.621 566.631C118.576 566.028 117.741 565.198 117.145 564.24C117.107 565.368 116.799 566.504 116.196 567.549C115.592 568.595 114.763 569.429 113.805 570.026Z" fill="white" fill-opacity="0.1"/>
<path d="M761.148 602.673C762.276 602.711 763.412 603.018 764.457 603.622C765.503 604.226 766.337 605.055 766.934 606.013C766.971 604.885 767.279 603.75 767.883 602.704C768.487 601.659 769.316 600.825 770.274 600.228C769.146 600.19 768.011 599.882 766.965 599.279C765.919 598.675 765.085 597.846 764.489 596.888C764.451 598.016 764.143 599.151 763.539 600.197C762.936 601.242 762.106 602.076 761.148 602.673Z" fill="white" fill-opacity="0.1"/>
<path d="M699.789 351.616C700.917 351.654 702.052 351.962 703.098 352.566C704.144 353.169 704.978 353.999 705.574 354.957C705.612 353.829 705.92 352.693 706.523 351.648C707.127 350.602 707.956 349.768 708.914 349.171C707.786 349.134 706.651 348.826 705.606 348.222C704.56 347.618 703.726 346.789 703.129 345.831C703.091 346.959 702.784 348.094 702.18 349.14C701.576 350.186 700.747 351.02 699.789 351.616Z" fill="white" fill-opacity="0.1"/>
<path d="M699.789 506.416C700.917 506.454 702.052 506.762 703.098 507.365C704.144 507.969 704.978 508.798 705.574 509.756C705.612 508.628 705.92 507.493 706.523 506.447C707.127 505.402 707.956 504.568 708.914 503.971C707.786 503.933 706.651 503.626 705.606 503.022C704.56 502.418 703.726 501.589 703.129 500.631C703.091 501.759 702.784 502.894 702.18 503.94C701.576 504.985 700.747 505.82 699.789 506.416Z" fill="white" fill-opacity="0.1"/>
<path d="M538.797 352.18C539.925 352.218 541.06 352.525 542.106 353.129C543.151 353.733 543.986 354.562 544.582 355.52C544.62 354.392 544.928 353.257 545.531 352.211C546.135 351.165 546.964 350.331 547.922 349.735C546.794 349.697 545.659 349.389 544.613 348.786C543.568 348.182 542.734 347.353 542.137 346.395C542.099 347.523 541.792 348.658 541.188 349.703C540.584 350.749 539.755 351.583 538.797 352.18Z" fill="white" fill-opacity="0.1"/>
<path d="M578.203 538.502C579.331 538.54 580.466 538.848 581.512 539.451C582.558 540.055 583.392 540.884 583.988 541.842C584.026 540.714 584.334 539.579 584.938 538.533C585.541 537.488 586.371 536.654 587.328 536.057C586.201 536.019 585.065 535.712 584.02 535.108C582.974 534.504 582.14 533.675 581.543 532.717C581.506 533.845 581.198 534.98 580.594 536.026C579.99 537.071 579.161 537.906 578.203 538.502Z" fill="white" fill-opacity="0.1"/>
<path d="M179.664 509.232C180.792 509.269 181.927 509.577 182.973 510.181C184.019 510.784 184.853 511.614 185.449 512.572C185.487 511.444 185.795 510.308 186.398 509.263C187.002 508.217 187.831 507.383 188.789 506.787C187.661 506.749 186.526 506.441 185.481 505.837C184.435 505.234 183.601 504.404 183.004 503.446C182.966 504.574 182.659 505.71 182.055 506.755C181.451 507.801 180.622 508.635 179.664 509.232Z" fill="white" fill-opacity="0.1"/>
<path d="M69.3359 412.411C70.4638 412.449 71.5992 412.757 72.6448 413.36C73.6904 413.964 74.5246 414.793 75.1212 415.751C75.1589 414.623 75.4666 413.488 76.0703 412.443C76.674 411.397 77.5033 410.563 78.4613 409.966C77.3333 409.928 76.1981 409.621 75.1525 409.017C74.1068 408.413 73.2727 407.584 72.6761 406.626C72.6383 407.754 72.3306 408.889 71.7269 409.935C71.1232 410.981 70.2939 411.815 69.3359 412.411Z" fill="white" fill-opacity="0.1"/>
<path d="M158.255 103.568C159.026 104.393 159.612 105.413 159.924 106.579C160.237 107.746 160.24 108.922 159.984 110.021C160.809 109.25 161.829 108.665 162.995 108.352C164.162 108.04 165.338 108.037 166.437 108.292C165.666 107.468 165.081 106.447 164.768 105.281C164.456 104.115 164.453 102.939 164.708 101.839C163.884 102.61 162.863 103.195 161.697 103.508C160.531 103.82 159.355 103.824 158.255 103.568Z" fill="white" fill-opacity="0.1"/>
<path d="M257.369 120.684C258.14 121.508 258.725 122.528 259.037 123.695C259.35 124.861 259.353 126.037 259.098 127.136C259.922 126.365 260.942 125.78 262.109 125.468C263.275 125.155 264.451 125.152 265.55 125.407C264.779 124.583 264.194 123.563 263.882 122.396C263.569 121.23 263.566 120.054 263.821 118.955C262.997 119.726 261.977 120.311 260.811 120.623C259.644 120.936 258.468 120.939 257.369 120.684Z" fill="white" fill-opacity="0.1"/>
<path d="M451.212 328.061C451.983 328.885 452.569 329.905 452.881 331.071C453.194 332.238 453.197 333.414 452.941 334.513C453.766 333.742 454.786 333.157 455.952 332.845C457.119 332.532 458.295 332.529 459.394 332.784C458.623 331.96 458.038 330.94 457.725 329.773C457.413 328.607 457.41 327.431 457.665 326.332C456.841 327.102 455.82 327.688 454.654 328C453.488 328.313 452.312 328.316 451.212 328.061Z" fill="white" fill-opacity="0.1"/>
<path d="M713.916 656.042C714.686 656.866 715.272 657.887 715.584 659.053C715.897 660.219 715.9 661.395 715.645 662.495C716.469 661.724 717.489 661.139 718.655 660.826C719.822 660.514 720.998 660.51 722.097 660.766C721.326 659.941 720.741 658.921 720.429 657.755C720.116 656.589 720.113 655.412 720.368 654.313C719.544 655.084 718.524 655.669 717.357 655.982C716.191 656.294 715.015 656.297 713.916 656.042Z" fill="white" fill-opacity="0.1"/>
<path d="M133.58 354.331C134.351 355.155 134.936 356.176 135.248 357.342C135.561 358.508 135.564 359.684 135.309 360.784C136.133 360.013 137.153 359.428 138.32 359.115C139.486 358.803 140.662 358.799 141.761 359.055C140.99 358.23 140.405 357.21 140.093 356.044C139.78 354.878 139.777 353.701 140.032 352.602C139.208 353.373 138.188 353.958 137.021 354.271C135.855 354.583 134.679 354.587 133.58 354.331Z" fill="white" fill-opacity="0.1"/>
<path d="M568.236 835.157C569.007 835.981 569.592 837.002 569.904 838.168C570.217 839.334 570.22 840.511 569.965 841.61C570.789 840.839 571.809 840.254 572.976 839.941C574.142 839.629 575.318 839.625 576.417 839.881C575.647 839.057 575.061 838.036 574.749 836.87C574.436 835.704 574.433 834.528 574.689 833.428C573.864 834.199 572.844 834.784 571.678 835.097C570.511 835.409 569.335 835.413 568.236 835.157Z" fill="white" fill-opacity="0.1"/>
<path d="M723.072 802.917C723.843 803.741 724.428 804.762 724.74 805.928C725.053 807.094 725.056 808.27 724.801 809.37C725.625 808.599 726.645 808.014 727.812 807.701C728.978 807.389 730.154 807.385 731.253 807.641C730.483 806.816 729.897 805.796 729.585 804.63C729.272 803.464 729.269 802.287 729.524 801.188C728.7 801.959 727.68 802.544 726.514 802.857C725.347 803.169 724.171 803.172 723.072 802.917Z" fill="white" fill-opacity="0.1"/>
<path d="M702.373 614.249C703.143 615.073 703.729 616.094 704.041 617.26C704.354 618.426 704.357 619.602 704.102 620.702C704.926 619.931 705.946 619.346 707.112 619.033C708.279 618.721 709.455 618.717 710.554 618.973C709.783 618.148 709.198 617.128 708.886 615.962C708.573 614.796 708.57 613.619 708.825 612.52C708.001 613.291 706.981 613.876 705.814 614.189C704.648 614.501 703.472 614.505 702.373 614.249Z" fill="white" fill-opacity="0.1"/>
<path d="M592.912 723.708C593.683 724.532 594.268 725.553 594.58 726.719C594.893 727.885 594.896 729.061 594.641 730.161C595.465 729.39 596.485 728.805 597.652 728.492C598.818 728.18 599.994 728.176 601.093 728.432C600.322 727.607 599.737 726.587 599.425 725.421C599.112 724.255 599.109 723.078 599.364 721.979C598.54 722.75 597.52 723.335 596.353 723.648C595.187 723.96 594.011 723.964 592.912 723.708Z" fill="white" fill-opacity="0.1"/>
<path d="M629.533 913.173C630.304 913.997 630.889 915.017 631.201 916.184C631.514 917.35 631.517 918.526 631.262 919.626C632.086 918.855 633.106 918.269 634.273 917.957C635.439 917.644 636.615 917.641 637.714 917.896C636.943 917.072 636.358 916.052 636.046 914.886C635.733 913.719 635.73 912.543 635.985 911.444C635.161 912.215 634.141 912.8 632.975 913.112C631.808 913.425 630.632 913.428 629.533 913.173Z" fill="white" fill-opacity="0.1"/>
<path d="M588.138 500.81C588.909 501.634 589.494 502.654 589.807 503.82C590.119 504.987 590.123 506.163 589.867 507.262C590.691 506.491 591.712 505.906 592.878 505.594C594.044 505.281 595.221 505.278 596.32 505.533C595.549 504.709 594.964 503.689 594.651 502.522C594.339 501.356 594.335 500.18 594.591 499.081C593.767 499.852 592.746 500.437 591.58 500.749C590.414 501.062 589.237 501.065 588.138 500.81Z" fill="white" fill-opacity="0.1"/>
<path d="M484.248 660.421C485.018 661.245 485.604 662.266 485.916 663.432C486.229 664.598 486.232 665.774 485.977 666.874C486.801 666.103 487.821 665.517 488.987 665.205C490.154 664.892 491.33 664.889 492.429 665.145C491.658 664.32 491.073 663.3 490.761 662.134C490.448 660.967 490.445 659.791 490.7 658.692C489.876 659.463 488.856 660.048 487.689 660.361C486.523 660.673 485.347 660.676 484.248 660.421Z" fill="white" fill-opacity="0.1"/>
<path d="M223.138 357.912C223.909 358.736 224.494 359.757 224.807 360.923C225.119 362.089 225.123 363.266 224.867 364.365C225.691 363.594 226.712 363.009 227.878 362.696C229.044 362.384 230.221 362.38 231.32 362.636C230.549 361.812 229.964 360.791 229.651 359.625C229.339 358.459 229.335 357.282 229.591 356.183C228.767 356.954 227.746 357.539 226.58 357.852C225.414 358.164 224.237 358.168 223.138 357.912Z" fill="white" fill-opacity="0.1"/>
<path d="M213.583 211.437C214.354 212.261 214.94 213.281 215.252 214.447C215.565 215.614 215.568 216.79 215.313 217.889C216.137 217.118 217.157 216.533 218.323 216.221C219.49 215.908 220.666 215.905 221.765 216.16C220.994 215.336 220.409 214.316 220.097 213.149C219.784 211.983 219.781 210.807 220.036 209.708C219.212 210.478 218.192 211.064 217.025 211.376C215.859 211.689 214.683 211.692 213.583 211.437Z" fill="white" fill-opacity="0.1"/>
<path d="M175.373 9.23339C176.143 10.0576 176.729 11.078 177.041 12.2443C177.354 13.4106 177.357 14.5868 177.102 15.6861C177.926 14.9151 178.946 14.3299 180.112 14.0175C181.279 13.705 182.455 13.7016 183.554 13.957C182.783 13.1328 182.198 12.1125 181.886 10.9463C181.573 9.77999 181.57 8.60373 181.825 7.50445C181.001 8.27534 179.981 8.86053 178.814 9.17302C177.648 9.48552 176.472 9.48891 175.373 9.23339Z" fill="white" fill-opacity="0.1"/>
<path d="M766.546 260.258C765.722 261.029 764.701 261.614 763.535 261.927C762.369 262.239 761.193 262.243 760.093 261.987C760.864 262.812 761.449 263.832 761.762 264.998C762.074 266.164 762.078 267.341 761.822 268.44C762.646 267.669 763.667 267.084 764.833 266.771C765.999 266.459 767.176 266.455 768.275 266.711C767.504 265.887 766.919 264.866 766.606 263.7C766.294 262.534 766.29 261.358 766.546 260.258Z" fill="white" fill-opacity="0.1"/>
<path d="M749.429 359.369C748.604 360.14 747.584 360.725 746.418 361.037C745.252 361.35 744.075 361.353 742.976 361.098C743.747 361.922 744.332 362.942 744.645 364.109C744.957 365.275 744.961 366.451 744.705 367.55C745.529 366.779 746.55 366.194 747.716 365.882C748.882 365.569 750.058 365.566 751.158 365.821C750.387 364.997 749.802 363.977 749.489 362.811C749.177 361.644 749.173 360.468 749.429 359.369Z" fill="white" fill-opacity="0.1"/>
<path d="M542.05 553.212C541.226 553.983 540.205 554.569 539.039 554.881C537.873 555.194 536.696 555.197 535.597 554.941C536.368 555.766 536.953 556.786 537.266 557.952C537.578 559.119 537.582 560.295 537.326 561.394C538.15 560.623 539.171 560.038 540.337 559.725C541.503 559.413 542.679 559.41 543.779 559.665C543.008 558.841 542.423 557.82 542.11 556.654C541.798 555.488 541.794 554.312 542.05 553.212Z" fill="white" fill-opacity="0.1"/>
<path d="M214.073 815.915C213.249 816.685 212.229 817.271 211.062 817.583C209.896 817.896 208.72 817.899 207.621 817.644C208.391 818.468 208.977 819.488 209.289 820.654C209.602 821.821 209.605 822.997 209.35 824.096C210.174 823.325 211.194 822.74 212.36 822.428C213.527 822.115 214.703 822.112 215.802 822.367C215.031 821.543 214.446 820.523 214.134 819.356C213.821 818.19 213.818 817.014 214.073 815.915Z" fill="white" fill-opacity="0.1"/>
<path d="M255.866 874.427C255.042 875.198 254.022 875.783 252.855 876.096C251.689 876.408 250.513 876.412 249.414 876.156C250.184 876.981 250.77 878.001 251.082 879.167C251.395 880.333 251.398 881.51 251.143 882.609C251.967 881.838 252.987 881.253 254.153 880.94C255.32 880.628 256.496 880.624 257.595 880.88C256.824 880.056 256.239 879.035 255.927 877.869C255.614 876.703 255.611 875.527 255.866 874.427Z" fill="white" fill-opacity="0.1"/>
<path d="M515.784 235.58C514.96 236.351 513.94 236.936 512.773 237.248C511.607 237.561 510.431 237.564 509.332 237.309C510.102 238.133 510.688 239.153 511 240.32C511.313 241.486 511.316 242.662 511.061 243.761C511.885 242.99 512.905 242.405 514.071 242.093C515.238 241.78 516.414 241.777 517.513 242.032C516.742 241.208 516.157 240.188 515.845 239.021C515.532 237.855 515.529 236.679 515.784 235.58Z" fill="white" fill-opacity="0.1"/>
<path d="M34.9561 670.236C34.1318 671.007 33.1114 671.592 31.9451 671.904C30.7789 672.217 29.6027 672.22 28.5034 671.965C29.2743 672.789 29.8595 673.809 30.172 674.976C30.4845 676.142 30.4879 677.318 30.2324 678.417C31.0566 677.647 32.077 677.061 33.2432 676.749C34.4095 676.436 35.5857 676.433 36.685 676.689C35.9141 675.864 35.3289 674.844 35.0164 673.678C34.7039 672.511 34.7005 671.335 34.9561 670.236Z" fill="white" fill-opacity="0.1"/>
<path d="M67.1983 825.071C66.374 825.842 65.3536 826.427 64.1873 826.739C63.0211 827.052 61.8448 827.055 60.7456 826.8C61.5165 827.624 62.1017 828.644 62.4142 829.811C62.7267 830.977 62.7301 832.153 62.4746 833.252C63.2988 832.482 64.3192 831.896 65.4854 831.584C66.6516 831.271 67.8279 831.268 68.9272 831.523C68.1563 830.699 67.5711 829.679 67.2586 828.513C66.9461 827.346 66.9427 826.17 67.1983 825.071Z" fill="white" fill-opacity="0.1"/>
<path d="M154.765 895.92C153.94 896.691 152.92 897.277 151.754 897.589C150.587 897.902 149.411 897.905 148.312 897.649C149.083 898.474 149.668 899.494 149.981 900.66C150.293 901.827 150.296 903.003 150.041 904.102C150.865 903.331 151.886 902.746 153.052 902.433C154.218 902.121 155.394 902.118 156.494 902.373C155.723 901.549 155.138 900.529 154.825 899.362C154.513 898.196 154.509 897.02 154.765 895.92Z" fill="white" fill-opacity="0.1"/>
<path d="M255.866 804.374C255.042 805.144 254.022 805.73 252.855 806.042C251.689 806.355 250.513 806.358 249.414 806.103C250.184 806.927 250.77 807.947 251.082 809.113C251.395 810.28 251.398 811.456 251.143 812.555C251.967 811.784 252.987 811.199 254.153 810.887C255.32 810.574 256.496 810.571 257.595 810.826C256.824 810.002 256.239 808.982 255.927 807.815C255.614 806.649 255.611 805.473 255.866 804.374Z" fill="white" fill-opacity="0.1"/>
<path d="M146.405 694.913C145.581 695.684 144.561 696.269 143.394 696.581C142.228 696.894 141.052 696.897 139.953 696.642C140.724 697.466 141.309 698.486 141.621 699.653C141.934 700.819 141.937 701.995 141.682 703.094C142.506 702.323 143.526 701.738 144.692 701.426C145.859 701.113 147.035 701.11 148.134 701.365C147.363 700.541 146.778 699.521 146.466 698.354C146.153 697.188 146.15 696.012 146.405 694.913Z" fill="white" fill-opacity="0.1"/>
<path d="M369.304 690.137C368.479 690.908 367.459 691.493 366.293 691.806C365.127 692.118 363.95 692.122 362.851 691.866C363.622 692.69 364.207 693.711 364.52 694.877C364.832 696.043 364.836 697.22 364.58 698.319C365.404 697.548 366.425 696.963 367.591 696.65C368.757 696.338 369.933 696.334 371.033 696.59C370.262 695.766 369.677 694.745 369.364 693.579C369.052 692.413 369.048 691.236 369.304 690.137Z" fill="white" fill-opacity="0.1"/>
<path d="M209.69 586.249C208.866 587.02 207.846 587.606 206.68 587.918C205.513 588.231 204.337 588.234 203.238 587.979C204.009 588.803 204.594 589.823 204.906 590.989C205.219 592.156 205.222 593.332 204.967 594.431C205.791 593.66 206.811 593.075 207.978 592.763C209.144 592.45 210.32 592.447 211.419 592.702C210.648 591.878 210.063 590.858 209.751 589.691C209.438 588.525 209.435 587.349 209.69 586.249Z" fill="white" fill-opacity="0.1"/>
<path d="M512.198 325.138C511.374 325.909 510.354 326.494 509.187 326.807C508.021 327.119 506.845 327.123 505.746 326.867C506.516 327.691 507.102 328.712 507.414 329.878C507.727 331.044 507.73 332.221 507.475 333.32C508.299 332.549 509.319 331.964 510.485 331.651C511.652 331.339 512.828 331.335 513.927 331.591C513.156 330.767 512.571 329.746 512.259 328.58C511.946 327.414 511.943 326.237 512.198 325.138Z" fill="white" fill-opacity="0.1"/>
<path d="M658.679 315.585C657.854 316.356 656.834 316.942 655.668 317.254C654.502 317.567 653.325 317.57 652.226 317.314C652.997 318.139 653.582 319.159 653.895 320.325C654.207 321.492 654.211 322.668 653.955 323.767C654.779 322.996 655.8 322.411 656.966 322.099C658.132 321.786 659.308 321.783 660.408 322.038C659.637 321.214 659.052 320.194 658.739 319.027C658.427 317.861 658.423 316.685 658.679 315.585Z" fill="white" fill-opacity="0.1"/>
<path d="M554.394 44.1245C553.569 44.8954 552.549 45.4807 551.383 45.7932C550.216 46.1056 549.04 46.109 547.941 45.8535C548.712 46.6778 549.297 47.6982 549.61 48.8644C549.922 50.0306 549.925 51.2069 549.67 52.3061C550.494 51.5352 551.514 50.9501 552.681 50.6376C553.847 50.3251 555.023 50.3217 556.123 50.5772C555.352 49.753 554.766 48.7326 554.454 47.5664C554.141 46.4001 554.138 45.2238 554.394 44.1245Z" fill="white" fill-opacity="0.1"/>
<path d="M494.855 55.9335C494.818 57.0615 494.51 58.1968 493.906 59.2425C493.302 60.2881 492.473 61.1222 491.515 61.7189C492.643 61.7566 493.778 62.0643 494.824 62.668C495.87 63.2717 496.704 64.101 497.3 65.0589C497.338 63.931 497.646 62.7957 498.25 61.7501C498.853 60.7045 499.683 59.8704 500.641 59.2737C499.513 59.236 498.377 58.9283 497.332 58.3246C496.286 57.7209 495.452 56.8915 494.855 55.9335Z" fill="white" fill-opacity="0.1"/>
<path d="M552.836 138.118C552.798 139.246 552.49 140.381 551.887 141.427C551.283 142.473 550.454 143.307 549.496 143.903C550.624 143.941 551.759 144.249 552.805 144.853C553.85 145.456 554.684 146.286 555.281 147.243C555.319 146.116 555.626 144.98 556.23 143.935C556.834 142.889 557.663 142.055 558.621 141.458C557.493 141.421 556.358 141.113 555.312 140.509C554.267 139.905 553.432 139.076 552.836 138.118Z" fill="white" fill-opacity="0.1"/>
<path d="M543.262 421.824C543.224 422.952 542.916 424.087 542.312 425.133C541.709 426.179 540.879 427.013 539.921 427.609C541.049 427.647 542.185 427.955 543.23 428.559C544.276 429.162 545.11 429.992 545.707 430.95C545.744 429.822 546.052 428.686 546.656 427.641C547.259 426.595 548.089 425.761 549.047 425.164C547.919 425.127 546.784 424.819 545.738 424.215C544.692 423.612 543.858 422.782 543.262 421.824Z" fill="white" fill-opacity="0.1"/>
<path d="M497.105 839.501C497.068 840.629 496.76 841.764 496.156 842.81C495.552 843.855 494.723 844.69 493.765 845.286C494.893 845.324 496.028 845.632 497.074 846.235C498.12 846.839 498.954 847.668 499.55 848.626C499.588 847.498 499.896 846.363 500.5 845.318C501.103 844.272 501.933 843.438 502.891 842.841C501.763 842.803 500.627 842.496 499.582 841.892C498.536 841.288 497.702 840.459 497.105 839.501Z" fill="white" fill-opacity="0.1"/>
<path d="M568.031 851.322C567.993 852.45 567.686 853.585 567.082 854.631C566.478 855.677 565.649 856.511 564.691 857.108C565.819 857.145 566.954 857.453 568 858.057C569.045 858.66 569.88 859.49 570.476 860.448C570.514 859.32 570.822 858.184 571.425 857.139C572.029 856.093 572.858 855.259 573.816 854.662C572.688 854.625 571.553 854.317 570.507 853.713C569.462 853.11 568.628 852.28 568.031 851.322Z" fill="white" fill-opacity="0.1"/>
<path d="M300.086 215.8C300.048 216.928 299.74 218.063 299.137 219.109C298.533 220.154 297.704 220.988 296.746 221.585C297.874 221.623 299.009 221.931 300.055 222.534C301.1 223.138 301.934 223.967 302.531 224.925C302.569 223.797 302.876 222.662 303.48 221.616C304.084 220.571 304.913 219.737 305.871 219.14C304.743 219.102 303.608 218.794 302.562 218.191C301.517 217.587 300.682 216.758 300.086 215.8Z" fill="white" fill-opacity="0.1"/>
<path d="M267.441 863.143C267.403 864.271 267.096 865.407 266.492 866.452C265.888 867.498 265.059 868.332 264.101 868.929C265.229 868.967 266.364 869.274 267.41 869.878C268.456 870.482 269.29 871.311 269.886 872.269C269.924 871.141 270.232 870.006 270.835 868.96C271.439 867.914 272.269 867.08 273.226 866.484C272.099 866.446 270.963 866.138 269.918 865.535C268.872 864.931 268.038 864.101 267.441 863.143Z" fill="white" fill-opacity="0.1"/>
<path d="M399.722 949.83C399.685 950.958 399.377 952.093 398.773 953.139C398.17 954.185 397.34 955.019 396.382 955.615C397.51 955.653 398.646 955.961 399.691 956.564C400.737 957.168 401.571 957.997 402.168 958.955C402.205 957.827 402.513 956.692 403.117 955.647C403.72 954.601 404.55 953.767 405.508 953.17C404.38 953.132 403.245 952.825 402.199 952.221C401.153 951.617 400.319 950.788 399.722 949.83Z" fill="white" fill-opacity="0.1"/>
<path d="M511.742 938.011C511.704 939.139 511.397 940.274 510.793 941.32C510.189 942.365 509.36 943.199 508.402 943.796C509.53 943.834 510.665 944.141 511.711 944.745C512.756 945.349 513.59 946.178 514.187 947.136C514.225 946.008 514.533 944.873 515.136 943.827C515.74 942.782 516.569 941.948 517.527 941.351C516.399 941.313 515.264 941.005 514.218 940.402C513.173 939.798 512.339 938.969 511.742 938.011Z" fill="white" fill-opacity="0.1"/>
<path d="M518.496 801.787C518.458 802.915 518.15 804.05 517.547 805.096C516.943 806.142 516.114 806.976 515.156 807.572C516.284 807.61 517.419 807.918 518.465 808.522C519.51 809.125 520.344 809.954 520.941 810.912C520.979 809.785 521.286 808.649 521.89 807.604C522.494 806.558 523.323 805.724 524.281 805.127C523.153 805.09 522.018 804.782 520.972 804.178C519.927 803.574 519.093 802.745 518.496 801.787Z" fill="white" fill-opacity="0.1"/>
<path d="M363.695 801.787C363.657 802.915 363.35 804.05 362.746 805.096C362.142 806.142 361.313 806.976 360.355 807.572C361.483 807.61 362.618 807.918 363.664 808.522C364.71 809.125 365.544 809.954 366.14 810.912C366.178 809.785 366.486 808.649 367.089 807.604C367.693 806.558 368.522 805.724 369.48 805.127C368.352 805.09 367.217 804.782 366.172 804.178C365.126 803.574 364.292 802.745 363.695 801.787Z" fill="white" fill-opacity="0.1"/>
<path d="M255.617 961.651C255.579 962.779 255.272 963.915 254.668 964.96C254.064 966.006 253.235 966.84 252.277 967.437C253.405 967.474 254.54 967.782 255.586 968.386C256.631 968.989 257.465 969.819 258.062 970.777C258.1 969.649 258.408 968.514 259.011 967.468C259.615 966.422 260.444 965.588 261.402 964.991C260.274 964.954 259.139 964.646 258.093 964.042C257.048 963.439 256.214 962.609 255.617 961.651Z" fill="white" fill-opacity="0.1"/>
<path d="M517.933 640.796C517.896 641.924 517.588 643.059 516.984 644.105C516.381 645.15 515.551 645.985 514.593 646.581C515.721 646.619 516.857 646.927 517.902 647.53C518.948 648.134 519.782 648.963 520.379 649.921C520.416 648.793 520.724 647.658 521.328 646.612C521.931 645.567 522.761 644.733 523.719 644.136C522.591 644.098 521.455 643.791 520.41 643.187C519.364 642.583 518.53 641.754 517.933 640.796Z" fill="white" fill-opacity="0.1"/>
<path d="M331.613 680.198C331.575 681.326 331.268 682.461 330.664 683.507C330.06 684.553 329.231 685.387 328.273 685.984C329.401 686.021 330.536 686.329 331.582 686.933C332.627 687.536 333.462 688.366 334.058 689.324C334.096 688.196 334.404 687.06 335.007 686.015C335.611 684.969 336.44 684.135 337.398 683.538C336.27 683.501 335.135 683.193 334.09 682.589C333.044 681.986 332.21 681.156 331.613 680.198Z" fill="white" fill-opacity="0.1"/>
<path d="M360.879 281.66C360.841 282.788 360.533 283.923 359.93 284.969C359.326 286.015 358.497 286.849 357.539 287.445C358.667 287.483 359.802 287.791 360.847 288.395C361.893 288.998 362.727 289.828 363.324 290.785C363.362 289.658 363.669 288.522 364.273 287.477C364.877 286.431 365.706 285.597 366.664 285C365.536 284.963 364.401 284.655 363.355 284.051C362.309 283.447 361.475 282.618 360.879 281.66Z" fill="white" fill-opacity="0.1"/>
<path d="M457.703 171.33C457.665 172.458 457.358 173.593 456.754 174.639C456.15 175.685 455.321 176.519 454.363 177.115C455.491 177.153 456.626 177.461 457.672 178.064C458.717 178.668 459.551 179.497 460.148 180.455C460.186 179.327 460.494 178.192 461.097 177.147C461.701 176.101 462.53 175.267 463.488 174.67C462.36 174.632 461.225 174.325 460.179 173.721C459.134 173.117 458.3 172.288 457.703 171.33Z" fill="white" fill-opacity="0.1"/>
<path d="M192.012 53.1191C191.974 54.247 191.666 55.3824 191.062 56.428C190.459 57.4736 189.629 58.3078 188.671 58.9044C189.799 58.9421 190.935 59.2498 191.98 59.8535C193.026 60.4572 193.86 61.2865 194.457 62.2445C194.494 61.1165 194.802 59.9813 195.406 58.9357C196.009 57.89 196.839 57.0559 197.797 56.4593C196.669 56.4215 195.534 56.1138 194.488 55.5101C193.442 54.9064 192.608 54.0771 192.012 53.1191Z" fill="white" fill-opacity="0.1"/>
<path d="M573.66 1.33195C573.622 2.45992 573.315 3.59525 572.711 4.64091C572.107 5.68653 571.278 6.52066 570.32 7.1173C571.448 7.15502 572.583 7.46273 573.629 8.06643C574.674 8.67011 575.508 9.49942 576.105 10.4574C576.143 9.32944 576.451 8.19418 577.054 7.14857C577.658 6.10293 578.487 5.26879 579.445 4.67216C578.317 4.63443 577.182 4.32672 576.136 3.72303C575.091 3.11932 574.257 2.28995 573.66 1.33195Z" fill="white" fill-opacity="0.1"/>
<path d="M-12.2794 261.446C-10.9906 260.699 -9.86143 259.633 -9.02117 258.279C-8.18094 256.924 -7.72745 255.439 -7.63047 253.953C-6.8834 255.242 -5.8176 256.371 -4.46332 257.211C-3.10908 258.051 -1.62417 258.505 -0.137654 258.602C-1.42646 259.349 -2.55551 260.414 -3.39572 261.769C-4.23597 263.123 -4.68946 264.608 -4.78642 266.095C-5.53349 264.806 -6.59928 263.677 -7.95354 262.836C-9.30785 261.996 -10.7929 261.543 -12.2794 261.446Z" fill="white" fill-opacity="0.1"/>
<path d="M43.8026 399.147C45.0915 398.4 46.2206 397.334 47.0609 395.98C47.9011 394.625 48.3546 393.14 48.4516 391.654C49.1986 392.943 50.2644 394.072 51.6187 394.912C52.9729 395.752 54.4579 396.206 55.9444 396.303C54.6556 397.05 53.5265 398.116 52.6863 399.47C51.8461 400.824 51.3926 402.309 51.2956 403.796C50.5485 402.507 49.4828 401.378 48.1285 400.538C46.7742 399.697 45.2892 399.244 43.8026 399.147Z" fill="white" fill-opacity="0.1"/>
<path d="M24.1346 556.614C22.695 556.231 21.1429 556.186 19.5911 556.549C18.0394 556.913 16.6687 557.642 15.549 558.625C15.9321 557.185 15.9769 555.633 15.6134 554.081C15.2499 552.53 14.5206 551.159 13.538 550.039C14.9776 550.422 16.5296 550.467 18.0813 550.104C19.6331 549.74 21.0038 549.011 22.1235 548.028C21.7404 549.468 21.6957 551.02 22.0591 552.571C22.4226 554.123 23.152 555.494 24.1346 556.614Z" fill="white" fill-opacity="0.1"/>
<path d="M123.224 477.888C121.785 477.505 120.233 477.46 118.681 477.824C117.129 478.187 115.759 478.917 114.639 479.899C115.022 478.46 115.067 476.907 114.703 475.356C114.34 473.804 113.61 472.433 112.628 471.314C114.067 471.697 115.619 471.741 117.171 471.378C118.723 471.015 120.094 470.285 121.213 469.303C120.83 470.742 120.785 472.294 121.149 473.846C121.512 475.398 122.242 476.768 123.224 477.888Z" fill="white" fill-opacity="0.1"/>
<path d="M748.231 942.236C747.024 941.362 745.591 940.763 744.012 940.546C742.433 940.329 740.892 940.518 739.495 941.034C740.369 939.828 740.967 938.395 741.184 936.816C741.401 935.237 741.212 933.696 740.697 932.298C741.903 933.172 743.336 933.771 744.915 933.988C746.493 934.205 748.035 934.016 749.432 933.5C748.558 934.706 747.96 936.139 747.743 937.718C747.526 939.297 747.715 940.838 748.231 942.236Z" fill="white" fill-opacity="0.1"/>
</g>
<defs>
<clipPath id="clip0_2009_342">
<rect width="768" height="972" fill="white"/>
</clipPath>
</defs>
</svg>
