<svg width="1920" height="972" viewBox="0 0 1920 972" fill="none" xmlns="http://www.w3.org/2000/svg">
<g clip-path="url(#clip0_2009_2)">
<rect width="1920" height="972" fill="#21042F"/>
<path d="M529.936 375.259C531.064 375.297 532.2 375.604 533.245 376.208C534.291 376.812 535.125 377.641 535.722 378.599C535.76 377.471 536.067 376.336 536.671 375.29C537.275 374.245 538.104 373.41 539.062 372.814C537.934 372.776 536.799 372.468 535.753 371.865C534.707 371.261 533.873 370.432 533.277 369.474C533.239 370.602 532.931 371.737 532.328 372.783C531.724 373.828 530.894 374.662 529.936 375.259Z" fill="white" fill-opacity="0.1"/>
<path d="M612.12 317.28C613.248 317.317 614.383 317.625 615.429 318.229C616.475 318.832 617.309 319.662 617.905 320.62C617.943 319.492 618.251 318.356 618.855 317.311C619.458 316.265 620.288 315.431 621.245 314.834C620.118 314.797 618.982 314.489 617.937 313.885C616.891 313.282 616.057 312.452 615.46 311.494C615.423 312.622 615.115 313.757 614.511 314.803C613.907 315.849 613.078 316.683 612.12 317.28Z" fill="white" fill-opacity="0.1"/>
<path d="M895.826 326.85C896.954 326.888 898.089 327.195 899.135 327.799C900.181 328.403 901.015 329.232 901.611 330.19C901.649 329.062 901.957 327.927 902.561 326.881C903.164 325.835 903.994 325.001 904.951 324.405C903.824 324.367 902.688 324.059 901.643 323.456C900.597 322.852 899.763 322.022 899.166 321.065C899.129 322.192 898.821 323.328 898.217 324.373C897.613 325.419 896.784 326.253 895.826 326.85Z" fill="white" fill-opacity="0.1"/>
<path d="M1313.5 373.008C1314.63 373.046 1315.77 373.353 1316.81 373.957C1317.86 374.561 1318.69 375.39 1319.29 376.348C1319.33 375.22 1319.63 374.085 1320.24 373.039C1320.84 371.994 1321.67 371.16 1322.63 370.563C1321.5 370.525 1320.37 370.217 1319.32 369.614C1318.27 369.01 1317.44 368.181 1316.84 367.223C1316.81 368.351 1316.5 369.486 1315.89 370.532C1315.29 371.577 1314.46 372.411 1313.5 373.008Z" fill="white" fill-opacity="0.1"/>
<path d="M1325.33 302.081C1326.45 302.119 1327.59 302.427 1328.63 303.03C1329.68 303.634 1330.51 304.463 1331.11 305.421C1331.15 304.293 1331.46 303.158 1332.06 302.112C1332.66 301.067 1333.49 300.233 1334.45 299.636C1333.32 299.598 1332.19 299.291 1331.14 298.687C1330.1 298.083 1329.26 297.254 1328.67 296.296C1328.63 297.424 1328.32 298.559 1327.72 299.605C1327.11 300.65 1326.28 301.485 1325.33 302.081Z" fill="white" fill-opacity="0.1"/>
<path d="M689.803 570.026C690.931 570.063 692.066 570.371 693.112 570.975C694.157 571.578 694.991 572.408 695.588 573.366C695.626 572.238 695.933 571.102 696.537 570.057C697.141 569.011 697.97 568.177 698.928 567.58C697.8 567.543 696.665 567.235 695.619 566.631C694.574 566.028 693.739 565.198 693.143 564.24C693.105 565.368 692.797 566.504 692.194 567.549C691.59 568.595 690.761 569.429 689.803 570.026Z" fill="white" fill-opacity="0.1"/>
<path d="M1337.15 602.673C1338.27 602.711 1339.41 603.018 1340.46 603.622C1341.5 604.226 1342.34 605.055 1342.93 606.013C1342.97 604.885 1343.28 603.75 1343.88 602.704C1344.48 601.659 1345.31 600.825 1346.27 600.228C1345.14 600.19 1344.01 599.882 1342.96 599.279C1341.92 598.675 1341.08 597.846 1340.49 596.888C1340.45 598.016 1340.14 599.151 1339.54 600.197C1338.93 601.242 1338.1 602.076 1337.15 602.673Z" fill="white" fill-opacity="0.1"/>
<path d="M1423.83 470.391C1424.96 470.429 1426.1 470.736 1427.14 471.34C1428.19 471.944 1429.02 472.773 1429.62 473.731C1429.66 472.603 1429.96 471.468 1430.57 470.422C1431.17 469.376 1432 468.542 1432.96 467.946C1431.83 467.908 1430.7 467.6 1429.65 466.997C1428.6 466.393 1427.77 465.564 1427.17 464.606C1427.14 465.733 1426.83 466.869 1426.22 467.914C1425.62 468.96 1424.79 469.794 1423.83 470.391Z" fill="white" fill-opacity="0.1"/>
<path d="M1412.01 358.372C1413.14 358.41 1414.28 358.718 1415.32 359.321C1416.37 359.925 1417.2 360.754 1417.8 361.712C1417.84 360.584 1418.15 359.449 1418.75 358.403C1419.35 357.358 1420.18 356.524 1421.14 355.927C1420.01 355.889 1418.88 355.582 1417.83 354.978C1416.79 354.374 1415.95 353.545 1415.35 352.587C1415.32 353.715 1415.01 354.85 1414.41 355.896C1413.8 356.941 1412.97 357.776 1412.01 358.372Z" fill="white" fill-opacity="0.1"/>
<path d="M1275.79 351.616C1276.92 351.654 1278.05 351.962 1279.1 352.566C1280.14 353.169 1280.98 353.999 1281.57 354.957C1281.61 353.829 1281.92 352.693 1282.52 351.648C1283.13 350.602 1283.96 349.768 1284.91 349.171C1283.79 349.134 1282.65 348.826 1281.61 348.222C1280.56 347.618 1279.73 346.789 1279.13 345.831C1279.09 346.959 1278.78 348.094 1278.18 349.14C1277.58 350.186 1276.75 351.02 1275.79 351.616Z" fill="white" fill-opacity="0.1"/>
<path d="M1275.79 506.416C1276.92 506.454 1278.05 506.762 1279.1 507.365C1280.14 507.969 1280.98 508.798 1281.57 509.756C1281.61 508.628 1281.92 507.493 1282.52 506.447C1283.13 505.402 1283.96 504.568 1284.91 503.971C1283.79 503.933 1282.65 503.626 1281.61 503.022C1280.56 502.418 1279.73 501.589 1279.13 500.631C1279.09 501.759 1278.78 502.894 1278.18 503.94C1277.58 504.985 1276.75 505.82 1275.79 506.416Z" fill="white" fill-opacity="0.1"/>
<path d="M1435.65 614.495C1436.78 614.533 1437.92 614.841 1438.96 615.444C1440.01 616.048 1440.84 616.877 1441.44 617.835C1441.48 616.707 1441.78 615.572 1442.39 614.527C1442.99 613.481 1443.82 612.647 1444.78 612.05C1443.65 612.012 1442.52 611.705 1441.47 611.101C1440.43 610.497 1439.59 609.668 1438.99 608.71C1438.96 609.838 1438.65 610.973 1438.05 612.019C1437.44 613.065 1436.61 613.899 1435.65 614.495Z" fill="white" fill-opacity="0.1"/>
<path d="M1114.8 352.18C1115.92 352.218 1117.06 352.525 1118.11 353.129C1119.15 353.733 1119.99 354.562 1120.58 355.52C1120.62 354.392 1120.93 353.257 1121.53 352.211C1122.13 351.165 1122.96 350.331 1123.92 349.735C1122.79 349.697 1121.66 349.389 1120.61 348.786C1119.57 348.182 1118.73 347.353 1118.14 346.395C1118.1 347.523 1117.79 348.658 1117.19 349.703C1116.58 350.749 1115.75 351.583 1114.8 352.18Z" fill="white" fill-opacity="0.1"/>
<path d="M1154.2 538.502C1155.33 538.54 1156.47 538.848 1157.51 539.451C1158.56 540.055 1159.39 540.884 1159.99 541.842C1160.03 540.714 1160.33 539.579 1160.94 538.533C1161.54 537.488 1162.37 536.654 1163.33 536.057C1162.2 536.019 1161.07 535.712 1160.02 535.108C1158.97 534.504 1158.14 533.675 1157.54 532.717C1157.51 533.845 1157.2 534.98 1156.59 536.026C1155.99 537.071 1155.16 537.906 1154.2 538.502Z" fill="white" fill-opacity="0.1"/>
<path d="M755.663 509.232C756.791 509.269 757.926 509.577 758.972 510.181C760.018 510.784 760.852 511.614 761.448 512.572C761.486 511.444 761.794 510.308 762.397 509.263C763.001 508.217 763.83 507.383 764.788 506.787C763.66 506.749 762.525 506.441 761.48 505.837C760.434 505.234 759.6 504.404 759.003 503.446C758.965 504.574 758.658 505.71 758.054 506.755C757.45 507.801 756.621 508.635 755.663 509.232Z" fill="white" fill-opacity="0.1"/>
<path d="M645.334 412.411C646.462 412.449 647.597 412.757 648.643 413.36C649.688 413.964 650.523 414.793 651.119 415.751C651.157 414.623 651.465 413.488 652.068 412.443C652.672 411.397 653.501 410.563 654.459 409.966C653.331 409.928 652.196 409.621 651.151 409.017C650.105 408.413 649.271 407.584 648.674 406.626C648.636 407.754 648.329 408.889 647.725 409.935C647.121 410.981 646.292 411.815 645.334 412.411Z" fill="white" fill-opacity="0.1"/>
<path d="M527.123 678.104C528.251 678.141 529.386 678.449 530.432 679.053C531.478 679.657 532.312 680.486 532.908 681.444C532.946 680.316 533.254 679.181 533.857 678.135C534.461 677.089 535.29 676.255 536.248 675.659C535.12 675.621 533.985 675.313 532.94 674.709C531.894 674.106 531.06 673.276 530.463 672.318C530.425 673.446 530.118 674.582 529.514 675.627C528.91 676.673 528.081 677.507 527.123 678.104Z" fill="white" fill-opacity="0.1"/>
<path d="M475.335 296.453C476.463 296.491 477.598 296.799 478.644 297.402C479.689 298.006 480.524 298.835 481.12 299.793C481.158 298.665 481.466 297.53 482.069 296.485C482.673 295.439 483.502 294.605 484.46 294.008C483.332 293.97 482.197 293.663 481.152 293.059C480.106 292.455 479.272 291.626 478.675 290.668C478.637 291.796 478.33 292.931 477.726 293.977C477.122 295.023 476.293 295.857 475.335 296.453Z" fill="white" fill-opacity="0.1"/>
<path d="M734.257 103.568C735.028 104.393 735.613 105.413 735.926 106.579C736.238 107.746 736.242 108.922 735.986 110.021C736.811 109.25 737.831 108.665 738.997 108.352C740.163 108.04 741.34 108.037 742.439 108.292C741.668 107.468 741.083 106.447 740.77 105.281C740.458 104.115 740.455 102.939 740.71 101.839C739.886 102.61 738.865 103.195 737.699 103.508C736.533 103.82 735.357 103.824 734.257 103.568Z" fill="white" fill-opacity="0.1"/>
<path d="M833.369 120.684C834.14 121.508 834.725 122.528 835.037 123.695C835.35 124.861 835.353 126.037 835.098 127.136C835.922 126.365 836.942 125.78 838.109 125.468C839.275 125.155 840.451 125.152 841.55 125.407C840.779 124.583 840.194 123.563 839.882 122.396C839.569 121.23 839.566 120.054 839.821 118.955C838.997 119.726 837.977 120.311 836.811 120.623C835.644 120.936 834.468 120.939 833.369 120.684Z" fill="white" fill-opacity="0.1"/>
<path d="M1027.21 328.061C1027.98 328.885 1028.57 329.905 1028.88 331.071C1029.19 332.238 1029.2 333.414 1028.94 334.513C1029.77 333.742 1030.79 333.157 1031.95 332.845C1033.12 332.532 1034.29 332.529 1035.39 332.784C1034.62 331.96 1034.04 330.94 1033.73 329.773C1033.41 328.607 1033.41 327.431 1033.67 326.332C1032.84 327.102 1031.82 327.688 1030.65 328C1029.49 328.313 1028.31 328.316 1027.21 328.061Z" fill="white" fill-opacity="0.1"/>
<path d="M1289.92 656.042C1290.69 656.866 1291.27 657.887 1291.58 659.053C1291.9 660.219 1291.9 661.395 1291.64 662.495C1292.47 661.724 1293.49 661.139 1294.66 660.826C1295.82 660.514 1297 660.51 1298.1 660.766C1297.33 659.941 1296.74 658.921 1296.43 657.755C1296.12 656.589 1296.11 655.412 1296.37 654.313C1295.54 655.084 1294.52 655.669 1293.36 655.982C1292.19 656.294 1291.01 656.297 1289.92 656.042Z" fill="white" fill-opacity="0.1"/>
<path d="M1348.43 614.249C1349.2 615.073 1349.78 616.094 1350.1 617.26C1350.41 618.426 1350.41 619.602 1350.16 620.702C1350.98 619.931 1352 619.346 1353.17 619.033C1354.33 618.721 1355.51 618.717 1356.61 618.973C1355.84 618.148 1355.25 617.128 1354.94 615.962C1354.63 614.796 1354.63 613.619 1354.88 612.52C1354.06 613.291 1353.04 613.876 1351.87 614.189C1350.7 614.501 1349.53 614.505 1348.43 614.249Z" fill="white" fill-opacity="0.1"/>
<path d="M709.58 354.331C710.351 355.155 710.936 356.176 711.248 357.342C711.561 358.508 711.564 359.684 711.309 360.784C712.133 360.013 713.153 359.428 714.32 359.115C715.486 358.803 716.662 358.799 717.761 359.055C716.99 358.23 716.405 357.21 716.093 356.044C715.78 354.878 715.777 353.701 716.032 352.602C715.208 353.373 714.188 353.958 713.021 354.271C711.855 354.583 710.679 354.587 709.58 354.331Z" fill="white" fill-opacity="0.1"/>
<path d="M1144.24 835.157C1145.01 835.981 1145.59 837.002 1145.9 838.168C1146.22 839.334 1146.22 840.511 1145.96 841.61C1146.79 840.839 1147.81 840.254 1148.98 839.941C1150.14 839.629 1151.32 839.625 1152.42 839.881C1151.65 839.057 1151.06 838.036 1150.75 836.87C1150.44 835.704 1150.43 834.528 1150.69 833.428C1149.86 834.199 1148.84 834.784 1147.68 835.097C1146.51 835.409 1145.34 835.413 1144.24 835.157Z" fill="white" fill-opacity="0.1"/>
<path d="M1299.07 802.917C1299.84 803.741 1300.43 804.762 1300.74 805.928C1301.05 807.094 1301.06 808.27 1300.8 809.37C1301.63 808.599 1302.65 808.014 1303.81 807.701C1304.98 807.389 1306.15 807.385 1307.25 807.641C1306.48 806.816 1305.9 805.796 1305.58 804.63C1305.27 803.464 1305.27 802.287 1305.52 801.188C1304.7 801.959 1303.68 802.544 1302.51 802.857C1301.35 803.169 1300.17 803.172 1299.07 802.917Z" fill="white" fill-opacity="0.1"/>
<path d="M1369.92 715.35C1370.69 716.174 1371.28 717.194 1371.59 718.361C1371.9 719.527 1371.91 720.703 1371.65 721.802C1372.47 721.031 1373.5 720.446 1374.66 720.134C1375.83 719.821 1377 719.818 1378.1 720.073C1377.33 719.249 1376.75 718.229 1376.43 717.062C1376.12 715.896 1376.12 714.72 1376.37 713.621C1375.55 714.392 1374.53 714.977 1373.36 715.289C1372.2 715.602 1371.02 715.605 1369.92 715.35Z" fill="white" fill-opacity="0.1"/>
<path d="M1278.37 614.249C1279.15 615.073 1279.73 616.094 1280.04 617.26C1280.36 618.426 1280.36 619.602 1280.1 620.702C1280.93 619.931 1281.95 619.346 1283.11 619.033C1284.28 618.721 1285.46 618.717 1286.56 618.973C1285.79 618.148 1285.2 617.128 1284.89 615.962C1284.58 614.796 1284.57 613.619 1284.83 612.52C1284 613.291 1282.98 613.876 1281.82 614.189C1280.65 614.501 1279.47 614.505 1278.37 614.249Z" fill="white" fill-opacity="0.1"/>
<path d="M1168.91 723.708C1169.69 724.532 1170.27 725.553 1170.58 726.719C1170.9 727.885 1170.9 729.061 1170.64 730.161C1171.47 729.39 1172.49 728.805 1173.65 728.492C1174.82 728.18 1176 728.176 1177.1 728.432C1176.33 727.607 1175.74 726.587 1175.43 725.421C1175.12 724.255 1175.11 723.078 1175.37 721.979C1174.54 722.75 1173.52 723.335 1172.36 723.648C1171.19 723.96 1170.01 723.964 1168.91 723.708Z" fill="white" fill-opacity="0.1"/>
<path d="M1205.53 913.173C1206.31 913.997 1206.89 915.017 1207.2 916.184C1207.52 917.35 1207.52 918.526 1207.26 919.626C1208.09 918.855 1209.11 918.269 1210.27 917.957C1211.44 917.644 1212.62 917.641 1213.72 917.896C1212.95 917.072 1212.36 916.052 1212.05 914.886C1211.74 913.719 1211.73 912.543 1211.99 911.444C1211.16 912.215 1210.14 912.8 1208.98 913.112C1207.81 913.425 1206.63 913.428 1205.53 913.173Z" fill="white" fill-opacity="0.1"/>
<path d="M1164.14 500.809C1164.91 501.633 1165.49 502.653 1165.81 503.82C1166.12 504.986 1166.12 506.162 1165.87 507.261C1166.69 506.49 1167.71 505.905 1168.88 505.593C1170.04 505.28 1171.22 505.277 1172.32 505.532C1171.55 504.708 1170.96 503.688 1170.65 502.521C1170.34 501.355 1170.34 500.179 1170.59 499.08C1169.77 499.851 1168.75 500.436 1167.58 500.748C1166.41 501.061 1165.24 501.064 1164.14 500.809Z" fill="white" fill-opacity="0.1"/>
<path d="M1060.25 660.421C1061.02 661.245 1061.61 662.266 1061.92 663.432C1062.23 664.598 1062.23 665.774 1061.98 666.874C1062.8 666.103 1063.82 665.517 1064.99 665.205C1066.16 664.892 1067.33 664.889 1068.43 665.145C1067.66 664.32 1067.08 663.3 1066.76 662.134C1066.45 660.967 1066.45 659.791 1066.7 658.692C1065.88 659.463 1064.86 660.048 1063.69 660.361C1062.53 660.673 1061.35 660.676 1060.25 660.421Z" fill="white" fill-opacity="0.1"/>
<path d="M799.139 357.912C799.91 358.736 800.495 359.757 800.808 360.923C801.12 362.089 801.124 363.266 800.868 364.365C801.692 363.594 802.713 363.009 803.879 362.696C805.045 362.384 806.222 362.38 807.321 362.636C806.55 361.812 805.965 360.791 805.652 359.625C805.34 358.459 805.336 357.282 805.592 356.183C804.768 356.954 803.747 357.539 802.581 357.852C801.415 358.164 800.238 358.168 799.139 357.912Z" fill="white" fill-opacity="0.1"/>
<path d="M789.585 211.437C790.356 212.261 790.942 213.281 791.254 214.447C791.567 215.614 791.57 216.79 791.314 217.889C792.139 217.118 793.159 216.533 794.325 216.221C795.492 215.908 796.668 215.905 797.767 216.16C796.996 215.336 796.411 214.316 796.099 213.149C795.786 211.983 795.783 210.807 796.038 209.708C795.214 210.478 794.194 211.064 793.027 211.376C791.861 211.689 790.685 211.692 789.585 211.437Z" fill="white" fill-opacity="0.1"/>
<path d="M518.125 315.721C518.896 316.545 519.482 317.565 519.794 318.732C520.107 319.898 520.11 321.074 519.855 322.173C520.679 321.402 521.699 320.817 522.865 320.505C524.032 320.192 525.208 320.189 526.307 320.444C525.536 319.62 524.951 318.6 524.639 317.434C524.326 316.267 524.323 315.091 524.578 313.992C523.754 314.763 522.734 315.348 521.567 315.66C520.401 315.973 519.225 315.976 518.125 315.721Z" fill="white" fill-opacity="0.1"/>
<path d="M751.375 9.23339C752.146 10.0576 752.732 11.078 753.044 12.2443C753.357 13.4106 753.36 14.5868 753.105 15.6861C753.929 14.9151 754.949 14.3299 756.115 14.0175C757.282 13.705 758.458 13.7016 759.557 13.957C758.786 13.1328 758.201 12.1125 757.889 10.9463C757.576 9.77999 757.573 8.60373 757.828 7.50445C757.004 8.27534 755.984 8.86053 754.817 9.17302C753.651 9.48552 752.475 9.48891 751.375 9.23339Z" fill="white" fill-opacity="0.1"/>
<path d="M1342.54 260.258C1341.72 261.029 1340.7 261.614 1339.53 261.927C1338.37 262.239 1337.19 262.243 1336.09 261.987C1336.86 262.812 1337.45 263.832 1337.76 264.998C1338.07 266.164 1338.07 267.341 1337.82 268.44C1338.64 267.669 1339.66 267.084 1340.83 266.771C1342 266.459 1343.17 266.455 1344.27 266.711C1343.5 265.887 1342.92 264.866 1342.6 263.7C1342.29 262.534 1342.29 261.358 1342.54 260.258Z" fill="white" fill-opacity="0.1"/>
<path d="M1325.43 359.369C1324.6 360.14 1323.58 360.725 1322.42 361.037C1321.25 361.35 1320.08 361.353 1318.98 361.098C1319.75 361.922 1320.33 362.942 1320.64 364.109C1320.96 365.275 1320.96 366.451 1320.71 367.55C1321.53 366.779 1322.55 366.194 1323.72 365.882C1324.88 365.569 1326.06 365.566 1327.16 365.821C1326.39 364.997 1325.8 363.977 1325.49 362.811C1325.18 361.644 1325.17 360.468 1325.43 359.369Z" fill="white" fill-opacity="0.1"/>
<path d="M1118.05 553.212C1117.23 553.983 1116.21 554.569 1115.04 554.881C1113.87 555.194 1112.7 555.197 1111.6 554.941C1112.37 555.766 1112.95 556.786 1113.27 557.952C1113.58 559.119 1113.58 560.295 1113.33 561.394C1114.15 560.623 1115.17 560.038 1116.34 559.725C1117.5 559.413 1118.68 559.41 1119.78 559.665C1119.01 558.841 1118.42 557.82 1118.11 556.654C1117.8 555.488 1117.79 554.312 1118.05 553.212Z" fill="white" fill-opacity="0.1"/>
<path d="M790.07 815.916C789.246 816.686 788.226 817.272 787.059 817.584C785.893 817.897 784.717 817.9 783.618 817.645C784.389 818.469 784.974 819.489 785.286 820.655C785.599 821.822 785.602 822.998 785.347 824.097C786.171 823.326 787.191 822.741 788.357 822.429C789.524 822.116 790.7 822.113 791.799 822.368C791.028 821.544 790.443 820.524 790.131 819.357C789.818 818.191 789.815 817.015 790.07 815.916Z" fill="white" fill-opacity="0.1"/>
<path d="M831.863 874.427C831.039 875.198 830.019 875.783 828.852 876.096C827.686 876.408 826.51 876.412 825.411 876.156C826.182 876.981 826.767 878.001 827.079 879.167C827.392 880.333 827.395 881.51 827.14 882.609C827.964 881.838 828.984 881.253 830.15 880.94C831.317 880.628 832.493 880.624 833.592 880.88C832.821 880.056 832.236 879.035 831.924 877.869C831.611 876.703 831.608 875.527 831.863 874.427Z" fill="white" fill-opacity="0.1"/>
<path d="M1091.78 235.58C1090.96 236.351 1089.94 236.936 1088.77 237.248C1087.6 237.561 1086.43 237.564 1085.33 237.309C1086.1 238.133 1086.68 239.153 1087 240.32C1087.31 241.486 1087.31 242.662 1087.06 243.761C1087.88 242.99 1088.9 242.405 1090.07 242.093C1091.23 241.78 1092.41 241.777 1093.51 242.032C1092.74 241.208 1092.15 240.188 1091.84 239.021C1091.53 237.855 1091.53 236.679 1091.78 235.58Z" fill="white" fill-opacity="0.1"/>
<path d="M610.954 670.236C610.13 671.007 609.109 671.592 607.943 671.904C606.777 672.217 605.601 672.22 604.501 671.965C605.272 672.789 605.858 673.809 606.17 674.976C606.483 676.142 606.486 677.318 606.23 678.417C607.055 677.647 608.075 677.061 609.241 676.749C610.408 676.436 611.584 676.433 612.683 676.689C611.912 675.864 611.327 674.844 611.014 673.678C610.702 672.511 610.699 671.335 610.954 670.236Z" fill="white" fill-opacity="0.1"/>
<path d="M643.195 825.071C642.371 825.842 641.351 826.427 640.184 826.739C639.018 827.052 637.842 827.055 636.743 826.8C637.514 827.624 638.099 828.644 638.411 829.811C638.724 830.977 638.727 832.153 638.472 833.252C639.296 832.482 640.316 831.896 641.482 831.584C642.649 831.271 643.825 831.268 644.924 831.523C644.153 830.699 643.568 829.679 643.256 828.513C642.943 827.346 642.94 826.17 643.195 825.071Z" fill="white" fill-opacity="0.1"/>
<path d="M730.763 895.921C729.938 896.692 728.918 897.278 727.752 897.59C726.586 897.903 725.409 897.906 724.31 897.65C725.081 898.475 725.666 899.495 725.979 900.661C726.291 901.828 726.295 903.004 726.039 904.103C726.863 903.332 727.884 902.747 729.05 902.434C730.216 902.122 731.392 902.119 732.492 902.374C731.721 901.55 731.136 900.529 730.823 899.363C730.511 898.197 730.507 897.021 730.763 895.921Z" fill="white" fill-opacity="0.1"/>
<path d="M831.863 804.374C831.039 805.145 830.019 805.731 828.852 806.043C827.686 806.356 826.51 806.359 825.411 806.104C826.182 806.928 826.767 807.948 827.079 809.114C827.392 810.281 827.395 811.457 827.14 812.556C827.964 811.785 828.984 811.2 830.15 810.888C831.317 810.575 832.493 810.572 833.592 810.827C832.821 810.003 832.236 808.983 831.924 807.816C831.611 806.65 831.608 805.474 831.863 804.374Z" fill="white" fill-opacity="0.1"/>
<path d="M722.404 694.914C721.58 695.684 720.56 696.27 719.393 696.582C718.227 696.895 717.051 696.898 715.952 696.643C716.723 697.467 717.308 698.487 717.62 699.653C717.933 700.82 717.936 701.996 717.681 703.095C718.505 702.324 719.525 701.739 720.691 701.427C721.858 701.114 723.034 701.111 724.133 701.366C723.362 700.542 722.777 699.522 722.465 698.355C722.152 697.189 722.149 696.013 722.404 694.914Z" fill="white" fill-opacity="0.1"/>
<path d="M532.938 731.534C532.114 732.305 531.094 732.89 529.928 733.202C528.761 733.515 527.585 733.518 526.486 733.263C527.257 734.087 527.842 735.107 528.154 736.274C528.467 737.44 528.47 738.616 528.215 739.715C529.039 738.944 530.059 738.359 531.226 738.047C532.392 737.734 533.568 737.731 534.667 737.986C533.897 737.162 533.311 736.142 532.999 734.976C532.686 733.809 532.683 732.633 532.938 731.534Z" fill="white" fill-opacity="0.1"/>
<path d="M945.304 690.137C944.479 690.908 943.459 691.493 942.293 691.806C941.127 692.118 939.95 692.122 938.851 691.866C939.622 692.69 940.207 693.711 940.52 694.877C940.832 696.043 940.836 697.22 940.58 698.319C941.404 697.548 942.425 696.963 943.591 696.65C944.757 696.338 945.933 696.334 947.033 696.59C946.262 695.766 945.677 694.745 945.364 693.579C945.052 692.413 945.048 691.236 945.304 690.137Z" fill="white" fill-opacity="0.1"/>
<path d="M785.689 586.249C784.865 587.02 783.845 587.606 782.679 587.918C781.512 588.231 780.336 588.234 779.237 587.979C780.008 588.803 780.593 589.823 780.905 590.989C781.218 592.156 781.221 593.332 780.966 594.431C781.79 593.66 782.81 593.075 783.977 592.763C785.143 592.45 786.319 592.447 787.418 592.702C786.648 591.878 786.062 590.858 785.75 589.691C785.437 588.525 785.434 587.349 785.689 586.249Z" fill="white" fill-opacity="0.1"/>
<path d="M1088.2 325.138C1087.37 325.909 1086.35 326.494 1085.19 326.807C1084.02 327.119 1082.84 327.123 1081.75 326.867C1082.52 327.691 1083.1 328.712 1083.41 329.878C1083.73 331.044 1083.73 332.221 1083.47 333.32C1084.3 332.549 1085.32 331.964 1086.49 331.651C1087.65 331.339 1088.83 331.335 1089.93 331.591C1089.16 330.767 1088.57 329.746 1088.26 328.58C1087.95 327.414 1087.94 326.237 1088.2 325.138Z" fill="white" fill-opacity="0.1"/>
<path d="M1234.68 315.585C1233.85 316.356 1232.83 316.942 1231.66 317.254C1230.5 317.567 1229.32 317.57 1228.22 317.314C1228.99 318.139 1229.58 319.159 1229.89 320.325C1230.2 321.492 1230.21 322.668 1229.95 323.767C1230.78 322.996 1231.8 322.411 1232.96 322.099C1234.13 321.786 1235.31 321.783 1236.4 322.038C1235.63 321.214 1235.05 320.194 1234.74 319.027C1234.42 317.861 1234.42 316.685 1234.68 315.585Z" fill="white" fill-opacity="0.1"/>
<path d="M1130.39 44.1245C1129.57 44.8954 1128.55 45.4807 1127.38 45.7932C1126.21 46.1056 1125.04 46.109 1123.94 45.8535C1124.71 46.6778 1125.3 47.6982 1125.61 48.8644C1125.92 50.0306 1125.92 51.2069 1125.67 52.3061C1126.49 51.5352 1127.51 50.9501 1128.68 50.6376C1129.85 50.3251 1131.02 50.3217 1132.12 50.5772C1131.35 49.753 1130.76 48.7326 1130.45 47.5664C1130.14 46.4001 1130.14 45.2238 1130.39 44.1245Z" fill="white" fill-opacity="0.1"/>
<path d="M1436.88 277.374C1436.05 278.145 1435.03 278.731 1433.87 279.043C1432.7 279.356 1431.53 279.359 1430.43 279.104C1431.2 279.928 1431.78 280.948 1432.09 282.114C1432.41 283.281 1432.41 284.457 1432.16 285.556C1432.98 284.785 1434 284.2 1435.17 283.888C1436.33 283.575 1437.51 283.572 1438.61 283.827C1437.84 283.003 1437.25 281.983 1436.94 280.816C1436.63 279.65 1436.62 278.474 1436.88 277.374Z" fill="white" fill-opacity="0.1"/>
<path d="M1070.85 55.9335C1070.82 57.0615 1070.51 58.1968 1069.91 59.2425C1069.3 60.2881 1068.47 61.1222 1067.51 61.7189C1068.64 61.7566 1069.78 62.0643 1070.82 62.668C1071.87 63.2717 1072.7 64.101 1073.3 65.0589C1073.34 63.931 1073.64 62.7957 1074.25 61.7501C1074.85 60.7045 1075.68 59.8704 1076.64 59.2737C1075.51 59.236 1074.38 58.9283 1073.33 58.3246C1072.29 57.7209 1071.45 56.8915 1070.85 55.9335Z" fill="white" fill-opacity="0.1"/>
<path d="M1128.83 138.118C1128.8 139.246 1128.49 140.381 1127.88 141.427C1127.28 142.473 1126.45 143.307 1125.49 143.903C1126.62 143.941 1127.76 144.249 1128.8 144.853C1129.85 145.456 1130.68 146.286 1131.28 147.243C1131.32 146.116 1131.62 144.98 1132.23 143.935C1132.83 142.889 1133.66 142.055 1134.62 141.458C1133.49 141.421 1132.36 141.113 1131.31 140.509C1130.26 139.905 1129.43 139.076 1128.83 138.118Z" fill="white" fill-opacity="0.1"/>
<path d="M1119.26 421.824C1119.22 422.952 1118.92 424.087 1118.31 425.133C1117.71 426.179 1116.88 427.013 1115.92 427.609C1117.05 427.647 1118.19 427.955 1119.23 428.559C1120.28 429.162 1121.11 429.992 1121.71 430.95C1121.75 429.822 1122.05 428.686 1122.66 427.641C1123.26 426.595 1124.09 425.761 1125.05 425.164C1123.92 425.127 1122.78 424.819 1121.74 424.215C1120.69 423.612 1119.86 422.782 1119.26 421.824Z" fill="white" fill-opacity="0.1"/>
<path d="M1073.1 839.501C1073.07 840.629 1072.76 841.764 1072.16 842.81C1071.55 843.855 1070.72 844.69 1069.76 845.286C1070.89 845.324 1072.03 845.632 1073.07 846.235C1074.12 846.839 1074.95 847.668 1075.55 848.626C1075.59 847.498 1075.89 846.363 1076.5 845.318C1077.1 844.272 1077.93 843.438 1078.89 842.841C1077.76 842.803 1076.63 842.496 1075.58 841.892C1074.54 841.288 1073.7 840.459 1073.1 839.501Z" fill="white" fill-opacity="0.1"/>
<path d="M1144.03 851.322C1143.99 852.45 1143.68 853.585 1143.08 854.631C1142.48 855.677 1141.65 856.511 1140.69 857.108C1141.82 857.145 1142.95 857.453 1144 858.057C1145.04 858.66 1145.88 859.49 1146.48 860.448C1146.51 859.32 1146.82 858.184 1147.42 857.139C1148.03 856.093 1148.86 855.259 1149.82 854.662C1148.69 854.625 1147.55 854.317 1146.51 853.713C1145.46 853.11 1144.63 852.28 1144.03 851.322Z" fill="white" fill-opacity="0.1"/>
<path d="M876.088 215.8C876.05 216.928 875.742 218.063 875.139 219.109C874.535 220.154 873.706 220.988 872.748 221.585C873.876 221.623 875.011 221.931 876.056 222.534C877.102 223.138 877.936 223.967 878.533 224.925C878.571 223.797 878.878 222.662 879.482 221.616C880.086 220.571 880.915 219.737 881.873 219.14C880.745 219.102 879.61 218.794 878.564 218.191C877.518 217.587 876.684 216.758 876.088 215.8Z" fill="white" fill-opacity="0.1"/>
<path d="M843.44 863.143C843.403 864.271 843.095 865.407 842.491 866.452C841.887 867.498 841.058 868.332 840.1 868.929C841.228 868.967 842.363 869.274 843.409 869.878C844.455 870.482 845.289 871.311 845.885 872.269C845.923 871.141 846.231 870.006 846.834 868.96C847.438 867.914 848.268 867.08 849.226 866.484C848.098 866.446 846.962 866.138 845.917 865.535C844.871 864.931 844.037 864.101 843.44 863.143Z" fill="white" fill-opacity="0.1"/>
<path d="M975.721 949.83C975.684 950.958 975.376 952.093 974.772 953.139C974.169 954.185 973.339 955.019 972.381 955.615C973.509 955.653 974.645 955.961 975.69 956.564C976.736 957.168 977.57 957.997 978.167 958.955C978.204 957.827 978.512 956.692 979.116 955.647C979.719 954.601 980.549 953.767 981.507 953.17C980.379 953.132 979.244 952.825 978.198 952.221C977.152 951.617 976.318 950.788 975.721 949.83Z" fill="white" fill-opacity="0.1"/>
<path d="M1087.74 938.011C1087.7 939.139 1087.4 940.274 1086.79 941.32C1086.19 942.365 1085.36 943.199 1084.4 943.796C1085.53 943.834 1086.66 944.141 1087.71 944.745C1088.76 945.349 1089.59 946.178 1090.19 947.136C1090.22 946.008 1090.53 944.873 1091.14 943.827C1091.74 942.782 1092.57 941.948 1093.53 941.351C1092.4 941.313 1091.26 941.005 1090.22 940.402C1089.17 939.798 1088.34 938.969 1087.74 938.011Z" fill="white" fill-opacity="0.1"/>
<path d="M1094.5 801.787C1094.46 802.915 1094.15 804.05 1093.55 805.096C1092.94 806.142 1092.11 806.976 1091.16 807.572C1092.28 807.61 1093.42 807.918 1094.47 808.522C1095.51 809.125 1096.35 809.954 1096.94 810.912C1096.98 809.785 1097.29 808.649 1097.89 807.604C1098.49 806.558 1099.32 805.724 1100.28 805.127C1099.15 805.09 1098.02 804.782 1096.97 804.178C1095.93 803.574 1095.09 802.745 1094.5 801.787Z" fill="white" fill-opacity="0.1"/>
<path d="M939.697 801.787C939.659 802.915 939.352 804.05 938.748 805.096C938.144 806.142 937.315 806.976 936.357 807.572C937.485 807.61 938.62 807.918 939.666 808.522C940.711 809.125 941.546 809.954 942.142 810.912C942.18 809.785 942.488 808.649 943.091 807.604C943.695 806.558 944.524 805.724 945.482 805.127C944.354 805.09 943.219 804.782 942.174 804.178C941.128 803.574 940.294 802.745 939.697 801.787Z" fill="white" fill-opacity="0.1"/>
<path d="M831.617 961.651C831.579 962.779 831.272 963.915 830.668 964.96C830.064 966.006 829.235 966.84 828.277 967.437C829.405 967.474 830.54 967.782 831.586 968.386C832.631 968.989 833.465 969.819 834.062 970.777C834.1 969.649 834.408 968.514 835.011 967.468C835.615 966.422 836.444 965.588 837.402 964.991C836.274 964.954 835.139 964.646 834.093 964.042C833.048 963.439 832.214 962.609 831.617 961.651Z" fill="white" fill-opacity="0.1"/>
<path d="M1093.93 640.796C1093.89 641.924 1093.59 643.059 1092.98 644.105C1092.38 645.15 1091.55 645.985 1090.59 646.581C1091.72 646.619 1092.86 646.927 1093.9 647.53C1094.95 648.134 1095.78 648.963 1096.38 649.921C1096.42 648.793 1096.72 647.658 1097.33 646.612C1097.93 645.567 1098.76 644.733 1099.72 644.136C1098.59 644.098 1097.45 643.791 1096.41 643.187C1095.36 642.583 1094.53 641.754 1093.93 640.796Z" fill="white" fill-opacity="0.1"/>
<path d="M907.611 680.198C907.573 681.326 907.266 682.461 906.662 683.507C906.058 684.553 905.229 685.387 904.271 685.984C905.399 686.021 906.534 686.329 907.58 686.933C908.626 687.536 909.46 688.366 910.056 689.324C910.094 688.196 910.402 687.06 911.005 686.015C911.609 684.969 912.438 684.135 913.396 683.538C912.268 683.501 911.133 683.193 910.088 682.589C909.042 681.986 908.208 681.156 907.611 680.198Z" fill="white" fill-opacity="0.1"/>
<path d="M936.881 281.66C936.843 282.788 936.535 283.923 935.932 284.969C935.328 286.015 934.499 286.849 933.541 287.445C934.669 287.483 935.804 287.791 936.849 288.395C937.895 288.998 938.729 289.828 939.326 290.785C939.364 289.658 939.671 288.522 940.275 287.477C940.879 286.431 941.708 285.597 942.666 285C941.538 284.963 940.403 284.655 939.357 284.051C938.311 283.447 937.477 282.618 936.881 281.66Z" fill="white" fill-opacity="0.1"/>
<path d="M1033.7 171.33C1033.66 172.458 1033.36 173.593 1032.75 174.639C1032.15 175.685 1031.32 176.519 1030.36 177.115C1031.49 177.153 1032.62 177.461 1033.67 178.064C1034.72 178.668 1035.55 179.497 1036.15 180.455C1036.18 179.327 1036.49 178.192 1037.1 177.147C1037.7 176.101 1038.53 175.267 1039.49 174.67C1038.36 174.632 1037.22 174.325 1036.18 173.721C1035.13 173.117 1034.3 172.288 1033.7 171.33Z" fill="white" fill-opacity="0.1"/>
<path d="M768.01 53.1191C767.972 54.247 767.664 55.3824 767.06 56.428C766.457 57.4736 765.627 58.3078 764.669 58.9044C765.797 58.9421 766.933 59.2498 767.978 59.8535C769.024 60.4572 769.858 61.2865 770.455 62.2445C770.492 61.1165 770.8 59.9813 771.404 58.9357C772.008 57.89 772.837 57.0559 773.795 56.4593C772.667 56.4215 771.532 56.1138 770.486 55.5101C769.44 54.9064 768.606 54.0771 768.01 53.1191Z" fill="white" fill-opacity="0.1"/>
<path d="M1149.66 1.33195C1149.62 2.45992 1149.31 3.59525 1148.71 4.64091C1148.11 5.68653 1147.28 6.52066 1146.32 7.1173C1147.45 7.15502 1148.58 7.46273 1149.63 8.06643C1150.67 8.67011 1151.51 9.49942 1152.11 10.4574C1152.14 9.32944 1152.45 8.19418 1153.05 7.14857C1153.66 6.10293 1154.49 5.26879 1155.45 4.67216C1154.32 4.63443 1153.18 4.32672 1152.14 3.72303C1151.09 3.11932 1150.26 2.28995 1149.66 1.33195Z" fill="white" fill-opacity="0.1"/>
<path d="M38.8661 757.626C40.155 756.879 41.2841 755.813 42.1243 754.459C42.9646 753.105 43.4181 751.62 43.515 750.133C44.2621 751.422 45.3279 752.551 46.6822 753.392C48.0364 754.232 49.5213 754.685 51.0079 754.782C49.719 755.529 48.59 756.595 47.7498 757.949C46.9095 759.304 46.4561 760.789 46.3591 762.275C45.612 760.986 44.5462 759.857 43.192 759.017C41.8377 758.177 40.3527 757.723 38.8661 757.626Z" fill="white" fill-opacity="0.1"/>
<path d="M496.057 443.531C497.346 442.784 498.475 441.718 499.316 440.363C500.156 439.009 500.609 437.524 500.706 436.038C501.454 437.327 502.519 438.456 503.874 439.296C505.228 440.136 506.713 440.59 508.199 440.687C506.91 441.434 505.781 442.499 504.941 443.854C504.101 445.208 503.647 446.693 503.55 448.18C502.803 446.891 501.738 445.762 500.383 444.921C499.029 444.081 497.544 443.628 496.057 443.531Z" fill="white" fill-opacity="0.1"/>
<path d="M554.029 518.684C555.318 517.937 556.447 516.871 557.287 515.517C558.128 514.163 558.581 512.678 558.678 511.191C559.425 512.48 560.491 513.609 561.845 514.449C563.2 515.289 564.684 515.743 566.171 515.84C564.882 516.587 563.753 517.653 562.913 519.007C562.073 520.361 561.619 521.846 561.522 523.333C560.775 522.044 559.709 520.915 558.355 520.075C557.001 519.234 555.516 518.781 554.029 518.684Z" fill="white" fill-opacity="0.1"/>
<path d="M380.388 161.576C381.676 160.829 382.806 159.763 383.646 158.408C384.486 157.054 384.94 155.569 385.037 154.083C385.784 155.372 386.849 156.501 388.204 157.341C389.558 158.181 391.043 158.635 392.529 158.732C391.241 159.479 390.111 160.544 389.271 161.899C388.431 163.253 387.978 164.738 387.881 166.224C387.133 164.936 386.068 163.807 384.713 162.966C383.359 162.126 381.874 161.673 380.388 161.576Z" fill="white" fill-opacity="0.1"/>
<path d="M563.718 261.445C565.007 260.698 566.136 259.632 566.976 258.278C567.816 256.923 568.27 255.438 568.367 253.952C569.114 255.241 570.179 256.37 571.534 257.21C572.888 258.05 574.373 258.504 575.859 258.601C574.571 259.348 573.442 260.414 572.601 261.768C571.761 263.122 571.308 264.607 571.211 266.094C570.464 264.805 569.398 263.676 568.044 262.835C566.689 261.995 565.204 261.542 563.718 261.445Z" fill="white" fill-opacity="0.1"/>
<path d="M619.8 399.146C621.089 398.399 622.218 397.333 623.058 395.979C623.898 394.624 624.352 393.139 624.449 391.653C625.196 392.942 626.262 394.071 627.616 394.911C628.97 395.751 630.455 396.205 631.941 396.302C630.653 397.049 629.524 398.115 628.683 399.469C627.843 400.823 627.39 402.308 627.293 403.795C626.546 402.506 625.48 401.377 624.126 400.537C622.771 399.696 621.286 399.243 619.8 399.146Z" fill="white" fill-opacity="0.1"/>
<path d="M465.512 491.932C466.8 491.185 467.93 490.119 468.77 488.765C469.61 487.411 470.064 485.926 470.161 484.439C470.908 485.728 471.973 486.857 473.328 487.697C474.682 488.538 476.167 488.991 477.653 489.088C476.365 489.835 475.236 490.901 474.395 492.255C473.555 493.609 473.102 495.094 473.005 496.581C472.258 495.292 471.192 494.163 469.837 493.323C468.483 492.482 466.998 492.029 465.512 491.932Z" fill="white" fill-opacity="0.1"/>
<path d="M369.008 311.823C370.297 311.076 371.426 310.01 372.266 308.655C373.106 307.301 373.56 305.816 373.657 304.33C374.404 305.619 375.47 306.748 376.824 307.588C378.178 308.428 379.663 308.882 381.149 308.979C379.861 309.726 378.732 310.791 377.891 312.146C377.051 313.5 376.598 314.985 376.501 316.472C375.754 315.183 374.688 314.054 373.334 313.213C371.979 312.373 370.494 311.92 369.008 311.823Z" fill="white" fill-opacity="0.1"/>
<path d="M487.632 86.4086C488.921 85.6615 490.05 84.5957 490.89 83.2414C491.73 81.8871 492.184 80.4022 492.281 78.9157C493.028 80.2045 494.094 81.3336 495.448 82.1739C496.802 83.0141 498.287 83.4676 499.773 83.5645C498.485 84.3116 497.356 85.3774 496.515 86.7316C495.675 88.0859 495.222 89.5709 495.125 91.0574C494.378 89.7686 493.312 88.6395 491.958 87.7993C490.603 86.959 489.118 86.5056 487.632 86.4086Z" fill="white" fill-opacity="0.1"/>
<path d="M277.848 591.643C279.136 590.896 280.266 589.83 281.106 588.476C281.946 587.122 282.4 585.637 282.496 584.15C283.244 585.439 284.309 586.568 285.664 587.408C287.018 588.248 288.503 588.702 289.989 588.799C288.7 589.546 287.571 590.612 286.731 591.966C285.891 593.32 285.437 594.805 285.341 596.292C284.593 595.003 283.528 593.874 282.173 593.034C280.819 592.193 279.334 591.74 277.848 591.643Z" fill="white" fill-opacity="0.1"/>
<path d="M207.537 350.289C208.826 349.542 209.955 348.477 210.795 347.122C211.635 345.768 212.089 344.283 212.186 342.797C212.933 344.085 213.999 345.214 215.353 346.055C216.707 346.895 218.192 347.348 219.679 347.445C218.39 348.192 217.261 349.258 216.421 350.612C215.58 351.967 215.127 353.452 215.03 354.938C214.283 353.649 213.217 352.52 211.863 351.68C210.509 350.84 209.024 350.386 207.537 350.289Z" fill="white" fill-opacity="0.1"/>
<path d="M190.977 674.308C191.36 672.869 191.405 671.317 191.042 669.765C190.678 668.213 189.949 666.843 188.966 665.723C190.406 666.106 191.958 666.151 193.51 665.787C195.061 665.424 196.432 664.694 197.552 663.712C197.169 665.151 197.124 666.703 197.487 668.255C197.851 669.807 198.58 671.178 199.563 672.297C198.123 671.914 196.571 671.869 195.019 672.233C193.468 672.596 192.097 673.326 190.977 674.308Z" fill="white" fill-opacity="0.1"/>
<path d="M292.164 128.926C292.547 127.486 292.592 125.934 292.228 124.382C291.865 122.83 291.135 121.46 290.153 120.34C291.592 120.723 293.144 120.768 294.696 120.404C296.248 120.041 297.618 119.312 298.738 118.329C298.355 119.769 298.31 121.321 298.674 122.872C299.037 124.424 299.767 125.795 300.749 126.915C299.31 126.531 297.758 126.487 296.206 126.85C294.654 127.214 293.283 127.943 292.164 128.926Z" fill="white" fill-opacity="0.1"/>
<path d="M386.298 141.074C386.682 139.634 386.726 138.082 386.363 136.531C385.999 134.979 385.27 133.608 384.287 132.488C385.727 132.872 387.279 132.916 388.831 132.553C390.383 132.189 391.753 131.46 392.873 130.477C392.49 131.917 392.445 133.469 392.809 135.021C393.172 136.573 393.901 137.943 394.884 139.063C393.444 138.68 391.892 138.635 390.341 138.999C388.789 139.362 387.418 140.091 386.298 141.074Z" fill="white" fill-opacity="0.1"/>
<path d="M10.9986 11.3456C11.3817 9.90591 11.4265 8.35386 11.063 6.80206C10.6995 5.25032 9.97016 3.87965 8.98759 2.75993C10.4272 3.14303 11.9792 3.18779 13.531 2.82431C15.0827 2.46085 16.4534 1.73152 17.5731 0.748973C17.19 2.18855 17.1453 3.74053 17.5087 5.29224C17.8722 6.844 18.6016 8.2147 19.5842 9.33443C18.1446 8.95134 16.5926 8.90659 15.0408 9.27006C13.489 9.63355 12.1183 10.3629 10.9986 11.3456Z" fill="white" fill-opacity="0.1"/>
<path d="M348.276 10.0438C348.659 8.60416 348.704 7.0521 348.34 5.50031C347.977 3.94857 347.248 2.57789 346.265 1.45817C347.705 1.84127 349.257 1.88604 350.808 1.52256C352.36 1.15909 353.731 0.429758 354.85 -0.552785C354.467 0.886796 354.423 2.43877 354.786 3.99048C355.15 5.54224 355.879 6.91294 356.862 8.03267C355.422 7.64958 353.87 7.60483 352.318 7.9683C350.766 8.33179 349.396 9.06118 348.276 10.0438Z" fill="white" fill-opacity="0.1"/>
<path d="M304.789 184.749C305.172 183.309 305.217 181.757 304.853 180.205C304.49 178.654 303.76 177.283 302.778 176.163C304.217 176.546 305.769 176.591 307.321 176.228C308.873 175.864 310.243 175.135 311.363 174.152C310.98 175.592 310.935 177.144 311.299 178.696C311.662 180.247 312.392 181.618 313.374 182.738C311.935 182.355 310.383 182.31 308.831 182.673C307.279 183.037 305.908 183.766 304.789 184.749Z" fill="white" fill-opacity="0.1"/>
<path d="M109.194 125.631C109.577 124.191 109.622 122.639 109.258 121.087C108.895 119.535 108.165 118.165 107.183 117.045C108.623 117.428 110.175 117.473 111.726 117.109C113.278 116.746 114.649 116.017 115.768 115.034C115.385 116.474 115.341 118.026 115.704 119.577C116.068 121.129 116.797 122.5 117.779 123.62C116.34 123.236 114.788 123.192 113.236 123.555C111.684 123.919 110.314 124.648 109.194 125.631Z" fill="white" fill-opacity="0.1"/>
<path d="M242.596 387.954C242.979 386.514 243.024 384.962 242.661 383.41C242.297 381.859 241.568 380.488 240.585 379.368C242.025 379.751 243.577 379.796 245.129 379.433C246.68 379.069 248.051 378.34 249.171 377.357C248.788 378.797 248.743 380.349 249.106 381.901C249.47 383.452 250.199 384.823 251.182 385.943C249.742 385.56 248.19 385.515 246.638 385.878C245.087 386.242 243.716 386.971 242.596 387.954Z" fill="white" fill-opacity="0.1"/>
<path d="M22.2164 267.011C22.5995 265.571 22.6442 264.019 22.2808 262.467C21.9173 260.915 21.1879 259.545 20.2054 258.425C21.645 258.808 23.197 258.853 24.7488 258.489C26.3005 258.126 27.6711 257.397 28.7909 256.414C28.4078 257.854 28.363 259.406 28.7265 260.957C29.09 262.509 29.8194 263.88 30.802 264.999C29.3623 264.616 27.8103 264.572 26.2586 264.935C24.7068 265.299 23.3361 266.028 22.2164 267.011Z" fill="white" fill-opacity="0.1"/>
<path d="M600.137 556.613C598.697 556.23 597.145 556.185 595.593 556.548C594.041 556.912 592.671 557.641 591.551 558.624C591.934 557.184 591.979 555.632 591.615 554.08C591.252 552.529 590.523 551.158 589.54 550.038C590.98 550.421 592.532 550.466 594.083 550.103C595.635 549.739 597.006 549.01 598.125 548.027C597.742 549.467 597.698 551.019 598.061 552.57C598.425 554.122 599.154 555.493 600.137 556.613Z" fill="white" fill-opacity="0.1"/>
<path d="M518.435 451.965C516.996 451.582 515.444 451.537 513.892 451.901C512.34 452.264 510.969 452.994 509.85 453.976C510.233 452.537 510.278 450.985 509.914 449.433C509.551 447.881 508.821 446.51 507.839 445.391C509.278 445.774 510.83 445.819 512.382 445.455C513.934 445.092 515.305 444.362 516.424 443.38C516.041 444.819 515.996 446.371 516.36 447.923C516.723 449.475 517.453 450.846 518.435 451.965Z" fill="white" fill-opacity="0.1"/>
<path d="M156.305 355.712C154.865 355.329 153.313 355.284 151.761 355.648C150.209 356.011 148.839 356.741 147.719 357.723C148.102 356.284 148.147 354.732 147.783 353.18C147.42 351.628 146.691 350.258 145.708 349.138C147.148 349.521 148.7 349.566 150.251 349.202C151.803 348.839 153.174 348.109 154.293 347.127C153.91 348.566 153.866 350.118 154.229 351.67C154.593 353.222 155.322 354.593 156.305 355.712Z" fill="white" fill-opacity="0.1"/>
<path d="M323.759 741.656C322.319 741.273 320.767 741.228 319.215 741.591C317.663 741.955 316.293 742.684 315.173 743.667C315.556 742.227 315.601 740.675 315.237 739.123C314.874 737.572 314.145 736.201 313.162 735.081C314.602 735.464 316.154 735.509 317.705 735.146C319.257 734.782 320.628 734.053 321.748 733.07C321.364 734.51 321.32 736.062 321.683 737.613C322.047 739.165 322.776 740.536 323.759 741.656Z" fill="white" fill-opacity="0.1"/>
<path d="M263.759 639.689C262.319 639.306 260.767 639.261 259.215 639.625C257.663 639.988 256.293 640.717 255.173 641.7C255.556 640.26 255.601 638.708 255.237 637.156C254.874 635.605 254.145 634.234 253.162 633.114C254.602 633.497 256.154 633.542 257.705 633.179C259.257 632.815 260.628 632.086 261.748 631.103C261.364 632.543 261.32 634.095 261.683 635.647C262.047 637.198 262.776 638.569 263.759 639.689Z" fill="white" fill-opacity="0.1"/>
<path d="M440.14 559.485C438.701 559.102 437.149 559.057 435.597 559.42C434.045 559.784 432.675 560.513 431.555 561.496C431.938 560.056 431.983 558.504 431.619 556.952C431.256 555.401 430.526 554.03 429.544 552.91C430.983 553.293 432.535 553.338 434.087 552.975C435.639 552.611 437.01 551.882 438.129 550.899C437.746 552.339 437.702 553.891 438.065 555.443C438.428 556.994 439.158 558.365 440.14 559.485Z" fill="white" fill-opacity="0.1"/>
<path d="M488.04 940.344C486.6 939.961 485.048 939.916 483.496 940.28C481.945 940.643 480.574 941.373 479.454 942.355C479.837 940.916 479.882 939.364 479.519 937.812C479.155 936.26 478.426 934.889 477.443 933.77C478.883 934.153 480.435 934.198 481.987 933.834C483.538 933.471 484.909 932.741 486.029 931.759C485.646 933.198 485.601 934.75 485.964 936.302C486.328 937.854 487.057 939.224 488.04 940.344Z" fill="white" fill-opacity="0.1"/>
<path d="M699.226 477.887C697.787 477.504 696.235 477.459 694.683 477.823C693.131 478.186 691.761 478.916 690.641 479.898C691.024 478.459 691.069 476.907 690.705 475.355C690.342 473.803 689.612 472.432 688.63 471.313C690.069 471.696 691.621 471.74 693.173 471.377C694.725 471.014 696.096 470.284 697.215 469.302C696.832 470.741 696.787 472.293 697.151 473.845C697.514 475.397 698.244 476.767 699.226 477.887Z" fill="white" fill-opacity="0.1"/>
<path d="M411.408 963.722C410.661 962.433 409.595 961.304 408.24 960.464C406.886 959.623 405.401 959.17 403.915 959.073C405.204 958.326 406.333 957.26 407.173 955.906C408.013 954.551 408.467 953.067 408.564 951.58C409.311 952.869 410.376 953.998 411.731 954.838C413.085 955.678 414.57 956.132 416.056 956.229C414.768 956.976 413.639 958.042 412.798 959.396C411.958 960.75 411.505 962.235 411.408 963.722Z" fill="white" fill-opacity="0.1"/>
<path d="M427.631 831.953C426.884 830.664 425.818 829.535 424.464 828.695C423.11 827.855 421.625 827.401 420.138 827.304C421.427 826.557 422.556 825.491 423.397 824.137C424.237 822.783 424.69 821.298 424.787 819.811C425.534 821.1 426.6 822.229 427.954 823.07C429.309 823.91 430.794 824.363 432.28 824.46C430.991 825.207 429.862 826.273 429.022 827.627C428.182 828.982 427.728 830.467 427.631 831.953Z" fill="white" fill-opacity="0.1"/>
<path d="M239.627 507.827C238.88 506.538 237.814 505.409 236.46 504.569C235.106 503.729 233.621 503.275 232.134 503.178C233.423 502.431 234.552 501.365 235.393 500.011C236.233 498.657 236.686 497.172 236.783 495.686C237.53 496.974 238.596 498.103 239.95 498.944C241.305 499.784 242.79 500.237 244.276 500.334C242.987 501.081 241.858 502.147 241.018 503.501C240.178 504.856 239.724 506.341 239.627 507.827Z" fill="white" fill-opacity="0.1"/>
<path d="M85.1332 899.14C84.3861 897.851 83.3203 896.722 81.966 895.882C80.6117 895.041 79.1268 894.588 77.6403 894.491C78.9291 893.744 80.0582 892.678 80.8985 891.324C81.7387 889.969 82.1922 888.485 82.2892 886.998C83.0362 888.287 84.102 889.416 85.4562 890.256C86.8105 891.096 88.2955 891.55 89.7821 891.647C88.4932 892.394 87.3641 893.46 86.5239 894.814C85.6836 896.168 85.2302 897.653 85.1332 899.14Z" fill="white" fill-opacity="0.1"/>
<path d="M73.643 268.845C72.8959 267.556 71.8301 266.427 70.4758 265.587C69.1215 264.746 67.6366 264.293 66.15 264.196C67.4389 263.449 68.568 262.383 69.4082 261.029C70.2484 259.675 70.7019 258.19 70.7989 256.703C71.546 257.992 72.6118 259.121 73.966 259.961C75.3203 260.801 76.8052 261.255 78.2918 261.352C77.003 262.099 75.8739 263.165 75.0337 264.519C74.1934 265.873 73.7399 267.358 73.643 268.845Z" fill="white" fill-opacity="0.1"/>
<path d="M114.805 784.61C114.058 783.321 112.992 782.192 111.638 781.351C110.284 780.511 108.799 780.058 107.312 779.961C108.601 779.213 109.73 778.148 110.57 776.793C111.411 775.439 111.864 773.954 111.961 772.468C112.708 773.757 113.774 774.886 115.128 775.726C116.482 776.566 117.967 777.02 119.454 777.117C118.165 777.864 117.036 778.929 116.196 780.284C115.356 781.638 114.902 783.123 114.805 784.61Z" fill="white" fill-opacity="0.1"/>
<path d="M296.241 852.62C295.494 851.331 294.428 850.202 293.073 849.362C291.719 848.522 290.234 848.068 288.748 847.971C290.037 847.224 291.166 846.158 292.006 844.804C292.846 843.45 293.3 841.965 293.397 840.478C294.144 841.767 295.209 842.896 296.564 843.737C297.918 844.577 299.403 845.03 300.889 845.127C299.601 845.874 298.472 846.94 297.631 848.294C296.791 849.649 296.338 851.134 296.241 852.62Z" fill="white" fill-opacity="0.1"/>
<path d="M537.14 978.122C536.393 976.833 535.327 975.704 533.973 974.864C532.619 974.024 531.134 973.57 529.647 973.473C530.936 972.726 532.065 971.66 532.905 970.306C533.746 968.952 534.199 967.467 534.296 965.98C535.043 967.269 536.109 968.398 537.463 969.238C538.817 970.079 540.302 970.532 541.789 970.629C540.5 971.376 539.371 972.442 538.531 973.796C537.69 975.151 537.237 976.636 537.14 978.122Z" fill="white" fill-opacity="0.1"/>
<path d="M1513.5 93.3354C1512.3 92.4614 1510.87 91.8631 1509.29 91.6459C1507.71 91.4287 1506.17 91.618 1504.77 92.1336C1505.64 90.9271 1506.24 89.4944 1506.46 87.9155C1506.68 86.3367 1506.49 84.7956 1505.97 83.398C1507.18 84.2719 1508.61 84.8702 1510.19 85.0874C1511.77 85.3046 1513.31 85.1153 1514.71 84.5996C1513.83 85.8061 1513.23 87.2388 1513.02 88.8177C1512.8 90.3966 1512.99 91.9377 1513.5 93.3354Z" fill="white" fill-opacity="0.1"/>
<path d="M1655.4 42.6586C1654.2 41.7847 1652.76 41.1863 1651.19 40.9691C1649.61 40.7519 1648.07 40.9412 1646.67 41.4569C1647.54 40.2504 1648.14 38.8176 1648.36 37.2387C1648.57 35.6599 1648.39 34.1189 1647.87 32.7213C1649.08 33.5951 1650.51 34.1935 1652.09 34.4106C1653.67 34.6278 1655.21 34.4385 1656.61 33.9229C1655.73 35.1293 1655.13 36.562 1654.92 38.1409C1654.7 39.7198 1654.89 41.261 1655.4 42.6586Z" fill="white" fill-opacity="0.1"/>
<path d="M1401.23 25.9057C1400.03 25.0318 1398.59 24.4334 1397.02 24.2162C1395.44 23.999 1393.9 24.1883 1392.5 24.7039C1393.37 23.4975 1393.97 22.0647 1394.19 20.4858C1394.4 18.907 1394.22 17.3659 1393.7 15.9683C1394.91 16.8422 1396.34 17.4405 1397.92 17.6577C1399.5 17.8749 1401.04 17.6856 1402.44 17.1699C1401.56 18.3764 1400.96 19.8091 1400.75 21.388C1400.53 22.9669 1400.72 24.508 1401.23 25.9057Z" fill="white" fill-opacity="0.1"/>
<path d="M1756.19 174.55C1754.98 173.676 1753.55 173.078 1751.97 172.861C1750.39 172.644 1748.85 172.833 1747.45 173.348C1748.32 172.142 1748.92 170.709 1749.14 169.13C1749.36 167.552 1749.17 166.01 1748.65 164.613C1749.86 165.487 1751.29 166.085 1752.87 166.302C1754.45 166.519 1755.99 166.33 1757.39 165.814C1756.51 167.021 1755.92 168.454 1755.7 170.033C1755.48 171.611 1755.67 173.153 1756.19 174.55Z" fill="white" fill-opacity="0.1"/>
<path d="M1519.54 187.212C1518.07 187.447 1516.63 188.037 1515.36 189C1514.09 189.963 1513.13 191.187 1512.51 192.54C1512.27 191.068 1511.68 189.632 1510.72 188.362C1509.76 187.092 1508.54 186.136 1507.18 185.513C1508.65 185.278 1510.09 184.688 1511.36 183.725C1512.63 182.762 1513.59 181.538 1514.21 180.185C1514.44 181.656 1515.03 183.093 1516 184.363C1516.96 185.633 1518.18 186.589 1519.54 187.212Z" fill="white" fill-opacity="0.1"/>
<path d="M1492.37 96.2679C1490.9 96.503 1489.46 97.093 1488.19 98.0559C1486.92 99.0188 1485.97 100.242 1485.34 101.595C1485.11 100.124 1484.52 98.6879 1483.56 97.4179C1482.59 96.1479 1481.37 95.1921 1480.02 94.5685C1481.49 94.3333 1482.92 93.7433 1484.19 92.7805C1485.46 91.8176 1486.42 90.594 1487.04 89.2411C1487.28 90.7121 1487.87 92.1483 1488.83 93.4183C1489.79 94.6884 1491.02 95.6442 1492.37 96.2679Z" fill="white" fill-opacity="0.1"/>
<path d="M1526.4 491.896C1524.93 492.131 1523.49 492.721 1522.22 493.684C1520.95 494.647 1520 495.87 1519.37 497.223C1519.14 495.752 1518.55 494.316 1517.58 493.046C1516.62 491.776 1515.4 490.82 1514.05 490.196C1515.52 489.961 1516.95 489.371 1518.22 488.408C1519.49 487.446 1520.45 486.222 1521.07 484.869C1521.31 486.34 1521.9 487.776 1522.86 489.046C1523.82 490.316 1525.05 491.272 1526.4 491.896Z" fill="white" fill-opacity="0.1"/>
<path d="M1391.08 332.923C1389.61 333.158 1388.17 333.748 1386.9 334.711C1385.63 335.674 1384.67 336.898 1384.05 338.25C1383.82 336.779 1383.23 335.343 1382.26 334.073C1381.3 332.803 1380.08 331.847 1378.72 331.224C1380.19 330.989 1381.63 330.399 1382.9 329.436C1384.17 328.473 1385.13 327.249 1385.75 325.896C1385.99 327.367 1386.58 328.804 1387.54 330.074C1388.5 331.344 1389.73 332.3 1391.08 332.923Z" fill="white" fill-opacity="0.1"/>
<path d="M1388.11 184.27C1386.64 184.505 1385.2 185.095 1383.93 186.058C1382.66 187.021 1381.71 188.244 1381.08 189.597C1380.85 188.126 1380.26 186.69 1379.3 185.42C1378.33 184.15 1377.11 183.194 1375.76 182.57C1377.23 182.335 1378.66 181.745 1379.93 180.782C1381.2 179.82 1382.16 178.596 1382.78 177.243C1383.02 178.714 1383.61 180.15 1384.57 181.42C1385.53 182.69 1386.76 183.646 1388.11 184.27Z" fill="white" fill-opacity="0.1"/>
<path d="M1565.41 152.987C1563.94 153.222 1562.5 153.812 1561.23 154.775C1559.96 155.738 1559 156.961 1558.38 158.314C1558.15 156.843 1557.56 155.407 1556.59 154.137C1555.63 152.867 1554.41 151.911 1553.05 151.287C1554.52 151.052 1555.96 150.462 1557.23 149.499C1558.5 148.536 1559.46 147.313 1560.08 145.96C1560.31 147.431 1560.9 148.867 1561.87 150.137C1562.83 151.407 1564.05 152.363 1565.41 152.987Z" fill="white" fill-opacity="0.1"/>
<path d="M1590.9 355.723C1589.43 355.958 1587.99 356.548 1586.72 357.511C1585.45 358.474 1584.5 359.697 1583.87 361.05C1583.64 359.579 1583.05 358.143 1582.09 356.873C1581.12 355.603 1579.9 354.647 1578.55 354.024C1580.02 353.788 1581.45 353.198 1582.72 352.236C1583.99 351.273 1584.95 350.049 1585.57 348.696C1585.81 350.167 1586.4 351.603 1587.36 352.873C1588.32 354.143 1589.55 355.099 1590.9 355.723Z" fill="white" fill-opacity="0.1"/>
<path d="M1399.33 523.602C1397.86 523.837 1396.42 524.427 1395.15 525.39C1393.88 526.353 1392.93 527.576 1392.3 528.929C1392.07 527.458 1391.48 526.022 1390.51 524.752C1389.55 523.482 1388.33 522.526 1386.97 521.902C1388.45 521.667 1389.88 521.077 1391.15 520.114C1392.42 519.152 1393.38 517.928 1394 516.575C1394.24 518.046 1394.83 519.482 1395.79 520.752C1396.75 522.022 1397.98 522.978 1399.33 523.602Z" fill="white" fill-opacity="0.1"/>
<path d="M1776.35 127.207C1774.88 127.442 1773.44 128.032 1772.17 128.995C1770.9 129.958 1769.94 131.182 1769.32 132.535C1769.09 131.064 1768.5 129.627 1767.53 128.357C1766.57 127.087 1765.35 126.132 1763.99 125.508C1765.46 125.273 1766.9 124.683 1768.17 123.72C1769.44 122.757 1770.4 121.533 1771.02 120.181C1771.26 121.652 1771.85 123.088 1772.81 124.358C1773.77 125.628 1774.99 126.584 1776.35 127.207Z" fill="white" fill-opacity="0.1"/>
<path d="M1755.43 377.721C1753.96 377.956 1752.52 378.546 1751.25 379.509C1749.98 380.472 1749.03 381.695 1748.4 383.048C1748.17 381.577 1747.58 380.141 1746.61 378.871C1745.65 377.601 1744.43 376.645 1743.08 376.022C1744.55 375.786 1745.98 375.196 1747.25 374.234C1748.52 373.271 1749.48 372.047 1750.1 370.694C1750.34 372.165 1750.93 373.601 1751.89 374.871C1752.85 376.141 1754.08 377.097 1755.43 377.721Z" fill="white" fill-opacity="0.1"/>
<path d="M1781.97 219.154C1782.2 220.625 1782.79 222.062 1783.75 223.332C1784.72 224.602 1785.94 225.558 1787.29 226.181C1785.82 226.416 1784.39 227.006 1783.12 227.969C1781.85 228.932 1780.89 230.156 1780.27 231.508C1780.03 230.037 1779.44 228.601 1778.48 227.331C1777.52 226.061 1776.29 225.105 1774.94 224.482C1776.41 224.247 1777.85 223.657 1779.12 222.694C1780.39 221.731 1781.34 220.507 1781.97 219.154Z" fill="white" fill-opacity="0.1"/>
<path d="M1911.21 758.575C1911.44 760.046 1912.03 761.483 1913 762.753C1913.96 764.023 1915.18 764.979 1916.54 765.602C1915.07 765.837 1913.63 766.427 1912.36 767.39C1911.09 768.353 1910.13 769.577 1909.51 770.929C1909.27 769.458 1908.68 768.022 1907.72 766.752C1906.76 765.482 1905.54 764.526 1904.18 763.903C1905.65 763.668 1907.09 763.078 1908.36 762.115C1909.63 761.152 1910.59 759.928 1911.21 758.575Z" fill="white" fill-opacity="0.1"/>
<path d="M1820.27 785.741C1820.5 787.212 1821.09 788.649 1822.05 789.919C1823.02 791.189 1824.24 792.145 1825.59 792.768C1824.12 793.003 1822.69 793.593 1821.42 794.556C1820.15 795.519 1819.19 796.743 1818.57 798.095C1818.33 796.624 1817.74 795.188 1816.78 793.918C1815.82 792.648 1814.59 791.692 1813.24 791.069C1814.71 790.834 1816.15 790.244 1817.42 789.281C1818.69 788.318 1819.64 787.094 1820.27 785.741Z" fill="white" fill-opacity="0.1"/>
<path d="M1908.27 890.002C1908.5 891.473 1909.09 892.909 1910.05 894.179C1911.02 895.449 1912.24 896.405 1913.59 897.029C1912.12 897.264 1910.69 897.854 1909.42 898.817C1908.15 899.78 1907.19 901.003 1906.57 902.356C1906.33 900.885 1905.74 899.449 1904.78 898.179C1903.82 896.909 1902.59 895.953 1901.24 895.329C1902.71 895.094 1904.15 894.504 1905.42 893.541C1906.69 892.579 1907.64 891.355 1908.27 890.002Z" fill="white" fill-opacity="0.1"/>
<path d="M1876.98 712.706C1877.22 714.177 1877.81 715.613 1878.77 716.884C1879.73 718.154 1880.96 719.109 1882.31 719.733C1880.84 719.968 1879.4 720.558 1878.13 721.521C1876.86 722.484 1875.91 723.707 1875.28 725.06C1875.05 723.589 1874.46 722.153 1873.5 720.883C1872.53 719.613 1871.31 718.657 1869.96 718.034C1871.43 717.798 1872.86 717.208 1874.13 716.246C1875.4 715.283 1876.36 714.059 1876.98 712.706Z" fill="white" fill-opacity="0.1"/>
<path d="M1851.2 501.767C1851.44 503.238 1852.03 504.674 1852.99 505.944C1853.96 507.214 1855.18 508.17 1856.53 508.794C1855.06 509.029 1853.62 509.619 1852.35 510.582C1851.08 511.544 1850.13 512.768 1849.5 514.121C1849.27 512.65 1848.68 511.214 1847.72 509.944C1846.75 508.674 1845.53 507.718 1844.18 507.094C1845.65 506.859 1847.08 506.269 1848.35 505.306C1849.62 504.343 1850.58 503.12 1851.2 501.767Z" fill="white" fill-opacity="0.1"/>
<path d="M1887.08 81.1933C1886.2 82.3998 1885.61 83.8325 1885.39 85.4115C1885.17 86.9903 1885.36 88.5314 1885.88 89.929C1884.67 89.0551 1883.24 88.4567 1881.66 88.2395C1880.08 88.0224 1878.54 88.2116 1877.14 88.7273C1878.01 87.5208 1878.61 86.0881 1878.83 84.5093C1879.05 82.9304 1878.86 81.3893 1878.34 79.9917C1879.55 80.8656 1880.98 81.4639 1882.56 81.6811C1884.14 81.8983 1885.68 81.709 1887.08 81.1933Z" fill="white" fill-opacity="0.1"/>
<path d="M1597.04 554.012C1596.17 555.218 1595.57 556.651 1595.35 558.23C1595.13 559.809 1595.32 561.35 1595.84 562.747C1594.63 561.873 1593.2 561.275 1591.62 561.058C1590.04 560.841 1588.5 561.03 1587.1 561.546C1587.98 560.339 1588.57 558.906 1588.79 557.328C1589.01 555.749 1588.82 554.208 1588.3 552.81C1589.51 553.684 1590.94 554.282 1592.52 554.499C1594.1 554.717 1595.64 554.527 1597.04 554.012Z" fill="white" fill-opacity="0.1"/>
<path d="M1513.52 508.914C1512.65 510.12 1512.05 511.553 1511.84 513.132C1511.62 514.711 1511.81 516.252 1512.32 517.65C1511.12 516.776 1509.68 516.177 1508.1 515.96C1506.53 515.743 1504.99 515.932 1503.59 516.448C1504.46 515.242 1505.06 513.809 1505.28 512.23C1505.49 510.651 1505.3 509.11 1504.79 507.712C1506 508.586 1507.43 509.185 1509.01 509.402C1510.59 509.619 1512.13 509.43 1513.52 508.914Z" fill="white" fill-opacity="0.1"/>
<path d="M1817.33 764.601C1816.46 765.808 1815.86 767.241 1815.64 768.82C1815.43 770.399 1815.62 771.94 1816.13 773.337C1814.93 772.463 1813.49 771.865 1811.91 771.648C1810.33 771.431 1808.79 771.62 1807.4 772.135C1808.27 770.929 1808.87 769.496 1809.09 767.917C1809.3 766.339 1809.11 764.798 1808.6 763.4C1809.8 764.274 1811.24 764.872 1812.82 765.089C1814.39 765.306 1815.94 765.117 1817.33 764.601Z" fill="white" fill-opacity="0.1"/>
<path d="M1609.24 747.88C1608.37 749.086 1607.77 750.519 1607.55 752.098C1607.33 753.677 1607.52 755.218 1608.04 756.616C1606.83 755.742 1605.4 755.143 1603.82 754.926C1602.24 754.709 1600.7 754.898 1599.3 755.414C1600.18 754.207 1600.77 752.775 1600.99 751.196C1601.21 749.617 1601.02 748.076 1600.5 746.678C1601.71 747.552 1603.14 748.15 1604.72 748.368C1606.3 748.585 1607.84 748.396 1609.24 747.88Z" fill="white" fill-opacity="0.1"/>
<path d="M1502.02 644.862C1501.15 646.069 1500.55 647.501 1500.33 649.08C1500.12 650.659 1500.31 652.2 1500.82 653.598C1499.61 652.724 1498.18 652.126 1496.6 651.908C1495.02 651.691 1493.48 651.881 1492.09 652.396C1492.96 651.19 1493.56 649.757 1493.77 648.178C1493.99 646.599 1493.8 645.058 1493.29 643.661C1494.49 644.534 1495.93 645.133 1497.51 645.35C1499.08 645.567 1500.63 645.378 1502.02 644.862Z" fill="white" fill-opacity="0.1"/>
<path d="M1605.27 497.374C1604.4 498.58 1603.8 500.013 1603.58 501.592C1603.36 503.171 1603.55 504.712 1604.07 506.11C1602.86 505.236 1601.43 504.637 1599.85 504.42C1598.27 504.203 1596.73 504.392 1595.33 504.908C1596.21 503.701 1596.8 502.269 1597.02 500.69C1597.24 499.111 1597.05 497.57 1596.53 496.172C1597.74 497.046 1599.17 497.645 1600.75 497.862C1602.33 498.079 1603.87 497.89 1605.27 497.374Z" fill="white" fill-opacity="0.1"/>
<path d="M1766.66 622.704C1765.78 623.911 1765.18 625.343 1764.97 626.922C1764.75 628.501 1764.94 630.042 1765.45 631.44C1764.25 630.566 1762.81 629.967 1761.24 629.75C1759.66 629.533 1758.12 629.722 1756.72 630.238C1757.59 629.032 1758.19 627.599 1758.41 626.02C1758.62 624.441 1758.44 622.9 1757.92 621.502C1759.13 622.376 1760.56 622.975 1762.14 623.192C1763.72 623.409 1765.26 623.22 1766.66 622.704Z" fill="white" fill-opacity="0.1"/>
<path d="M1749.9 876.875C1749.03 878.081 1748.43 879.514 1748.22 881.093C1748 882.672 1748.19 884.213 1748.7 885.611C1747.5 884.737 1746.06 884.138 1744.48 883.921C1742.91 883.704 1741.36 883.893 1739.97 884.409C1740.84 883.202 1741.44 881.77 1741.66 880.191C1741.87 878.612 1741.68 877.071 1741.17 875.673C1742.38 876.547 1743.81 877.146 1745.39 877.363C1746.97 877.58 1748.51 877.391 1749.9 876.875Z" fill="white" fill-opacity="0.1"/>
<path d="M1736.2 329.99C1735.33 331.197 1734.73 332.629 1734.51 334.208C1734.29 335.787 1734.48 337.328 1735 338.726C1733.79 337.852 1732.36 337.254 1730.78 337.036C1729.2 336.819 1727.66 337.009 1726.26 337.524C1727.14 336.318 1727.74 334.885 1727.95 333.306C1728.17 331.727 1727.98 330.186 1727.46 328.789C1728.67 329.662 1730.1 330.261 1731.68 330.478C1733.26 330.695 1734.8 330.506 1736.2 329.99Z" fill="white" fill-opacity="0.1"/>
<path d="M1898.55 521.918C1897.67 523.124 1897.07 524.557 1896.86 526.136C1896.64 527.715 1896.83 529.256 1897.35 530.654C1896.14 529.78 1894.71 529.181 1893.13 528.964C1891.55 528.747 1890.01 528.936 1888.61 529.452C1889.48 528.245 1890.08 526.813 1890.3 525.234C1890.52 523.655 1890.33 522.114 1889.81 520.716C1891.02 521.59 1892.45 522.189 1894.03 522.406C1895.61 522.623 1897.15 522.434 1898.55 521.918Z" fill="white" fill-opacity="0.1"/>
<path d="M1518.1 930.04C1516.89 929.167 1515.46 928.568 1513.88 928.351C1512.3 928.134 1510.76 928.323 1509.36 928.839C1510.23 927.632 1510.83 926.199 1511.05 924.621C1511.27 923.042 1511.08 921.501 1510.56 920.103C1511.77 920.977 1513.2 921.575 1514.78 921.792C1516.36 922.01 1517.9 921.82 1519.3 921.305C1518.42 922.511 1517.83 923.944 1517.61 925.523C1517.39 927.102 1517.58 928.643 1518.1 930.04Z" fill="white" fill-opacity="0.1"/>
<path d="M1563.19 846.525C1561.99 845.651 1560.56 845.053 1558.98 844.835C1557.4 844.618 1555.86 844.807 1554.46 845.323C1555.33 844.117 1555.93 842.684 1556.15 841.105C1556.37 839.526 1556.18 837.985 1555.66 836.587C1556.87 837.461 1558.3 838.06 1559.88 838.277C1561.46 838.494 1563 838.305 1564.4 837.789C1563.52 838.996 1562.92 840.428 1562.71 842.007C1562.49 843.586 1562.68 845.127 1563.19 846.525Z" fill="white" fill-opacity="0.1"/>
<path d="M1324.23 942.239C1323.02 941.365 1321.59 940.766 1320.01 940.549C1318.43 940.332 1316.89 940.521 1315.49 941.037C1316.37 939.83 1316.97 938.398 1317.18 936.819C1317.4 935.24 1317.21 933.699 1316.69 932.301C1317.9 933.175 1319.33 933.774 1320.91 933.991C1322.49 934.208 1324.03 934.019 1325.43 933.503C1324.56 934.709 1323.96 936.142 1323.74 937.721C1323.52 939.3 1323.71 940.841 1324.23 942.239Z" fill="white" fill-opacity="0.1"/>
<path d="M1427.24 835.025C1426.04 834.151 1424.6 833.553 1423.03 833.335C1421.45 833.118 1419.91 833.307 1418.51 833.823C1419.38 832.617 1419.98 831.184 1420.2 829.605C1420.41 828.026 1420.22 826.485 1419.71 825.087C1420.92 825.961 1422.35 826.56 1423.93 826.777C1425.51 826.994 1427.05 826.805 1428.44 826.289C1427.57 827.496 1426.97 828.928 1426.76 830.507C1426.54 832.086 1426.73 833.627 1427.24 835.025Z" fill="white" fill-opacity="0.1"/>
<path d="M1574.73 938.274C1573.53 937.4 1572.1 936.802 1570.52 936.584C1568.94 936.367 1567.4 936.556 1566 937.072C1566.87 935.866 1567.47 934.433 1567.69 932.854C1567.91 931.275 1567.72 929.734 1567.2 928.337C1568.41 929.21 1569.84 929.809 1571.42 930.026C1573 930.243 1574.54 930.054 1575.94 929.538C1575.06 930.745 1574.46 932.177 1574.25 933.756C1574.03 935.335 1574.22 936.876 1574.73 938.274Z" fill="white" fill-opacity="0.1"/>
<path d="M1579.11 788.982C1579.34 790.453 1579.93 791.889 1580.89 793.159C1581.86 794.429 1583.08 795.385 1584.43 796.008C1582.96 796.244 1581.53 796.834 1580.26 797.796C1578.99 798.759 1578.03 799.983 1577.41 801.336C1577.17 799.865 1576.58 798.428 1575.62 797.159C1574.66 795.888 1573.43 794.933 1572.08 794.309C1573.55 794.074 1574.99 793.484 1576.26 792.521C1577.53 791.558 1578.48 790.334 1579.11 788.982Z" fill="white" fill-opacity="0.1"/>
<path d="M1516.71 906.166C1516.94 907.637 1517.53 909.073 1518.49 910.343C1519.46 911.613 1520.68 912.569 1522.03 913.193C1520.56 913.428 1519.13 914.018 1517.86 914.981C1516.59 915.944 1515.63 917.167 1515.01 918.52C1514.77 917.049 1514.18 915.613 1513.22 914.343C1512.26 913.073 1511.03 912.117 1509.68 911.494C1511.15 911.258 1512.59 910.668 1513.86 909.706C1515.13 908.743 1516.08 907.519 1516.71 906.166Z" fill="white" fill-opacity="0.1"/>
<path d="M1860.52 966.276C1860.75 967.748 1861.34 969.184 1862.3 970.454C1863.27 971.724 1864.49 972.68 1865.84 973.303C1864.37 973.538 1862.94 974.128 1861.67 975.091C1860.4 976.054 1859.44 977.278 1858.82 978.631C1858.58 977.16 1857.99 975.723 1857.03 974.453C1856.07 973.183 1854.84 972.228 1853.49 971.604C1854.96 971.369 1856.4 970.779 1857.67 969.816C1858.94 968.853 1859.89 967.629 1860.52 966.276Z" fill="white" fill-opacity="0.1"/>
<path d="M1646.77 933.995C1647 935.466 1647.59 936.903 1648.55 938.173C1649.52 939.443 1650.74 940.398 1652.09 941.022C1650.62 941.257 1649.19 941.847 1647.92 942.81C1646.65 943.773 1645.69 944.996 1645.07 946.349C1644.83 944.878 1644.24 943.442 1643.28 942.172C1642.32 940.902 1641.09 939.946 1639.74 939.323C1641.21 939.087 1642.65 938.497 1643.92 937.535C1645.19 936.572 1646.14 935.348 1646.77 933.995Z" fill="white" fill-opacity="0.1"/>
<path d="M1466.9 730.449C1467.13 731.92 1467.72 733.357 1468.69 734.627C1469.65 735.897 1470.87 736.853 1472.23 737.476C1470.76 737.711 1469.32 738.301 1468.05 739.264C1466.78 740.227 1465.82 741.451 1465.2 742.803C1464.96 741.332 1464.37 739.896 1463.41 738.626C1462.45 737.356 1461.22 736.4 1459.87 735.777C1461.34 735.542 1462.78 734.952 1464.05 733.989C1465.32 733.026 1466.28 731.802 1466.9 730.449Z" fill="white" fill-opacity="0.1"/>
<path d="M1900.79 834.669C1899.92 835.875 1899.32 837.308 1899.1 838.887C1898.89 840.466 1899.08 842.007 1899.59 843.405C1898.39 842.531 1896.95 841.932 1895.37 841.715C1893.8 841.498 1892.25 841.687 1890.86 842.203C1891.73 840.996 1892.33 839.564 1892.55 837.985C1892.76 836.406 1892.57 834.865 1892.06 833.467C1893.27 834.341 1894.7 834.939 1896.28 835.157C1897.86 835.374 1899.4 835.185 1900.79 834.669Z" fill="white" fill-opacity="0.1"/>
</g>
<defs>
<clipPath id="clip0_2009_2">
<rect width="1920" height="972" fill="white"/>
</clipPath>
</defs>
</svg>
