<svg width="58" height="19" fill="none" xmlns="http://www.w3.org/2000/svg"><g clip-path="url(#a)"><path d="M25.143 18.683h-4.732L23.368.328h4.734l-2.959 18.355ZM16.43.328l-4.512 12.625-.534-2.719.001.001-1.592-8.254S9.599.328 7.547.328H.087L0 .638s2.281.48 4.95 2.099l4.112 15.947h4.931L21.523.328h-5.094Zm37.225 18.355h4.345L54.211.327h-3.805c-1.757 0-2.185 1.368-2.185 1.368l-7.058 16.988h4.934l.986-2.726H53.1l.555 2.726Zm-5.208-6.493 2.487-6.869 1.399 6.87h-3.886Zm-6.913-7.448L42.208.8S40.124 0 37.953 0c-2.349 0-7.926 1.036-7.926 6.077 0 4.742 6.546 4.8 6.546 7.291 0 2.491-5.872 2.045-7.81.474l-.703 4.121S30.172 19 33.401 19c3.23 0 8.102-1.689 8.102-6.284 0-4.773-6.605-5.217-6.605-7.292s4.61-1.809 6.635-.682Z" fill="#fff"/><path d="M11.384 10.234 9.792 1.98S9.599.327 7.547.327H.087L0 .637s3.585.751 7.024 3.562c3.288 2.687 4.36 6.035 4.36 6.035Z" fill="#F2AF0C"/></g><defs><clipPath id="a"><path fill="#fff" d="M0 0h58v19H0z"/></clipPath></defs></svg>