<svg width="61" height="23" fill="none" xmlns="http://www.w3.org/2000/svg"><g clip-path="url(#a)"><mask id="b" style="mask-type:luminance" maskUnits="userSpaceOnUse" x="0" y="0" width="61" height="23"><path d="M61 .138H0v22.725h61V.138Z" fill="#fff"/></mask><g mask="url(#b)"><mask id="c" style="mask-type:alpha" maskUnits="userSpaceOnUse" x="0" y="0" width="61" height="23"><path d="m0 8.14 8.955-1.244v3.55L0 11.42V8.14Zm2.857 3.48 3.279-.331v11.573H2.857V11.62Zm7.307-4.892 3.454-.48v16.614h-3.454V6.728Zm4.098-.57 4.989-.692v3.861l-4.989.543V6.158Zm0 6.474 3.275-.278v3.881l-3.275.177v-3.78Zm0 6.503 4.989-.148v3.875h-4.989v-3.727Zm17.89-15.467 4.527-.63v19.824h-4.528V3.668Zm5.374-.747 6.6-.916v4.614l-6.6.717V2.921Zm0 7.736 4.326-.367v4.63l-4.326.234v-4.497Zm0 7.784 6.6-.197v4.618h-6.6v-4.421ZM20.57 5.281l3.936-.547v18.127H20.57V5.282Zm4.67 13.526 5.712-.17v4.224H25.24v-4.054ZM58.92 1.788a5.767 5.767 0 0 1 1.81 4.75c-.298 3.396-1.965 6.117-6.608 10.6l-7.598.247s5.293-4.751 7.283-7.073c1.29-1.504 1.836-3.128 1.307-4.21-.336-.686-1.09-1.028-2.019-.977V.228c2.296-.326 4.395.223 5.825 1.56ZM61 22.861H45.587v-4.745L61 17.737v5.125ZM52.21.338l.003 4.988c-.94.391-1.869 1.103-1.65 4.104l-4.775.419c-.254-5.313 1.945-8.569 6.422-9.51Z" fill="#000"/></mask><g mask="url(#c)"><path d="m0 8.14 8.955-1.244v3.55L0 11.42V8.14Zm2.857 3.48 3.279-.331v11.573H2.857V11.62Zm7.307-4.892 3.454-.48v16.614h-3.454V6.728Zm4.098-.57 4.989-.692v3.861l-4.989.543V6.158Zm0 6.474 3.275-.278v3.881l-3.275.177v-3.78Zm0 6.503 4.989-.148v3.875h-4.989v-3.727Zm17.89-15.467 4.527-.63v19.824h-4.528V3.668Zm5.374-.747 6.6-.916v4.614l-6.6.717V2.921Zm0 7.736 4.326-.367v4.63l-4.326.234v-4.497Zm0 7.784 6.6-.197v4.618h-6.6v-4.421ZM20.57 5.281l3.936-.547v18.127H20.57V5.282Zm4.67 13.526 5.712-.17v4.224H25.24v-4.054ZM58.92 1.788a5.767 5.767 0 0 1 1.81 4.75c-.298 3.396-1.965 6.117-6.608 10.6l-7.598.247s5.293-4.751 7.283-7.073c1.29-1.504 1.836-3.128 1.307-4.21-.336-.686-1.09-1.028-2.019-.977V.228c2.296-.326 4.395.223 5.825 1.56ZM61 22.861H45.587v-4.745L61 17.737v5.125ZM52.21.338l.003 4.988c-.94.391-1.869 1.103-1.65 4.104l-4.775.419c-.254-5.313 1.945-8.569 6.422-9.51Z" fill="#fff"/></g></g></g><defs><clipPath id="a"><path fill="#fff" transform="translate(0 .138)" d="M0 0h61v22.726H0z"/></clipPath></defs></svg>