<svg width="74" height="23" fill="none" xmlns="http://www.w3.org/2000/svg"><g clip-path="url(#a)"><path d="M19.941 1.098v.009c-.009 0-2.891-.01-3.66 2.726-.704 2.508-2.69 9.43-2.745 9.62h-.549s-2.031-7.076-2.745-9.63c-.769-2.734-3.66-2.725-3.66-2.725H0V21.9h6.585V9.546h.549L10.977 21.9h4.572l3.843-12.346h.55V21.9h6.584V1.098h-6.585Zm24.056 0s-1.93.172-2.837 2.18l-4.663 10.175h-.55V1.098h-6.584V21.9h6.219s2.022-.182 2.928-2.18l4.572-10.175h.549V21.9h6.585V1.098h-6.22Zm9.147 9.447v11.356h6.585v-6.63h7.134a7.122 7.122 0 0 0 6.722-4.723H53.144v-.003Z" fill="#4DB45E"/><path d="M66.865 1.099H52.219c.732 3.962 3.724 7.14 7.591 8.175.898.242 1.824.364 2.754.364h11.289c.1-.473.146-.955.146-1.454 0-3.914-3.193-7.085-7.134-7.085Z" fill="url(#b)"/></g><defs><linearGradient id="b" x1="52.219" y1="5.368" x2="73.999" y2="5.368" gradientUnits="userSpaceOnUse"><stop offset=".3" stop-color="#00B4E6"/><stop offset="1" stop-color="#088CCB"/></linearGradient><clipPath id="a"><path fill="#fff" transform="translate(0 1.094)" d="M0 0h74v20.813H0z"/></clipPath></defs></svg>