<svg width="27" height="27" fill="none" xmlns="http://www.w3.org/2000/svg"><g clip-path="url(#a)"><path d="M24.179 5.144c.638.83 1.17 1.742 1.622 2.707l-12.289 9.14-5.16-3.27V9.808l5.133 3.243L24.18 5.144Z" fill="#21A038"/><path d="M3.112 13.45c0-.187 0-.348.027-.535l-3.112-.161c0 .214-.027.456-.027.67 0 3.753 1.516 7.157 3.963 9.623l2.208-2.225a10.342 10.342 0 0 1-3.059-7.371Z" fill="url(#b)"/><path d="M13.486 2.998c.186 0 .346 0 .532.027l.16-3.136c-.213 0-.453-.027-.666-.027-3.724 0-7.102 1.528-9.55 3.994l2.209 2.225a10.232 10.232 0 0 1 7.315-3.083Z" fill="url(#c)"/><path d="M13.485 23.907c-.187 0-.346 0-.532-.027l-.16 3.136c.213 0 .452.027.665.027 3.724 0 7.102-1.528 9.55-3.994L20.8 20.824c-1.862 1.93-4.443 3.083-7.315 3.083Z" fill="url(#d)"/><path d="m19.338 4.822 2.634-1.957c-2.314-1.876-5.267-3.03-8.486-3.03v3.137c2.182.027 4.203.697 5.852 1.85Z" fill="url(#e)"/><path d="M26.999 13.453c0-.831-.08-1.635-.213-2.44l-2.9 2.172v.268a10.42 10.42 0 0 1-3.43 7.746l2.1 2.332A13.624 13.624 0 0 0 27 13.453Z" fill="#21A038"/><path d="M13.486 23.906c-3.059 0-5.799-1.34-7.687-3.458l-2.315 2.118a13.377 13.377 0 0 0 10.002 4.476v-3.136Z" fill="url(#f)"/><path d="M6.544 5.707 4.442 3.375A13.571 13.571 0 0 0 0 13.453h3.112c0-3.055 1.33-5.843 3.432-7.746Z" fill="url(#g)"/></g><defs><linearGradient id="b" x1="3.631" y1="22.665" x2=".454" y2="13.409" gradientUnits="userSpaceOnUse"><stop offset=".144" stop-color="#F2E913"/><stop offset=".304" stop-color="#E7E518"/><stop offset=".582" stop-color="#CADB26"/><stop offset=".891" stop-color="#A3CD39"/></linearGradient><linearGradient id="c" x1="4.85" y1="3.502" x2="12.918" y2=".404" gradientUnits="userSpaceOnUse"><stop offset=".059" stop-color="#0FA8E0"/><stop offset=".538" stop-color="#0099F9"/><stop offset=".923" stop-color="#0291EB"/></linearGradient><linearGradient id="d" x1="12.61" y1="24.376" x2="22.228" y2="22.185" gradientUnits="userSpaceOnUse"><stop offset=".123" stop-color="#A3CD39"/><stop offset=".285" stop-color="#86C339"/><stop offset=".869" stop-color="#21A038"/></linearGradient><linearGradient id="e" x1="12.847" y1="1.833" x2="20.843" y2="4.32" gradientUnits="userSpaceOnUse"><stop offset=".057" stop-color="#0291EB"/><stop offset=".79" stop-color="#0C8ACB"/></linearGradient><linearGradient id="f" x1="4.276" y1="23.063" x2="12.865" y2="26.297" gradientUnits="userSpaceOnUse"><stop offset=".132" stop-color="#F2E913"/><stop offset=".298" stop-color="#EBE716"/><stop offset=".531" stop-color="#D9E01F"/><stop offset=".802" stop-color="#BBD62D"/><stop offset=".983" stop-color="#A3CD39"/></linearGradient><linearGradient id="g" x1="2.385" y1="13.832" x2="5.82" y2="4.827" gradientUnits="userSpaceOnUse"><stop offset=".07" stop-color="#A3CD39"/><stop offset=".26" stop-color="#81C55F"/><stop offset=".922" stop-color="#0FA8E0"/></linearGradient><clipPath id="a"><path fill="#fff" d="M0 0h27v27H0z"/></clipPath></defs></svg>