<svg width="52" height="27" fill="none" xmlns="http://www.w3.org/2000/svg"><g clip-path="url(#a)"><mask id="b" style="mask-type:luminance" maskUnits="userSpaceOnUse" x="0" y="0" width="52" height="27"><path d="M52 .5H0v26h52V.5Z" fill="#fff"/></mask><g mask="url(#b)" fill-rule="evenodd" clip-rule="evenodd"><path d="M26.867.5v26H52V.5H26.867ZM0 .5v26h25.133V.5H0Z" fill="#0055A5"/><path d="M50.702 1.799v23.4H28.168v-23.4h22.534ZM13.618 18.9c-.277-.347-.417-.803-.417-1.354 0-.566.134-1.02.398-1.354.288-.364.712-.549 1.26-.549h.042V14.7h-.042c-.856 0-1.516.276-1.963.82-.406.49-.613 1.175-.613 2.034 0 .83.224 1.513.665 2.03.464.542 1.111.817 1.924.817h.042v-.943h-.042c-.536 0-.958-.188-1.254-.557Zm-3.26 0c-.276-.347-.417-.802-.417-1.354 0-.566.134-1.02.398-1.354.288-.364.712-.549 1.26-.549h.042V14.7H11.6c-.856 0-1.516.276-1.963.82-.406.49-.612 1.175-.612 2.034 0 .83.224 1.513.665 2.03.464.542 1.11.817 1.923.817h.042v-.943h-.042c-.535 0-.957-.188-1.253-.557Zm2.996-9.191v2.627h.974v-5.44h-.974v1.895h-.53c-.218 0-.38-.05-.484-.152a.382.382 0 0 1-.11-.292v-1.45h-.973V8.45c0 .357.137.66.408.9.268.238.597.359.978.359h.711Zm9.31 4.861-.068.074-1.944 2.088v-1.902h-.85v5.408h.85v-2.222l1.233-1.343.123 3.565h.867l-.21-5.668Zm-6.366-2.234h.973V7.802h.82v-.904h-2.6v.904h.807v4.535Zm2.242 2.308-1.945 2.088v-1.902h-.85v5.408h.85v-2.222l1.233-1.343.123 3.565h.867l-.21-5.668-.068.074Zm1.75-6.843h.352c.251 0 .423.077.528.237.084.132.144.389.182.74h-1.086l.024-.977Zm-.041 1.88h1.215l.273 2.655h.98l-.449-3.976c0-.522-.156-.915-.465-1.162-.246-.2-.582-.301-1-.301H19.36l-.18 5.44h.974l.094-2.656ZM3.287 7.802h1.206v4.536h.973v-5.44H2.314v5.44h.973V7.801Zm.455 9.981c-.07.139-.15.208-.241.208-.088 0-.162-.06-.226-.183-.068-.132-.102-.324-.102-.572v-1.592h.035c.201 0 .355.115.47.35.117.24.177.627.177 1.148 0 .277-.038.493-.113.641ZM3.21 14.84H2.31v5.396h.864v-1.568c.167.151.35.241.55.241.287 0 .526-.156.711-.464.207-.347.312-.86.312-1.526 0-.462-.084-.878-.25-1.233-.26-.561-.694-.846-1.286-.846ZM9 11.007c-.127.352-.305.523-.545.523-.23 0-.403-.173-.53-.53-.133-.373-.2-.847-.2-1.407 0-.575.066-1.048.197-1.406.123-.343.298-.51.533-.51.263 0 .452.169.574.516.113.319.17.785.17 1.385 0 .58-.067 1.06-.2 1.429Zm.751.615c.289-.513.435-1.2.435-2.044 0-.834-.152-1.517-.45-2.03-.305-.524-.736-.789-1.283-.789-.518 0-.93.267-1.225.794-.289.514-.435 1.197-.435 2.032 0 .863.14 1.56.416 2.072.283.524.701.79 1.244.79.552.001.989-.277 1.298-.825Zm-2.437 7.314c-.114.355-.281.535-.497.535-.208 0-.37-.182-.485-.543-.119-.376-.18-.852-.18-1.416 0-.579.06-1.055.177-1.416.111-.346.276-.521.488-.521.24 0 .412.173.523.529.102.321.153.79.153 1.393 0 .584-.06 1.067-.179 1.439Zm.643-3.456c-.27-.517-.654-.78-1.14-.78-.46 0-.826.264-1.087.785-.257.511-.388 1.191-.388 2.02 0 .858.125 1.552.37 2.06.251.518.623.78 1.105.78.49 0 .878-.274 1.153-.817.257-.508.387-1.191.387-2.03 0-.83-.134-1.509-.4-2.018Z" fill="#fff"/><path d="M34.425 9.019c.186.424.493.858 1.327 1.444.186.131.392.404.235.788-.157.384-.452.93-.275 1.14.176.213.804.325 1.316.112 0 0 .108.333.294.545 0 0-.088.182-.382.092 0 0 .108.272-.04.565 0 0-.344-.06-.491-.384 0 0-.138.253-.412.343 0 0-.227-.12-.177-.585 0 0-.167.414-.678.484 0 0-.295-.383.089-.9 0 0-.276.254-.776.133 0 0-.08-.262.373-.627 0 0-.512-.02-.708-.464 0 0 .216-.273.747-.212 0 0-.491-.111-.6-.718 0 0 .354-.232.915.142 0 0-.1-.192-.335-.384-.236-.191-.52-.727-.422-1.514Zm2.055 6.092a1.49 1.49 0 0 1-.171-.3c.088.735.12 1.23.505 1.706 0 0 .233-.319.083-1.093a.73.73 0 0 1-.208-.099s.088.314.033.63c0 0-.139-.104-.242-.844Zm-.667-.076a2.302 2.302 0 0 1-.181-.277c-.033.427-.142 1.55.224 1.902 0 0 .25-.189.339-1.827-.053.092-.146.19-.191.242 0 0 .06.52-.12.887 0 0-.183-.142-.072-.927Zm-.872.858c.307-.379.4-1.513.4-1.513a2.045 2.045 0 0 0 .178-.142c0 .041.002.084.006.127-.045.682-.097 1.386-.304 1.737-.203.343-.576.52-.576.52-.35-.64.072-1.5.426-2.097.044-.017.088-.038.133-.062-.125.461-.36 1.008-.263 1.43Zm-.868-1.97a.514.514 0 0 0 .02.165c.004.012.009.028.017.045-.294.297-.51.58-.946 1.2-.435.623-1.123.647-1.123.647.065-.503.199-.901.567-1.33.369-.428.84-.82 1.187-1.08.089.043.205.07.352.052l.035-.005a.523.523 0 0 0-.091.183c-.262.155-1.023.552-1.332 1.192 0 0 .482-.155 1.314-1.068Zm-.547-.626.03-.053a.48.48 0 0 1 .03-.049c-.283.114-1.292.505-1.618.678-.326.175-.799.57-1.055 1.373 0 0 .68.063 1.242-.415.562-.479 1.216-1.146 1.496-1.359a.631.631 0 0 1-.065-.074s-.76.693-1.564.992c0 0 .172-.32.49-.554.386-.283.676-.378 1.014-.539Zm-.576-.472c.01-.028.022-.054.033-.08-.332.07-1.164.172-1.536.289-.371.117-1.044.397-1.443 1.18 0 0 .586.185 1.69-.35 1.105-.534 1.45-.645 1.662-.702a.777.777 0 0 1-.35-.11c-.44.201-1.03.44-1.614.456 0 0 .29-.21.591-.34.314-.137.637-.252.967-.343Zm.028-.564a.894.894 0 0 0 .332.094.853.853 0 0 0-.215.204c-.39.115-1.053.241-2.147.322-1.096.082-1.68-.126-1.68-.126a4.85 4.85 0 0 1 1.402-.564c.411-.082 1.49-.074 1.964-.14.006.005.063.054.156.112-.398.037-1.247.078-1.685.306 0 0 .809.11 1.873-.208Zm-.082-.647c.055-.033.121-.066.203-.098-.554-.172-1.315-.448-2.46-.525-.84-.057-1.447-.008-1.76.076 0 0 .765.554 1.639.75.874.196 1.584.072 2.103.076a.908.908 0 0 1 .134-.17c-.606.003-1.617-.159-1.978-.282 0 0 .881-.189 2.119.173Zm-.003-.67c.003.016.067.338.43.516-.778-.35-2.312-.553-3.135-.905-1.114-.476-1.317-1.07-1.317-1.07.964-.026 1.743.217 2.344.406.703.221 1.774.632 2.148.804a.818.818 0 0 0-.424.136 11.542 11.542 0 0 0-1.242-.43c-.375-.108-.653-.13-.886-.152 0 0 .329.224.873.403.538.177.772.206 1.209.292Zm-.06-.874c.032.057.124.193.16.246-1.23-.211-2.583-1.169-3.001-1.761-.419-.594-.3-1.48-.3-1.48.406.085 1.288.867 1.516 1.101.228.235.919.925 1.396 1.312l.15.445c-.395-.323-.794-.64-1.198-.95-.233-.181-.582-.437-.928-.559 0 0 .32.428.576.636.267.22.55.418.849.592.222.125.334.196.78.418Z" fill="#0055A5"/><path d="M36.304 13.612c.038-.033.07-.067.097-.097.056.073.246.318.34.56.07.208.145.49.184.653.037.162.15.497.217.613 0 0-.3.039-.522-.227a1.446 1.446 0 0 1-.326-.796 3.011 3.011 0 0 1 .01-.706Zm-.473.04a.38.38 0 0 0 .116.11l.04.022.042-.014a.775.775 0 0 0 .104-.043c.043.125.061.185.072.291.014.14.041.362-.01.543-.063.222-.191.356-.262.442 0 0-.196-.222-.252-.405a1.07 1.07 0 0 1-.008-.643.905.905 0 0 1 .158-.303Zm-.675.021a.98.98 0 0 0 .466-.189c.026.073.065.171.036.31a.753.753 0 0 1-.257.403c-.202.166-.473.322-.772.274 0 0-.068-.23.527-.798Zm-.226-.385c.024.205.12.334.127.344-.07.086-.322.532-.849.456 0 0-.142-.303.208-.544.238-.163.35-.197.514-.256Zm.045-.38c-.18.044-.367.043-.546-.004l-.06-.015-.018-.06c-.27.227-.592.264-.702.468 0 0 .135.258.485.214a1.162 1.162 0 0 0 .802-.453c.008-.037.023-.104.04-.15Zm-.607-.32c.05-.075.085-.193.19-.312a1.823 1.823 0 0 0-.713.009c-.323.063-.654.141-.819.647 0 0 .208.181.585.102.32-.067.599-.208.758-.446Zm-.137-.548a.824.824 0 0 1-.21-.29l-.027-.062c-.28-.118-.572-.179-.858-.069-.285.11-.36.237-.433.346 0 0 .316.273.68.283.366.012.702-.096.848-.208Zm.085-.592a.973.973 0 0 1 .164-.049 1.018 1.018 0 0 1-.306-.539c-.13.031-.435.031-.57-.022a.709.709 0 0 0-.605.085s.07.372.537.499c.438.12.602.088.78.026Zm-.168-.725.062-.04a.65.65 0 0 1 .291-.086c-.15-.116-.508-.424-.762-.572-.277-.16-.737-.371-.97-.403 0 0 .219.592.474.83.265.248.45.34.905.27Zm.472-.273a1.78 1.78 0 0 1-.264-.599c-.054-.198-.174-.69-.246-.817-.072-.127-.33-.573-.835-.71 0 0-.135.579.12 1.039.218.396.667.814 1.225 1.088Zm2.801 2.7c.063.063.111.1.224.158 0 0 .161.316-.034.697a9.99 9.99 0 0 0-.439.988s-.105-.015-.22-.613c-.08-.406-.18-.506-.283-.645a.837.837 0 0 0 .212.079l.079.013.035-.072a.84.84 0 0 0 .085-.48.37.37 0 0 0 .314-.139l.01-.012.017.025Z" fill="#0055A5"/><path d="M33.13 8.568c-.003.06-.003.121-.001.182l.01.143c-.297-.391-.655-.863-.996-1.298a2.676 2.676 0 0 0-.65-.623c.186.552.515.992.75 1.212.234.22.573.59.903.817l.032.112c.026.102.064.207.12.306.076.14.178.277.297.41a7.364 7.364 0 0 0-.316-.15l-.103-.044c-.908-.496-1.81-1.522-2.175-2.237-.365-.714-.213-1.543-.116-1.988.412.36 1.006 1.068 1.265 1.454.318.472.726 1.142.979 1.687v.017Zm12.744 3.047a1.24 1.24 0 0 0-.203-.098c.554-.173 1.316-.448 2.46-.525.84-.057 1.446-.008 1.76.076 0 0-.764.554-1.64.75-.873.196-1.583.071-2.103.076-.034-.053-.072-.112-.133-.171.606.004 1.617-.158 1.977-.281 0 0-.88-.19-2.118.173Zm.003-.67a.777.777 0 0 1-.43.515c.778-.35 2.312-.552 3.135-.904 1.114-.476 1.317-1.07 1.317-1.07-.963-.026-1.743.216-2.343.405-.704.222-1.775.633-2.15.804.141.007.295.048.425.137.524-.207.767-.293 1.242-.43.375-.108.653-.13.886-.153 0 0-.33.225-.873.404-.539.176-.77.206-1.21.292Zm.059-.874c-.031.057-.123.193-.16.246 1.232-.212 2.585-1.169 3.003-1.762.419-.593.299-1.48.299-1.48-.406.085-1.288.868-1.515 1.102-.229.235-.92.925-1.396 1.311l-.15.445c.408-.338.895-.716 1.198-.95.232-.18.58-.436.928-.558 0 0-.32.428-.577.636-.298.241-.6.451-.849.592-.22.124-.334.195-.781.418Zm-.298-1.503c0 .055.002.117 0 .182l-.01.143c.298-.391.655-.863.996-1.298.234-.298.43-.478.65-.623a3.102 3.102 0 0 1-.75 1.212c-.234.22-.572.59-.903.817l-.032.112c-.026.107-.066.21-.119.306a2.276 2.276 0 0 1-.298.41c.096-.049.207-.102.317-.15l.102-.044c.908-.496 1.81-1.522 2.175-2.237.364-.714.214-1.543.116-1.988-.412.36-1.006 1.068-1.265 1.454-.319.472-.726 1.142-.978 1.687l-.001.017ZM34.29 14.21c-.374.386-1.164 1.25-1.09 2.188 0 0 .734-.236 1.036-.79.302-.552.488-.899.616-1.024a.832.832 0 0 1-.243-.002l-.066-.01c-.186.348-.555.919-.887 1.118 0 0-.084-.462.891-1.4a.778.778 0 0 1 .061-.13.835.835 0 0 1-.306.05h-.012Zm10.055-5.19c-.188.424-.494.858-1.327 1.444-.186.131-.392.404-.235.787.157.384.452.93.274 1.141-.176.213-.804.324-1.316.112 0 0-.107.333-.294.545 0 0 .088.182.383.091 0 0-.108.273.04.566 0 0 .343-.06.49-.384 0 0 .138.253.413.343 0 0 .226-.12.177-.586 0 0 .167.414.677.485 0 0 .295-.384-.088-.9 0 0 .275.254.776.133 0 0 .078-.263-.373-.627 0 0 .51-.02.707-.464 0 0-.216-.273-.746-.212 0 0 .49-.112.598-.718 0 0-.353-.232-.912.141 0 0 .098-.191.333-.383.235-.192.52-.727.422-1.515Zm-2.056 6.092c.074-.101.13-.203.171-.301-.087.735-.12 1.23-.505 1.706 0 0-.233-.318-.082-1.092a.725.725 0 0 0 .207-.1s-.088.315-.033.632c0 0 .14-.105.242-.845Zm.667-.077c.068-.087.129-.18.182-.276.032.426.141 1.55-.224 1.901 0 0-.252-.188-.34-1.826.053.091.146.189.191.242 0 0-.06.52.12.887.001 0 .183-.143.071-.928Zm.873.859c-.309-.379-.4-1.514-.4-1.514a1.596 1.596 0 0 1-.18-.142c0 .042 0 .085-.005.128.045.682.097 1.386.305 1.736.203.344.575.521.575.521.351-.64-.073-1.5-.425-2.097a1.164 1.164 0 0 1-.134-.062c.125.46.36 1.008.264 1.43Zm.867-1.97a.503.503 0 0 1-.02.165c-.004.011-.009.028-.017.045.293.297.511.579.946 1.2a1.546 1.546 0 0 0 1.124.646c-.067-.502-.2-.9-.568-1.329-.37-.428-.84-.82-1.187-1.08a.626.626 0 0 1-.386.047.545.545 0 0 1 .09.183c.262.155 1.024.552 1.332 1.191 0 0-.482-.154-1.314-1.068Zm.546-.626-.028-.053a.475.475 0 0 0-.03-.05c.282.114 1.29.506 1.617.679.326.175.798.57 1.055 1.372 0 0-.68.064-1.242-.414-.562-.48-1.217-1.147-1.496-1.36a.626.626 0 0 0 .066-.073s.76.693 1.563.992c0 0-.172-.321-.49-.554-.387-.283-.676-.378-1.015-.54Zm.577-.473a1.593 1.593 0 0 0-.034-.08c.333.07 1.165.173 1.537.29.372.117 1.044.397 1.442 1.179 0 0-.585.186-1.69-.35-1.105-.533-1.45-.644-1.661-.701a.778.778 0 0 0 .35-.11c.44.2 1.029.44 1.614.456 0 0-.289-.21-.592-.34a7.264 7.264 0 0 0-.966-.344Zm-.027-.563a.896.896 0 0 1-.333.094c.077.05.15.116.216.203.389.116 1.052.242 2.147.323 1.095.082 1.678-.126 1.678-.126a4.84 4.84 0 0 0-1.4-.565c-.411-.081-1.492-.073-1.965-.139-.05.041-.101.078-.156.112.399.037 1.247.078 1.685.305 0 0-.808.112-1.872-.207Z" fill="#0055A5"/><path d="M42.466 13.612a.994.994 0 0 1-.097-.097 2.431 2.431 0 0 0-.34.56c-.071.208-.147.49-.184.653-.038.162-.15.497-.218.613 0 0 .3.039.522-.227.218-.262.293-.525.326-.796a3.027 3.027 0 0 0-.01-.706Zm.471.04a.386.386 0 0 1-.113.11l-.04.022-.044-.014a.743.743 0 0 1-.103-.043 1.12 1.12 0 0 0-.072.291c-.014.14-.042.362.01.543.063.222.19.356.262.442 0 0 .196-.222.252-.405.06-.192.08-.415.008-.643a.902.902 0 0 0-.16-.303Zm.677.021a.981.981 0 0 1-.467-.189c-.026.073-.064.171-.035.31a.747.747 0 0 0 .257.403c.201.166.473.322.772.274 0 0 .068-.23-.527-.798Zm.226-.385c-.024.205-.12.334-.127.344.07.086.322.532.849.456 0 0 .142-.303-.208-.544-.239-.163-.35-.197-.514-.256Zm-.046-.38c.14.036.323.05.547-.004l.06-.015.018-.06c.27.227.59.264.701.468 0 0-.134.258-.484.214a1.164 1.164 0 0 1-.802-.453 1.1 1.1 0 0 0-.04-.15Zm.608-.32c-.05-.075-.085-.193-.19-.312.236-.044.478-.041.713.009.324.063.654.141.818.647 0 0-.207.181-.584.102-.32-.067-.599-.208-.757-.446Zm.136-.548a.83.83 0 0 0 .21-.29l.027-.062c.28-.118.572-.179.858-.069.285.11.36.237.434.346 0 0-.317.273-.681.283-.366.012-.702-.096-.848-.208Zm-.085-.592a.94.94 0 0 0-.163-.049 1.02 1.02 0 0 0 .305-.539c.13.031.437.031.57-.022a.708.708 0 0 1 .606.085s-.068.372-.537.499c-.44.12-.602.088-.781.026Zm.169-.725-.062-.04a.657.657 0 0 0-.292-.086c.151-.116.51-.424.764-.572.276-.16.735-.371.97-.403 0 0-.22.592-.475.83-.265.248-.45.34-.905.27Zm-.473-.273c.112-.15.2-.355.266-.599.053-.198.173-.69.245-.817.073-.127.33-.573.836-.71 0 0 .134.579-.12 1.039-.22.396-.668.814-1.227 1.088Zm-2.8 2.7a.76.76 0 0 1-.224.158s-.16.316.034.697c.194.383.36.773.439.988 0 0 .105-.015.221-.613.079-.406.179-.506.282-.645a.83.83 0 0 1-.212.079l-.079.013-.036-.072a.842.842 0 0 1-.084-.48.373.373 0 0 1-.315-.139l-.008-.012-.018.025Z" fill="#0055A5"/><path d="M44.478 14.207c.374.386 1.164 1.25 1.09 2.188 0 0-.734-.236-1.036-.79-.302-.552-.489-.899-.616-1.024.082.012.163.011.243-.001l.066-.011c.186.348.555.92.887 1.118 0 0 .084-.462-.891-1.4a.875.875 0 0 0-.061-.13.83.83 0 0 0 .305.05h.013ZM38.812 6.73c0-.069.257-.125.572-.125.317 0 .573.056.573.125 0 .07-.256.125-.573.125-.315 0-.572-.055-.572-.125Zm-1.944.678c0-.038.164-.068.37-.068.203 0 .368.03.368.068 0 .038-.165.069-.369.069-.205 0-.37-.031-.37-.069Zm2.629-.402a.114.114 0 0 1-.113.116.114.114 0 0 1-.112-.116c0-.063.05-.115.112-.115.063 0 .113.052.113.115Zm-.726-.398c-.191-.468-.318-.812-.313-.928.003-.07.084-.122.16-.146.075-.024.143-.028.194.011.1.079.191.71.226.972a.801.801 0 0 0-.267.091Zm.348-.102c.048-.005.098-.008.148-.01a6.696 6.696 0 0 0-.164-.833c-.05-.164-.114-.283-.218-.312 0 0 .082.229.126.466.044.238.079.464.108.69Zm-.604.837c.21-.051.425-.282.425-.282-.338.05-.425.282-.425.282Zm.315-.021c-.292.176-.621.148-.621.148a.924.924 0 0 1 .306-.364c.184-.135.482-.169.6-.152a.78.78 0 0 1-.285.368Zm-1.093.496v-.025c-.289.038-.63.022-.63.022.02.11.064.194.14.246.018-.24.49-.243.49-.243ZM36.78 7.5s.364.14.73.12c.363-.018 1.035-.026 1.252-.134 0 0-.036.14-.21.221 0 0 .093 0 .182.082 0 0-.053.115-.207.177 0 0 .277.297.573.275 0 0-.136.175-.44.108-.304-.067-.401-.242-.453-.31 0 0 .038.167.02.235 0 0-.134-.008-.238-.144 0 0 .076.136.091.249 0 0-.083.01-.233-.081 0 0 .031.083.037.18 0 0-.352-.116-.522-.28 0 0-.003.113.006.178 0 0-.546-.057-.588-.876Zm-.083.057c.012.177.057.353.117.477 0 0-.215-.167-.267-.307-.053-.141-.065-.238.15-.17Zm-.431.673a.09.09 0 0 0 .083-.056.093.093 0 0 0-.02-.1.09.09 0 0 0-.063-.027.09.09 0 0 0-.09.092c0 .05.041.091.09.091Zm.525-.107a.93.93 0 0 1 .272.226c-.218.051-.315.116-.315.116a.605.605 0 0 0-.76.003c-.225-.133-.27-.453-.157-.623.113-.17.367-.14.488-.111.076.249.343.329.472.389Zm.32.283s.152.207.262.299c0 0-.561-.006-.703.494 0 0-.194-.305-.052-.505.152-.215.293-.242.492-.288Z" fill="#0055A5"/><path d="M37.726 8.532s.181.054.24.07c0 0 .004-.107-.001-.159.055.013.122.033.18.038 0 0 .181.415.322.582 0 0 .009.092-.07.232 0 0-.102-.245-.286-.442a2.145 2.145 0 0 0-.385-.32Zm-.478-.088c.059.016.348.109.488.213.176.129.296.277.278.533 0 0-.142-.202-.298-.294a1.768 1.768 0 0 1-.468-.452Zm.005-1.878c.053 0 .157.026.157.114 0 .089-.135.303-.171.398h-.003c-.036-.095-.17-.309-.17-.398 0-.088.103-.114.156-.114h.03Zm-.118.69c-.025-.125-.073-.448-.148-.52-.07-.068-.175-.074-.227-.071a.1.1 0 0 0-.09.087.1.1 0 0 0 .004.044c.022.073.254.431.284.477.054-.01.044-.007.177-.017Zm.206 0c.026-.125.073-.448.148-.52.07-.068.176-.074.227-.071a.099.099 0 0 1 .075.045.098.098 0 0 1 .01.086c-.02.073-.253.431-.284.477-.054-.01-.043-.007-.176-.017Zm.15-1.124h-.181v-.206h-.147v.206h-.182v.13h.182v.242h.147V6.26h.18v-.13Zm-2.196 1.327c0-.04.003-.079.009-.118a.893.893 0 0 0 .004-.257c-.13.052-.218.084-.398.382 0 0 .286-.182.385-.007Zm.25.473c.004-.074.051-.308.11-.473.074-.201.033-.495-.055-.673a.943.943 0 0 1-.117-.511s-.17.058-.268.12c-.016.206.101.413.157.53.066.14.053.32.038.43a.838.838 0 0 0 .136.577Zm.02-1.58a.246.246 0 0 1 .006-.113s.267-.268.491-.313a.298.298 0 0 1 .27.071s-.078-.01-.197.09c-.12.1-.268.221-.381.252-.111.03-.136.02-.19.014Zm.79-.335c.1.104.185.213.183.307-.002.098-.112.344-.17.438-.059.095-.144.216-.134.366.005.074.055.151.115.214 0 0-.326-.08-.366-.287-.036-.186.041-.316.094-.419.049-.096.2-.322.238-.416.034-.085.053-.156.04-.203Zm1.91 2.338c.065.237.176.46.285.636.099.16.16.42.152.508 0 0 .148-.335.072-.572-.059-.183-.217-.456-.51-.572Zm.367.079s.224.003.329.074c.135.092.263.291.312.531 0 0-.226-.04-.338-.155-.112-.116-.25-.288-.303-.45Zm-1.16.416a1.612 1.612 0 0 0-.214.048s.191.057.286.138a.575.575 0 0 1 .185.355c.046.25.19.52.232.602l.018-.004c-.027-.172.078-.53.104-.581 0 0-.15-.098-.22-.2-.05-.075-.141-.2-.391-.358Zm.993.538c.056.131.204.365.135.608-.07.244-.224.348-.32.554 0 0-.075-.372-.058-.659.016-.287.118-.398.243-.503Zm.43.01s.223.444.264.618a.443.443 0 0 1-.073.392c-.076.105-.204.217-.322.437 0 0-.138-.186-.155-.285a1.34 1.34 0 0 1 .04-.43c.03-.097.147-.411.246-.732Zm.115 1.418c-.05.054-.31.377-.345.47-.035.095-.095.272-.014.395s.266.32.429.404c0 0-.176-.283-.158-.515.011-.147.122-.28.143-.37a.66.66 0 0 0-.055-.384Zm-.51-.178a.74.74 0 0 1 .12.331c.008.133-.012.24-.083.435-.084.22-.18.434-.291.642 0 0-.123-.18-.19-.34 0 0 .191-.27.273-.46.094-.224.134-.431.171-.608Zm-.089-.104s-.082.632-.444 1.103c-.244.318-.444.428-.575.428-.199 0-.399-.17-.466-.365-.067-.195-.046-.497.082-.605 0 0 .12.38.374.393.288.017.659-.314 1.03-.954Z" fill="#0055A5"/><path d="M38.113 10.268c.03.113.04.287 0 .45a.628.628 0 0 1-.246.379c-.122.078-.41.097-.52-.183 0 0 .526.04.766-.646Zm.861 2.551c.073.19.33.431.33.58-.006.393-.172.634-.212.764 0 0-.307-.25-.361-.538-.028-.147.005-.588.243-.806Zm-.342.278c.036-.102.148-.38.279-.477 0 0 .167-.505-.37-.815 0 0-.22.301-.279.584-.058.282.235.453.37.708Zm-.671-1.274c-.086.107-.208.255-.302.301 0 0-.032.226-.014.375.027.223.166.45.226.617 0 0 .234-.315.261-.5.027-.186.023-.339.032-.427 0 0-.131-.218-.203-.366Zm-.618 1.08c-.066-.103-.281-.485-.284-.763 0 0 .264.144.486.039 0 0 .03.36-.014.483a.477.477 0 0 1-.188.242Zm.061.078c.043-.038.149-.138.192-.19 0 0 .175.33.205.426 0 0-.088.024-.184-.049a1.404 1.404 0 0 1-.213-.187Zm.813-.194c-.022.084-.306.489-.354.539 0 0 .022.147.127.358.105.21.251.358.33.433 0 0 .174-.314.226-.452.06-.158.052-.314.027-.372-.06-.137-.265-.334-.356-.506Zm.426 1.061c.062.13.252.344.281.513a.617.617 0 0 1-.032.334c-.035.091-.149.27-.225.406 0 0-.259-.252-.316-.431a.648.648 0 0 1 .035-.447c.062-.12.198-.25.257-.375Zm-.734-.036c.067.15.227.3.264.432a.571.571 0 0 1-.016.436c-.065.16-.144.253-.17.35 0 0-.21-.28-.245-.396a.801.801 0 0 1-.004-.43c.044-.123.12-.282.17-.392Zm1.036 1.066s-.362.45-.353.688c.01.297.202.495.23.677 0 0 .189-.22.261-.369.081-.167.143-.308.122-.497-.022-.188-.071-.31-.26-.5Zm-.667-.045c.058.086.22.38.173.555-.045.175-.224.422-.283.528 0 0-.143-.303-.176-.442-.032-.138-.002-.363.286-.64ZM41.9 7.41c0-.038-.165-.068-.37-.068-.203 0-.368.03-.368.068 0 .038.165.069.369.069s.369-.031.369-.069Zm-2.513-1.165c.024-.17.215-.531.215-.69a.222.222 0 0 0-.219-.225.223.223 0 0 0-.219.225c0 .159.192.52.215.69h.008Zm.61.365c.192-.468.318-.812.314-.928-.004-.07-.084-.122-.16-.146-.077-.024-.145-.028-.194.011-.1.079-.192.71-.226.972.096.02.155.031.267.091Zm-.347-.102a1.84 1.84 0 0 0-.149-.01c.03-.25.114-.668.164-.832.05-.165.113-.283.218-.313 0 0-.082.229-.126.466-.042.229-.078.459-.107.69Zm.178.555s.214.231.425.283c0 0-.087-.233-.425-.283Zm-.176-.107c.118-.017.418.017.601.152a.925.925 0 0 1 .307.364s-.33.028-.623-.148a.796.796 0 0 1-.285-.368Zm1.87 1.107c.076-.052.12-.136.137-.246 0 0-.34.016-.628-.022v.025s.472.003.49.243Zm-.121.315c.008-.065.005-.178.005-.178-.17.164-.521.28-.521.28a.68.68 0 0 1 .036-.18c-.149.091-.233.08-.233.08.016-.113.092-.248.092-.248a.358.358 0 0 1-.239.144c-.018-.068.021-.235.021-.235-.052.068-.15.243-.453.31-.305.067-.441-.108-.441-.108.297.022.574-.275.574-.275a.392.392 0 0 1-.208-.177c.09-.081.182-.081.182-.081-.174-.082-.21-.222-.21-.222.218.108.889.116 1.253.135.364.018.73-.121.73-.121-.043.82-.588.876-.588.876Zm.671-.82a1.386 1.386 0 0 1-.118.478s.215-.167.267-.307c.053-.141.066-.238-.149-.17Zm.519.583a.092.092 0 0 0-.055-.084.09.09 0 0 0-.035-.008.09.09 0 0 0-.089.092c0 .05.041.091.09.091a.09.09 0 0 0 .082-.056.091.091 0 0 0 .007-.035Zm-.142-.405c.12-.029.375-.059.487.111.114.17.069.49-.156.623 0 0-.344-.305-.76-.003 0 0-.098-.064-.315-.116 0 0 .128-.159.272-.226.129-.06.396-.14.472-.389Zm-.79.672s-.153.207-.263.299c0 0 .561-.006.702.494 0 0 .194-.305.052-.505-.152-.215-.293-.242-.492-.288Z" fill="#0055A5"/><path d="M41.041 8.53s-.18.054-.241.07c0 0-.003-.108.002-.159-.055.013-.123.033-.18.037 0 0-.181.416-.323.583 0 0-.008.092.071.232 0 0 .102-.246.286-.442.103-.111.17-.167.385-.321Zm.477-.088c-.058.016-.348.109-.488.212-.175.13-.297.278-.278.533 0 0 .142-.201.299-.293.124-.072.349-.275.467-.452Zm-.004-1.878c-.053 0-.157.026-.157.114 0 .089.135.302.17.398h.004c.035-.096.17-.31.17-.398 0-.088-.103-.114-.157-.114h-.03Zm.117.69c.026-.125.073-.449.148-.52.071-.068.175-.075.228-.071a.1.1 0 0 1 .086.131c-.022.073-.255.431-.285.476-.054-.009-.043-.006-.177-.017Zm-.205 0c-.026-.125-.073-.449-.149-.52-.07-.068-.175-.075-.227-.071a.101.101 0 0 0-.09.087c-.002.015 0 .03.005.044.022.073.253.431.284.476.054-.009.043-.006.177-.017Zm-.15-1.125h.181v-.206h.146v.206h.182v.13h-.182v.243h-.146v-.243h-.18v-.13Zm-2.174-1.218h.18v-.207h.147v.207h.181v.13h-.181v.242h-.147V5.04h-.18v-.13Zm4.369 2.546c0-.04-.003-.08-.009-.118a.958.958 0 0 1-.004-.257c.13.051.218.084.398.382 0 0-.285-.182-.385-.007Z" fill="#0055A5"/><path d="M43.226 7.932a2.263 2.263 0 0 0-.11-.473c-.073-.201-.032-.495.056-.673a.946.946 0 0 0 .117-.511s.17.058.267.12c.016.206-.101.413-.156.53-.067.14-.053.32-.039.43a.837.837 0 0 1-.135.577Zm-.019-1.58a.234.234 0 0 0-.006-.113s-.267-.268-.491-.313a.3.3 0 0 0-.271.071s.079-.01.198.09c.12.1.268.221.38.252.112.03.137.02.19.014Zm-.79-.335c-.1.104-.185.212-.184.307.003.098.113.344.171.438.059.095.143.216.133.366a.38.38 0 0 1-.114.214s.326-.08.366-.287c.035-.186-.041-.316-.094-.419-.05-.096-.2-.322-.237-.416-.035-.085-.053-.156-.041-.203Zm-1.909 2.338a2.52 2.52 0 0 1-.286.636c-.099.16-.161.42-.151.508 0 0-.148-.335-.072-.572.058-.183.215-.456.51-.572Zm-.369.079s-.224.003-.328.074c-.135.092-.263.291-.313.531 0 0 .227-.04.339-.155.112-.116.25-.288.302-.45Zm1.161.416c.043.004.158.03.214.048 0 0-.191.057-.286.138a.575.575 0 0 0-.184.355c-.046.25-.19.52-.233.602l-.017-.004c.026-.172-.08-.53-.105-.581 0 0 .151-.098.22-.2.05-.075.142-.2.392-.358Zm-.993.538c-.056.131-.204.364-.135.608.069.244.224.348.319.554 0 0 .076-.372.06-.659-.017-.287-.119-.399-.244-.503Zm-.916.68c.01-.14.331-.485.315-.67-.017-.186-.257-.318-.316-.345h-.003c-.06.027-.3.159-.316.345-.017.185.305.53.315.67h.005Zm.486-.67s-.224.444-.264.618a.443.443 0 0 0 .074.392c.075.105.203.217.322.437 0 0 .137-.186.154-.285a1.368 1.368 0 0 0-.04-.43c-.03-.097-.148-.411-.246-.732Zm-.487 1.719a.886.886 0 0 0 .221-.305c.028-.08.037-.196-.03-.285-.082-.106-.184-.225-.19-.322h-.006c-.008.097-.108.216-.19.322-.066.09-.06.206-.03.285.028.08.12.214.221.305h.004Zm.373-.3c.048.053.309.376.344.47.035.093.095.27.013.394a1.37 1.37 0 0 1-.428.404s.176-.283.158-.515c-.011-.147-.123-.28-.144-.37a.66.66 0 0 1 .056-.384Zm.51-.179a.739.739 0 0 0-.12.331c-.01.133.012.24.083.435.089.246.226.52.29.642 0 0 .123-.18.19-.34 0 0-.191-.27-.272-.46-.096-.224-.135-.431-.172-.608Zm.088-.104s.082.632.444 1.103c.245.318.444.428.576.428.199 0 .398-.17.465-.365.067-.195.046-.498-.083-.605 0 0-.119.38-.373.393-.288.017-.66-.314-1.03-.954Z" fill="#0055A5"/><path d="M40.654 10.269a.972.972 0 0 0 0 .45c.03.124.104.288.244.378.123.079.41.098.52-.183.001 0-.525.041-.764-.645Zm-1.046 1.68c.067-.107.13-.302.095-.44-.045-.172-.136-.242-.19-.349-.045.043-.072.076-.126.109h-.004c-.054-.033-.083-.066-.128-.109-.054.107-.145.177-.19.348-.034.139.028.334.096.44.085.134.148.162.223.199.075-.037.138-.065.224-.199Zm-.224 1.264c.036-.167.377-.49.345-.667-.046-.264-.212-.208-.342-.32h-.003c-.131.111-.298.055-.345.32-.03.176.308.5.345.667Zm.409-.393c-.073.19-.331.43-.33.579.005.393.172.634.212.764 0 0 .306-.25.36-.537.028-.147-.004-.589-.242-.806Zm.342.277c-.037-.101-.15-.38-.28-.477 0 0-.167-.505.37-.815 0 0 .22.301.28.584.058.282-.234.454-.37.708Zm.67-1.273c.086.106.208.254.303.3 0 0 .031.226.013.376-.027.222-.166.45-.225.616 0 0-.235-.315-.262-.5-.027-.186-.022-.338-.032-.426 0 0 .132-.218.204-.366Zm.619 1.08c.066-.104.281-.486.284-.763 0 0-.265.144-.486.038 0 0-.03.361.014.483.034.1.08.159.188.242Zm-.061.078a2.206 2.206 0 0 1-.192-.191s-.175.33-.206.427c0 0 .088.023.184-.05.097-.071.119-.09.214-.186Zm-.813-.194c.021.083.305.488.353.538 0 0-.021.147-.127.358a1.577 1.577 0 0 1-.33.433s-.174-.314-.226-.452c-.06-.158-.052-.314-.026-.372.059-.136.264-.333.356-.505Zm-.904 1.963a.466.466 0 0 0-.006-.34c-.051-.105-.235-.365-.257-.44-.022.075-.204.335-.256.44a.462.462 0 0 0-.005.34c.068.192.232.324.259.435h.005c.027-.111.19-.243.26-.435Zm.478-.903c-.063.131-.252.344-.281.514a.614.614 0 0 0 .032.333c.035.091.15.27.224.406 0 0 .26-.251.316-.43a.65.65 0 0 0-.034-.447c-.063-.12-.198-.251-.257-.376Zm.734-.036c-.068.15-.228.3-.265.433a.57.57 0 0 0 .016.436c.065.16.143.252.17.35 0 0 .21-.28.246-.397a.809.809 0 0 0 .004-.43c-.045-.123-.12-.282-.171-.392Zm-1.474 3.523c.014-.137.29-.56.302-1.01.007-.226-.189-.578-.3-.712h-.005c-.111.134-.305.486-.3.711.014.45.289.873.303 1.01Zm.437-2.457s.363.45.354.688c-.01.298-.203.495-.23.678 0 0-.19-.221-.261-.37-.081-.166-.143-.308-.121-.497.02-.188.069-.31.258-.5Zm.667-.044c-.057.085-.219.38-.173.555.046.175.225.421.284.527 0 0 .143-.303.175-.441.032-.14.002-.364-.286-.641Z" fill="#0055A5"/><path d="M39.633 18.057c.022-.35.215-.559.248-.74a.775.775 0 0 0-.126-.623c-.092.33-.213.652-.362.96l-.008.018-.008-.018a5.66 5.66 0 0 1-.362-.96.78.78 0 0 0-.126.622c.034.182.226.391.247.741.022.35-.36.484-.36.484.129.047.276.068.51-.16a.487.487 0 0 0 .099-.134.518.518 0 0 0 .1.135c.233.227.38.206.51.159 0 0-.384-.134-.362-.484Zm-1.206-2.326c.04.131.16.372.175.446.029.139-.01.307-.255.485 0 0-.16-.114-.223-.264-.059-.142-.025-.241.037-.314.061-.073.205-.242.266-.353Zm.517.518c0 .07-.05.466-.16.662-.153.276-.38.482-.577.482-.183 0-.221-.113-.313-.158 0 0 .047-.24.252-.303.253-.077.641-.389.798-.683Z" fill="#0055A5"/><path d="M38.285 16.754c-.042-.034-.08-.057-.13-.118 0 0-.195.075-.355.186-.161.11-.318.3-.403.399 0 0 .24.064.392-.008 0 0 .056-.236.227-.341.038-.023.158-.06.27-.118Zm-.2-.203c-.037-.06-.113-.17-.097-.341 0 0-.337.22-.44.304a2.797 2.797 0 0 0-.359.382s.256-.057.452-.124c.216-.074.365-.174.444-.221Zm-.573.377c-.181.065-.591.134-.762.186-.172.052-.296.144-.46.328 0 0 .251.071.386.116 0 0 .214-.15.448-.243.153-.06.227-.225.388-.387Zm-.38 1.241c.04-.044.089-.096.05-.2-.026-.077-.175-.16-.264-.206-.147-.071-.554-.183-.687-.224 0 0-.065.08-.101.165-.016.032.005.066.063.076.113.02.386-.032.452.012.072.048.047.113.047.176 0 0 .124-.078.202-.06.11.025.175.077.238.261Zm-.362-.582c.029.01.188.06.342.16 0 0 .07-.026.103-.091.033-.063.172-.274.3-.302 0 0-.11-.011-.171-.031 0 0-.133.035-.227.074a2.034 2.034 0 0 0-.347.19Zm1.05-.267c-.025.011-.066.031-.161.036 0 0-.359.255-.4.51-.037.218.075.322.129.35.054.028.304.134.467-.21 0 0-.278.093-.353-.045-.075-.137.047-.337.123-.394a.58.58 0 0 1 .384-.108s-.086-.085-.189-.14Z" fill="#0055A5"/><path d="M35.473 20.243c.044-.187.092-.385.175-.566.161-.352.559-1.291 1.386-1.457.079-.015-.089-.213-.163-.204-.074.01-.222.108-.287.153 0 0 0-.2-.002-.236-.002-.036-.033-.05-.065-.048-.032 0-.233-.002-.295.074-.19.224-.508.828-.688 1.279-.18.449-.304.586-.495.517-.19-.068-.304-.293-.636-.224a.644.644 0 0 0-.343.22c.028.054.063.121.219.121.155 0 .45.067.616.186.166.118.34.158.578.185Zm3.305-2.91c.019.145.087.281.162.423 0 0-.252 1.196-1.164 1.289 0 0 .02-.248.289-.437.27-.19.674-.482.644-.927 0 0-.072.015-.202.182-.13.167-.413.648-.853.652 0 0 .064-.226.26-.356.194-.13.443-.296.554-.497.112-.2.231-.292.31-.329Zm-.43 4.356.554.798.42-.769-.149-.274c-.11.203-.227.421-.294.54l-.374-.54-.157.245Z" fill="#0055A5"/><path d="m38.209 21.013-1.276-1.84.21-.154-.662-.26.013.74.224-.165 1.335 1.924.156-.245Zm-4.56-4.372c.163-.182.44-.025.719.24.28.264.456.534.293.717-.15.17-.44.026-.72-.239-.28-.264-.456-.535-.292-.718Z" fill="#0055A5"/><path d="M34.096 19.893a.754.754 0 0 1-.26-.588c.001-.432.343-.784.763-.784s.762.352.762.784c0 .06-.01.154-.01.154.034-.067.159-.366.185-.42a.978.978 0 0 0-.936-.733.971.971 0 0 0-.874.562c.06-.395.251-.75.387-.882.162-.158.438-.208.438-.208-.18.03-.419-.084-.686-.336-.253-.24-.384-.448-.391-.623.016.247.009.385-.06.585-.092.274-.344.777-.254 1.346.05.313.27.777.638 1.157a.54.54 0 0 1 .117.278s.544 0 .673.011c0 0 .129-.011.126-.095-.002-.082-.074-.104-.138-.104-.064 0-.335.007-.48-.104Zm3.003.19a5.2 5.2 0 0 1-1.028.25 3.04 3.04 0 0 1-.627.036.194.194 0 0 1-.017.113s.041.048.041.102a3.23 3.23 0 0 0 .636-.038c.36-.058.74-.133 1.123-.281l-.128-.183Zm.573-.028c.463-.26.916-.662 1.323-1.303l.074-.126c-.112.05-.255.016-.255.016l-.034.055c-.38.578-.801.942-1.232 1.18l.124.178Zm-3.055.205a1.8 1.8 0 0 0-.39.014c-.133.022-.285.05-.3.125-.016.072.033.149.1.258.042.067.14.028.196.008.056-.021.368-.194.42-.251.05-.058.07-.137-.026-.154Zm.32.212a.232.232 0 0 0-.201-.02c-.085.032-.394.22-.414.307-.021.087.021.133.07.152.046.02.105.038.147.042a.233.233 0 0 0 .192-.09c.04-.05.184-.229.205-.27.02-.04.032-.099 0-.12Zm.037.198a4.242 4.242 0 0 0-.185.232c-.014.026.008.066.047.062.039-.004.25-.026.373-.113.122-.085.204-.25.12-.31-.084-.061-.213-.034-.355.129Zm.068-.477c-.04-.01-.2-.052-.236.003-.043.068-.012.14.113.203.124.061.36.11.406.044.046-.067-.018-.18-.283-.25Zm5.3-4.462c-.041.131-.16.372-.175.446-.028.139.01.307.256.485 0 0 .159-.114.222-.264.06-.142.024-.241-.037-.314a2.864 2.864 0 0 1-.267-.353Zm-.518.518c0 .07.051.466.16.662.154.276.38.482.577.482.184 0 .222-.113.313-.158 0 0-.046-.24-.253-.303-.252-.077-.64-.389-.797-.683Zm.66.505c.043-.034.08-.057.13-.118 0 0 .196.075.356.186.16.11.317.3.403.398 0 0-.24.065-.393-.007 0 0-.056-.236-.227-.341-.038-.023-.158-.06-.269-.118Zm.2-.203c.038-.06.114-.17.098-.341 0 0 .337.22.439.303.102.085.312.31.36.383 0 0-.256-.058-.452-.125-.217-.074-.365-.173-.444-.22Zm.572.376c.182.066.592.135.763.187.172.052.296.144.46.328 0 0-.251.071-.386.116 0 0-.214-.15-.448-.243-.153-.06-.226-.225-.389-.388Zm.381 1.242c-.039-.044-.088-.096-.05-.2.027-.077.175-.16.265-.206.147-.071.554-.184.686-.224 0 0 .066.08.101.164.016.033-.005.066-.062.077-.114.02-.387-.032-.453.012-.071.047-.046.112-.046.176 0 0-.125-.078-.204-.06-.108.025-.175.077-.237.26Zm.363-.582c-.03.01-.188.06-.344.16 0 0-.068-.026-.101-.092-.033-.062-.172-.274-.3-.302 0 0 .108-.01.171-.03 0 0 .133.035.227.074.093.039.21.099.347.19Zm-1.05-.267c.024.011.065.031.16.035 0 0 .358.256.4.51.037.219-.075.323-.129.35-.055.029-.304.135-.467-.21 0 0 .277.094.353-.044.075-.137-.046-.337-.122-.394a.58.58 0 0 0-.386-.108s.088-.085.19-.14Z" fill="#0055A5"/><path d="M43.295 20.243a2.961 2.961 0 0 0-.175-.566c-.161-.352-.559-1.291-1.386-1.457-.079-.015.089-.213.163-.204.075.01.222.108.287.153 0 0 0-.2.002-.236.003-.036.033-.05.065-.048.032 0 .233-.002.296.074.189.224.507.828.687 1.279.181.449.305.586.494.517.191-.068.305-.293.638-.224a.645.645 0 0 1 .342.22c-.028.054-.063.121-.218.121-.156 0-.452.067-.617.186-.166.118-.339.158-.578.185Zm-3.305-2.91c-.017.145-.087.281-.162.423 0 0 .252 1.196 1.163 1.289 0 0-.018-.248-.287-.437-.27-.19-.674-.482-.646-.927 0 0 .072.015.203.182.13.167.413.648.853.652 0 0-.065-.226-.259-.356-.195-.13-.443-.296-.555-.497-.112-.2-.23-.292-.31-.329Zm-.604 1.16c.052.159.397.659.549.802.15.143.518.52.714.71 0 0-.56-.143-.873-.437 0 0-.225.135-.388.135h-.01c-.162 0-.387-.135-.387-.135-.314.294-.874.437-.874.437.196-.19.564-.568.715-.71.151-.143.496-.643.55-.803h.004Z" fill="#0055A5"/><path d="M39.388 19.821c.124 0 .242-.05.307-.08-.065.143-.19.366-.31.458h-.002c-.118-.092-.243-.315-.309-.458.066.03.182.08.306.08h.008Z" fill="#0055A5"/><path d="m39.866 22.488 2.189-3.154.224.165.012-.74-.662.26.21.155c-.107.156-1.744 2.514-1.95 2.81l-.99-1.846-.123.191-.882 1.37-.22-.151-.004.73.67-.274-.225-.153c.12-.19.6-.932.76-1.18l.991 1.817Z" fill="#0055A5"/><path d="m40.265 21.248-.372-.577c-.055.105-.169.314-.294.543l-.156-.288.426-.788.123.191.438.681-.165.238Zm.45.206.158.245.22-.152.005.73-.67-.273.224-.153-.101-.16.164-.237Zm4.407-4.813c-.164-.182-.44-.025-.72.24-.28.264-.455.534-.293.717.152.17.441.026.72-.239.28-.264.456-.535.293-.718Z" fill="#0055A5"/><path d="M44.672 19.89a.752.752 0 0 0 .259-.588.774.774 0 0 0-.763-.784.774.774 0 0 0-.761.785c0 .059.01.154.01.154-.034-.068-.16-.367-.185-.42a.976.976 0 0 1 .936-.733.97.97 0 0 1 .874.562c-.06-.395-.252-.751-.388-.883-.161-.157-.438-.207-.438-.207.181.03.42-.085.686-.337.254-.24.385-.448.392-.623-.016.247-.009.386.06.586.092.274.343.777.254 1.346-.05.312-.27.777-.638 1.157a.531.531 0 0 0-.117.277s-.543 0-.672.012c0 0-.13-.012-.127-.095.002-.082.074-.104.138-.104.065 0 .335.006.48-.105Zm-3.577.162c-.463-.26-.915-.661-1.323-1.302l-.073-.126c.111.05.255.016.255.016l.034.055c.38.577.8.941 1.231 1.179l-.124.178Zm.572.028c.35.131.698.2 1.03.251.214.034.425.046.626.036a.197.197 0 0 0 .017.113s-.04.048-.04.102a3.211 3.211 0 0 1-.636-.038 5.389 5.389 0 0 1-1.124-.281l.127-.183Zm2.484.177c.064-.01.267-.005.389.015.133.021.286.05.302.125.015.072-.033.149-.102.257-.042.068-.14.029-.196.008-.055-.021-.368-.194-.419-.25-.05-.058-.07-.138.026-.155Zm-.32.213a.235.235 0 0 1 .2-.021c.084.033.394.22.415.308.02.087-.022.132-.07.152a.608.608 0 0 1-.148.042.233.233 0 0 1-.192-.09c-.04-.05-.184-.23-.206-.27-.02-.04-.031-.1 0-.12Zm-.038.197c.045.051.17.208.185.233.014.026-.007.066-.046.062-.04-.004-.252-.027-.373-.113-.123-.085-.205-.25-.12-.31.083-.062.214-.035.354.128Zm-.068-.476c.04-.01.201-.052.236.003.044.067.012.14-.112.203-.125.061-.36.11-.407.044-.046-.067.02-.18.283-.25Z" fill="#0055A5"/></g></g><defs><clipPath id="a"><path fill="#fff" transform="translate(0 .5)" d="M0 0h52v26H0z"/></clipPath></defs></svg>