<svg width="27" height="27" fill="none" xmlns="http://www.w3.org/2000/svg"><g clip-path="url(#a)"><path d="M0 13.494c0 7.454 6.042 13.493 13.5 13.493S27 20.948 27 13.494C27 6.039 20.958 0 13.5 0S0 6.052 0 13.494Z" fill="#FFD400"/><path d="M3.402 4.548c6.523-.555 13.677-.568 20.2 0A13.457 13.457 0 0 0 13.502 0c-4.02 0-7.622 1.756-10.1 4.548ZM23.735 22.3c-6.333.493-13.866.53-20.477 0A13.462 13.462 0 0 0 13.497 27c4.095 0 7.76-1.832 10.238-4.7ZM.442 10.07c8.786-.152 17.343-.177 26.116 0 .29 1.099.442 2.249.442 3.424 0 1.023-.114 2.034-.329 2.994-8.886.253-17.633.19-26.342 0A13.672 13.672 0 0 1 0 13.494c0-1.175.152-2.325.442-3.424Z" fill="#231F20"/></g><defs><clipPath id="a"><path fill="#fff" d="M0 0h27v27H0z"/></clipPath></defs></svg>