<svg width="41" height="27" fill="none" xmlns="http://www.w3.org/2000/svg"><g clip-path="url(#a)"><path d="M26.041 2.878H14.955v20.655h11.086V2.878Z" fill="#FF5F00"/><path d="M15.66 13.21a13.514 13.514 0 0 1 1.27-5.744A13.036 13.036 0 0 1 20.5 2.88 12.43 12.43 0 0 0 14.02.147a12.278 12.278 0 0 0-6.889 1.246A12.84 12.84 0 0 0 1.93 6.24 13.494 13.494 0 0 0 0 13.207c0 2.465.669 4.88 1.93 6.969a12.84 12.84 0 0 0 5.202 4.845 12.277 12.277 0 0 0 6.89 1.247 12.429 12.429 0 0 0 6.477-2.733 13.037 13.037 0 0 1-3.568-4.585 13.516 13.516 0 0 1-1.271-5.74Z" fill="#EB001B"/><path d="M41 13.209c0 2.465-.668 4.88-1.93 6.969a12.84 12.84 0 0 1-5.203 4.845 12.277 12.277 0 0 1-6.89 1.246 12.428 12.428 0 0 1-6.477-2.734 13.058 13.058 0 0 0 3.567-4.587 13.534 13.534 0 0 0 1.274-5.741c0-1.99-.436-3.952-1.274-5.741A13.059 13.059 0 0 0 20.5 2.879 12.43 12.43 0 0 1 26.978.145a12.278 12.278 0 0 1 6.89 1.246 12.84 12.84 0 0 1 5.202 4.845 13.493 13.493 0 0 1 1.93 6.97v.003Z" fill="#F79E1B"/></g><defs><clipPath id="a"><path fill="#fff" transform="translate(0 .07)" d="M0 0h41v26.862H0z"/></clipPath></defs></svg>