<svg width="27" height="27" fill="none" xmlns="http://www.w3.org/2000/svg"><g clip-path="url(#a)"><mask id="b" style="mask-type:luminance" maskUnits="userSpaceOnUse" x="0" y="0" width="27" height="27"><path d="M27 13.5C27 6.044 20.956 0 13.5 0S0 6.044 0 13.5 6.044 27 13.5 27 27 20.956 27 13.5Z" fill="#fff"/></mask><g mask="url(#b)"><path d="M27 0H0v27h27V0Z" fill="#E30510"/><path d="M13.5 5.588c2.83 0 5.862 5.063 5.862 9.448 0 3.447-2.026 6.374-5.862 6.374-3.836 0-5.861-2.938-5.861-6.374 0-4.385 3.032-9.448 5.861-9.448Z" fill="#fff"/></g></g><defs><clipPath id="a"><path fill="#fff" d="M0 0h27v27H0z"/></clipPath></defs></svg>