<svg width="21" height="27" fill="none" xmlns="http://www.w3.org/2000/svg"><g clip-path="url(#a)"><mask id="b" style="mask-type:luminance" maskUnits="userSpaceOnUse" x="0" y="0" width="21" height="27"><path d="M21 .2H0v26.6h21V.2Z" fill="#fff"/></mask><g mask="url(#b)"><path d="M14.817.22 1.892 8.338a3.807 3.807 0 0 0-1.797 3.217L0 24.714a1.951 1.951 0 0 0 1.947 1.949l17.036.085a1.555 1.555 0 0 0 1.57-1.537l.073-13.79a1.057 1.057 0 0 0-1.057-1.058l-4.647-.022.081-10.018c0-.099-.109-.157-.186-.103Z" fill="#FC0"/><path d="M20.57 20.6 4.302 24.585c-.372.094-.59-.403-.268-.61l10.833-6.917.041-6.716 4.847.022c.485.005.871.39.867.865l-.05 9.373Z" fill="#D6AB05"/><path d="M11.278 12.247c.752-.85.906-1.93.345-2.414-.561-.483-1.625-.185-2.376.665-.752.85-.906 1.931-.345 2.414.56.483 1.625.186 2.376-.665Z" fill="#000"/></g></g><defs><clipPath id="a"><path fill="#fff" transform="translate(0 .2)" d="M0 0h21v26.6H0z"/></clipPath></defs></svg>