<svg width="27" height="27" fill="none" xmlns="http://www.w3.org/2000/svg"><path d="M20.004 22.64c1.716.465 3.573 1.216 5.741 3.945.22.277-.115.558-.364.333-2.495-2.244-4.593-2.88-6.667-2.968-1.1-.047-2.196.06-3.34.163-.332.031-.665.06-.998.085a11.36 11.36 0 0 1-1.226.067c-1.921.008-3.81-.49-5.476-1.445a10.494 10.494 0 0 1-3.986-3.993 11.058 11.058 0 0 1-1.44-5.53c0-1.983.484-3.853 1.438-5.552a10.627 10.627 0 0 1 3.94-4.032 10.51 10.51 0 0 1 5.378-1.463c1.995 0 3.86.486 5.542 1.445A10.565 10.565 0 0 1 22.544 7.7a11.062 11.062 0 0 1 1.454 5.545c0 .884-.1 1.764-.3 2.625-.026.12-.059.236-.098.351-.194.628-.554 1.52-1.223 2.66-.072.12-.113.03-.122-.038-.234-1.68-.958-2.956-2.236-3.78l-.063-.039a5.543 5.543 0 0 0-.672-.356c-.32-.142-.65-.26-.986-.351-.216-.06-.7-.034-.525-.21.073-.074 1.119-.09 2.39-.008.023-.256.035-.518.035-.788 0-2.096-.683-3.805-2.088-5.224-1.407-1.42-3.05-2.111-5.027-2.111-2.023 0-3.664.692-5.015 2.115-1.36 1.429-2.02 3.123-2.02 5.18 0 2.051.679 3.739 2.076 5.159 1.397 1.418 3.02 2.11 4.96 2.11.093 0 .185-.004.27-.078-.111-1.447-.135-2.65.158-2.165.103.172.207.334.31.49.35.54.75 1.047 1.194 1.514 1.38 1.422 2.737 1.772 4.18 2.132l.092.022c.236.06.476.12.716.186Zm-1.892-2.83c.111-.14.292-.217.51-.217.264 0 .54.113.778.317.48.413.628.904.372 1.251-.14.19-.37.294-.644.294-.27 0-.546-.101-.736-.27-.439-.388-.565-1.018-.28-1.376Zm2.456-1.884c.078-.146.237-.193.45-.13.388.185.562.777.6 1.066.039.281.01.504-.083.61a.185.185 0 0 1-.146.07c-.164 0-.37-.195-.613-.58-.24-.38-.326-.817-.208-1.036Z" fill="#FF8C00"/></svg>