<svg width="34" height="34" fill="none" xmlns="http://www.w3.org/2000/svg"><g clip-path="url(#a)"><g filter="url(#b)"><rect width="34" height="34" rx="17" fill="#461153"/><rect x=".317" y=".317" width="33.366" height="33.366" rx="16.683" stroke="url(#c)" stroke-width=".634"/></g><g filter="url(#d)"><ellipse cx="16.921" cy="60.076" rx="33.247" ry="33.287" fill="#DE4916"/></g></g><path fill-rule="evenodd" clip-rule="evenodd" d="M16.997 27.703c5.899 0 10.68-4.782 10.68-10.68 0-5.899-4.781-10.68-10.68-10.68-5.898 0-10.68 4.781-10.68 10.68 0 5.898 4.782 10.68 10.68 10.68Zm0 1.253c6.59 0 11.933-5.343 11.933-11.933S23.588 5.09 16.997 5.09c-6.59 0-11.933 5.342-11.933 11.933 0 6.59 5.343 11.933 11.933 11.933Z" fill="url(#e)"/><path fill-rule="evenodd" clip-rule="evenodd" d="M16.997 27.703c5.899 0 10.68-4.782 10.68-10.68 0-5.899-4.781-10.68-10.68-10.68-5.898 0-10.68 4.781-10.68 10.68 0 5.898 4.782 10.68 10.68 10.68Zm0 1.253c6.59 0 11.933-5.343 11.933-11.933S23.588 5.09 16.997 5.09c-6.59 0-11.933 5.342-11.933 11.933 0 6.59 5.343 11.933 11.933 11.933Z" fill="url(#f)"/><path fill-rule="evenodd" clip-rule="evenodd" d="M15.886 25.46c1.846-1.183 3.807-3.259 5.375-5.975 1.569-2.717 2.386-5.452 2.487-7.643.105-2.262-.544-3.568-1.407-4.066-.862-.498-2.318-.407-4.224.815-1.846 1.183-3.807 3.259-5.375 5.975-1.569 2.717-2.386 5.453-2.487 7.643-.105 2.262.544 3.568 1.406 4.066.863.498 2.318.407 4.225-.815Zm-4.851 1.9c2.952 1.704 8.016-1.541 11.311-7.249 3.295-5.707 3.574-11.715.622-13.42-2.952-1.704-8.016 1.541-11.311 7.249-3.296 5.707-3.574 11.716-.622 13.42Z" fill="url(#g)"/><path fill-rule="evenodd" clip-rule="evenodd" d="M12.128 24.212c2.236 0 4.991-.746 7.69-2.304 2.697-1.558 4.721-3.57 5.84-5.508 1.137-1.97 1.223-3.617.59-4.713-.632-1.096-2.102-1.845-4.377-1.845-2.237 0-4.992.746-7.69 2.303-2.698 1.558-4.722 3.571-5.84 5.508-1.137 1.97-1.224 3.618-.59 4.714.632 1.096 2.102 1.845 4.377 1.845Zm-5.463-1.219c1.902 3.296 8.072 3.296 13.779 0 5.707-3.295 8.792-8.637 6.89-11.933-1.903-3.295-8.072-3.295-13.78 0-5.707 3.295-8.792 8.638-6.889 11.933Z" fill="url(#h)"/><path fill-rule="evenodd" clip-rule="evenodd" d="M7.902 17.336c1 2.117 2.93 4.23 5.59 5.766 2.66 1.537 5.455 2.15 7.789 1.958 2.34-.194 4.09-1.174 4.97-2.695.878-1.522.85-3.528-.151-5.651-1-2.118-2.93-4.231-5.59-5.767-2.66-1.536-5.455-2.15-7.789-1.958-2.34.194-4.09 1.174-4.97 2.696-.878 1.521-.851 3.528.151 5.65Zm-1.235-6.278c-2.284 3.956.491 9.834 6.198 13.13 5.708 3.295 12.186 2.759 14.47-1.197 2.284-3.956-.491-9.834-6.198-13.13-5.708-3.295-12.186-2.759-14.47 1.197Z" fill="url(#i)"/><path d="M14.316 17.024c.611.186 1.187.52 1.67 1.003a4.002 4.002 0 0 1 1.003 1.67c.186-.611.52-1.187 1.003-1.67a4.002 4.002 0 0 1 1.67-1.003 4.002 4.002 0 0 1-1.67-1.003 4.003 4.003 0 0 1-1.003-1.67 4.003 4.003 0 0 1-1.003 1.67 4.002 4.002 0 0 1-1.67 1.003Z" fill="#F3CFFF"/><defs><radialGradient id="e" cx="0" cy="0" r="1" gradientUnits="userSpaceOnUse" gradientTransform="rotate(45 -12.05 29.03) scale(12.91)"><stop offset=".027" stop-color="#F3CFFF"/><stop offset=".224" stop-color="#F3CFFF"/><stop offset=".424" stop-color="#F3CFFF" stop-opacity="0"/><stop offset=".493" stop-color="#F3CFFF" stop-opacity="0"/><stop offset=".761" stop-color="#F3CFFF"/><stop offset=".864" stop-color="#F3CFFF"/></radialGradient><radialGradient id="f" cx="0" cy="0" r="1" gradientUnits="userSpaceOnUse" gradientTransform="rotate(45 -12.05 29.03) scale(12.91)"><stop offset=".027" stop-color="#F3CFFF"/><stop offset=".224" stop-color="#F3CFFF"/><stop offset=".362" stop-color="#F3CFFF" stop-opacity="0"/><stop offset=".465" stop-color="#F3CFFF" stop-opacity="0"/><stop offset=".565" stop-color="#F3CFFF" stop-opacity="0"/><stop offset=".761" stop-color="#F3CFFF"/><stop offset=".864" stop-color="#F3CFFF"/></radialGradient><radialGradient id="g" cx="0" cy="0" r="1" gradientUnits="userSpaceOnUse" gradientTransform="rotate(120 3.586 13.42) scale(11.933 6.17162)"><stop stop-color="#F3CFFF"/><stop offset=".485" stop-color="#F3CFFF"/><stop offset=".742" stop-color="#F3CFFF" stop-opacity="0"/><stop offset="1" stop-color="#F3CFFF" stop-opacity="0"/></radialGradient><radialGradient id="h" cx="0" cy="0" r="1" gradientUnits="userSpaceOnUse" gradientTransform="matrix(-10.56076 5.6681 -9.81726 -18.29148 17.055 16.995)"><stop offset=".022" stop-color="#F3CFFF" stop-opacity="0"/><stop offset=".484" stop-color="#F3CFFF"/><stop offset=".869" stop-color="#F3CFFF" stop-opacity="0"/></radialGradient><radialGradient id="i" cx="0" cy="0" r="1" gradientUnits="userSpaceOnUse" gradientTransform="rotate(120 3.586 13.42) scale(8.27104 11.933)"><stop offset=".349" stop-color="#F3CFFF"/><stop offset=".449" stop-color="#F3CFFF" stop-opacity="0"/><stop offset=".705" stop-color="#F3CFFF" stop-opacity="0"/><stop offset=".81" stop-color="#F3CFFF"/></radialGradient><filter id="b" x="0" y="0" width="34" height="34" filterUnits="userSpaceOnUse" color-interpolation-filters="sRGB"><feFlood flood-opacity="0" result="BackgroundImageFix"/><feBlend in="SourceGraphic" in2="BackgroundImageFix" result="shape"/><feColorMatrix in="SourceAlpha" values="0 0 0 0 0 0 0 0 0 0 0 0 0 0 0 0 0 0 127 0" result="hardAlpha"/><feMorphology radius=".951" in="SourceAlpha" result="effect1_innerShadow_325_13134"/><feOffset/><feGaussianBlur stdDeviation=".634"/><feComposite in2="hardAlpha" operator="arithmetic" k2="-1" k3="1"/><feColorMatrix values="0 0 0 0 0.950088 0 0 0 0 0.6625 0 0 0 0 1 0 0 0 0.42 0"/><feBlend in2="shape" result="effect1_innerShadow_325_13134"/></filter><filter id="d" x="-36.14" y="6.976" width="106.121" height="106.201" filterUnits="userSpaceOnUse" color-interpolation-filters="sRGB"><feFlood flood-opacity="0" result="BackgroundImageFix"/><feBlend in="SourceGraphic" in2="BackgroundImageFix" result="shape"/><feGaussianBlur stdDeviation="9.907" result="effect1_foregroundBlur_325_13134"/></filter><linearGradient id="c" x1="0" y1="0" x2="35.428" y2="1.559" gradientUnits="userSpaceOnUse"><stop stop-color="#fff" stop-opacity=".64"/><stop offset="1" stop-color="#fff" stop-opacity=".2"/></linearGradient><clipPath id="a"><rect width="34" height="34" rx="17" fill="#fff"/></clipPath></defs></svg>