<svg width="14" height="14" fill="none" xmlns="http://www.w3.org/2000/svg"><path fill-rule="evenodd" clip-rule="evenodd" d="M8.405 3.353a.291.291 0 0 1 .448 0l2.935 3.314a.377.377 0 0 1 .111.272.377.377 0 0 1-.108.27l-2.938 3.316a.291.291 0 0 1-.448 0 .39.39 0 0 1 0-.505l2.413-2.724H4.834c-.175 0-.316-.16-.316-.357 0-.198.141-.357.316-.357h5.984L8.405 3.858a.39.39 0 0 1 0-.505Z" fill="#F3CFFF" stroke="#F3CFFF" stroke-width=".28" stroke-linecap="round" stroke-linejoin="round"/><path d="M5.44 1.75H1.926a.175.175 0 0 0-.175.175v9.8c0 .097.078.175.175.175h3.516" stroke="#F3CFFF" stroke-width=".98" stroke-linecap="round"/></svg>