<svg width="14" height="14" fill="none" xmlns="http://www.w3.org/2000/svg"><g clip-path="url(#a)" fill="#F3CFFF"><path fill-rule="evenodd" clip-rule="evenodd" d="M7.001 12.354a5.355 5.355 0 1 0 0-10.71 5.355 5.355 0 0 0 0 10.71Zm0 .945a6.3 6.3 0 1 0 0-12.6 6.3 6.3 0 0 0 0 12.6Z"/><path d="M6.371 4.185c0-.185.15-.336.336-.336h.588c.186 0 .336.15.336.336v.588c0 .186-.15.336-.336.336h-.588a.336.336 0 0 1-.336-.336v-.588ZM6.371 6.705c0-.185.15-.336.336-.336h.588c.186 0 .336.15.336.336v3.108c0 .186-.15.336-.336.336h-.588a.336.336 0 0 1-.336-.336V6.705Z"/></g><defs><clipPath id="a"><path fill="#fff" d="M0 0h14v14H0z"/></clipPath></defs></svg>