<svg width="14" height="14" fill="none" xmlns="http://www.w3.org/2000/svg"><path fill-rule="evenodd" clip-rule="evenodd" d="M6.101.779a.406.406 0 0 0-.078.095c0 .02-.193.975-.225 1.112-.019.079-.089.123-.264.167-.132.033-.452.16-.712.283l-.473.223-.533-.352c-.293-.194-.57-.352-.614-.352-.11 0-1.245 1.145-1.245 1.257 0 .048.157.327.35.618l.348.53-.22.466c-.122.257-.25.574-.284.705-.035.131-.099.249-.141.262-.043.012-.313.07-.6.128-.772.155-.707.059-.707 1.049 0 .711.012.856.08.912.043.036.35.123.683.194l.604.128.136.402c.076.22.209.543.296.715l.16.314-.357.532c-.259.386-.349.561-.329.64.03.118 1.136 1.237 1.223 1.237.03 0 .293-.158.587-.351.293-.194.545-.352.56-.352.014 0 .211.089.437.197.226.108.542.237.702.286.21.064.296.117.313.192l.129.605c.148.706.105.678 1.047.678.553 0 .812-.019.873-.063.058-.043.129-.27.217-.696l.131-.633.281-.085c.155-.048.475-.177.712-.287l.43-.201.559.36.56.36.172-.106c.286-.177 1.086-1.046 1.086-1.18 0-.064-.15-.346-.333-.626l-.332-.51.201-.438c.112-.24.242-.564.29-.718l.087-.28.593-.114c.814-.157.77-.106.79-.936.027-1.116.058-1.07-.807-1.243l-.564-.113-.154-.424a7.396 7.396 0 0 0-.289-.686c-.174-.34-.185-.293.192-.856.19-.284.326-.542.326-.617 0-.145-1.076-1.252-1.217-1.252-.043 0-.32.16-.617.355l-.538.354-.282-.149a5.915 5.915 0 0 0-.683-.287 3.716 3.716 0 0 1-.44-.17c-.02-.018-.084-.28-.143-.582C7.915.65 7.985.7 7.004.7c-.682 0-.837.013-.903.079Zm1.428.711c.123.616.205.937.254.996.028.034.208.1.4.147.192.047.59.205.886.352l.537.267.178-.094c.098-.051.348-.208.555-.347l.376-.253.347.347.347.346-.316.487c-.402.62-.399.604-.164 1.037.2.37.363.787.465 1.187.066.262.155.306.865.438l.489.09v.493c0 .469-.005.493-.113.517l-.588.129c-.585.127-.564.109-.73.638-.074.24-.236.636-.358.88-.26.517-.264.482.136 1.09.164.25.298.47.298.49 0 .045-.614.665-.66.665-.018 0-.266-.147-.549-.327-.282-.18-.532-.326-.554-.326a5.34 5.34 0 0 0-.532.247c-.27.135-.66.296-.867.356-.489.141-.484.135-.625.8-.066.313-.15.588-.187.611-.074.047-.662.058-.82.015-.085-.022-.121-.12-.216-.583-.134-.656-.169-.733-.35-.771-.322-.069-.916-.297-1.26-.484-.433-.235-.4-.241-1.12.22l-.4.257-.345-.347-.346-.346.325-.495c.38-.58.381-.582.137-1.051a7.485 7.485 0 0 1-.364-.889l-.176-.527-.527-.113c-.29-.063-.578-.125-.641-.14-.112-.025-.115-.041-.1-.51l.014-.484.577-.12c.684-.142.697-.153.873-.73.074-.243.224-.61.333-.818.258-.489.257-.497-.131-1.089l-.33-.504.343-.344.343-.343.326.217c.179.12.43.28.56.354l.234.136.476-.245c.262-.135.662-.3.889-.365.496-.144.516-.169.65-.827.056-.275.113-.528.125-.562.016-.045.164-.063.498-.063h.475l.058.288ZM6.2 3.987a3.126 3.126 0 0 0-1.963 4.418c.935 1.869 3.434 2.253 4.926.758 1.621-1.623 1.004-4.324-1.168-5.108-.379-.137-1.417-.176-1.795-.068Zm1.6.577a2.569 2.569 0 0 1 1.473 3.588c-.928 1.845-3.57 1.869-4.545.04-1.08-2.026.907-4.373 3.071-3.628Z" fill="#F3CFFF" stroke="#F3CFFF" stroke-width=".28"/></svg>