<svg width="16" height="16" fill="none" xmlns="http://www.w3.org/2000/svg"><path d="M14.584 12.025c-1.578-1.906-4.208-3.043-7.034-3.043-2.827 0-5.456 1.137-7.035 3.044-.35.424-.523.877-.515 1.345.008.426.17.852.47 1.23.607.77 1.672 1.248 2.85 1.248h8.528c1.107 0 2.173-.477 2.78-1.245.3-.38.464-.807.47-1.236.007-.47-.166-.921-.514-1.343Zm-1.264 1.544c-.24.306-.79.614-1.545.614H3.251c-.683 0-1.232-.308-1.473-.614-.08-.102-.11-.185-.11-.229-.002-.043.033-.132.131-.252 1.265-1.527 3.415-2.44 5.75-2.44 2.336 0 4.486.913 5.75 2.44.086.103.134.196.133.253 0 .043-.03.126-.112.228ZM7.552 7.416a3.212 3.212 0 0 0 3.208-3.208A3.212 3.212 0 0 0 7.552 1a3.212 3.212 0 0 0-3.208 3.208 3.21 3.21 0 0 0 3.208 3.208Zm0-4.75a1.543 1.543 0 0 1 0 3.084c-.85 0-1.542-.692-1.542-1.542 0-.85.692-1.542 1.542-1.542Z" fill="#0A040A"/></svg>