<svg width="85" height="64" fill="none" xmlns="http://www.w3.org/2000/svg"><path fill-rule="evenodd" clip-rule="evenodd" d="M42.493 31.616c8.039 0 14.555-6.542 14.555-14.612S50.532 2.393 42.493 2.393c-8.038 0-14.555 6.542-14.555 14.611 0 8.07 6.517 14.611 14.555 14.611Zm0 1.714c8.982 0 16.263-7.31 16.263-16.326C58.756 7.988 51.475.68 42.493.68c-8.982 0-16.263 7.309-16.263 16.325 0 9.016 7.281 16.326 16.263 16.326Z" fill="url(#a)"/><path fill-rule="evenodd" clip-rule="evenodd" d="M42.493 31.616c8.039 0 14.555-6.542 14.555-14.612S50.532 2.393 42.493 2.393c-8.038 0-14.555 6.542-14.555 14.611 0 8.07 6.517 14.611 14.555 14.611Zm0 1.714c8.982 0 16.263-7.31 16.263-16.326C58.756 7.988 51.475.68 42.493.68c-8.982 0-16.263 7.309-16.263 16.325 0 9.016 7.281 16.326 16.263 16.326Z" fill="url(#b)"/><path fill-rule="evenodd" clip-rule="evenodd" d="M40.98 28.538c2.516-1.619 5.188-4.458 7.326-8.175 2.137-3.716 3.25-7.46 3.389-10.456.143-3.094-.741-4.88-1.917-5.562-1.176-.682-3.16-.557-5.757 1.114-2.516 1.619-5.188 4.458-7.326 8.175-2.137 3.717-3.251 7.46-3.39 10.456-.142 3.094.742 4.881 1.918 5.562 1.176.682 3.159.557 5.757-1.114Zm-6.611 2.599c4.023 2.331 10.925-2.108 15.416-9.917 4.49-7.808 4.87-16.028.847-18.36C46.609.53 39.707 4.97 35.216 12.777c-4.49 7.808-4.87 16.028-.847 18.36Z" fill="url(#c)"/><path fill-rule="evenodd" clip-rule="evenodd" d="M35.85 26.834c3.049 0 6.804-1.02 10.48-3.151 3.678-2.131 6.435-4.886 7.96-7.536 1.55-2.695 1.667-4.95.805-6.448-.862-1.5-2.866-2.524-5.966-2.524-3.048 0-6.803 1.02-10.48 3.151-3.677 2.131-6.435 4.885-7.959 7.535-1.55 2.695-1.668 4.95-.806 6.449.863 1.5 2.866 2.524 5.966 2.524Zm-7.444-1.667c2.593 4.508 11 4.508 18.778 0 7.779-4.508 11.982-11.817 9.39-16.325-2.593-4.509-11-4.509-18.779 0-7.778 4.508-11.982 11.817-9.39 16.325Z" fill="url(#d)"/><path fill-rule="evenodd" clip-rule="evenodd" d="M30.097 17.425c1.362 2.897 3.992 5.788 7.617 7.89 3.627 2.1 7.435 2.941 10.616 2.677 3.189-.265 5.575-1.605 6.772-3.687s1.16-4.827-.205-7.731c-1.363-2.898-3.992-5.788-7.618-7.89-3.626-2.102-7.434-2.942-10.615-2.678-3.189.265-5.575 1.605-6.772 3.688-1.198 2.081-1.161 4.826.205 7.73Zm-1.684-8.589c-3.113 5.413.67 13.455 8.448 17.963 7.778 4.508 16.607 3.775 19.72-1.637 3.112-5.412-.67-13.454-8.448-17.962-7.779-4.509-16.607-3.776-19.72 1.636Z" fill="url(#e)"/><path d="M38.838 17a5.451 5.451 0 0 1 2.275 1.373 5.479 5.479 0 0 1 1.367 2.284 5.48 5.48 0 0 1 1.367-2.284 5.45 5.45 0 0 1 2.275-1.372 5.45 5.45 0 0 1-2.275-1.373 5.48 5.48 0 0 1-1.367-2.283 5.479 5.479 0 0 1-1.367 2.283 5.451 5.451 0 0 1-2.275 1.373ZM.378 59l5.436-12.222H7.74L13.176 59H10.89l-1.17-2.898H3.834L2.664 59H.378Zm4.194-4.734h4.41l-2.196-5.202-2.214 5.202Zm14.43 5.004c-3.474 0-5.274-2.214-5.274-4.932 0-2.718 2.07-4.914 5.094-4.914 1.152 0 2.502.342 3.33 1.116v1.998s-1.098-1.404-3.33-1.404c-1.836 0-3.204 1.44-3.204 3.204 0 1.926 1.314 3.222 3.384 3.222 2.178 0 3.33-.972 3.33-.972v1.8c-.846.666-2.376.882-3.33.882Zm8.127-.27v-7.722h-3.636v-1.584h9.18v1.584h-3.6V59h-1.944Zm7.34 3.816V49.694h1.944v.9c.648-.648 1.782-1.17 3.132-1.17 2.844 0 4.86 2.214 4.86 4.932 0 2.718-2.016 4.914-4.86 4.914-1.53 0-2.52-.594-3.132-1.26v4.806H34.47Zm5.112-5.274c1.746 0 2.934-1.422 2.934-3.186s-1.188-3.204-2.934-3.204c-1.746 0-3.276 1.17-3.276 3.204 0 2.016 1.53 3.186 3.276 3.186Zm11.356 1.728c-2.826 0-5.094-2.196-5.094-4.914 0-2.718 2.268-4.932 5.094-4.932 2.826 0 5.094 2.214 5.094 4.932 0 2.718-2.268 4.914-5.094 4.914Zm0-1.746c1.836 0 3.222-1.422 3.222-3.168 0-1.764-1.386-3.186-3.222-3.186s-3.222 1.422-3.222 3.186c0 1.746 1.386 3.168 3.222 3.168ZM58.38 59V46.778h1.944v9.27l6.318-9.27h2.124V59h-1.944v-9.432L60.486 59H58.38Zm13.623 0V46.778h1.944v9.27l6.318-9.27h2.124V59h-1.944v-9.432L74.109 59h-2.106Z" fill="#F3CFFF"/><defs><radialGradient id="a" cx="0" cy="0" r="1" gradientUnits="userSpaceOnUse" gradientTransform="rotate(45.11 .776 59.657) scale(17.6282 17.6281)"><stop offset=".027" stop-color="#F3CFFF"/><stop offset=".224" stop-color="#F3CFFF"/><stop offset=".424" stop-color="#F3CFFF" stop-opacity="0"/><stop offset=".493" stop-color="#F3CFFF" stop-opacity="0"/><stop offset=".761" stop-color="#F3CFFF"/><stop offset=".864" stop-color="#F3CFFF"/></radialGradient><radialGradient id="b" cx="0" cy="0" r="1" gradientUnits="userSpaceOnUse" gradientTransform="rotate(45.11 .776 59.657) scale(17.6282 17.6281)"><stop offset=".027" stop-color="#F3CFFF"/><stop offset=".224" stop-color="#F3CFFF"/><stop offset=".362" stop-color="#F3CFFF" stop-opacity="0"/><stop offset=".465" stop-color="#F3CFFF" stop-opacity="0"/><stop offset=".565" stop-color="#F3CFFF" stop-opacity="0"/><stop offset=".761" stop-color="#F3CFFF"/><stop offset=".864" stop-color="#F3CFFF"/></radialGradient><radialGradient id="c" cx="0" cy="0" r="1" gradientUnits="userSpaceOnUse" gradientTransform="matrix(-8.13147 14.1382 -7.29805 -4.19742 42.5 16.999)"><stop stop-color="#F3CFFF"/><stop offset=".485" stop-color="#F3CFFF"/><stop offset=".742" stop-color="#F3CFFF" stop-opacity="0"/><stop offset="1" stop-color="#F3CFFF" stop-opacity="0"/></radialGradient><radialGradient id="d" cx="0" cy="0" r="1" gradientUnits="userSpaceOnUse" gradientTransform="rotate(151.684 19.144 13.85) scale(16.3487 28.3766)"><stop offset=".022" stop-color="#F3CFFF" stop-opacity="0"/><stop offset=".484" stop-color="#F3CFFF"/><stop offset=".869" stop-color="#F3CFFF" stop-opacity="0"/></radialGradient><radialGradient id="e" cx="0" cy="0" r="1" gradientUnits="userSpaceOnUse" gradientTransform="rotate(119.905 16.332 20.79) scale(11.3048 16.2784)"><stop offset=".349" stop-color="#F3CFFF"/><stop offset=".449" stop-color="#F3CFFF" stop-opacity="0"/><stop offset=".705" stop-color="#F3CFFF" stop-opacity="0"/><stop offset=".81" stop-color="#F3CFFF"/></radialGradient></defs></svg>