<svg width="165" height="40" fill="none" xmlns="http://www.w3.org/2000/svg"><path fill-rule="evenodd" clip-rule="evenodd" d="M19.996 34.36c8.152 0 14.761-6.608 14.761-14.76 0-8.154-6.609-14.763-14.761-14.763-8.153 0-14.762 6.61-14.762 14.762 0 8.153 6.609 14.762 14.762 14.762Zm0 1.733c9.109 0 16.493-7.385 16.493-16.494 0-9.11-7.384-16.494-16.493-16.494-9.11 0-16.494 7.385-16.494 16.494 0 9.11 7.384 16.494 16.494 16.494Z" fill="url(#a)"/><path fill-rule="evenodd" clip-rule="evenodd" d="M19.996 34.36c8.152 0 14.761-6.608 14.761-14.76 0-8.154-6.609-14.763-14.761-14.763-8.153 0-14.762 6.61-14.762 14.762 0 8.153 6.609 14.762 14.762 14.762Zm0 1.733c9.109 0 16.493-7.385 16.493-16.494 0-9.11-7.384-16.494-16.493-16.494-9.11 0-16.494 7.385-16.494 16.494 0 9.11 7.384 16.494 16.494 16.494Z" fill="url(#b)"/><path fill-rule="evenodd" clip-rule="evenodd" d="M18.458 31.26c2.552-1.636 5.262-4.505 7.43-8.26 2.168-3.754 3.297-7.536 3.437-10.563.145-3.126-.752-4.931-1.944-5.62-1.192-.688-3.204-.562-5.839 1.126-2.552 1.636-5.262 4.504-7.43 8.26-2.168 3.754-3.297 7.535-3.437 10.563-.145 3.126.752 4.931 1.944 5.62 1.193.688 3.204.562 5.839-1.127Zm-6.705 2.625c4.08 2.356 11.08-2.13 15.635-10.018 4.554-7.89 4.939-16.194.859-18.55-4.08-2.355-11.08 2.13-15.634 10.02-4.555 7.888-4.94 16.193-.86 18.548Z" fill="url(#c)"/><path fill-rule="evenodd" clip-rule="evenodd" d="M13.265 29.533c3.092 0 6.9-1.031 10.63-3.184 3.729-2.153 6.525-4.936 8.071-7.613 1.572-2.723 1.691-5 .817-6.515-.875-1.515-2.906-2.55-6.05-2.55-3.092 0-6.9 1.03-10.63 3.184-3.729 2.153-6.526 4.935-8.071 7.613-1.572 2.723-1.692 5-.817 6.515.874 1.514 2.906 2.55 6.05 2.55Zm-7.55-1.684c2.63 4.554 11.157 4.554 19.045 0 7.89-4.555 12.152-11.94 9.523-16.494-2.63-4.555-11.157-4.555-19.045 0-7.89 4.554-12.153 11.939-9.523 16.493Z" fill="url(#d)"/><path fill-rule="evenodd" clip-rule="evenodd" d="M7.424 20.032c1.382 2.927 4.048 5.847 7.726 7.97 3.677 2.124 7.54 2.973 10.766 2.706 3.234-.267 5.654-1.622 6.868-3.725 1.215-2.104 1.178-4.877-.208-7.811-1.382-2.927-4.048-5.848-7.726-7.97-3.677-2.124-7.54-2.973-10.766-2.706-3.234.267-5.654 1.622-6.868 3.725-1.215 2.104-1.178 4.876.208 7.81Zm-1.708-8.677c-3.157 5.468.68 13.593 8.568 18.148 7.889 4.554 16.843 3.814 20-1.654s-.68-13.593-8.568-18.148c-7.889-4.554-16.843-3.814-20 1.654Z" fill="url(#e)"/><path d="M16.29 19.601c.843.257 1.639.719 2.306 1.387a5.532 5.532 0 0 1 1.387 2.307 5.53 5.53 0 0 1 1.387-2.307 5.53 5.53 0 0 1 2.307-1.387 5.532 5.532 0 0 1-2.307-1.386 5.53 5.53 0 0 1-1.387-2.308 5.532 5.532 0 0 1-1.387 2.307 5.532 5.532 0 0 1-2.307 1.387ZM52.504 28.5l7.248-16.296h2.568L69.568 28.5H66.52l-1.56-3.864h-7.848l-1.56 3.864h-3.048Zm5.592-6.312h5.88l-2.928-6.936-2.952 6.936Zm19.24 6.672c-4.632 0-7.032-2.952-7.032-6.576 0-3.624 2.76-6.552 6.792-6.552 1.536 0 3.336.456 4.44 1.488v2.664s-1.464-1.872-4.44-1.872c-2.448 0-4.272 1.92-4.272 4.272 0 2.568 1.752 4.296 4.512 4.296 2.904 0 4.44-1.296 4.44-1.296v2.4c-1.128.888-3.168 1.176-4.44 1.176Zm10.836-.36V18.204h-4.848v-2.112h12.24v2.112h-4.8V28.5h-2.592Zm9.787 5.088V16.092h2.592v1.2c.864-.864 2.376-1.56 4.176-1.56 3.792 0 6.48 2.952 6.48 6.576 0 3.624-2.688 6.552-6.48 6.552-2.04 0-3.36-.792-4.176-1.68v6.408h-2.592Zm6.816-7.032c2.328 0 3.912-1.896 3.912-4.248 0-2.352-1.584-4.272-3.912-4.272s-4.368 1.56-4.368 4.272c0 2.688 2.04 4.248 4.368 4.248Zm15.141 2.304c-3.768 0-6.792-2.928-6.792-6.552 0-3.624 3.024-6.576 6.792-6.576s6.792 2.952 6.792 6.576c0 3.624-3.024 6.552-6.792 6.552Zm0-2.328c2.448 0 4.296-1.896 4.296-4.224 0-2.352-1.848-4.248-4.296-4.248-2.448 0-4.296 1.896-4.296 4.248 0 2.328 1.848 4.224 4.296 4.224Zm9.924 1.968V12.204h2.592v12.36l8.424-12.36h2.832V28.5h-2.592V15.924L132.648 28.5h-2.808Zm18.164 0V12.204h2.592v12.36l8.424-12.36h2.832V28.5h-2.592V15.924L150.812 28.5h-2.808Z" fill="#F3CFFF"/><defs><radialGradient id="a" cx="0" cy="0" r="1" gradientUnits="userSpaceOnUse" gradientTransform="rotate(45 -13.66 33.936) scale(17.844)"><stop offset=".027" stop-color="#F3CFFF"/><stop offset=".224" stop-color="#F3CFFF"/><stop offset=".424" stop-color="#F3CFFF" stop-opacity="0"/><stop offset=".493" stop-color="#F3CFFF" stop-opacity="0"/><stop offset=".761" stop-color="#F3CFFF"/><stop offset=".864" stop-color="#F3CFFF"/></radialGradient><radialGradient id="b" cx="0" cy="0" r="1" gradientUnits="userSpaceOnUse" gradientTransform="rotate(45 -13.66 33.936) scale(17.844)"><stop offset=".027" stop-color="#F3CFFF"/><stop offset=".224" stop-color="#F3CFFF"/><stop offset=".362" stop-color="#F3CFFF" stop-opacity="0"/><stop offset=".465" stop-color="#F3CFFF" stop-opacity="0"/><stop offset=".565" stop-color="#F3CFFF" stop-opacity="0"/><stop offset=".761" stop-color="#F3CFFF"/><stop offset=".864" stop-color="#F3CFFF"/></radialGradient><radialGradient id="c" cx="0" cy="0" r="1" gradientUnits="userSpaceOnUse" gradientTransform="rotate(120 4.342 15.574) scale(16.4937 8.53036)"><stop stop-color="#F3CFFF"/><stop offset=".485" stop-color="#F3CFFF"/><stop offset=".742" stop-color="#F3CFFF" stop-opacity="0"/><stop offset="1" stop-color="#F3CFFF" stop-opacity="0"/></radialGradient><radialGradient id="d" cx="0" cy="0" r="1" gradientUnits="userSpaceOnUse" gradientTransform="rotate(151.777 7.58 12.302) scale(16.5665 28.6937)"><stop offset=".022" stop-color="#F3CFFF" stop-opacity="0"/><stop offset=".484" stop-color="#F3CFFF"/><stop offset=".869" stop-color="#F3CFFF" stop-opacity="0"/></radialGradient><radialGradient id="e" cx="0" cy="0" r="1" gradientUnits="userSpaceOnUse" gradientTransform="matrix(-5.7161 9.90058 -14.28388 -8.2468 20 19.602)"><stop offset=".349" stop-color="#F3CFFF"/><stop offset=".449" stop-color="#F3CFFF" stop-opacity="0"/><stop offset=".705" stop-color="#F3CFFF" stop-opacity="0"/><stop offset=".81" stop-color="#F3CFFF"/></radialGradient></defs></svg>