<svg width="60" height="60" fill="none" xmlns="http://www.w3.org/2000/svg"><path fill-rule="evenodd" clip-rule="evenodd" d="M29.992 51.541c12.23 0 22.143-9.913 22.143-22.142 0-12.23-9.913-22.143-22.143-22.143-12.229 0-22.142 9.914-22.142 22.143 0 12.229 9.913 22.142 22.142 22.142Zm0 2.598c13.664 0 24.74-11.077 24.74-24.74 0-13.664-11.076-24.74-24.74-24.74-13.663 0-24.74 11.076-24.74 24.74 0 13.663 11.077 24.74 24.74 24.74Z" fill="url(#a)"/><path fill-rule="evenodd" clip-rule="evenodd" d="M29.992 51.541c12.23 0 22.143-9.913 22.143-22.142 0-12.23-9.913-22.143-22.143-22.143-12.229 0-22.142 9.914-22.142 22.143 0 12.229 9.913 22.142 22.142 22.142Zm0 2.598c13.664 0 24.74-11.077 24.74-24.74 0-13.664-11.076-24.74-24.74-24.74-13.663 0-24.74 11.076-24.74 24.74 0 13.663 11.077 24.74 24.74 24.74Z" fill="url(#b)"/><path fill-rule="evenodd" clip-rule="evenodd" d="M27.687 46.889c3.828-2.453 7.893-6.756 11.145-12.388 3.251-5.633 4.946-11.305 5.156-15.846.217-4.69-1.128-7.397-2.916-8.43-1.79-1.032-4.807-.843-8.759 1.69-3.828 2.453-7.893 6.756-11.145 12.388-3.251 5.632-4.945 11.304-5.156 15.845-.217 4.69 1.128 7.397 2.917 8.43 1.788 1.033 4.806.844 8.758-1.69ZM17.63 50.828C23.75 54.36 34.25 47.633 41.08 35.8c6.832-11.834 7.41-24.29 1.29-27.824-6.12-3.533-16.62 3.195-23.452 15.028-6.832 11.833-7.41 24.29-1.29 27.824Z" fill="url(#c)"/><path fill-rule="evenodd" clip-rule="evenodd" d="M19.9 44.3c4.636 0 10.349-1.547 15.943-4.777 5.593-3.23 9.789-7.403 12.107-11.419 2.358-4.084 2.537-7.5 1.225-9.773-1.311-2.272-4.36-3.825-9.075-3.825-4.638 0-10.35 1.546-15.944 4.776-5.594 3.23-9.789 7.404-12.107 11.42-2.359 4.084-2.538 7.5-1.226 9.772 1.312 2.272 4.36 3.825 9.076 3.825ZM8.572 41.772c3.945 6.832 16.735 6.832 28.568 0 11.834-6.832 18.229-17.909 14.284-24.74-3.944-6.833-16.734-6.833-28.568 0C11.024 23.863 4.63 34.94 8.573 41.772Z" fill="url(#d)"/><path fill-rule="evenodd" clip-rule="evenodd" d="M11.136 30.05c2.073 4.39 6.072 8.77 11.589 11.955 5.516 3.185 11.31 4.459 16.148 4.059 4.852-.401 8.482-2.433 10.303-5.588 1.822-3.155 1.766-7.315-.312-11.717-2.073-4.39-6.072-8.77-11.589-11.956-5.516-3.185-11.31-4.458-16.148-4.058-4.852.401-8.481 2.433-10.303 5.588-1.822 3.155-1.766 7.315.312 11.716ZM8.574 17.033c-4.735 8.202 1.019 20.39 12.852 27.221 11.833 6.832 25.265 5.721 30-2.48 4.735-8.202-1.019-20.39-12.852-27.221-11.833-6.832-25.264-5.722-30 2.48Z" fill="url(#e)"/><path d="M24.434 29.402a8.297 8.297 0 0 1 3.46 2.08 8.296 8.296 0 0 1 2.08 3.46 8.297 8.297 0 0 1 2.08-3.46 8.297 8.297 0 0 1 3.461-2.08 8.298 8.298 0 0 1-3.46-2.08 8.297 8.297 0 0 1-2.08-3.46 8.296 8.296 0 0 1-2.08 3.46 8.297 8.297 0 0 1-3.461 2.08Z" fill="#F3CFFF"/><defs><radialGradient id="a" cx="0" cy="0" r="1" gradientUnits="userSpaceOnUse" gradientTransform="rotate(45 -20.491 50.903) scale(26.7661)"><stop offset=".027" stop-color="#F3CFFF"/><stop offset=".224" stop-color="#F3CFFF"/><stop offset=".424" stop-color="#F3CFFF" stop-opacity="0"/><stop offset=".493" stop-color="#F3CFFF" stop-opacity="0"/><stop offset=".761" stop-color="#F3CFFF"/><stop offset=".864" stop-color="#F3CFFF"/></radialGradient><radialGradient id="b" cx="0" cy="0" r="1" gradientUnits="userSpaceOnUse" gradientTransform="rotate(45 -20.491 50.903) scale(26.7661)"><stop offset=".027" stop-color="#F3CFFF"/><stop offset=".224" stop-color="#F3CFFF"/><stop offset=".362" stop-color="#F3CFFF" stop-opacity="0"/><stop offset=".465" stop-color="#F3CFFF" stop-opacity="0"/><stop offset=".565" stop-color="#F3CFFF" stop-opacity="0"/><stop offset=".761" stop-color="#F3CFFF"/><stop offset=".864" stop-color="#F3CFFF"/></radialGradient><radialGradient id="c" cx="0" cy="0" r="1" gradientUnits="userSpaceOnUse" gradientTransform="rotate(120 6.512 23.361) scale(24.7405 12.7955)"><stop stop-color="#F3CFFF"/><stop offset=".485" stop-color="#F3CFFF"/><stop offset=".742" stop-color="#F3CFFF" stop-opacity="0"/><stop offset="1" stop-color="#F3CFFF" stop-opacity="0"/></radialGradient><radialGradient id="d" cx="0" cy="0" r="1" gradientUnits="userSpaceOnUse" gradientTransform="matrix(-21.89541 11.75154 -20.35405 -37.92357 30.115 29.336)"><stop offset=".022" stop-color="#F3CFFF" stop-opacity="0"/><stop offset=".484" stop-color="#F3CFFF"/><stop offset=".869" stop-color="#F3CFFF" stop-opacity="0"/></radialGradient><radialGradient id="e" cx="0" cy="0" r="1" gradientUnits="userSpaceOnUse" gradientTransform="rotate(120 6.512 23.362) scale(17.1482 24.7405)"><stop offset=".349" stop-color="#F3CFFF"/><stop offset=".449" stop-color="#F3CFFF" stop-opacity="0"/><stop offset=".705" stop-color="#F3CFFF" stop-opacity="0"/><stop offset=".81" stop-color="#F3CFFF"/></radialGradient></defs></svg>