<svg width="80" height="80" fill="none" xmlns="http://www.w3.org/2000/svg"><g clip-path="url(#a)"><g filter="url(#b)"><rect width="80" height="80" rx="40" fill="#461153"/><rect x=".746" y=".746" width="78.508" height="78.508" rx="39.254" stroke="url(#c)" stroke-width="1.492"/></g><g filter="url(#d)"><ellipse cx="39.814" cy="141.351" rx="78.228" ry="78.322" fill="#DE4916"/></g></g><path d="M25.45 36.31a2.24 2.24 0 0 1 3.175 0l10.711 10.743a2.256 2.256 0 0 1 0 3.183l-.793.796a2.24 2.24 0 0 1-3.174 0L24.657 40.288a2.256 2.256 0 0 1 0-3.183l.794-.796Z" fill="#F3CFFF"/><path d="M53.222 28.35a2.24 2.24 0 0 1 3.173 0l.794.796c.876.88.876 2.305 0 3.184L38.543 51.032a2.24 2.24 0 0 1-3.174 0l-.793-.796a2.256 2.256 0 0 1 0-3.183L53.222 28.35Z" fill="#F3CFFF"/><defs><filter id="b" x="0" y="0" width="80" height="80" filterUnits="userSpaceOnUse" color-interpolation-filters="sRGB"><feFlood flood-opacity="0" result="BackgroundImageFix"/><feBlend in="SourceGraphic" in2="BackgroundImageFix" result="shape"/><feColorMatrix in="SourceAlpha" values="0 0 0 0 0 0 0 0 0 0 0 0 0 0 0 0 0 0 127 0" result="hardAlpha"/><feMorphology radius="2.238" in="SourceAlpha" result="effect1_innerShadow_338_57567"/><feOffset/><feGaussianBlur stdDeviation="1.492"/><feComposite in2="hardAlpha" operator="arithmetic" k2="-1" k3="1"/><feColorMatrix values="0 0 0 0 0.950088 0 0 0 0 0.6625 0 0 0 0 1 0 0 0 0.42 0"/><feBlend in2="shape" result="effect1_innerShadow_338_57567"/></filter><filter id="d" x="-85.034" y="16.409" width="249.697" height="249.883" filterUnits="userSpaceOnUse" color-interpolation-filters="sRGB"><feFlood flood-opacity="0" result="BackgroundImageFix"/><feBlend in="SourceGraphic" in2="BackgroundImageFix" result="shape"/><feGaussianBlur stdDeviation="23.31" result="effect1_foregroundBlur_338_57567"/></filter><linearGradient id="c" x1="0" y1="0" x2="83.359" y2="3.669" gradientUnits="userSpaceOnUse"><stop stop-color="#fff" stop-opacity=".64"/><stop offset="1" stop-color="#fff" stop-opacity=".2"/></linearGradient><clipPath id="a"><rect width="80" height="80" rx="40" fill="#fff"/></clipPath></defs></svg>