<svg width="80" height="80" fill="none" xmlns="http://www.w3.org/2000/svg"><g filter="url(#b)" clip-path="url(#a)"><rect width="80" height="80" rx="40" fill="#461153"/><rect x=".746" y=".746" width="78.508" height="78.508" rx="39.254" stroke="url(#c)" stroke-width="1.492"/></g><path d="M26.384 35.588a5.179 5.179 0 1 0 0-10.358 5.179 5.179 0 0 0 0 10.358ZM53.093 35.588a5.179 5.179 0 1 0 0-10.358 5.179 5.179 0 0 0 0 10.358ZM20.276 57.234a1.814 1.814 0 0 1-1.616-2.637c1.556-3.057 4.442-5.66 8.348-7.524 3.857-1.842 8.415-2.815 13.182-2.815 4.744 0 9.284.965 13.13 2.79 3.892 1.848 6.78 4.428 8.354 7.463a1.814 1.814 0 0 1-3.221 1.67c-1.189-2.292-3.564-4.372-6.689-5.855-3.363-1.596-7.365-2.44-11.575-2.44-4.229 0-8.246.851-11.618 2.46-3.133 1.497-5.504 3.59-6.677 5.897-.32.629-.957.991-1.618.991Z" fill="#F3CFFF"/><defs><linearGradient id="c" x1="0" y1="0" x2="83.359" y2="3.669" gradientUnits="userSpaceOnUse"><stop stop-color="#fff" stop-opacity=".64"/><stop offset="1" stop-color="#fff" stop-opacity=".2"/></linearGradient><clipPath id="a"><rect width="80" height="80" rx="40" fill="#fff"/></clipPath><filter id="b" x="0" y="0" width="80" height="80" filterUnits="userSpaceOnUse" color-interpolation-filters="sRGB"><feFlood flood-opacity="0" result="BackgroundImageFix"/><feBlend in="SourceGraphic" in2="BackgroundImageFix" result="shape"/><feColorMatrix in="SourceAlpha" values="0 0 0 0 0 0 0 0 0 0 0 0 0 0 0 0 0 0 127 0" result="hardAlpha"/><feMorphology radius="2.238" in="SourceAlpha" result="effect1_innerShadow_338_59473"/><feOffset/><feGaussianBlur stdDeviation="1.492"/><feComposite in2="hardAlpha" operator="arithmetic" k2="-1" k3="1"/><feColorMatrix values="0 0 0 0 0.950088 0 0 0 0 0.6625 0 0 0 0 1 0 0 0 0.42 0"/><feBlend in2="shape" result="effect1_innerShadow_338_59473"/></filter></defs></svg>