<svg width="1920" height="972" fill="none" xmlns="http://www.w3.org/2000/svg"><g clip-path="url(#a)"><path fill="#21042F" d="M0 0h1920v972H0z"/><path d="M529.936 375.259a7.072 7.072 0 0 1 3.309.949 7.078 7.078 0 0 1 2.477 2.391 7.075 7.075 0 0 1 .949-3.309 7.075 7.075 0 0 1 2.391-2.476 7.087 7.087 0 0 1-3.309-.949 7.066 7.066 0 0 1-2.476-2.391 7.087 7.087 0 0 1-.949 3.309 7.086 7.086 0 0 1-2.392 2.476ZM612.12 317.28a7.063 7.063 0 0 1 3.309.949 7.058 7.058 0 0 1 2.476 2.391 7.073 7.073 0 0 1 .95-3.309 7.075 7.075 0 0 1 2.39-2.477 7.06 7.06 0 0 1-3.308-.949 7.07 7.07 0 0 1-2.477-2.391 7.063 7.063 0 0 1-.949 3.309 7.078 7.078 0 0 1-2.391 2.477ZM895.826 326.85a7.075 7.075 0 0 1 3.309.949 7.066 7.066 0 0 1 2.476 2.391 7.076 7.076 0 0 1 .95-3.309 7.064 7.064 0 0 1 2.39-2.476 7.083 7.083 0 0 1-3.308-.949 7.087 7.087 0 0 1-2.477-2.391 7.06 7.06 0 0 1-.949 3.308 7.078 7.078 0 0 1-2.391 2.477ZM1313.5 373.008c1.13.038 2.27.345 3.31.949a7.079 7.079 0 0 1 2.48 2.391 7.03 7.03 0 0 1 .95-3.309 7.029 7.029 0 0 1 2.39-2.476 7.097 7.097 0 0 1-3.31-.949 7.079 7.079 0 0 1-2.48-2.391 6.917 6.917 0 0 1-.95 3.309 7.029 7.029 0 0 1-2.39 2.476ZM1325.33 302.081c1.12.038 2.26.346 3.3.949a7.079 7.079 0 0 1 2.48 2.391c.04-1.128.35-2.263.95-3.309a7.029 7.029 0 0 1 2.39-2.476 7.085 7.085 0 0 1-3.31-.949 7.048 7.048 0 0 1-2.47-2.391 7.147 7.147 0 0 1-.95 3.309 7.196 7.196 0 0 1-2.39 2.476ZM689.803 570.026a7.063 7.063 0 0 1 3.309.949 7.075 7.075 0 0 1 2.476 2.391 7.072 7.072 0 0 1 .949-3.309 7.078 7.078 0 0 1 2.391-2.477 7.063 7.063 0 0 1-3.309-.949 7.066 7.066 0 0 1-2.476-2.391 7.083 7.083 0 0 1-.949 3.309 7.078 7.078 0 0 1-2.391 2.477ZM1337.15 602.673c1.12.038 2.26.345 3.31.949a7.048 7.048 0 0 1 2.47 2.391c.04-1.128.35-2.263.95-3.309a7.029 7.029 0 0 1 2.39-2.476 7.097 7.097 0 0 1-5.78-3.34 7.147 7.147 0 0 1-.95 3.309 7.205 7.205 0 0 1-2.39 2.476ZM1423.83 470.391c1.13.038 2.27.345 3.31.949a7.079 7.079 0 0 1 2.48 2.391 7.03 7.03 0 0 1 .95-3.309 7.012 7.012 0 0 1 2.39-2.476 7.097 7.097 0 0 1-3.31-.949 7.079 7.079 0 0 1-2.48-2.391 6.913 6.913 0 0 1-.95 3.308 7.024 7.024 0 0 1-2.39 2.477ZM1412.01 358.372c1.13.038 2.27.346 3.31.949a7.079 7.079 0 0 1 2.48 2.391c.04-1.128.35-2.263.95-3.309a7.029 7.029 0 0 1 2.39-2.476 7.085 7.085 0 0 1-3.31-.949 7.164 7.164 0 0 1-2.48-2.391 7.016 7.016 0 0 1-.94 3.309 7.133 7.133 0 0 1-2.4 2.476ZM1275.79 351.616c1.13.038 2.26.346 3.31.95a7.04 7.04 0 0 1 2.47 2.391c.04-1.128.35-2.264.95-3.309a7.2 7.2 0 0 1 2.39-2.477 7.036 7.036 0 0 1-3.3-.949 7.079 7.079 0 0 1-2.48-2.391 7.147 7.147 0 0 1-.95 3.309 7.012 7.012 0 0 1-2.39 2.476ZM1275.79 506.416a7.097 7.097 0 0 1 5.78 3.34c.04-1.128.35-2.263.95-3.309a7.205 7.205 0 0 1 2.39-2.476 7.047 7.047 0 0 1-3.3-.949 7.079 7.079 0 0 1-2.48-2.391 7.147 7.147 0 0 1-.95 3.309 7.02 7.02 0 0 1-2.39 2.476ZM1435.65 614.495c1.13.038 2.27.346 3.31.949a7.079 7.079 0 0 1 2.48 2.391c.04-1.128.34-2.263.95-3.308a7.024 7.024 0 0 1 2.39-2.477 7.085 7.085 0 0 1-3.31-.949 7.164 7.164 0 0 1-2.48-2.391 7.016 7.016 0 0 1-.94 3.309 7.125 7.125 0 0 1-2.4 2.476ZM1114.8 352.18c1.12.038 2.26.345 3.31.949a7.048 7.048 0 0 1 2.47 2.391c.04-1.128.35-2.263.95-3.309a7.012 7.012 0 0 1 2.39-2.476 7.097 7.097 0 0 1-5.78-3.34 7.14 7.14 0 0 1-.95 3.308 7.2 7.2 0 0 1-2.39 2.477ZM1154.2 538.502c1.13.038 2.27.346 3.31.949a7.079 7.079 0 0 1 2.48 2.391 7.03 7.03 0 0 1 .95-3.309 7.029 7.029 0 0 1 2.39-2.476 7.085 7.085 0 0 1-3.31-.949 7.079 7.079 0 0 1-2.48-2.391 6.917 6.917 0 0 1-.95 3.309 7.02 7.02 0 0 1-2.39 2.476ZM755.663 509.232a7.063 7.063 0 0 1 3.309.949 7.058 7.058 0 0 1 2.476 2.391 7.083 7.083 0 0 1 .949-3.309 7.066 7.066 0 0 1 2.391-2.476 7.07 7.07 0 0 1-3.308-.95 7.07 7.07 0 0 1-2.477-2.391 7.072 7.072 0 0 1-.949 3.309 7.078 7.078 0 0 1-2.391 2.477ZM645.334 412.411a7.087 7.087 0 0 1 3.309.949 7.075 7.075 0 0 1 2.476 2.391 7.08 7.08 0 0 1 .949-3.308 7.078 7.078 0 0 1 2.391-2.477 7.068 7.068 0 0 1-3.308-.949 7.078 7.078 0 0 1-2.477-2.391 7.075 7.075 0 0 1-.949 3.309 7.066 7.066 0 0 1-2.391 2.476ZM527.123 678.104a7.063 7.063 0 0 1 3.309.949 7.066 7.066 0 0 1 2.476 2.391 7.087 7.087 0 0 1 .949-3.309 7.066 7.066 0 0 1 2.391-2.476 7.07 7.07 0 0 1-3.308-.95 7.07 7.07 0 0 1-2.477-2.391 7.072 7.072 0 0 1-.949 3.309 7.078 7.078 0 0 1-2.391 2.477ZM475.335 296.453a7.087 7.087 0 0 1 3.309.949 7.075 7.075 0 0 1 2.476 2.391 7.08 7.08 0 0 1 .949-3.308 7.078 7.078 0 0 1 2.391-2.477 7.068 7.068 0 0 1-3.308-.949 7.078 7.078 0 0 1-2.477-2.391 7.075 7.075 0 0 1-.949 3.309 7.066 7.066 0 0 1-2.391 2.476ZM734.257 103.568a7.085 7.085 0 0 1 1.669 3.011 7.075 7.075 0 0 1 .06 3.442 7.085 7.085 0 0 1 3.011-1.669 7.087 7.087 0 0 1 3.442-.06 7.08 7.08 0 0 1-1.669-3.011 7.087 7.087 0 0 1-.06-3.442 7.08 7.08 0 0 1-3.011 1.669 7.074 7.074 0 0 1-3.442.06ZM833.369 120.684a7.061 7.061 0 0 1 1.668 3.011 7.07 7.07 0 0 1 .061 3.441 7.061 7.061 0 0 1 3.011-1.668 7.07 7.07 0 0 1 3.441-.061 7.061 7.061 0 0 1-1.668-3.011 7.07 7.07 0 0 1-.061-3.441 7.063 7.063 0 0 1-3.01 1.668 7.075 7.075 0 0 1-3.442.061ZM1027.21 328.061a7.056 7.056 0 0 1 1.67 3.01 7.05 7.05 0 0 1 .06 3.442 7.135 7.135 0 0 1 3.01-1.668 7.067 7.067 0 0 1 3.44-.061 7.037 7.037 0 0 1-1.66-3.011 6.928 6.928 0 0 1-.06-3.441 7.123 7.123 0 0 1-3.02 1.668 7.066 7.066 0 0 1-3.44.061ZM1289.92 656.042a7.043 7.043 0 0 1 1.66 3.011c.32 1.166.32 2.342.06 3.442a7.124 7.124 0 0 1 3.02-1.669 7.065 7.065 0 0 1 3.44-.06 7.066 7.066 0 0 1-1.67-3.011 7.05 7.05 0 0 1-.06-3.442 7.147 7.147 0 0 1-3.01 1.669 7.08 7.08 0 0 1-3.44.06ZM1348.43 614.249a7.167 7.167 0 0 1 1.67 3.011c.31 1.166.31 2.342.06 3.442a7.029 7.029 0 0 1 3.01-1.669 7.065 7.065 0 0 1 3.44-.06 7.066 7.066 0 0 1-1.67-3.011 7.173 7.173 0 0 1-.06-3.442 7.029 7.029 0 0 1-3.01 1.669 7.067 7.067 0 0 1-3.44.06ZM709.58 354.331a7.067 7.067 0 0 1 1.668 3.011 7.075 7.075 0 0 1 .061 3.442 7.073 7.073 0 0 1 3.011-1.669 7.07 7.07 0 0 1 3.441-.06 7.073 7.073 0 0 1-1.668-3.011 7.075 7.075 0 0 1-.061-3.442 7.073 7.073 0 0 1-3.011 1.669 7.07 7.07 0 0 1-3.441.06ZM1144.24 835.157a7.043 7.043 0 0 1 1.66 3.011c.32 1.166.32 2.343.06 3.442a7.124 7.124 0 0 1 3.02-1.669 7.065 7.065 0 0 1 3.44-.06 7.06 7.06 0 0 1-1.67-3.011 7.05 7.05 0 0 1-.06-3.442 7.147 7.147 0 0 1-3.01 1.669 7.067 7.067 0 0 1-3.44.06ZM1299.07 802.917a7.06 7.06 0 0 1 1.67 3.011 7.05 7.05 0 0 1 .06 3.442 7.147 7.147 0 0 1 3.01-1.669 7.067 7.067 0 0 1 3.44-.06 7.173 7.173 0 0 1-1.67-3.011 7.173 7.173 0 0 1-.06-3.442 7.029 7.029 0 0 1-3.01 1.669 7.077 7.077 0 0 1-3.44.06ZM1369.92 715.35a7.054 7.054 0 0 1 1.67 3.011c.31 1.166.32 2.342.06 3.441a7.075 7.075 0 0 1 3.01-1.668 7.067 7.067 0 0 1 3.44-.061 7.16 7.16 0 0 1-1.67-3.011 7.169 7.169 0 0 1-.06-3.441 7.017 7.017 0 0 1-3.01 1.668 7.066 7.066 0 0 1-3.44.061ZM1278.37 614.249a6.956 6.956 0 0 1 1.67 3.011c.32 1.166.32 2.342.06 3.442a7.147 7.147 0 0 1 3.01-1.669 7.107 7.107 0 0 1 3.45-.06 7.066 7.066 0 0 1-1.67-3.011 7.05 7.05 0 0 1-.06-3.442 7.147 7.147 0 0 1-3.01 1.669 7.107 7.107 0 0 1-3.45.06ZM1168.91 723.708a6.956 6.956 0 0 1 1.67 3.011c.32 1.166.32 2.342.06 3.442a7.147 7.147 0 0 1 3.01-1.669 7.107 7.107 0 0 1 3.45-.06 7.066 7.066 0 0 1-1.67-3.011 7.05 7.05 0 0 1-.06-3.442 7.147 7.147 0 0 1-3.01 1.669 7.107 7.107 0 0 1-3.45.06ZM1205.53 913.173a6.95 6.95 0 0 1 1.67 3.011c.32 1.166.32 2.342.06 3.442a7.137 7.137 0 0 1 3.01-1.669 7.108 7.108 0 0 1 3.45-.061 7.056 7.056 0 0 1-1.67-3.01 7.05 7.05 0 0 1-.06-3.442 7.135 7.135 0 0 1-6.46 1.729ZM1164.14 500.809a7.16 7.16 0 0 1 1.67 3.011c.31 1.166.31 2.342.06 3.441a7.017 7.017 0 0 1 3.01-1.668 7.066 7.066 0 0 1 3.44-.061 7.054 7.054 0 0 1-1.67-3.011 7.169 7.169 0 0 1-.06-3.441 7.017 7.017 0 0 1-3.01 1.668 7.067 7.067 0 0 1-3.44.061ZM1060.25 660.421a7.06 7.06 0 0 1 1.67 3.011c.31 1.166.31 2.342.06 3.442a7.018 7.018 0 0 1 3.01-1.669 7.055 7.055 0 0 1 3.44-.06 7.173 7.173 0 0 1-1.67-3.011 7.173 7.173 0 0 1-.06-3.442 7.029 7.029 0 0 1-3.01 1.669 7.077 7.077 0 0 1-3.44.06ZM799.139 357.912a7.08 7.08 0 0 1 1.669 3.011 7.075 7.075 0 0 1 .06 3.442 7.08 7.08 0 0 1 3.011-1.669 7.075 7.075 0 0 1 3.442-.06 7.08 7.08 0 0 1-1.669-3.011 7.075 7.075 0 0 1-.06-3.442 7.08 7.08 0 0 1-3.011 1.669 7.075 7.075 0 0 1-3.442.06ZM789.585 211.437a7.065 7.065 0 0 1 1.669 3.01 7.063 7.063 0 0 1 .06 3.442 7.073 7.073 0 0 1 3.011-1.668 7.075 7.075 0 0 1 3.442-.061 7.061 7.061 0 0 1-1.668-3.011 7.07 7.07 0 0 1-.061-3.441 7.072 7.072 0 0 1-3.011 1.668 7.075 7.075 0 0 1-3.442.061ZM518.125 315.721a7.063 7.063 0 0 1 1.669 3.011 7.07 7.07 0 0 1 .061 3.441 7.063 7.063 0 0 1 3.01-1.668 7.075 7.075 0 0 1 3.442-.061 7.063 7.063 0 0 1-1.668-3.01 7.075 7.075 0 0 1-.061-3.442 7.061 7.061 0 0 1-3.011 1.668 7.075 7.075 0 0 1-3.442.061ZM751.375 9.233a7.068 7.068 0 0 1 1.669 3.011 7.074 7.074 0 0 1 .061 3.442 7.069 7.069 0 0 1 3.01-1.668 7.076 7.076 0 0 1 3.442-.061 7.066 7.066 0 0 1-1.668-3.01 7.074 7.074 0 0 1-.061-3.443 7.069 7.069 0 0 1-3.011 1.669 7.074 7.074 0 0 1-3.442.06ZM1342.54 260.258a7.029 7.029 0 0 1-3.01 1.669 7.065 7.065 0 0 1-3.44.06 7.066 7.066 0 0 1 1.67 3.011c.31 1.166.31 2.343.06 3.442a7.029 7.029 0 0 1 3.01-1.669 7.067 7.067 0 0 1 3.44-.06 7.167 7.167 0 0 1-1.67-3.011 7.173 7.173 0 0 1-.06-3.442ZM1325.43 359.369a7.135 7.135 0 0 1-3.01 1.668 7.067 7.067 0 0 1-3.44.061 7.037 7.037 0 0 1 1.66 3.011 7.05 7.05 0 0 1 .07 3.441 7.017 7.017 0 0 1 3.01-1.668 7.066 7.066 0 0 1 3.44-.061 7.056 7.056 0 0 1-1.67-3.01 7.05 7.05 0 0 1-.06-3.442ZM1118.05 553.212a7.018 7.018 0 0 1-3.01 1.669 7.055 7.055 0 0 1-3.44.06 7.173 7.173 0 0 1 1.67 3.011c.31 1.167.31 2.343.06 3.442a7.029 7.029 0 0 1 3.01-1.669 7.077 7.077 0 0 1 3.44-.06 7.06 7.06 0 0 1-1.67-3.011 7.05 7.05 0 0 1-.06-3.442ZM790.07 815.916a7.072 7.072 0 0 1-3.011 1.668 7.07 7.07 0 0 1-3.441.061 7.063 7.063 0 0 1 1.668 3.01 7.075 7.075 0 0 1 .061 3.442 7.063 7.063 0 0 1 3.01-1.668 7.075 7.075 0 0 1 3.442-.061 7.061 7.061 0 0 1-1.668-3.011 7.07 7.07 0 0 1-.061-3.441ZM831.863 874.427a7.073 7.073 0 0 1-3.011 1.669 7.07 7.07 0 0 1-3.441.06 7.073 7.073 0 0 1 1.668 3.011 7.075 7.075 0 0 1 .061 3.442 7.076 7.076 0 0 1 3.01-1.669 7.075 7.075 0 0 1 3.442-.06 7.067 7.067 0 0 1-1.668-3.011 7.075 7.075 0 0 1-.061-3.442ZM1091.78 235.58a7.017 7.017 0 0 1-3.01 1.668 7.067 7.067 0 0 1-3.44.061 7.16 7.16 0 0 1 1.67 3.011c.31 1.166.31 2.342.06 3.441a7.017 7.017 0 0 1 3.01-1.668 7.066 7.066 0 0 1 3.44-.061 7.054 7.054 0 0 1-1.67-3.011 7.169 7.169 0 0 1-.06-3.441ZM610.954 670.236a7.067 7.067 0 0 1-3.011 1.668 7.075 7.075 0 0 1-3.442.061 7.063 7.063 0 0 1 1.669 3.011 7.058 7.058 0 0 1 .06 3.441 7.084 7.084 0 0 1 3.011-1.668 7.063 7.063 0 0 1 3.442-.06 7.085 7.085 0 0 1-1.669-3.011 7.087 7.087 0 0 1-.06-3.442ZM643.195 825.071a7.061 7.061 0 0 1-3.011 1.668 7.07 7.07 0 0 1-3.441.061 7.061 7.061 0 0 1 1.668 3.011 7.07 7.07 0 0 1 .061 3.441 7.074 7.074 0 0 1 3.01-1.668 7.075 7.075 0 0 1 3.442-.061 7.063 7.063 0 0 1-1.668-3.01 7.075 7.075 0 0 1-.061-3.442ZM730.763 895.921a7.075 7.075 0 0 1-3.011 1.669 7.062 7.062 0 0 1-3.442.06 7.085 7.085 0 0 1 1.669 3.011 7.075 7.075 0 0 1 .06 3.442 7.08 7.08 0 0 1 3.011-1.669 7.087 7.087 0 0 1 3.442-.06 7.08 7.08 0 0 1-1.669-3.011 7.074 7.074 0 0 1-.06-3.442ZM831.863 804.374a7.063 7.063 0 0 1-3.011 1.669 7.07 7.07 0 0 1-3.441.061 7.063 7.063 0 0 1 1.668 3.01 7.075 7.075 0 0 1 .061 3.442 7.063 7.063 0 0 1 3.01-1.668 7.075 7.075 0 0 1 3.442-.061 7.061 7.061 0 0 1-1.668-3.011 7.075 7.075 0 0 1-.061-3.442ZM722.404 694.914a7.072 7.072 0 0 1-3.011 1.668 7.07 7.07 0 0 1-3.441.061 7.063 7.063 0 0 1 1.668 3.01 7.075 7.075 0 0 1 .061 3.442 7.063 7.063 0 0 1 3.01-1.668 7.075 7.075 0 0 1 3.442-.061 7.061 7.061 0 0 1-1.668-3.011 7.07 7.07 0 0 1-.061-3.441ZM532.938 731.534a7.063 7.063 0 0 1-3.01 1.668 7.075 7.075 0 0 1-3.442.061 7.061 7.061 0 0 1 1.668 3.011 7.07 7.07 0 0 1 .061 3.441 7.061 7.061 0 0 1 3.011-1.668 7.07 7.07 0 0 1 3.441-.061 7.074 7.074 0 0 1-1.668-3.01 7.075 7.075 0 0 1-.061-3.442ZM945.304 690.137a7.085 7.085 0 0 1-3.011 1.669 7.075 7.075 0 0 1-3.442.06 7.08 7.08 0 0 1 1.669 3.011 7.075 7.075 0 0 1 .06 3.442 7.08 7.08 0 0 1 3.011-1.669 7.074 7.074 0 0 1 3.442-.06 7.08 7.08 0 0 1-1.669-3.011 7.075 7.075 0 0 1-.06-3.442ZM785.689 586.249a7.065 7.065 0 0 1-3.01 1.669 7.075 7.075 0 0 1-3.442.061 7.063 7.063 0 0 1 1.668 3.01 7.075 7.075 0 0 1 .061 3.442 7.061 7.061 0 0 1 3.011-1.668 7.07 7.07 0 0 1 3.441-.061 7.072 7.072 0 0 1-1.668-3.011 7.075 7.075 0 0 1-.061-3.442ZM1088.2 325.138a7.147 7.147 0 0 1-3.01 1.669 7.069 7.069 0 0 1-3.44.06 7.043 7.043 0 0 1 1.66 3.011c.32 1.166.32 2.343.06 3.442a7.124 7.124 0 0 1 3.02-1.669 7.065 7.065 0 0 1 3.44-.06 7.06 7.06 0 0 1-1.67-3.011 7.05 7.05 0 0 1-.06-3.442ZM1234.68 315.585a7.114 7.114 0 0 1-3.02 1.669 7.053 7.053 0 0 1-3.44.06 7.066 7.066 0 0 1 1.67 3.011 7.05 7.05 0 0 1 .06 3.442 7.135 7.135 0 0 1 3.01-1.668 7.069 7.069 0 0 1 3.44-.061 7.037 7.037 0 0 1-1.66-3.011 6.932 6.932 0 0 1-.06-3.442ZM1130.39 44.124a7.024 7.024 0 0 1-3.01 1.67 7.068 7.068 0 0 1-3.44.06 7.06 7.06 0 0 1 1.67 3.01c.31 1.167.31 2.343.06 3.442a7.024 7.024 0 0 1 3.01-1.668 7.067 7.067 0 0 1 3.44-.06 7.06 7.06 0 0 1-1.67-3.012 7.172 7.172 0 0 1-.06-3.442ZM1436.88 277.374a7.137 7.137 0 0 1-3.01 1.669 7.067 7.067 0 0 1-3.44.061 7.04 7.04 0 0 1 1.66 3.01c.32 1.167.32 2.343.07 3.442a7.017 7.017 0 0 1 3.01-1.668 7.066 7.066 0 0 1 3.44-.061 7.054 7.054 0 0 1-1.67-3.011 7.05 7.05 0 0 1-.06-3.442ZM1070.85 55.934a7.015 7.015 0 0 1-.94 3.309 7.136 7.136 0 0 1-2.4 2.476c1.13.038 2.27.345 3.31.949a7.077 7.077 0 0 1 2.48 2.39c.04-1.127.34-2.262.95-3.308a7.023 7.023 0 0 1 2.39-2.476 7.085 7.085 0 0 1-3.31-.95 7.162 7.162 0 0 1-2.48-2.39ZM1128.83 138.118a6.917 6.917 0 0 1-.95 3.309 7.012 7.012 0 0 1-2.39 2.476c1.13.038 2.27.346 3.31.95a7.076 7.076 0 0 1 2.48 2.39c.04-1.127.34-2.263.95-3.308a7.024 7.024 0 0 1 2.39-2.477 7.074 7.074 0 0 1-3.31-.949 7.079 7.079 0 0 1-2.48-2.391ZM1119.26 421.824a7.03 7.03 0 0 1-.95 3.309 7.012 7.012 0 0 1-2.39 2.476c1.13.038 2.27.346 3.31.95a7.07 7.07 0 0 1 2.48 2.391c.04-1.128.34-2.264.95-3.309a7.024 7.024 0 0 1 2.39-2.477 7.04 7.04 0 0 1-3.31-.949 7.07 7.07 0 0 1-2.48-2.391ZM1073.1 839.501a7.016 7.016 0 0 1-.94 3.309 7.133 7.133 0 0 1-2.4 2.476c1.13.038 2.27.346 3.31.949a7.079 7.079 0 0 1 2.48 2.391c.04-1.128.34-2.263.95-3.308a7.024 7.024 0 0 1 2.39-2.477 7.085 7.085 0 0 1-3.31-.949 7.164 7.164 0 0 1-2.48-2.391ZM1144.03 851.322a7.147 7.147 0 0 1-.95 3.309 7.024 7.024 0 0 1-2.39 2.477c1.13.037 2.26.345 3.31.949a7.155 7.155 0 0 1 2.48 2.391c.03-1.128.34-2.264.94-3.309a7.137 7.137 0 0 1 2.4-2.477 7.04 7.04 0 0 1-3.31-.949 7.07 7.07 0 0 1-2.48-2.391ZM876.088 215.8a7.087 7.087 0 0 1-.949 3.309 7.083 7.083 0 0 1-2.391 2.476 7.08 7.08 0 0 1 3.308.949 7.078 7.078 0 0 1 2.477 2.391 7.075 7.075 0 0 1 .949-3.309 7.083 7.083 0 0 1 2.391-2.476 7.087 7.087 0 0 1-3.309-.949 7.066 7.066 0 0 1-2.476-2.391ZM843.44 863.143a7.06 7.06 0 0 1-.949 3.309 7.078 7.078 0 0 1-2.391 2.477 7.075 7.075 0 0 1 3.309.949 7.066 7.066 0 0 1 2.476 2.391 7.087 7.087 0 0 1 .949-3.309 7.07 7.07 0 0 1 2.392-2.476 7.083 7.083 0 0 1-3.309-.949 7.08 7.08 0 0 1-2.477-2.392ZM975.721 949.83a7.063 7.063 0 0 1-.949 3.309 7.058 7.058 0 0 1-2.391 2.476 7.083 7.083 0 0 1 3.309.949 7.078 7.078 0 0 1 2.477 2.391 7.056 7.056 0 0 1 .949-3.308 7.07 7.07 0 0 1 2.391-2.477 7.075 7.075 0 0 1-3.309-.949 7.078 7.078 0 0 1-2.477-2.391ZM1087.74 938.011a7.03 7.03 0 0 1-.95 3.309 7.029 7.029 0 0 1-2.39 2.476c1.13.038 2.26.345 3.31.949a7.079 7.079 0 0 1 2.48 2.391c.03-1.128.34-2.263.95-3.309a7.029 7.029 0 0 1 2.39-2.476 7.064 7.064 0 0 1-3.31-.949 7.079 7.079 0 0 1-2.48-2.391ZM1094.5 801.787a7.147 7.147 0 0 1-.95 3.309 7.187 7.187 0 0 1-2.39 2.476 7.12 7.12 0 0 1 3.31.95 7.037 7.037 0 0 1 2.47 2.39c.04-1.127.35-2.263.95-3.308a7.024 7.024 0 0 1 2.39-2.477 7.074 7.074 0 0 1-3.31-.949 7.048 7.048 0 0 1-2.47-2.391ZM939.697 801.787a7.075 7.075 0 0 1-.949 3.309 7.066 7.066 0 0 1-2.391 2.476 7.076 7.076 0 0 1 3.309.95 7.064 7.064 0 0 1 2.476 2.39 7.083 7.083 0 0 1 .949-3.308 7.078 7.078 0 0 1 2.391-2.477 7.056 7.056 0 0 1-3.308-.949 7.078 7.078 0 0 1-2.477-2.391ZM831.617 961.651a7.072 7.072 0 0 1-.949 3.309 7.078 7.078 0 0 1-2.391 2.477 7.063 7.063 0 0 1 3.309.949 7.075 7.075 0 0 1 2.476 2.391 7.087 7.087 0 0 1 .949-3.309 7.078 7.078 0 0 1 2.391-2.477 7.063 7.063 0 0 1-3.309-.949 7.075 7.075 0 0 1-2.476-2.391ZM1093.93 640.796a7.03 7.03 0 0 1-.95 3.309 7.02 7.02 0 0 1-2.39 2.476c1.13.038 2.27.346 3.31.949a7.079 7.079 0 0 1 2.48 2.391 7.03 7.03 0 0 1 .95-3.309 7.029 7.029 0 0 1 2.39-2.476 7.052 7.052 0 0 1-3.31-.949 7.079 7.079 0 0 1-2.48-2.391ZM907.611 680.198a7.075 7.075 0 0 1-.949 3.309 7.078 7.078 0 0 1-2.391 2.477 7.063 7.063 0 0 1 3.309.949 7.058 7.058 0 0 1 2.476 2.391 7.083 7.083 0 0 1 .949-3.309 7.078 7.078 0 0 1 2.391-2.477 7.056 7.056 0 0 1-3.308-.949 7.07 7.07 0 0 1-2.477-2.391ZM936.881 281.66a7.087 7.087 0 0 1-.949 3.309 7.066 7.066 0 0 1-2.391 2.476 7.07 7.07 0 0 1 3.308.95 7.075 7.075 0 0 1 2.477 2.39 7.071 7.071 0 0 1 .949-3.308 7.078 7.078 0 0 1 2.391-2.477 7.063 7.063 0 0 1-3.309-.949 7.066 7.066 0 0 1-2.476-2.391ZM1033.7 171.33a7.03 7.03 0 0 1-.95 3.309 7.012 7.012 0 0 1-2.39 2.476c1.13.038 2.26.346 3.31.949a7.079 7.079 0 0 1 2.48 2.391 6.91 6.91 0 0 1 .95-3.308 7.024 7.024 0 0 1 2.39-2.477 7.052 7.052 0 0 1-3.31-.949 7.079 7.079 0 0 1-2.48-2.391ZM768.01 53.12a7.075 7.075 0 0 1-.95 3.308 7.067 7.067 0 0 1-2.391 2.476 7.072 7.072 0 0 1 3.309.95 7.075 7.075 0 0 1 2.477 2.39 7.061 7.061 0 0 1 .949-3.308 7.075 7.075 0 0 1 2.391-2.477 7.076 7.076 0 0 1-3.309-.949 7.064 7.064 0 0 1-2.476-2.39ZM1149.66 1.332a7.146 7.146 0 0 1-.95 3.309 7.022 7.022 0 0 1-2.39 2.476c1.13.038 2.26.346 3.31.95a7.162 7.162 0 0 1 2.48 2.39c.03-1.128.34-2.263.94-3.308a7.135 7.135 0 0 1 2.4-2.477 7.053 7.053 0 0 1-3.31-.949 7.077 7.077 0 0 1-2.48-2.391ZM38.866 757.626a9.338 9.338 0 0 0 3.258-3.167 9.334 9.334 0 0 0 1.391-4.326 9.345 9.345 0 0 0 3.167 3.259 9.339 9.339 0 0 0 4.326 1.39 9.338 9.338 0 0 0-3.258 3.167 9.343 9.343 0 0 0-1.39 4.326 9.334 9.334 0 0 0-3.168-3.258 9.341 9.341 0 0 0-4.326-1.391ZM496.057 443.531a9.34 9.34 0 0 0 3.259-3.168 9.338 9.338 0 0 0 1.39-4.325 9.338 9.338 0 0 0 3.168 3.258 9.339 9.339 0 0 0 4.325 1.391 9.326 9.326 0 0 0-3.258 3.167 9.34 9.34 0 0 0-1.391 4.326 9.337 9.337 0 0 0-3.167-3.259 9.338 9.338 0 0 0-4.326-1.39ZM554.029 518.684a9.335 9.335 0 0 0 3.258-3.167 9.328 9.328 0 0 0 1.391-4.326 9.335 9.335 0 0 0 3.167 3.258 9.343 9.343 0 0 0 4.326 1.391 9.335 9.335 0 0 0-3.258 3.167 9.34 9.34 0 0 0-1.391 4.326 9.335 9.335 0 0 0-3.167-3.258 9.328 9.328 0 0 0-4.326-1.391ZM380.388 161.576a9.338 9.338 0 0 0 3.258-3.168 9.339 9.339 0 0 0 1.391-4.325 9.326 9.326 0 0 0 3.167 3.258 9.339 9.339 0 0 0 4.325 1.391 9.335 9.335 0 0 0-3.258 3.167 9.338 9.338 0 0 0-1.39 4.325 9.355 9.355 0 0 0-3.168-3.258 9.338 9.338 0 0 0-4.325-1.39ZM563.718 261.445a9.335 9.335 0 0 0 3.258-3.167 9.346 9.346 0 0 0 1.391-4.326 9.326 9.326 0 0 0 3.167 3.258 9.339 9.339 0 0 0 4.325 1.391 9.352 9.352 0 0 0-3.258 3.167 9.338 9.338 0 0 0-1.39 4.326 9.346 9.346 0 0 0-3.167-3.259 9.345 9.345 0 0 0-4.326-1.39ZM619.8 399.146a9.335 9.335 0 0 0 3.258-3.167 9.346 9.346 0 0 0 1.391-4.326 9.335 9.335 0 0 0 3.167 3.258 9.339 9.339 0 0 0 4.325 1.391 9.352 9.352 0 0 0-3.258 3.167 9.338 9.338 0 0 0-1.39 4.326 9.335 9.335 0 0 0-3.167-3.258 9.335 9.335 0 0 0-4.326-1.391ZM465.512 491.932a9.343 9.343 0 0 0 3.258-3.167 9.34 9.34 0 0 0 1.391-4.326 9.326 9.326 0 0 0 3.167 3.258 9.328 9.328 0 0 0 4.325 1.391 9.352 9.352 0 0 0-3.258 3.167 9.338 9.338 0 0 0-1.39 4.326 9.33 9.33 0 0 0-3.168-3.258 9.328 9.328 0 0 0-4.325-1.391ZM369.008 311.823a9.33 9.33 0 0 0 3.258-3.168 9.339 9.339 0 0 0 1.391-4.325 9.335 9.335 0 0 0 3.167 3.258 9.339 9.339 0 0 0 4.325 1.391 9.343 9.343 0 0 0-3.258 3.167 9.338 9.338 0 0 0-1.39 4.326 9.346 9.346 0 0 0-3.167-3.259 9.345 9.345 0 0 0-4.326-1.39ZM487.632 86.409a9.334 9.334 0 0 0 3.258-3.168 9.341 9.341 0 0 0 1.391-4.325 9.34 9.34 0 0 0 3.167 3.258 9.335 9.335 0 0 0 4.325 1.39 9.351 9.351 0 0 0-3.258 3.168 9.34 9.34 0 0 0-1.39 4.325 9.339 9.339 0 0 0-3.167-3.258 9.343 9.343 0 0 0-4.326-1.39ZM277.848 591.643a9.343 9.343 0 0 0 3.258-3.167 9.326 9.326 0 0 0 1.39-4.326 9.338 9.338 0 0 0 3.168 3.258 9.339 9.339 0 0 0 4.325 1.391 9.335 9.335 0 0 0-3.258 3.167 9.326 9.326 0 0 0-1.39 4.326 9.338 9.338 0 0 0-3.168-3.258 9.328 9.328 0 0 0-4.325-1.391ZM207.537 350.289a9.326 9.326 0 0 0 3.258-3.167 9.339 9.339 0 0 0 1.391-4.325 9.352 9.352 0 0 0 3.167 3.258 9.338 9.338 0 0 0 4.326 1.39 9.335 9.335 0 0 0-3.258 3.167 9.335 9.335 0 0 0-1.391 4.326 9.335 9.335 0 0 0-3.167-3.258 9.34 9.34 0 0 0-4.326-1.391ZM190.977 674.308a9.343 9.343 0 0 0 .065-4.543 9.34 9.34 0 0 0-2.076-4.042 9.335 9.335 0 0 0 4.544.064 9.343 9.343 0 0 0 4.042-2.075 9.343 9.343 0 0 0-.065 4.543 9.334 9.334 0 0 0 2.076 4.042 9.335 9.335 0 0 0-4.544-.064 9.343 9.343 0 0 0-4.042 2.075ZM292.164 128.926a9.335 9.335 0 0 0 .064-4.544 9.337 9.337 0 0 0-2.075-4.042 9.33 9.33 0 0 0 4.543.064 9.327 9.327 0 0 0 4.042-2.075 9.331 9.331 0 0 0-.064 4.543 9.341 9.341 0 0 0 2.075 4.043 9.33 9.33 0 0 0-4.543-.065 9.334 9.334 0 0 0-4.042 2.076ZM386.298 141.074a9.33 9.33 0 0 0 .065-4.543 9.343 9.343 0 0 0-2.076-4.043 9.335 9.335 0 0 0 4.544.065 9.34 9.34 0 0 0 4.042-2.076 9.335 9.335 0 0 0-.064 4.544 9.327 9.327 0 0 0 2.075 4.042 9.331 9.331 0 0 0-4.543-.064 9.33 9.33 0 0 0-4.043 2.075ZM10.999 11.346a9.338 9.338 0 0 0 .064-4.544A9.338 9.338 0 0 0 8.988 2.76a9.337 9.337 0 0 0 4.543.064A9.337 9.337 0 0 0 17.573.75a9.338 9.338 0 0 0-.064 4.543 9.338 9.338 0 0 0 2.075 4.042 9.338 9.338 0 0 0-4.543-.064 9.336 9.336 0 0 0-4.042 2.076ZM348.276 10.044a9.333 9.333 0 0 0 .064-4.544 9.327 9.327 0 0 0-2.075-4.042 9.336 9.336 0 0 0 4.543.065 9.332 9.332 0 0 0 4.042-2.076 9.344 9.344 0 0 0-.064 4.543 9.34 9.34 0 0 0 2.076 4.043 9.34 9.34 0 0 0-4.544-.065 9.337 9.337 0 0 0-4.042 2.076ZM304.789 184.749a9.335 9.335 0 0 0 .064-4.544 9.343 9.343 0 0 0-2.075-4.042 9.343 9.343 0 0 0 4.543.065 9.34 9.34 0 0 0 4.042-2.076 9.335 9.335 0 0 0-.064 4.544 9.343 9.343 0 0 0 2.075 4.042 9.343 9.343 0 0 0-4.543-.065 9.334 9.334 0 0 0-4.042 2.076ZM109.194 125.631a9.335 9.335 0 0 0 .064-4.544 9.337 9.337 0 0 0-2.075-4.042 9.331 9.331 0 0 0 4.543.064 9.321 9.321 0 0 0 4.042-2.075 9.343 9.343 0 0 0-.064 4.543 9.352 9.352 0 0 0 2.075 4.043 9.33 9.33 0 0 0-4.543-.065 9.34 9.34 0 0 0-4.042 2.076ZM242.596 387.954a9.347 9.347 0 0 0 .065-4.544 9.345 9.345 0 0 0-2.076-4.042 9.347 9.347 0 0 0 4.544.065 9.345 9.345 0 0 0 4.042-2.076 9.347 9.347 0 0 0-.065 4.544 9.345 9.345 0 0 0 2.076 4.042 9.347 9.347 0 0 0-4.544-.065 9.345 9.345 0 0 0-4.042 2.076ZM22.216 267.011a9.34 9.34 0 0 0 .065-4.544 9.338 9.338 0 0 0-2.076-4.042 9.332 9.332 0 0 0 4.544.064 9.328 9.328 0 0 0 4.042-2.075 9.336 9.336 0 0 0-.064 4.543 9.332 9.332 0 0 0 2.075 4.042 9.345 9.345 0 0 0-4.543-.064 9.34 9.34 0 0 0-4.043 2.076ZM600.137 556.613a9.347 9.347 0 0 0-4.544-.065 9.34 9.34 0 0 0-4.042 2.076 9.335 9.335 0 0 0 .064-4.544 9.332 9.332 0 0 0-2.075-4.042 9.343 9.343 0 0 0 4.543.065 9.334 9.334 0 0 0 4.042-2.076 9.343 9.343 0 0 0-.064 4.543 9.343 9.343 0 0 0 2.076 4.043ZM518.435 451.965a9.33 9.33 0 0 0-4.543-.064 9.332 9.332 0 0 0-4.042 2.075 9.33 9.33 0 0 0 .064-4.543 9.332 9.332 0 0 0-2.075-4.042 9.33 9.33 0 0 0 4.543.064 9.332 9.332 0 0 0 4.042-2.075 9.33 9.33 0 0 0-.064 4.543 9.332 9.332 0 0 0 2.075 4.042ZM156.305 355.712a9.335 9.335 0 0 0-4.544-.064 9.337 9.337 0 0 0-4.042 2.075 9.33 9.33 0 0 0 .064-4.543 9.327 9.327 0 0 0-2.075-4.042 9.331 9.331 0 0 0 4.543.064 9.332 9.332 0 0 0 4.042-2.075 9.343 9.343 0 0 0-.064 4.543 9.334 9.334 0 0 0 2.076 4.042ZM323.759 741.656a9.347 9.347 0 0 0-4.544-.065 9.34 9.34 0 0 0-4.042 2.076 9.335 9.335 0 0 0 .064-4.544 9.332 9.332 0 0 0-2.075-4.042 9.343 9.343 0 0 0 4.543.065 9.343 9.343 0 0 0 4.043-2.076 9.33 9.33 0 0 0-.065 4.543 9.343 9.343 0 0 0 2.076 4.043ZM263.759 639.689a9.335 9.335 0 0 0-4.544-.064 9.327 9.327 0 0 0-4.042 2.075 9.335 9.335 0 0 0 .064-4.544 9.332 9.332 0 0 0-2.075-4.042 9.343 9.343 0 0 0 4.543.065 9.343 9.343 0 0 0 4.043-2.076 9.335 9.335 0 0 0-.065 4.544 9.345 9.345 0 0 0 2.076 4.042ZM440.14 559.485a9.343 9.343 0 0 0-4.543-.065 9.34 9.34 0 0 0-4.042 2.076 9.335 9.335 0 0 0 .064-4.544 9.343 9.343 0 0 0-2.075-4.042 9.343 9.343 0 0 0 4.543.065 9.334 9.334 0 0 0 4.042-2.076 9.347 9.347 0 0 0-.064 4.544 9.343 9.343 0 0 0 2.075 4.042ZM488.04 940.344a9.335 9.335 0 0 0-4.544-.064 9.343 9.343 0 0 0-4.042 2.075 9.343 9.343 0 0 0 .065-4.543 9.334 9.334 0 0 0-2.076-4.042 9.335 9.335 0 0 0 4.544.064 9.343 9.343 0 0 0 4.042-2.075 9.343 9.343 0 0 0-.065 4.543 9.34 9.34 0 0 0 2.076 4.042ZM699.226 477.887a9.33 9.33 0 0 0-4.543-.064 9.337 9.337 0 0 0-4.042 2.075 9.33 9.33 0 0 0 .064-4.543 9.332 9.332 0 0 0-2.075-4.042 9.343 9.343 0 0 0 4.543.064 9.332 9.332 0 0 0 4.042-2.075 9.33 9.33 0 0 0-.064 4.543 9.337 9.337 0 0 0 2.075 4.042ZM411.408 963.722a9.33 9.33 0 0 0-3.168-3.258 9.328 9.328 0 0 0-4.325-1.391 9.335 9.335 0 0 0 3.258-3.167 9.343 9.343 0 0 0 1.391-4.326 9.326 9.326 0 0 0 3.167 3.258 9.339 9.339 0 0 0 4.325 1.391 9.352 9.352 0 0 0-3.258 3.167 9.338 9.338 0 0 0-1.39 4.326ZM427.631 831.953a9.335 9.335 0 0 0-3.167-3.258 9.34 9.34 0 0 0-4.326-1.391 9.346 9.346 0 0 0 3.259-3.167 9.338 9.338 0 0 0 1.39-4.326 9.346 9.346 0 0 0 3.167 3.259 9.345 9.345 0 0 0 4.326 1.39 9.335 9.335 0 0 0-3.258 3.167 9.346 9.346 0 0 0-1.391 4.326ZM239.627 507.827a9.335 9.335 0 0 0-3.167-3.258 9.34 9.34 0 0 0-4.326-1.391 9.346 9.346 0 0 0 3.259-3.167 9.338 9.338 0 0 0 1.39-4.325 9.352 9.352 0 0 0 3.167 3.258 9.345 9.345 0 0 0 4.326 1.39 9.335 9.335 0 0 0-3.258 3.167 9.346 9.346 0 0 0-1.391 4.326ZM85.133 899.14a9.334 9.334 0 0 0-3.167-3.258 9.33 9.33 0 0 0-4.326-1.391 9.34 9.34 0 0 0 3.258-3.167 9.34 9.34 0 0 0 1.391-4.326 9.333 9.333 0 0 0 3.167 3.258 9.341 9.341 0 0 0 4.326 1.391 9.338 9.338 0 0 0-3.258 3.167 9.335 9.335 0 0 0-1.39 4.326ZM73.643 268.845a9.334 9.334 0 0 0-3.167-3.258 9.33 9.33 0 0 0-4.326-1.391 9.338 9.338 0 0 0 3.258-3.167 9.336 9.336 0 0 0 1.39-4.326 9.334 9.334 0 0 0 3.168 3.258 9.341 9.341 0 0 0 4.326 1.391 9.339 9.339 0 0 0-3.258 3.167 9.334 9.334 0 0 0-1.391 4.326ZM114.805 784.61a9.346 9.346 0 0 0-3.167-3.259 9.338 9.338 0 0 0-4.326-1.39 9.338 9.338 0 0 0 3.258-3.168 9.328 9.328 0 0 0 1.391-4.325 9.335 9.335 0 0 0 3.167 3.258 9.34 9.34 0 0 0 4.326 1.391 9.326 9.326 0 0 0-3.258 3.167 9.34 9.34 0 0 0-1.391 4.326ZM296.241 852.62a9.33 9.33 0 0 0-3.168-3.258 9.339 9.339 0 0 0-4.325-1.391 9.335 9.335 0 0 0 3.258-3.167 9.34 9.34 0 0 0 1.391-4.326 9.337 9.337 0 0 0 3.167 3.259 9.338 9.338 0 0 0 4.325 1.39 9.352 9.352 0 0 0-3.258 3.167 9.345 9.345 0 0 0-1.39 4.326ZM537.14 978.122a9.335 9.335 0 0 0-3.167-3.258 9.34 9.34 0 0 0-4.326-1.391 9.335 9.335 0 0 0 3.258-3.167 9.328 9.328 0 0 0 1.391-4.326 9.335 9.335 0 0 0 3.167 3.258 9.328 9.328 0 0 0 4.326 1.391 9.335 9.335 0 0 0-3.258 3.167 9.335 9.335 0 0 0-1.391 4.326ZM1513.5 93.335a9.27 9.27 0 0 0-4.21-1.69 9.35 9.35 0 0 0-4.52.489 9.414 9.414 0 0 0 1.69-4.219c.22-1.578.03-3.12-.49-4.517a9.356 9.356 0 0 0 4.22 1.69c1.58.217 3.12.027 4.52-.488a9.191 9.191 0 0 0-1.69 4.218 9.371 9.371 0 0 0 .48 4.517ZM1655.4 42.659a9.317 9.317 0 0 0-4.21-1.69 9.349 9.349 0 0 0-4.52.488 9.414 9.414 0 0 0 1.69-4.218c.21-1.58.03-3.12-.49-4.518a9.356 9.356 0 0 0 4.22 1.69 9.35 9.35 0 0 0 4.52-.488 9.19 9.19 0 0 0-1.69 4.218 9.371 9.371 0 0 0 .48 4.518ZM1401.23 25.906a9.317 9.317 0 0 0-4.21-1.69 9.35 9.35 0 0 0-4.52.488 9.414 9.414 0 0 0 1.69-4.218c.21-1.579.03-3.12-.49-4.518a9.356 9.356 0 0 0 4.22 1.69c1.58.217 3.12.028 4.52-.488a9.191 9.191 0 0 0-1.69 4.218 9.371 9.371 0 0 0 .48 4.518ZM1756.19 174.55a9.352 9.352 0 0 0-4.22-1.689 9.36 9.36 0 0 0-4.52.487 9.41 9.41 0 0 0 1.69-4.218 9.25 9.25 0 0 0-.49-4.517 9.352 9.352 0 0 0 4.22 1.689c1.58.217 3.12.028 4.52-.488a9.307 9.307 0 0 0-1.69 4.219 9.25 9.25 0 0 0 .49 4.517ZM1519.54 187.212a9.349 9.349 0 0 0-4.18 1.788 9.307 9.307 0 0 0-2.85 3.54 9.426 9.426 0 0 0-1.79-4.178 9.258 9.258 0 0 0-3.54-2.849 9.349 9.349 0 0 0 4.18-1.788 9.307 9.307 0 0 0 2.85-3.54 9.209 9.209 0 0 0 1.79 4.178 9.258 9.258 0 0 0 3.54 2.849ZM1492.37 96.268a9.398 9.398 0 0 0-7.03 5.327 9.297 9.297 0 0 0-1.78-4.177 9.416 9.416 0 0 0-3.54-2.85 9.317 9.317 0 0 0 4.17-1.787 9.305 9.305 0 0 0 2.85-3.54 9.428 9.428 0 0 0 1.79 4.177 9.34 9.34 0 0 0 3.54 2.85ZM1526.4 491.896a9.399 9.399 0 0 0-7.03 5.327 9.205 9.205 0 0 0-1.79-4.177 9.315 9.315 0 0 0-3.53-2.85 9.313 9.313 0 0 0 4.17-1.788 9.297 9.297 0 0 0 2.85-3.539 9.427 9.427 0 0 0 1.79 4.177 9.345 9.345 0 0 0 3.54 2.85ZM1391.08 332.923a9.349 9.349 0 0 0-4.18 1.788 9.312 9.312 0 0 0-2.85 3.539 9.205 9.205 0 0 0-1.79-4.177 9.258 9.258 0 0 0-3.54-2.849 9.349 9.349 0 0 0 4.18-1.788 9.307 9.307 0 0 0 2.85-3.54 9.43 9.43 0 0 0 1.79 4.178 9.333 9.333 0 0 0 3.54 2.849ZM1388.11 184.27a9.399 9.399 0 0 0-7.03 5.327 9.296 9.296 0 0 0-1.78-4.177 9.421 9.421 0 0 0-3.54-2.85 9.313 9.313 0 0 0 4.17-1.788 9.297 9.297 0 0 0 2.85-3.539 9.427 9.427 0 0 0 1.79 4.177 9.345 9.345 0 0 0 3.54 2.85ZM1565.41 152.987a9.349 9.349 0 0 0-4.18 1.788 9.304 9.304 0 0 0-2.85 3.539 9.205 9.205 0 0 0-1.79-4.177 9.27 9.27 0 0 0-3.54-2.85 9.349 9.349 0 0 0 4.18-1.788 9.304 9.304 0 0 0 2.85-3.539 9.205 9.205 0 0 0 1.79 4.177 9.27 9.27 0 0 0 3.54 2.85ZM1590.9 355.723a9.399 9.399 0 0 0-7.03 5.327 9.296 9.296 0 0 0-1.78-4.177 9.409 9.409 0 0 0-3.54-2.849 9.335 9.335 0 0 0 4.17-1.788 9.307 9.307 0 0 0 2.85-3.54 9.427 9.427 0 0 0 1.79 4.177 9.345 9.345 0 0 0 3.54 2.85ZM1399.33 523.602a9.399 9.399 0 0 0-7.03 5.327 9.205 9.205 0 0 0-1.79-4.177 9.27 9.27 0 0 0-3.54-2.85 9.302 9.302 0 0 0 4.18-1.788 9.297 9.297 0 0 0 2.85-3.539 9.427 9.427 0 0 0 1.79 4.177 9.345 9.345 0 0 0 3.54 2.85ZM1776.35 127.207a9.349 9.349 0 0 0-4.18 1.788 9.307 9.307 0 0 0-2.85 3.54 9.209 9.209 0 0 0-1.79-4.178 9.267 9.267 0 0 0-3.54-2.849 9.349 9.349 0 0 0 4.18-1.788 9.312 9.312 0 0 0 2.85-3.539 9.427 9.427 0 0 0 1.79 4.177 9.258 9.258 0 0 0 3.54 2.849ZM1755.43 377.721a9.399 9.399 0 0 0-7.03 5.327 9.205 9.205 0 0 0-1.79-4.177 9.303 9.303 0 0 0-3.53-2.849 9.335 9.335 0 0 0 4.17-1.788 9.307 9.307 0 0 0 2.85-3.54 9.427 9.427 0 0 0 1.79 4.177 9.345 9.345 0 0 0 3.54 2.85ZM1781.97 219.154a9.3 9.3 0 0 0 1.78 4.178 9.409 9.409 0 0 0 3.54 2.849c-1.47.235-2.9.825-4.17 1.788a9.312 9.312 0 0 0-2.85 3.539 9.427 9.427 0 0 0-1.79-4.177 9.333 9.333 0 0 0-3.54-2.849 9.402 9.402 0 0 0 7.03-5.328ZM1911.21 758.575a9.209 9.209 0 0 0 1.79 4.178 9.258 9.258 0 0 0 3.54 2.849 9.349 9.349 0 0 0-4.18 1.788 9.312 9.312 0 0 0-2.85 3.539 9.427 9.427 0 0 0-1.79-4.177 9.258 9.258 0 0 0-3.54-2.849 9.349 9.349 0 0 0 4.18-1.788 9.307 9.307 0 0 0 2.85-3.54ZM1820.27 785.741a9.3 9.3 0 0 0 1.78 4.178 9.409 9.409 0 0 0 3.54 2.849c-1.47.235-2.9.825-4.17 1.788a9.312 9.312 0 0 0-2.85 3.539 9.427 9.427 0 0 0-1.79-4.177 9.333 9.333 0 0 0-3.54-2.849 9.402 9.402 0 0 0 7.03-5.328ZM1908.27 890.002a9.296 9.296 0 0 0 1.78 4.177 9.421 9.421 0 0 0 3.54 2.85c-1.47.235-2.9.825-4.17 1.788a9.304 9.304 0 0 0-2.85 3.539 9.427 9.427 0 0 0-1.79-4.177 9.345 9.345 0 0 0-3.54-2.85 9.391 9.391 0 0 0 7.03-5.327ZM1876.98 712.706a9.435 9.435 0 0 0 1.79 4.178 9.342 9.342 0 0 0 3.54 2.849 9.399 9.399 0 0 0-7.03 5.327 9.296 9.296 0 0 0-1.78-4.177 9.409 9.409 0 0 0-3.54-2.849 9.335 9.335 0 0 0 4.17-1.788 9.307 9.307 0 0 0 2.85-3.54ZM1851.2 501.767a9.427 9.427 0 0 0 1.79 4.177 9.421 9.421 0 0 0 3.54 2.85 9.391 9.391 0 0 0-7.03 5.327 9.296 9.296 0 0 0-1.78-4.177 9.421 9.421 0 0 0-3.54-2.85 9.313 9.313 0 0 0 4.17-1.788 9.304 9.304 0 0 0 2.85-3.539ZM1887.08 81.193a9.301 9.301 0 0 0-1.69 4.219 9.253 9.253 0 0 0 .49 4.517 9.356 9.356 0 0 0-4.22-1.69 9.35 9.35 0 0 0-4.52.488 9.414 9.414 0 0 0 1.69-4.218c.22-1.579.03-3.12-.49-4.517a9.356 9.356 0 0 0 4.22 1.69c1.58.216 3.12.027 4.52-.489ZM1597.04 554.012a9.41 9.41 0 0 0-1.69 4.218 9.25 9.25 0 0 0 .49 4.517 9.352 9.352 0 0 0-4.22-1.689 9.347 9.347 0 0 0-4.52.488 9.307 9.307 0 0 0 1.69-4.218c.22-1.579.03-3.12-.49-4.518a9.352 9.352 0 0 0 4.22 1.689c1.58.218 3.12.028 4.52-.487ZM1513.52 508.914a9.286 9.286 0 0 0-1.68 4.218 9.373 9.373 0 0 0 .48 4.518 9.308 9.308 0 0 0-4.22-1.69 9.32 9.32 0 0 0-4.51.488 9.41 9.41 0 0 0 1.69-4.218c.21-1.579.02-3.12-.49-4.518a9.353 9.353 0 0 0 4.22 1.69c1.58.217 3.12.028 4.51-.488ZM1817.33 764.601a9.42 9.42 0 0 0-1.69 4.219 9.492 9.492 0 0 0 .49 4.517 9.307 9.307 0 0 0-4.22-1.689 9.305 9.305 0 0 0-4.51.487 9.41 9.41 0 0 0 1.69-4.218 9.495 9.495 0 0 0-.49-4.517 9.307 9.307 0 0 0 4.22 1.689c1.57.217 3.12.028 4.51-.488ZM1609.24 747.88a9.41 9.41 0 0 0-1.69 4.218 9.255 9.255 0 0 0 .49 4.518 9.353 9.353 0 0 0-4.22-1.69 9.347 9.347 0 0 0-4.52.488 9.303 9.303 0 0 0 1.69-4.218c.22-1.579.03-3.12-.49-4.518a9.364 9.364 0 0 0 4.22 1.69c1.58.217 3.12.028 4.52-.488ZM1502.02 644.862a9.416 9.416 0 0 0-1.69 4.218 9.497 9.497 0 0 0 .49 4.518 9.364 9.364 0 0 0-4.22-1.69 9.305 9.305 0 0 0-4.51.488 9.286 9.286 0 0 0 1.68-4.218c.22-1.579.03-3.12-.48-4.517a9.318 9.318 0 0 0 4.22 1.689c1.57.217 3.12.028 4.51-.488ZM1605.27 497.374a9.41 9.41 0 0 0-1.69 4.218 9.255 9.255 0 0 0 .49 4.518 9.353 9.353 0 0 0-4.22-1.69 9.347 9.347 0 0 0-4.52.488 9.303 9.303 0 0 0 1.69-4.218c.22-1.579.03-3.12-.49-4.518a9.353 9.353 0 0 0 4.22 1.69c1.58.217 3.12.028 4.52-.488ZM1766.66 622.704a9.193 9.193 0 0 0-1.69 4.218 9.373 9.373 0 0 0 .48 4.518 9.315 9.315 0 0 0-4.21-1.69 9.347 9.347 0 0 0-4.52.488 9.374 9.374 0 0 0 1.2-8.736 9.353 9.353 0 0 0 4.22 1.69c1.58.217 3.12.028 4.52-.488ZM1749.9 876.875a9.286 9.286 0 0 0-1.68 4.218 9.373 9.373 0 0 0 .48 4.518 9.308 9.308 0 0 0-4.22-1.69 9.307 9.307 0 0 0-4.51.488 9.416 9.416 0 0 0 1.69-4.218c.21-1.579.02-3.12-.49-4.518a9.353 9.353 0 0 0 4.22 1.69c1.58.217 3.12.028 4.51-.488ZM1736.2 329.99a9.416 9.416 0 0 0-1.69 4.218 9.255 9.255 0 0 0 .49 4.518 9.364 9.364 0 0 0-4.22-1.69 9.36 9.36 0 0 0-4.52.488 9.188 9.188 0 0 0 1.69-4.218 9.25 9.25 0 0 0-.49-4.517 9.363 9.363 0 0 0 4.22 1.689c1.58.217 3.12.028 4.52-.488ZM1898.55 521.918a9.188 9.188 0 0 0-1.69 4.218 9.255 9.255 0 0 0 .49 4.518 9.353 9.353 0 0 0-4.22-1.69 9.347 9.347 0 0 0-4.52.488 9.416 9.416 0 0 0 1.69-4.218c.22-1.579.03-3.12-.49-4.518a9.353 9.353 0 0 0 4.22 1.69c1.58.217 3.12.028 4.52-.488ZM1518.1 930.04a9.363 9.363 0 0 0-4.22-1.689 9.347 9.347 0 0 0-4.52.488 9.42 9.42 0 0 0 1.69-4.218c.22-1.579.03-3.12-.49-4.518a9.352 9.352 0 0 0 4.22 1.689c1.58.218 3.12.028 4.52-.487a9.298 9.298 0 0 0-1.69 4.218 9.25 9.25 0 0 0 .49 4.517ZM1563.19 846.525a9.28 9.28 0 0 0-4.21-1.69 9.347 9.347 0 0 0-4.52.488 9.41 9.41 0 0 0 1.69-4.218c.22-1.579.03-3.12-.49-4.518a9.353 9.353 0 0 0 4.22 1.69c1.58.217 3.12.028 4.52-.488a9.193 9.193 0 0 0-1.69 4.218 9.373 9.373 0 0 0 .48 4.518ZM1324.23 942.239a9.353 9.353 0 0 0-4.22-1.69 9.347 9.347 0 0 0-4.52.488 9.193 9.193 0 0 0 1.69-4.218c.22-1.579.03-3.12-.49-4.518a9.353 9.353 0 0 0 4.22 1.69c1.58.217 3.12.028 4.52-.488a9.41 9.41 0 0 0-1.69 4.218 9.255 9.255 0 0 0 .49 4.518ZM1427.24 835.025a9.326 9.326 0 0 0-4.21-1.69 9.347 9.347 0 0 0-4.52.488 9.41 9.41 0 0 0 1.69-4.218c.21-1.579.02-3.12-.49-4.518a9.353 9.353 0 0 0 4.22 1.69c1.58.217 3.12.028 4.51-.488a9.29 9.29 0 0 0-1.68 4.218 9.373 9.373 0 0 0 .48 4.518ZM1574.73 938.274a9.28 9.28 0 0 0-4.21-1.69 9.347 9.347 0 0 0-4.52.488 9.41 9.41 0 0 0 1.69-4.218 9.25 9.25 0 0 0-.49-4.517 9.363 9.363 0 0 0 4.22 1.689c1.58.217 3.12.028 4.52-.488a9.193 9.193 0 0 0-1.69 4.218 9.373 9.373 0 0 0 .48 4.518ZM1579.11 788.982a9.296 9.296 0 0 0 1.78 4.177 9.409 9.409 0 0 0 3.54 2.849c-1.47.236-2.9.826-4.17 1.788a9.307 9.307 0 0 0-2.85 3.54 9.422 9.422 0 0 0-1.79-4.177 9.335 9.335 0 0 0-3.54-2.85 9.349 9.349 0 0 0 4.18-1.788 9.407 9.407 0 0 0 2.85-3.539ZM1516.71 906.166a9.296 9.296 0 0 0 1.78 4.177 9.421 9.421 0 0 0 3.54 2.85c-1.47.235-2.9.825-4.17 1.788a9.304 9.304 0 0 0-2.85 3.539 9.427 9.427 0 0 0-1.79-4.177 9.333 9.333 0 0 0-3.54-2.849 9.402 9.402 0 0 0 7.03-5.328ZM1860.52 966.276a9.295 9.295 0 0 0 1.78 4.178 9.409 9.409 0 0 0 3.54 2.849c-1.47.235-2.9.825-4.17 1.788a9.307 9.307 0 0 0-2.85 3.54 9.43 9.43 0 0 0-1.79-4.178 9.342 9.342 0 0 0-3.54-2.849 9.402 9.402 0 0 0 7.03-5.328ZM1646.77 933.995a9.3 9.3 0 0 0 1.78 4.178 9.418 9.418 0 0 0 3.54 2.849c-1.47.235-2.9.825-4.17 1.788a9.304 9.304 0 0 0-2.85 3.539 9.427 9.427 0 0 0-1.79-4.177 9.333 9.333 0 0 0-3.54-2.849 9.402 9.402 0 0 0 7.03-5.328ZM1466.9 730.449a9.209 9.209 0 0 0 1.79 4.178 9.258 9.258 0 0 0 3.54 2.849 9.349 9.349 0 0 0-4.18 1.788 9.312 9.312 0 0 0-2.85 3.539 9.427 9.427 0 0 0-1.79-4.177 9.333 9.333 0 0 0-3.54-2.849 9.349 9.349 0 0 0 4.18-1.788 9.307 9.307 0 0 0 2.85-3.54ZM1900.79 834.669a9.41 9.41 0 0 0-1.69 4.218 9.497 9.497 0 0 0 .49 4.518 9.308 9.308 0 0 0-4.22-1.69 9.307 9.307 0 0 0-4.51.488 9.416 9.416 0 0 0 1.69-4.218c.21-1.579.02-3.12-.49-4.518a9.364 9.364 0 0 0 4.22 1.69c1.58.217 3.12.028 4.51-.488Z" fill="#fff" fill-opacity=".1"/></g><defs><clipPath id="a"><path fill="#fff" d="M0 0h1920v972H0z"/></clipPath></defs></svg>