<svg width="360" height="780" fill="none" xmlns="http://www.w3.org/2000/svg"><g clip-path="url(#a)"><path fill="#21042F" d="M0 0h360v780H0z"/><path d="M115.828 326.85a7.075 7.075 0 0 1 3.309.949 7.066 7.066 0 0 1 2.476 2.391 7.076 7.076 0 0 1 .95-3.309 7.064 7.064 0 0 1 2.39-2.476 7.083 7.083 0 0 1-3.308-.949 7.087 7.087 0 0 1-2.477-2.391 7.06 7.06 0 0 1-.949 3.308 7.078 7.078 0 0 1-2.391 2.477ZM334.797 352.18a7.075 7.075 0 0 1 3.309.949 7.075 7.075 0 0 1 2.476 2.391 7.087 7.087 0 0 1 .949-3.309 7.066 7.066 0 0 1 2.391-2.476 7.087 7.087 0 0 1-3.309-.949 7.083 7.083 0 0 1-2.476-2.391 7.068 7.068 0 0 1-.949 3.308 7.078 7.078 0 0 1-2.391 2.477ZM53.369 120.684a7.068 7.068 0 0 1 1.668 3.011 7.07 7.07 0 0 1 .06 3.441 7.066 7.066 0 0 1 3.012-1.668 7.074 7.074 0 0 1 3.441-.061 7.069 7.069 0 0 1-1.668-3.011 7.07 7.07 0 0 1-.06-3.441 7.066 7.066 0 0 1-3.012 1.668 7.074 7.074 0 0 1-3.441.061ZM247.212 328.061a7.065 7.065 0 0 1 1.669 3.01 7.063 7.063 0 0 1 .06 3.442 7.073 7.073 0 0 1 3.011-1.668 7.075 7.075 0 0 1 3.442-.061 7.073 7.073 0 0 1-1.669-3.011 7.083 7.083 0 0 1-.06-3.441 7.078 7.078 0 0 1-3.011 1.668 7.075 7.075 0 0 1-3.442.061ZM280.248 660.421a7.078 7.078 0 0 1 1.668 3.011 7.075 7.075 0 0 1 .061 3.442 7.065 7.065 0 0 1 3.01-1.669 7.063 7.063 0 0 1 3.442-.06 7.073 7.073 0 0 1-1.668-3.011 7.075 7.075 0 0 1-.061-3.442 7.073 7.073 0 0 1-3.011 1.669 7.083 7.083 0 0 1-3.441.06ZM19.138 357.912a7.074 7.074 0 0 1 1.669 3.011 7.075 7.075 0 0 1 .06 3.442 7.079 7.079 0 0 1 3.011-1.669 7.073 7.073 0 0 1 3.442-.06 7.073 7.073 0 0 1-1.669-3.011 7.075 7.075 0 0 1-.06-3.442 7.079 7.079 0 0 1-3.011 1.669 7.074 7.074 0 0 1-3.442.06ZM9.583 211.437a7.07 7.07 0 0 1 1.67 3.01 7.075 7.075 0 0 1 .06 3.442 7.067 7.067 0 0 1 3.01-1.668 7.074 7.074 0 0 1 3.442-.061 7.068 7.068 0 0 1-1.668-3.011 7.07 7.07 0 0 1-.06-3.441 7.077 7.077 0 0 1-3.012 1.668 7.074 7.074 0 0 1-3.442.061ZM338.05 553.212a7.069 7.069 0 0 1-3.011 1.669 7.062 7.062 0 0 1-3.442.06 7.085 7.085 0 0 1 1.669 3.011 7.075 7.075 0 0 1 .06 3.442 7.08 7.08 0 0 1 3.011-1.669 7.087 7.087 0 0 1 3.442-.06 7.08 7.08 0 0 1-1.669-3.011 7.074 7.074 0 0 1-.06-3.442ZM311.784 235.58a7.061 7.061 0 0 1-3.011 1.668 7.07 7.07 0 0 1-3.441.061A7.072 7.072 0 0 1 307 240.32a7.07 7.07 0 0 1 .061 3.441 7.063 7.063 0 0 1 3.01-1.668 7.075 7.075 0 0 1 3.442-.061 7.061 7.061 0 0 1-1.668-3.011 7.07 7.07 0 0 1-.061-3.441ZM165.304 690.137a7.085 7.085 0 0 1-3.011 1.669 7.075 7.075 0 0 1-3.442.06 7.08 7.08 0 0 1 1.669 3.011 7.075 7.075 0 0 1 .06 3.442 7.08 7.08 0 0 1 3.011-1.669 7.074 7.074 0 0 1 3.442-.06 7.08 7.08 0 0 1-1.669-3.011 7.075 7.075 0 0 1-.06-3.442ZM5.69 586.249a7.068 7.068 0 0 1-3.01 1.669 7.074 7.074 0 0 1-3.442.061 7.07 7.07 0 0 1 1.668 3.01 7.075 7.075 0 0 1 .06 3.442 7.066 7.066 0 0 1 3.012-1.668 7.074 7.074 0 0 1 3.441-.061 7.069 7.069 0 0 1-1.668-3.011 7.074 7.074 0 0 1-.06-3.442ZM308.198 325.138a7.073 7.073 0 0 1-3.011 1.669 7.07 7.07 0 0 1-3.441.06 7.078 7.078 0 0 1 1.668 3.011 7.075 7.075 0 0 1 .061 3.442 7.076 7.076 0 0 1 3.01-1.669 7.075 7.075 0 0 1 3.442-.06 7.067 7.067 0 0 1-1.668-3.011 7.075 7.075 0 0 1-.061-3.442ZM350.394 44.124a7.08 7.08 0 0 1-3.011 1.67 7.076 7.076 0 0 1-3.442.06 7.08 7.08 0 0 1 1.669 3.01 7.085 7.085 0 0 1 .06 3.442 7.068 7.068 0 0 1 3.011-1.668 7.075 7.075 0 0 1 3.442-.06 7.068 7.068 0 0 1-1.669-3.012 7.062 7.062 0 0 1-.06-3.442ZM290.855 55.934a7.062 7.062 0 0 1-.949 3.309 7.077 7.077 0 0 1-2.391 2.476 7.075 7.075 0 0 1 3.309.949 7.064 7.064 0 0 1 2.476 2.39 7.075 7.075 0 0 1 .95-3.308 7.068 7.068 0 0 1 2.391-2.476 7.072 7.072 0 0 1-3.309-.95 7.076 7.076 0 0 1-2.477-2.39ZM348.836 138.118a7.087 7.087 0 0 1-.949 3.309 7.066 7.066 0 0 1-2.391 2.476 7.076 7.076 0 0 1 3.309.95 7.08 7.08 0 0 1 2.476 2.39 7.071 7.071 0 0 1 .949-3.308 7.078 7.078 0 0 1 2.391-2.477 7.063 7.063 0 0 1-3.309-.949 7.075 7.075 0 0 1-2.476-2.391ZM339.262 421.824a7.076 7.076 0 0 1-.95 3.309 7.058 7.058 0 0 1-2.391 2.476 7.073 7.073 0 0 1 3.309.95 7.07 7.07 0 0 1 2.477 2.391 7.06 7.06 0 0 1 .949-3.309 7.07 7.07 0 0 1 2.391-2.477 7.063 7.063 0 0 1-3.309-.949 7.058 7.058 0 0 1-2.476-2.391ZM96.086 215.8a7.075 7.075 0 0 1-.95 3.309 7.08 7.08 0 0 1-2.39 2.476 7.085 7.085 0 0 1 3.309.949 7.077 7.077 0 0 1 2.476 2.391 7.075 7.075 0 0 1 .949-3.309 7.083 7.083 0 0 1 2.391-2.476 7.084 7.084 0 0 1-3.309-.949 7.076 7.076 0 0 1-2.476-2.391ZM313.933 640.796a7.063 7.063 0 0 1-.949 3.309 7.066 7.066 0 0 1-2.391 2.476 7.083 7.083 0 0 1 3.309.949 7.078 7.078 0 0 1 2.477 2.391 7.063 7.063 0 0 1 .949-3.309 7.075 7.075 0 0 1 2.391-2.476 7.072 7.072 0 0 1-3.309-.949 7.078 7.078 0 0 1-2.477-2.391ZM127.613 680.198a7.075 7.075 0 0 1-.949 3.309 7.078 7.078 0 0 1-2.391 2.477 7.063 7.063 0 0 1 3.309.949 7.066 7.066 0 0 1 2.476 2.391 7.083 7.083 0 0 1 .949-3.309 7.078 7.078 0 0 1 2.391-2.477 7.056 7.056 0 0 1-3.308-.949 7.07 7.07 0 0 1-2.477-2.391ZM156.879 281.66a7.087 7.087 0 0 1-.949 3.309 7.066 7.066 0 0 1-2.391 2.476 7.07 7.07 0 0 1 3.308.95 7.075 7.075 0 0 1 2.477 2.39 7.071 7.071 0 0 1 .949-3.308 7.078 7.078 0 0 1 2.391-2.477 7.063 7.063 0 0 1-3.309-.949 7.066 7.066 0 0 1-2.476-2.391ZM253.703 171.33a7.075 7.075 0 0 1-.949 3.309 7.066 7.066 0 0 1-2.391 2.476 7.087 7.087 0 0 1 3.309.949 7.083 7.083 0 0 1 2.476 2.391 7.08 7.08 0 0 1 .949-3.308 7.078 7.078 0 0 1 2.391-2.477 7.075 7.075 0 0 1-3.309-.949 7.083 7.083 0 0 1-2.476-2.391Z" fill="#fff" fill-opacity=".1"/></g><defs><clipPath id="a"><path fill="#fff" d="M0 0h360v780H0z"/></clipPath></defs></svg>