<svg width="768" height="972" fill="none" xmlns="http://www.w3.org/2000/svg"><g clip-path="url(#a)"><path fill="#21042F" d="M0 0h768v972H0z"/><path d="M36.121 317.28a7.062 7.062 0 0 1 3.309.949 7.068 7.068 0 0 1 2.476 2.391 7.072 7.072 0 0 1 .95-3.309 7.076 7.076 0 0 1 2.39-2.477 7.062 7.062 0 0 1-3.308-.949 7.068 7.068 0 0 1-2.477-2.391 7.075 7.075 0 0 1-.949 3.309 7.076 7.076 0 0 1-2.391 2.477ZM319.828 326.85a7.075 7.075 0 0 1 3.309.949 7.066 7.066 0 0 1 2.476 2.391 7.076 7.076 0 0 1 .95-3.309 7.064 7.064 0 0 1 2.39-2.476 7.083 7.083 0 0 1-3.308-.949 7.087 7.087 0 0 1-2.477-2.391 7.06 7.06 0 0 1-.949 3.308 7.078 7.078 0 0 1-2.391 2.477ZM737.504 373.008a7.075 7.075 0 0 1 3.309.949 7.075 7.075 0 0 1 2.476 2.391 7.087 7.087 0 0 1 .949-3.309 7.083 7.083 0 0 1 2.391-2.476 7.087 7.087 0 0 1-3.309-.949 7.083 7.083 0 0 1-2.476-2.391 7.075 7.075 0 0 1-.949 3.309 7.083 7.083 0 0 1-2.391 2.476ZM749.324 302.081a7.087 7.087 0 0 1 3.309.949 7.066 7.066 0 0 1 2.476 2.391 7.076 7.076 0 0 1 .95-3.309 7.075 7.075 0 0 1 2.391-2.476 7.072 7.072 0 0 1-3.309-.949 7.078 7.078 0 0 1-2.477-2.391 7.063 7.063 0 0 1-.949 3.309 7.066 7.066 0 0 1-2.391 2.476ZM113.805 570.026a7.063 7.063 0 0 1 3.309.949 7.075 7.075 0 0 1 2.476 2.391 7.072 7.072 0 0 1 .949-3.309 7.078 7.078 0 0 1 2.391-2.477 7.063 7.063 0 0 1-3.309-.949 7.066 7.066 0 0 1-2.476-2.391 7.083 7.083 0 0 1-.949 3.309 7.078 7.078 0 0 1-2.391 2.477ZM761.148 602.673a7.072 7.072 0 0 1 3.309.949 7.078 7.078 0 0 1 2.477 2.391 7.063 7.063 0 0 1 .949-3.309 7.083 7.083 0 0 1 2.391-2.476 7.087 7.087 0 0 1-3.309-.949 7.066 7.066 0 0 1-2.476-2.391 7.076 7.076 0 0 1-.95 3.309 7.075 7.075 0 0 1-2.391 2.476ZM699.789 351.616a7.076 7.076 0 0 1 3.309.95 7.058 7.058 0 0 1 2.476 2.391 7.083 7.083 0 0 1 .949-3.309 7.078 7.078 0 0 1 2.391-2.477 7.056 7.056 0 0 1-3.308-.949 7.078 7.078 0 0 1-2.477-2.391 7.075 7.075 0 0 1-.949 3.309 7.066 7.066 0 0 1-2.391 2.476ZM699.789 506.416a7.087 7.087 0 0 1 3.309.949 7.066 7.066 0 0 1 2.476 2.391 7.087 7.087 0 0 1 .949-3.309 7.083 7.083 0 0 1 2.391-2.476 7.068 7.068 0 0 1-3.308-.949 7.078 7.078 0 0 1-2.477-2.391 7.075 7.075 0 0 1-.949 3.309 7.075 7.075 0 0 1-2.391 2.476ZM538.797 352.18a7.075 7.075 0 0 1 3.309.949 7.075 7.075 0 0 1 2.476 2.391 7.087 7.087 0 0 1 .949-3.309 7.066 7.066 0 0 1 2.391-2.476 7.087 7.087 0 0 1-3.309-.949 7.083 7.083 0 0 1-2.476-2.391 7.068 7.068 0 0 1-.949 3.308 7.078 7.078 0 0 1-2.391 2.477ZM578.203 538.502a7.087 7.087 0 0 1 3.309.949 7.066 7.066 0 0 1 2.476 2.391 7.076 7.076 0 0 1 .95-3.309 7.08 7.08 0 0 1 2.39-2.476 7.071 7.071 0 0 1-3.308-.949 7.078 7.078 0 0 1-2.477-2.391 7.063 7.063 0 0 1-.949 3.309 7.075 7.075 0 0 1-2.391 2.476ZM179.664 509.232a7.063 7.063 0 0 1 3.309.949 7.058 7.058 0 0 1 2.476 2.391 7.083 7.083 0 0 1 .949-3.309 7.066 7.066 0 0 1 2.391-2.476 7.07 7.07 0 0 1-3.308-.95 7.07 7.07 0 0 1-2.477-2.391 7.072 7.072 0 0 1-.949 3.309 7.078 7.078 0 0 1-2.391 2.477ZM69.336 412.411a7.085 7.085 0 0 1 3.309.949 7.076 7.076 0 0 1 2.476 2.391 7.068 7.068 0 0 1 .95-3.308 7.075 7.075 0 0 1 2.39-2.477 7.073 7.073 0 0 1-3.308-.949 7.075 7.075 0 0 1-2.477-2.391 7.076 7.076 0 0 1-.95 3.309 7.064 7.064 0 0 1-2.39 2.476ZM158.255 103.568a7.075 7.075 0 0 1 1.669 3.011 7.063 7.063 0 0 1 .06 3.442 7.085 7.085 0 0 1 3.011-1.669 7.087 7.087 0 0 1 3.442-.06 7.08 7.08 0 0 1-1.669-3.011 7.087 7.087 0 0 1-.06-3.442 7.08 7.08 0 0 1-3.011 1.669 7.074 7.074 0 0 1-3.442.06ZM257.369 120.684a7.061 7.061 0 0 1 1.668 3.011 7.07 7.07 0 0 1 .061 3.441 7.061 7.061 0 0 1 3.011-1.668 7.07 7.07 0 0 1 3.441-.061 7.061 7.061 0 0 1-1.668-3.011 7.07 7.07 0 0 1-.061-3.441 7.063 7.063 0 0 1-3.01 1.668 7.075 7.075 0 0 1-3.442.061ZM451.212 328.061a7.065 7.065 0 0 1 1.669 3.01 7.063 7.063 0 0 1 .06 3.442 7.073 7.073 0 0 1 3.011-1.668 7.075 7.075 0 0 1 3.442-.061 7.073 7.073 0 0 1-1.669-3.011 7.083 7.083 0 0 1-.06-3.441 7.078 7.078 0 0 1-3.011 1.668 7.075 7.075 0 0 1-3.442.061ZM713.916 656.042a7.078 7.078 0 0 1 1.668 3.011 7.075 7.075 0 0 1 .061 3.442 7.076 7.076 0 0 1 3.01-1.669 7.075 7.075 0 0 1 3.442-.06 7.073 7.073 0 0 1-1.668-3.011 7.075 7.075 0 0 1-.061-3.442 7.073 7.073 0 0 1-3.011 1.669 7.083 7.083 0 0 1-3.441.06ZM133.58 354.331a7.067 7.067 0 0 1 1.668 3.011 7.075 7.075 0 0 1 .061 3.442 7.073 7.073 0 0 1 3.011-1.669 7.07 7.07 0 0 1 3.441-.06 7.073 7.073 0 0 1-1.668-3.011 7.075 7.075 0 0 1-.061-3.442 7.073 7.073 0 0 1-3.011 1.669 7.07 7.07 0 0 1-3.441.06ZM568.236 835.157a7.067 7.067 0 0 1 1.668 3.011 7.075 7.075 0 0 1 .061 3.442 7.073 7.073 0 0 1 3.011-1.669 7.07 7.07 0 0 1 3.441-.06 7.078 7.078 0 0 1-1.668-3.011 7.062 7.062 0 0 1-.06-3.442 7.085 7.085 0 0 1-3.011 1.669 7.075 7.075 0 0 1-3.442.06ZM723.072 802.917a7.067 7.067 0 0 1 1.668 3.011 7.075 7.075 0 0 1 .061 3.442 7.073 7.073 0 0 1 3.011-1.669 7.07 7.07 0 0 1 3.441-.06 7.084 7.084 0 0 1-1.668-3.011 7.075 7.075 0 0 1-.061-3.442 7.076 7.076 0 0 1-3.01 1.669 7.087 7.087 0 0 1-3.442.06ZM702.373 614.249a7.078 7.078 0 0 1 1.668 3.011 7.075 7.075 0 0 1 .061 3.442 7.076 7.076 0 0 1 3.01-1.669 7.075 7.075 0 0 1 3.442-.06 7.073 7.073 0 0 1-1.668-3.011 7.075 7.075 0 0 1-.061-3.442 7.073 7.073 0 0 1-3.011 1.669 7.07 7.07 0 0 1-3.441.06ZM592.912 723.708a7.067 7.067 0 0 1 1.668 3.011 7.075 7.075 0 0 1 .061 3.442 7.073 7.073 0 0 1 3.011-1.669 7.07 7.07 0 0 1 3.441-.06 7.073 7.073 0 0 1-1.668-3.011 7.075 7.075 0 0 1-.061-3.442 7.073 7.073 0 0 1-3.011 1.669 7.07 7.07 0 0 1-3.441.06ZM629.533 913.173a7.061 7.061 0 0 1 1.668 3.011 7.075 7.075 0 0 1 .061 3.442 7.063 7.063 0 0 1 3.011-1.669 7.07 7.07 0 0 1 3.441-.061 7.063 7.063 0 0 1-1.668-3.01 7.075 7.075 0 0 1-.061-3.442 7.063 7.063 0 0 1-3.01 1.668 7.075 7.075 0 0 1-3.442.061ZM588.138 500.81a7.076 7.076 0 0 1 1.669 3.01 7.075 7.075 0 0 1 .06 3.442 7.067 7.067 0 0 1 3.011-1.668 7.075 7.075 0 0 1 3.442-.061 7.073 7.073 0 0 1-1.669-3.011 7.07 7.07 0 0 1-.06-3.441 7.067 7.067 0 0 1-3.011 1.668 7.075 7.075 0 0 1-3.442.061ZM484.248 660.421a7.078 7.078 0 0 1 1.668 3.011 7.075 7.075 0 0 1 .061 3.442 7.065 7.065 0 0 1 3.01-1.669 7.063 7.063 0 0 1 3.442-.06 7.073 7.073 0 0 1-1.668-3.011 7.075 7.075 0 0 1-.061-3.442 7.073 7.073 0 0 1-3.011 1.669 7.083 7.083 0 0 1-3.441.06ZM223.138 357.912a7.08 7.08 0 0 1 1.669 3.011 7.075 7.075 0 0 1 .06 3.442 7.08 7.08 0 0 1 3.011-1.669 7.075 7.075 0 0 1 3.442-.06 7.08 7.08 0 0 1-1.669-3.011 7.075 7.075 0 0 1-.06-3.442 7.08 7.08 0 0 1-3.011 1.669 7.075 7.075 0 0 1-3.442.06ZM213.583 211.437a7.065 7.065 0 0 1 1.669 3.01 7.075 7.075 0 0 1 .061 3.442 7.063 7.063 0 0 1 3.01-1.668 7.075 7.075 0 0 1 3.442-.061 7.061 7.061 0 0 1-1.668-3.011 7.07 7.07 0 0 1-.061-3.441 7.072 7.072 0 0 1-3.011 1.668 7.075 7.075 0 0 1-3.442.061ZM175.373 9.233a7.077 7.077 0 0 1 1.668 3.011 7.074 7.074 0 0 1 .061 3.442 7.069 7.069 0 0 1 3.01-1.668 7.076 7.076 0 0 1 3.442-.061 7.066 7.066 0 0 1-1.668-3.01 7.074 7.074 0 0 1-.061-3.443 7.069 7.069 0 0 1-3.011 1.669 7.07 7.07 0 0 1-3.441.06ZM766.546 260.258a7.08 7.08 0 0 1-3.011 1.669 7.074 7.074 0 0 1-3.442.06 7.085 7.085 0 0 1 1.669 3.011 7.075 7.075 0 0 1 .06 3.442 7.08 7.08 0 0 1 3.011-1.669 7.075 7.075 0 0 1 3.442-.06 7.08 7.08 0 0 1-1.669-3.011 7.074 7.074 0 0 1-.06-3.442ZM749.429 359.369a7.073 7.073 0 0 1-3.011 1.668 7.075 7.075 0 0 1-3.442.061 7.073 7.073 0 0 1 1.669 3.011 7.07 7.07 0 0 1 .06 3.441 7.067 7.067 0 0 1 3.011-1.668 7.075 7.075 0 0 1 3.442-.061 7.076 7.076 0 0 1-1.669-3.01 7.075 7.075 0 0 1-.06-3.442ZM542.05 553.212a7.069 7.069 0 0 1-3.011 1.669 7.062 7.062 0 0 1-3.442.06 7.085 7.085 0 0 1 1.669 3.011 7.075 7.075 0 0 1 .06 3.442 7.08 7.08 0 0 1 3.011-1.669 7.087 7.087 0 0 1 3.442-.06 7.08 7.08 0 0 1-1.669-3.011 7.074 7.074 0 0 1-.06-3.442ZM214.073 815.915a7.072 7.072 0 0 1-3.011 1.668 7.07 7.07 0 0 1-3.441.061 7.074 7.074 0 0 1 1.668 3.01 7.075 7.075 0 0 1 .061 3.442 7.063 7.063 0 0 1 3.01-1.668 7.075 7.075 0 0 1 3.442-.061 7.061 7.061 0 0 1-1.668-3.011 7.07 7.07 0 0 1-.061-3.441ZM255.866 874.427a7.073 7.073 0 0 1-3.011 1.669 7.07 7.07 0 0 1-3.441.06 7.084 7.084 0 0 1 1.668 3.011 7.075 7.075 0 0 1 .061 3.442 7.076 7.076 0 0 1 3.01-1.669 7.075 7.075 0 0 1 3.442-.06 7.067 7.067 0 0 1-1.668-3.011 7.075 7.075 0 0 1-.061-3.442ZM515.784 235.58a7.061 7.061 0 0 1-3.011 1.668 7.07 7.07 0 0 1-3.441.061A7.072 7.072 0 0 1 511 240.32a7.07 7.07 0 0 1 .061 3.441 7.063 7.063 0 0 1 3.01-1.668 7.075 7.075 0 0 1 3.442-.061 7.061 7.061 0 0 1-1.668-3.011 7.07 7.07 0 0 1-.061-3.441ZM34.956 670.236a7.067 7.067 0 0 1-3.01 1.668 7.074 7.074 0 0 1-3.443.061 7.069 7.069 0 0 1 1.669 3.011 7.07 7.07 0 0 1 .06 3.441 7.077 7.077 0 0 1 3.011-1.668 7.062 7.062 0 0 1 3.442-.06 7.08 7.08 0 0 1-1.669-3.011 7.074 7.074 0 0 1-.06-3.442ZM67.198 825.071a7.067 7.067 0 0 1-3.01 1.668 7.074 7.074 0 0 1-3.442.061 7.069 7.069 0 0 1 1.668 3.011 7.07 7.07 0 0 1 .06 3.441 7.077 7.077 0 0 1 3.011-1.668 7.074 7.074 0 0 1 3.442-.061 7.07 7.07 0 0 1-1.668-3.01 7.074 7.074 0 0 1-.06-3.442ZM154.765 895.92a7.075 7.075 0 0 1-3.011 1.669 7.063 7.063 0 0 1-3.442.06 7.085 7.085 0 0 1 1.669 3.011 7.087 7.087 0 0 1 .06 3.442 7.08 7.08 0 0 1 3.011-1.669 7.087 7.087 0 0 1 3.442-.06 7.073 7.073 0 0 1-1.669-3.011 7.074 7.074 0 0 1-.06-3.442ZM255.866 804.374a7.072 7.072 0 0 1-3.011 1.668 7.07 7.07 0 0 1-3.441.061 7.074 7.074 0 0 1 1.668 3.01 7.075 7.075 0 0 1 .061 3.442 7.063 7.063 0 0 1 3.01-1.668 7.075 7.075 0 0 1 3.442-.061 7.061 7.061 0 0 1-1.668-3.011 7.07 7.07 0 0 1-.061-3.441ZM146.405 694.913a7.061 7.061 0 0 1-3.011 1.668 7.07 7.07 0 0 1-3.441.061 7.061 7.061 0 0 1 1.668 3.011 7.07 7.07 0 0 1 .061 3.441 7.063 7.063 0 0 1 3.01-1.668 7.075 7.075 0 0 1 3.442-.061 7.061 7.061 0 0 1-1.668-3.011 7.07 7.07 0 0 1-.061-3.441ZM369.304 690.137a7.085 7.085 0 0 1-3.011 1.669 7.075 7.075 0 0 1-3.442.06 7.08 7.08 0 0 1 1.669 3.011 7.075 7.075 0 0 1 .06 3.442 7.08 7.08 0 0 1 3.011-1.669 7.074 7.074 0 0 1 3.442-.06 7.08 7.08 0 0 1-1.669-3.011 7.075 7.075 0 0 1-.06-3.442ZM209.69 586.249a7.065 7.065 0 0 1-3.01 1.669 7.075 7.075 0 0 1-3.442.061 7.063 7.063 0 0 1 1.668 3.01 7.075 7.075 0 0 1 .061 3.442 7.061 7.061 0 0 1 3.011-1.668 7.07 7.07 0 0 1 3.441-.061 7.061 7.061 0 0 1-1.668-3.011 7.075 7.075 0 0 1-.061-3.442ZM512.198 325.138a7.073 7.073 0 0 1-3.011 1.669 7.07 7.07 0 0 1-3.441.06 7.078 7.078 0 0 1 1.668 3.011 7.075 7.075 0 0 1 .061 3.442 7.076 7.076 0 0 1 3.01-1.669 7.075 7.075 0 0 1 3.442-.06 7.067 7.067 0 0 1-1.668-3.011 7.075 7.075 0 0 1-.061-3.442ZM658.679 315.585a7.075 7.075 0 0 1-3.011 1.669 7.062 7.062 0 0 1-3.442.06 7.085 7.085 0 0 1 1.669 3.011 7.075 7.075 0 0 1 .06 3.442 7.067 7.067 0 0 1 3.011-1.668 7.075 7.075 0 0 1 3.442-.061 7.073 7.073 0 0 1-1.669-3.011 7.074 7.074 0 0 1-.06-3.442ZM554.394 44.124a7.08 7.08 0 0 1-3.011 1.67 7.076 7.076 0 0 1-3.442.06 7.08 7.08 0 0 1 1.669 3.01 7.085 7.085 0 0 1 .06 3.442 7.068 7.068 0 0 1 3.011-1.668 7.075 7.075 0 0 1 3.442-.06 7.068 7.068 0 0 1-1.669-3.012 7.062 7.062 0 0 1-.06-3.442ZM494.855 55.934a7.062 7.062 0 0 1-.949 3.309 7.077 7.077 0 0 1-2.391 2.476 7.075 7.075 0 0 1 3.309.949 7.064 7.064 0 0 1 2.476 2.39 7.075 7.075 0 0 1 .95-3.308 7.068 7.068 0 0 1 2.391-2.476 7.072 7.072 0 0 1-3.309-.95 7.076 7.076 0 0 1-2.477-2.39ZM552.836 138.118a7.087 7.087 0 0 1-.949 3.309 7.066 7.066 0 0 1-2.391 2.476 7.076 7.076 0 0 1 3.309.95 7.08 7.08 0 0 1 2.476 2.39 7.071 7.071 0 0 1 .949-3.308 7.078 7.078 0 0 1 2.391-2.477 7.063 7.063 0 0 1-3.309-.949 7.075 7.075 0 0 1-2.476-2.391ZM543.262 421.824a7.076 7.076 0 0 1-.95 3.309 7.058 7.058 0 0 1-2.391 2.476 7.073 7.073 0 0 1 3.309.95 7.07 7.07 0 0 1 2.477 2.391 7.06 7.06 0 0 1 .949-3.309 7.07 7.07 0 0 1 2.391-2.477 7.063 7.063 0 0 1-3.309-.949 7.058 7.058 0 0 1-2.476-2.391ZM497.105 839.501a7.063 7.063 0 0 1-.949 3.309 7.075 7.075 0 0 1-2.391 2.476 7.087 7.087 0 0 1 3.309.949 7.066 7.066 0 0 1 2.476 2.391 7.07 7.07 0 0 1 .95-3.308 7.07 7.07 0 0 1 2.391-2.477 7.072 7.072 0 0 1-3.309-.949 7.078 7.078 0 0 1-2.477-2.391ZM568.031 851.322a7.075 7.075 0 0 1-.949 3.309 7.078 7.078 0 0 1-2.391 2.477 7.063 7.063 0 0 1 3.309.949 7.066 7.066 0 0 1 2.476 2.391 7.083 7.083 0 0 1 .949-3.309 7.078 7.078 0 0 1 2.391-2.477 7.063 7.063 0 0 1-3.309-.949 7.075 7.075 0 0 1-2.476-2.391ZM300.086 215.8a7.087 7.087 0 0 1-.949 3.309 7.083 7.083 0 0 1-2.391 2.476 7.087 7.087 0 0 1 3.309.949 7.083 7.083 0 0 1 2.476 2.391 7.075 7.075 0 0 1 .949-3.309 7.083 7.083 0 0 1 2.391-2.476 7.087 7.087 0 0 1-3.309-.949 7.075 7.075 0 0 1-2.476-2.391ZM267.441 863.143a7.072 7.072 0 0 1-.949 3.309 7.078 7.078 0 0 1-2.391 2.477 7.075 7.075 0 0 1 3.309.949 7.066 7.066 0 0 1 2.476 2.391 7.087 7.087 0 0 1 .949-3.309 7.075 7.075 0 0 1 2.391-2.476 7.083 7.083 0 0 1-3.308-.949 7.08 7.08 0 0 1-2.477-2.392ZM399.722 949.83a7.063 7.063 0 0 1-.949 3.309 7.058 7.058 0 0 1-2.391 2.476 7.083 7.083 0 0 1 3.309.949 7.078 7.078 0 0 1 2.477 2.391 7.056 7.056 0 0 1 .949-3.308 7.07 7.07 0 0 1 2.391-2.477 7.075 7.075 0 0 1-3.309-.949 7.078 7.078 0 0 1-2.477-2.391ZM511.742 938.011a7.075 7.075 0 0 1-.949 3.309 7.083 7.083 0 0 1-2.391 2.476 7.075 7.075 0 0 1 3.309.949 7.083 7.083 0 0 1 2.476 2.391 7.087 7.087 0 0 1 .949-3.309 7.083 7.083 0 0 1 2.391-2.476 7.087 7.087 0 0 1-3.309-.949 7.083 7.083 0 0 1-2.476-2.391ZM518.496 801.787a7.087 7.087 0 0 1-.949 3.309 7.066 7.066 0 0 1-2.391 2.476 7.076 7.076 0 0 1 3.309.95 7.072 7.072 0 0 1 2.476 2.39 7.071 7.071 0 0 1 .949-3.308 7.078 7.078 0 0 1 2.391-2.477 7.063 7.063 0 0 1-3.309-.949 7.083 7.083 0 0 1-2.476-2.391ZM363.695 801.787a7.075 7.075 0 0 1-.949 3.309 7.066 7.066 0 0 1-2.391 2.476 7.076 7.076 0 0 1 3.309.95 7.055 7.055 0 0 1 2.476 2.39 7.083 7.083 0 0 1 .949-3.308 7.078 7.078 0 0 1 2.391-2.477 7.056 7.056 0 0 1-3.308-.949 7.078 7.078 0 0 1-2.477-2.391ZM255.617 961.651a7.072 7.072 0 0 1-.949 3.309 7.078 7.078 0 0 1-2.391 2.477 7.063 7.063 0 0 1 3.309.949 7.075 7.075 0 0 1 2.476 2.391 7.087 7.087 0 0 1 .949-3.309 7.078 7.078 0 0 1 2.391-2.477 7.063 7.063 0 0 1-3.309-.949 7.075 7.075 0 0 1-2.476-2.391ZM517.933 640.796a7.063 7.063 0 0 1-.949 3.309 7.066 7.066 0 0 1-2.391 2.476 7.083 7.083 0 0 1 3.309.949 7.078 7.078 0 0 1 2.477 2.391 7.063 7.063 0 0 1 .949-3.309 7.075 7.075 0 0 1 2.391-2.476 7.072 7.072 0 0 1-3.309-.949 7.078 7.078 0 0 1-2.477-2.391ZM331.613 680.198a7.075 7.075 0 0 1-.949 3.309 7.078 7.078 0 0 1-2.391 2.477 7.063 7.063 0 0 1 3.309.949 7.066 7.066 0 0 1 2.476 2.391 7.083 7.083 0 0 1 .949-3.309 7.078 7.078 0 0 1 2.391-2.477 7.056 7.056 0 0 1-3.308-.949 7.07 7.07 0 0 1-2.477-2.391ZM360.879 281.66a7.087 7.087 0 0 1-.949 3.309 7.066 7.066 0 0 1-2.391 2.476 7.07 7.07 0 0 1 3.308.95 7.075 7.075 0 0 1 2.477 2.39 7.071 7.071 0 0 1 .949-3.308 7.078 7.078 0 0 1 2.391-2.477 7.063 7.063 0 0 1-3.309-.949 7.066 7.066 0 0 1-2.476-2.391ZM457.703 171.33a7.075 7.075 0 0 1-.949 3.309 7.066 7.066 0 0 1-2.391 2.476 7.087 7.087 0 0 1 3.309.949 7.083 7.083 0 0 1 2.476 2.391 7.08 7.08 0 0 1 .949-3.308 7.078 7.078 0 0 1 2.391-2.477 7.075 7.075 0 0 1-3.309-.949 7.083 7.083 0 0 1-2.476-2.391ZM192.012 53.12a7.075 7.075 0 0 1-.95 3.308 7.067 7.067 0 0 1-2.391 2.476 7.072 7.072 0 0 1 3.309.95 7.075 7.075 0 0 1 2.477 2.39 7.061 7.061 0 0 1 .949-3.308 7.067 7.067 0 0 1 2.391-2.477 7.076 7.076 0 0 1-3.309-.949 7.064 7.064 0 0 1-2.476-2.39ZM573.66 1.332a7.074 7.074 0 0 1-.949 3.309 7.076 7.076 0 0 1-2.391 2.476 7.075 7.075 0 0 1 3.309.95 7.08 7.08 0 0 1 2.476 2.39 7.085 7.085 0 0 1 .949-3.308 7.076 7.076 0 0 1 2.391-2.477 7.076 7.076 0 0 1-3.309-.949 7.081 7.081 0 0 1-2.476-2.391ZM-12.28 261.446a9.34 9.34 0 0 0 3.259-3.167 9.343 9.343 0 0 0 1.39-4.326 9.334 9.334 0 0 0 3.168 3.258 9.34 9.34 0 0 0 4.325 1.391 9.33 9.33 0 0 0-3.258 3.167 9.335 9.335 0 0 0-1.39 4.326 9.345 9.345 0 0 0-3.168-3.259 9.34 9.34 0 0 0-4.325-1.39ZM43.803 399.147a9.34 9.34 0 0 0 3.258-3.167 9.344 9.344 0 0 0 1.39-4.326 9.333 9.333 0 0 0 3.168 3.258 9.34 9.34 0 0 0 4.325 1.391 9.339 9.339 0 0 0-3.258 3.167 9.336 9.336 0 0 0-1.39 4.326 9.334 9.334 0 0 0-3.167-3.258 9.33 9.33 0 0 0-4.326-1.391ZM24.135 556.614a9.345 9.345 0 0 0-4.544-.065 9.34 9.34 0 0 0-4.042 2.076 9.34 9.34 0 0 0 .064-4.544 9.343 9.343 0 0 0-2.075-4.042 9.344 9.344 0 0 0 4.543.065 9.34 9.34 0 0 0 4.043-2.076 9.337 9.337 0 0 0-.065 4.543 9.34 9.34 0 0 0 2.076 4.043ZM123.224 477.888a9.33 9.33 0 0 0-4.543-.064 9.337 9.337 0 0 0-4.042 2.075 9.33 9.33 0 0 0 .064-4.543 9.332 9.332 0 0 0-2.075-4.042 9.343 9.343 0 0 0 4.543.064 9.332 9.332 0 0 0 4.042-2.075 9.33 9.33 0 0 0-.064 4.543 9.337 9.337 0 0 0 2.075 4.042ZM748.231 942.236a9.34 9.34 0 0 0-4.219-1.69 9.332 9.332 0 0 0-4.517.488 9.33 9.33 0 0 0 1.689-4.218 9.35 9.35 0 0 0-.487-4.518 9.332 9.332 0 0 0 4.218 1.69 9.334 9.334 0 0 0 4.517-.488 9.33 9.33 0 0 0-1.689 4.218 9.338 9.338 0 0 0 .488 4.518Z" fill="#fff" fill-opacity=".1"/></g><defs><clipPath id="a"><path fill="#fff" d="M0 0h768v972H0z"/></clipPath></defs></svg>