<svg width="1920" height="972" viewBox="0 0 1920 972" fill="none" xmlns="http://www.w3.org/2000/svg">
<g clip-path="url(#clip0_2003_2)">
<rect width="1920" height="972" fill="#1E042B"/>
<g filter="url(#filter0_f_2003_2)">
<circle cx="964" cy="488" r="231" fill="#DE4916" fill-opacity="0.38"/>
</g>
<g filter="url(#filter1_f_2003_2)">
<path d="M146.678 158.287L147.637 158.742C148.286 159.049 149.022 159.124 149.72 158.954C150.931 158.659 151.851 157.674 152.063 156.446L152.421 154.382C152.89 151.67 150.684 149.241 147.94 149.448C145.822 149.607 144.152 151.313 144.038 153.434L144.017 153.82C143.915 155.711 144.966 157.476 146.678 158.287Z" fill="#822540"/>
</g>
<g filter="url(#filter2_f_2003_2)">
<path d="M148.249 155.56L148.657 155.754C148.934 155.885 149.247 155.917 149.544 155.844C150.059 155.718 150.451 155.299 150.541 154.777L150.693 153.898C150.893 152.744 149.954 151.71 148.786 151.798C147.885 151.866 147.174 152.592 147.125 153.494L147.116 153.659C147.073 154.464 147.521 155.215 148.249 155.56Z" fill="url(#paint0_linear_2003_2)"/>
</g>
<g filter="url(#filter3_f_2003_2)">
<path d="M87.9555 878.702L88.7959 879.1C89.3649 879.37 90.0093 879.436 90.6211 879.286C91.6819 879.028 92.4883 878.165 92.6745 877.089L92.9876 875.28C93.3989 872.904 91.4657 870.775 89.0614 870.956C87.2058 871.096 85.7422 872.591 85.6421 874.449L85.6239 874.788C85.5347 876.445 86.4559 877.991 87.9555 878.702Z" fill="#822540"/>
</g>
<g filter="url(#filter4_f_2003_2)">
<path d="M89.3316 876.312L89.6893 876.482C89.9315 876.597 90.2058 876.625 90.4661 876.561C90.9177 876.451 91.2609 876.084 91.3402 875.626L91.4735 874.856C91.6485 873.844 90.8257 872.938 89.8023 873.015C89.0125 873.075 88.3895 873.711 88.3469 874.502L88.3391 874.646C88.3012 875.351 88.6933 876.01 89.3316 876.312Z" fill="url(#paint1_linear_2003_2)"/>
</g>
<g filter="url(#filter5_f_2003_2)">
<path d="M182.4 586.872L183.478 587.383C184.208 587.729 185.034 587.813 185.819 587.622C187.179 587.29 188.214 586.183 188.452 584.803L188.854 582.484C189.381 579.437 186.902 576.707 183.818 576.939C181.439 577.118 179.562 579.035 179.433 581.418L179.41 581.852C179.296 583.978 180.477 585.961 182.4 586.872Z" fill="#822540"/>
</g>
<g filter="url(#filter6_f_2003_2)">
<path d="M184.165 583.808L184.623 584.026C184.934 584.173 185.286 584.209 185.62 584.127C186.199 583.986 186.639 583.515 186.741 582.928L186.912 581.94C187.136 580.643 186.081 579.481 184.768 579.58C183.755 579.656 182.956 580.472 182.902 581.487L182.892 581.671C182.843 582.576 183.346 583.42 184.165 583.808Z" fill="url(#paint2_linear_2003_2)"/>
</g>
<g filter="url(#filter7_f_2003_2)">
<path d="M63.2331 401.116L63.9548 401.458C64.4434 401.69 64.9969 401.746 65.5222 401.618C66.4332 401.396 67.1257 400.655 67.2856 399.731L67.5545 398.178C67.9077 396.137 66.2476 394.309 64.1828 394.465C62.5894 394.585 61.3325 395.869 61.2465 397.464L61.2309 397.755C61.1542 399.178 61.9454 400.506 63.2331 401.116Z" fill="#822540"/>
</g>
<g filter="url(#filter8_f_2003_2)">
<path d="M64.4141 399.064L64.7213 399.21C64.9293 399.308 65.1648 399.332 65.3884 399.278C65.7762 399.183 66.0709 398.868 66.139 398.475L66.2535 397.813C66.4038 396.945 65.6972 396.167 64.8183 396.233C64.1401 396.284 63.6051 396.831 63.5685 397.51L63.5619 397.634C63.5292 398.239 63.866 398.805 64.4141 399.064Z" fill="url(#paint3_linear_2003_2)"/>
</g>
<g filter="url(#filter9_f_2003_2)">
<path d="M372.955 192.702L373.796 193.1C374.365 193.37 375.009 193.436 375.621 193.286C376.682 193.028 377.488 192.165 377.675 191.089L377.988 189.28C378.399 186.904 376.466 184.775 374.061 184.956C372.206 185.096 370.742 186.591 370.642 188.449L370.624 188.788C370.535 190.445 371.456 191.991 372.955 192.702Z" fill="#822540"/>
</g>
<g filter="url(#filter10_f_2003_2)">
<path d="M374.332 190.312L374.689 190.482C374.931 190.597 375.206 190.625 375.466 190.561C375.918 190.451 376.261 190.084 376.34 189.626L376.473 188.856C376.649 187.844 375.826 186.938 374.802 187.015C374.012 187.075 373.39 187.711 373.347 188.502L373.339 188.646C373.301 189.351 373.693 190.01 374.332 190.312Z" fill="url(#paint4_linear_2003_2)"/>
</g>
<g filter="url(#filter11_f_2003_2)">
<path d="M1847.95 139.044L1850.08 140.053C1851.52 140.735 1853.15 140.901 1854.7 140.524C1857.38 139.869 1859.42 137.684 1859.89 134.961L1860.69 130.383C1861.73 124.369 1856.83 118.981 1850.75 119.439C1846.05 119.793 1842.35 123.577 1842.09 128.28L1842.05 129.137C1841.82 133.331 1844.15 137.246 1847.95 139.044Z" fill="#822540"/>
</g>
<g filter="url(#filter12_f_2003_2)">
<path d="M1851.43 132.996L1852.34 133.425C1852.95 133.716 1853.64 133.786 1854.3 133.626C1855.45 133.347 1856.31 132.417 1856.52 131.258L1856.85 129.309C1857.3 126.75 1855.21 124.456 1852.62 124.651C1850.62 124.802 1849.05 126.412 1848.94 128.414L1848.92 128.779C1848.82 130.564 1849.82 132.23 1851.43 132.996Z" fill="url(#paint5_linear_2003_2)"/>
</g>
<g filter="url(#filter13_f_2003_2)">
<path d="M654.569 898.628L656.003 899.308C656.974 899.768 658.074 899.88 659.117 899.626C660.927 899.184 662.303 897.712 662.621 895.876L663.155 892.79C663.857 888.736 660.559 885.104 656.456 885.413C653.29 885.651 650.793 888.202 650.622 891.372L650.591 891.95C650.439 894.777 652.011 897.416 654.569 898.628Z" fill="#822540"/>
</g>
<g filter="url(#filter14_f_2003_2)">
<path d="M656.917 894.551L657.527 894.84C657.941 895.036 658.409 895.084 658.853 894.976C659.623 894.788 660.209 894.161 660.344 893.38L660.572 892.066C660.87 890.341 659.466 888.794 657.72 888.926C656.373 889.027 655.31 890.113 655.237 891.463L655.224 891.708C655.159 892.912 655.828 894.035 656.917 894.551Z" fill="url(#paint6_linear_2003_2)"/>
</g>
<g filter="url(#filter15_f_2003_2)">
<path d="M373.955 895.702L374.796 896.1C375.365 896.37 376.009 896.436 376.621 896.286C377.682 896.028 378.488 895.165 378.675 894.089L378.988 892.28C379.399 889.904 377.466 887.775 375.061 887.956C373.206 888.096 371.742 889.591 371.642 891.449L371.624 891.788C371.535 893.445 372.456 894.991 373.955 895.702Z" fill="#822540"/>
</g>
<g filter="url(#filter16_f_2003_2)">
<path d="M375.332 893.312L375.689 893.482C375.931 893.597 376.206 893.625 376.466 893.561C376.918 893.451 377.261 893.084 377.34 892.626L377.473 891.856C377.649 890.844 376.826 889.938 375.802 890.015C375.012 890.075 374.39 890.711 374.347 891.502L374.339 891.646C374.301 892.351 374.693 893.01 375.332 893.312Z" fill="url(#paint7_linear_2003_2)"/>
</g>
<g filter="url(#filter17_f_2003_2)">
<path d="M1694.16 925.111L1693.2 924.656C1692.55 924.348 1691.82 924.273 1691.12 924.444C1689.91 924.739 1688.99 925.724 1688.78 926.952L1688.42 929.016C1687.95 931.728 1690.16 934.157 1692.9 933.95C1695.02 933.791 1696.69 932.085 1696.8 929.964L1696.82 929.578C1696.92 927.687 1695.87 925.922 1694.16 925.111Z" fill="#822540"/>
</g>
<g filter="url(#filter18_f_2003_2)">
<path d="M1692.59 927.837L1692.18 927.644C1691.91 927.513 1691.59 927.481 1691.3 927.553C1690.78 927.679 1690.39 928.098 1690.3 928.621L1690.15 929.5C1689.95 930.654 1690.89 931.688 1692.05 931.6C1692.95 931.532 1693.67 930.806 1693.71 929.903L1693.72 929.739C1693.77 928.934 1693.32 928.182 1692.59 927.837Z" fill="url(#paint8_linear_2003_2)"/>
</g>
<g filter="url(#filter19_f_2003_2)">
<path d="M1752.88 204.695L1752.04 204.297C1751.47 204.028 1750.83 203.962 1750.22 204.111C1749.16 204.37 1748.35 205.233 1748.17 206.309L1747.85 208.117C1747.44 210.493 1749.37 212.622 1751.78 212.441C1753.63 212.301 1755.1 210.806 1755.2 208.948L1755.22 208.61C1755.31 206.953 1754.38 205.406 1752.88 204.695Z" fill="#822540"/>
</g>
<g filter="url(#filter20_f_2003_2)">
<path d="M1751.51 207.085L1751.15 206.916C1750.91 206.801 1750.63 206.773 1750.37 206.836C1749.92 206.947 1749.58 207.314 1749.5 207.772L1749.37 208.542C1749.19 209.553 1750.01 210.459 1751.04 210.382C1751.83 210.323 1752.45 209.686 1752.49 208.895L1752.5 208.751C1752.54 208.046 1752.15 207.388 1751.51 207.085Z" fill="url(#paint9_linear_2003_2)"/>
</g>
<g filter="url(#filter21_f_2003_2)">
<path d="M1658.44 496.525L1657.36 496.014C1656.63 495.668 1655.81 495.584 1655.02 495.776C1653.66 496.107 1652.63 497.214 1652.39 498.594L1651.99 500.914C1651.46 503.961 1653.94 506.691 1657.02 506.459C1659.4 506.28 1661.28 504.362 1661.41 501.979L1661.43 501.545C1661.54 499.42 1660.36 497.436 1658.44 496.525Z" fill="#822540"/>
</g>
<g filter="url(#filter22_f_2003_2)">
<path d="M1656.68 499.589L1656.22 499.372C1655.91 499.225 1655.55 499.189 1655.22 499.27C1654.64 499.411 1654.2 499.883 1654.1 500.47L1653.93 501.457C1653.7 502.754 1654.76 503.916 1656.07 503.817C1657.08 503.741 1657.88 502.925 1657.94 501.911L1657.95 501.726C1658 500.821 1657.49 499.977 1656.68 499.589Z" fill="url(#paint10_linear_2003_2)"/>
</g>
<g filter="url(#filter23_f_2003_2)">
<path d="M1777.61 682.28L1776.89 681.938C1776.4 681.707 1775.84 681.65 1775.32 681.778C1774.41 682 1773.71 682.742 1773.55 683.666L1773.29 685.219C1772.93 687.259 1774.59 689.087 1776.66 688.932C1778.25 688.812 1779.51 687.528 1779.59 685.932L1779.61 685.642C1779.69 684.219 1778.89 682.89 1777.61 682.28Z" fill="#822540"/>
</g>
<g filter="url(#filter24_f_2003_2)">
<path d="M1776.43 684.332L1776.12 684.187C1775.91 684.088 1775.68 684.064 1775.45 684.119C1775.06 684.213 1774.77 684.529 1774.7 684.922L1774.59 685.583C1774.44 686.451 1775.14 687.23 1776.02 687.163C1776.7 687.112 1777.23 686.566 1777.27 685.887L1777.28 685.763C1777.31 685.157 1776.97 684.592 1776.43 684.332Z" fill="url(#paint11_linear_2003_2)"/>
</g>
<g filter="url(#filter25_f_2003_2)">
<path d="M1467.88 890.695L1467.04 890.297C1466.47 890.028 1465.83 889.962 1465.22 890.111C1464.16 890.37 1463.35 891.233 1463.17 892.309L1462.85 894.117C1462.44 896.493 1464.37 898.622 1466.78 898.441C1468.63 898.301 1470.1 896.806 1470.2 894.948L1470.22 894.61C1470.31 892.953 1469.38 891.406 1467.88 890.695Z" fill="#822540"/>
</g>
<g filter="url(#filter26_f_2003_2)">
<path d="M1466.51 893.085L1466.15 892.916C1465.91 892.801 1465.63 892.773 1465.37 892.836C1464.92 892.947 1464.58 893.314 1464.5 893.772L1464.37 894.542C1464.19 895.553 1465.01 896.459 1466.04 896.382C1466.83 896.323 1467.45 895.686 1467.49 894.895L1467.5 894.751C1467.54 894.046 1467.15 893.388 1466.51 893.085Z" fill="url(#paint12_linear_2003_2)"/>
</g>
<g filter="url(#filter27_f_2003_2)">
<path d="M-7.10938 944.353L-9.23655 943.345C-10.6768 942.662 -12.308 942.496 -13.8564 942.874C-16.5414 943.529 -18.5827 945.713 -19.0541 948.436L-19.8466 953.015C-20.8875 959.028 -15.9944 964.417 -9.90855 963.958C-5.21191 963.605 -1.50735 959.82 -1.25401 955.117L-1.20787 954.261C-0.98194 950.066 -3.31374 946.152 -7.10938 944.353Z" fill="#822540"/>
</g>
<g filter="url(#filter28_f_2003_2)">
<path d="M1186.27 184.769L1184.84 184.09C1183.87 183.63 1182.77 183.518 1181.72 183.772C1179.91 184.214 1178.54 185.686 1178.22 187.522L1177.68 190.608C1176.98 194.662 1180.28 198.294 1184.38 197.985C1187.55 197.747 1190.05 195.196 1190.22 192.026L1190.25 191.448C1190.4 188.621 1188.83 185.982 1186.27 184.769Z" fill="#822540"/>
</g>
<g filter="url(#filter29_f_2003_2)">
<path d="M1183.92 188.847L1183.31 188.558C1182.9 188.362 1182.43 188.314 1181.99 188.422C1181.22 188.61 1180.63 189.237 1180.5 190.018L1180.27 191.332C1179.97 193.057 1181.37 194.603 1183.12 194.472C1184.47 194.371 1185.53 193.285 1185.6 191.935L1185.62 191.69C1185.68 190.486 1185.01 189.363 1183.92 188.847Z" fill="url(#paint13_linear_2003_2)"/>
</g>
<g filter="url(#filter30_f_2003_2)">
<path d="M1466.88 187.695L1466.04 187.297C1465.47 187.028 1464.83 186.962 1464.22 187.111C1463.16 187.37 1462.35 188.233 1462.17 189.309L1461.85 191.117C1461.44 193.493 1463.37 195.622 1465.78 195.441C1467.63 195.301 1469.1 193.806 1469.2 191.948L1469.22 191.61C1469.31 189.953 1468.38 188.406 1466.88 187.695Z" fill="#822540"/>
</g>
<g filter="url(#filter31_f_2003_2)">
<path d="M1465.51 190.085L1465.15 189.916C1464.91 189.801 1464.63 189.773 1464.37 189.836C1463.92 189.947 1463.58 190.314 1463.5 190.772L1463.37 191.542C1463.19 192.553 1464.01 193.459 1465.04 193.382C1465.83 193.323 1466.45 192.686 1466.49 191.895L1466.5 191.751C1466.54 191.046 1466.15 190.388 1465.51 190.085Z" fill="url(#paint14_linear_2003_2)"/>
</g>
<g filter="url(#filter32_f_2003_2)">
<path d="M495.838 288.287L496.797 288.742C497.446 289.049 498.182 289.124 498.88 288.954C500.091 288.659 501.011 287.674 501.224 286.446L501.581 284.382C502.05 281.67 499.844 279.241 497.1 279.448C494.982 279.607 493.312 281.313 493.198 283.434L493.177 283.82C493.075 285.711 494.127 287.476 495.838 288.287Z" fill="#822540"/>
</g>
<g filter="url(#filter33_f_2003_2)">
<path d="M497.409 285.56L497.817 285.754C498.094 285.885 498.407 285.917 498.704 285.844C499.219 285.718 499.611 285.299 499.702 284.777L499.854 283.898C500.053 282.744 499.114 281.71 497.946 281.798C497.045 281.866 496.334 282.592 496.285 283.494L496.277 283.659C496.233 284.464 496.681 285.215 497.409 285.56Z" fill="url(#paint15_linear_2003_2)"/>
</g>
<g filter="url(#filter34_f_2003_2)">
<path d="M531.56 716.872L532.638 717.383C533.368 717.729 534.194 717.813 534.979 717.622C536.339 717.29 537.374 716.183 537.613 714.803L538.014 712.484C538.542 709.437 536.062 706.707 532.979 706.939C530.599 707.118 528.722 709.035 528.594 711.418L528.57 711.852C528.456 713.978 529.637 715.961 531.56 716.872Z" fill="#822540"/>
</g>
<g filter="url(#filter35_f_2003_2)">
<path d="M533.325 713.808L533.783 714.026C534.094 714.173 534.446 714.209 534.78 714.127C535.359 713.986 535.799 713.515 535.901 712.928L536.072 711.94C536.296 710.643 535.241 709.481 533.928 709.58C532.915 709.656 532.117 710.472 532.062 711.487L532.052 711.671C532.003 712.576 532.506 713.42 533.325 713.808Z" fill="url(#paint16_linear_2003_2)"/>
</g>
<g filter="url(#filter36_f_2003_2)">
<path d="M412.393 531.116L413.115 531.458C413.604 531.69 414.157 531.746 414.682 531.618C415.593 531.396 416.286 530.655 416.446 529.731L416.715 528.178C417.068 526.137 415.408 524.309 413.343 524.465C411.75 524.585 410.493 525.869 410.407 527.464L410.391 527.755C410.314 529.178 411.106 530.506 412.393 531.116Z" fill="#822540"/>
</g>
<g filter="url(#filter37_f_2003_2)">
<path d="M413.574 529.064L413.881 529.21C414.089 529.308 414.325 529.332 414.549 529.278C414.936 529.183 415.231 528.868 415.299 528.475L415.414 527.813C415.564 526.945 414.857 526.167 413.978 526.233C413.3 526.284 412.765 526.831 412.729 527.51L412.722 527.634C412.689 528.239 413.026 528.805 413.574 529.064Z" fill="url(#paint17_linear_2003_2)"/>
</g>
<g filter="url(#filter38_f_2003_2)">
<path d="M722.116 322.702L722.956 323.1C723.525 323.37 724.169 323.436 724.781 323.286C725.842 323.028 726.648 322.165 726.835 321.089L727.148 319.28C727.559 316.904 725.626 314.775 723.222 314.956C721.366 315.096 719.902 316.591 719.802 318.449L719.784 318.788C719.695 320.445 720.616 321.991 722.116 322.702Z" fill="#822540"/>
</g>
<g filter="url(#filter39_f_2003_2)">
<path d="M723.492 320.312L723.849 320.482C724.092 320.597 724.366 320.625 724.626 320.561C725.078 320.451 725.421 320.084 725.5 319.626L725.634 318.856C725.809 317.844 724.986 316.938 723.962 317.015C723.173 317.075 722.55 317.711 722.507 318.502L722.499 318.646C722.461 319.351 722.853 320.01 723.492 320.312Z" fill="url(#paint18_linear_2003_2)"/>
</g>
<g filter="url(#filter40_f_2003_2)">
<path d="M1446.16 402.287L1445.2 402.741C1444.55 403.049 1443.82 403.124 1443.12 402.954C1441.91 402.658 1440.99 401.673 1440.78 400.446L1440.42 398.381C1439.95 395.67 1442.16 393.24 1444.9 393.447C1447.02 393.606 1448.69 395.313 1448.8 397.433L1448.82 397.82C1448.92 399.711 1447.87 401.476 1446.16 402.287Z" fill="#822540"/>
</g>
<g filter="url(#filter41_f_2003_2)">
<path d="M1444.59 399.56L1444.18 399.754C1443.91 399.885 1443.59 399.917 1443.3 399.844C1442.78 399.718 1442.39 399.299 1442.3 398.777L1442.15 397.898C1441.95 396.744 1442.89 395.71 1444.05 395.798C1444.95 395.866 1445.67 396.592 1445.71 397.494L1445.72 397.659C1445.77 398.464 1445.32 399.215 1444.59 399.56Z" fill="url(#paint19_linear_2003_2)"/>
</g>
<g filter="url(#filter42_f_2003_2)">
<path d="M1410.44 830.872L1409.36 831.383C1408.63 831.729 1407.81 831.813 1407.02 831.622C1405.66 831.29 1404.63 830.183 1404.39 828.803L1403.99 826.484C1403.46 823.437 1405.94 820.707 1409.02 820.939C1411.4 821.118 1413.28 823.035 1413.41 825.418L1413.43 825.852C1413.54 827.978 1412.36 829.961 1410.44 830.872Z" fill="#822540"/>
</g>
<g filter="url(#filter43_f_2003_2)">
<path d="M1408.68 827.808L1408.22 828.026C1407.91 828.173 1407.55 828.209 1407.22 828.127C1406.64 827.986 1406.2 827.515 1406.1 826.928L1405.93 825.94C1405.7 824.643 1406.76 823.481 1408.07 823.58C1409.08 823.656 1409.88 824.472 1409.94 825.487L1409.95 825.671C1410 826.576 1409.49 827.42 1408.68 827.808Z" fill="url(#paint20_linear_2003_2)"/>
</g>
<g filter="url(#filter44_f_2003_2)">
<path d="M1529.61 645.116L1528.89 645.458C1528.4 645.69 1527.84 645.746 1527.32 645.618C1526.41 645.396 1525.71 644.655 1525.55 643.731L1525.29 642.178C1524.93 640.137 1526.59 638.309 1528.66 638.465C1530.25 638.585 1531.51 639.869 1531.59 641.464L1531.61 641.755C1531.69 643.178 1530.89 644.506 1529.61 645.116Z" fill="#822540"/>
</g>
<g filter="url(#filter45_f_2003_2)">
<path d="M1528.43 643.064L1528.12 643.21C1527.91 643.308 1527.68 643.332 1527.45 643.278C1527.06 643.183 1526.77 642.868 1526.7 642.475L1526.59 641.813C1526.44 640.945 1527.14 640.167 1528.02 640.233C1528.7 640.284 1529.23 640.831 1529.27 641.51L1529.28 641.634C1529.31 642.239 1528.97 642.805 1528.43 643.064Z" fill="url(#paint21_linear_2003_2)"/>
</g>
<g filter="url(#filter46_f_2003_2)">
<path d="M1219.88 436.702L1219.04 437.1C1218.47 437.37 1217.83 437.436 1217.22 437.286C1216.16 437.028 1215.35 436.165 1215.17 435.089L1214.85 433.28C1214.44 430.904 1216.37 428.775 1218.78 428.956C1220.63 429.096 1222.1 430.591 1222.2 432.449L1222.22 432.788C1222.31 434.445 1221.38 435.991 1219.88 436.702Z" fill="#822540"/>
</g>
<g filter="url(#filter47_f_2003_2)">
<path d="M1218.51 434.312L1218.15 434.482C1217.91 434.597 1217.63 434.625 1217.37 434.561C1216.92 434.451 1216.58 434.084 1216.5 433.626L1216.37 432.856C1216.19 431.844 1217.01 430.938 1218.04 431.015C1218.83 431.075 1219.45 431.711 1219.49 432.502L1219.5 432.646C1219.54 433.351 1219.15 434.01 1218.51 434.312Z" fill="url(#paint22_linear_2003_2)"/>
</g>
</g>
<defs>
<filter id="filter0_f_2003_2" x="33" y="-443" width="1862" height="1862" filterUnits="userSpaceOnUse" color-interpolation-filters="sRGB">
<feFlood flood-opacity="0" result="BackgroundImageFix"/>
<feBlend mode="normal" in="SourceGraphic" in2="BackgroundImageFix" result="shape"/>
<feGaussianBlur stdDeviation="350" result="effect1_foregroundBlur_2003_2"/>
</filter>
<filter id="filter1_f_2003_2" x="134.992" y="140.417" width="26.5098" height="27.6436" filterUnits="userSpaceOnUse" color-interpolation-filters="sRGB">
<feFlood flood-opacity="0" result="BackgroundImageFix"/>
<feBlend mode="normal" in="SourceGraphic" in2="BackgroundImageFix" result="shape"/>
<feGaussianBlur stdDeviation="4.5088" result="effect1_foregroundBlur_2003_2"/>
</filter>
<filter id="filter2_f_2003_2" x="146.212" y="150.891" width="5.41094" height="5.89337" filterUnits="userSpaceOnUse" color-interpolation-filters="sRGB">
<feFlood flood-opacity="0" result="BackgroundImageFix"/>
<feBlend mode="normal" in="SourceGraphic" in2="BackgroundImageFix" result="shape"/>
<feGaussianBlur stdDeviation="0.45088" result="effect1_foregroundBlur_2003_2"/>
</filter>
<filter id="filter3_f_2003_2" x="77.7156" y="863.044" width="23.2289" height="24.222" filterUnits="userSpaceOnUse" color-interpolation-filters="sRGB">
<feFlood flood-opacity="0" result="BackgroundImageFix"/>
<feBlend mode="normal" in="SourceGraphic" in2="BackgroundImageFix" result="shape"/>
<feGaussianBlur stdDeviation="3.95077" result="effect1_foregroundBlur_2003_2"/>
</filter>
<filter id="filter4_f_2003_2" x="87.5458" y="872.221" width="4.74047" height="5.16429" filterUnits="userSpaceOnUse" color-interpolation-filters="sRGB">
<feFlood flood-opacity="0" result="BackgroundImageFix"/>
<feBlend mode="normal" in="SourceGraphic" in2="BackgroundImageFix" result="shape"/>
<feGaussianBlur stdDeviation="0.395077" result="effect1_foregroundBlur_2003_2"/>
</filter>
<filter id="filter5_f_2003_2" x="169.269" y="566.791" width="29.7908" height="31.0652" filterUnits="userSpaceOnUse" color-interpolation-filters="sRGB">
<feFlood flood-opacity="0" result="BackgroundImageFix"/>
<feBlend mode="normal" in="SourceGraphic" in2="BackgroundImageFix" result="shape"/>
<feGaussianBlur stdDeviation="5.06683" result="effect1_foregroundBlur_2003_2"/>
</filter>
<filter id="filter6_f_2003_2" x="181.875" y="578.561" width="6.07947" height="6.62244" filterUnits="userSpaceOnUse" color-interpolation-filters="sRGB">
<feFlood flood-opacity="0" result="BackgroundImageFix"/>
<feBlend mode="normal" in="SourceGraphic" in2="BackgroundImageFix" result="shape"/>
<feGaussianBlur stdDeviation="0.506683" result="effect1_foregroundBlur_2003_2"/>
</filter>
<filter id="filter7_f_2003_2" x="54.4411" y="387.67" width="19.946" height="20.8014" filterUnits="userSpaceOnUse" color-interpolation-filters="sRGB">
<feFlood flood-opacity="0" result="BackgroundImageFix"/>
<feBlend mode="normal" in="SourceGraphic" in2="BackgroundImageFix" result="shape"/>
<feGaussianBlur stdDeviation="3.39274" result="effect1_foregroundBlur_2003_2"/>
</filter>
<filter id="filter8_f_2003_2" x="62.882" y="395.551" width="4.06999" height="4.43425" filterUnits="userSpaceOnUse" color-interpolation-filters="sRGB">
<feFlood flood-opacity="0" result="BackgroundImageFix"/>
<feBlend mode="normal" in="SourceGraphic" in2="BackgroundImageFix" result="shape"/>
<feGaussianBlur stdDeviation="0.339274" result="effect1_foregroundBlur_2003_2"/>
</filter>
<filter id="filter9_f_2003_2" x="362.716" y="177.044" width="23.2289" height="24.222" filterUnits="userSpaceOnUse" color-interpolation-filters="sRGB">
<feFlood flood-opacity="0" result="BackgroundImageFix"/>
<feBlend mode="normal" in="SourceGraphic" in2="BackgroundImageFix" result="shape"/>
<feGaussianBlur stdDeviation="3.95077" result="effect1_foregroundBlur_2003_2"/>
</filter>
<filter id="filter10_f_2003_2" x="372.546" y="186.221" width="4.74047" height="5.16381" filterUnits="userSpaceOnUse" color-interpolation-filters="sRGB">
<feFlood flood-opacity="0" result="BackgroundImageFix"/>
<feBlend mode="normal" in="SourceGraphic" in2="BackgroundImageFix" result="shape"/>
<feGaussianBlur stdDeviation="0.395077" result="effect1_foregroundBlur_2003_2"/>
</filter>
<filter id="filter11_f_2003_2" x="1822.03" y="99.4116" width="58.793" height="61.3101" filterUnits="userSpaceOnUse" color-interpolation-filters="sRGB">
<feFlood flood-opacity="0" result="BackgroundImageFix"/>
<feBlend mode="normal" in="SourceGraphic" in2="BackgroundImageFix" result="shape"/>
<feGaussianBlur stdDeviation="10" result="effect1_foregroundBlur_2003_2"/>
</filter>
<filter id="filter12_f_2003_2" x="1846.91" y="122.64" width="12" height="13.0703" filterUnits="userSpaceOnUse" color-interpolation-filters="sRGB">
<feFlood flood-opacity="0" result="BackgroundImageFix"/>
<feBlend mode="normal" in="SourceGraphic" in2="BackgroundImageFix" result="shape"/>
<feGaussianBlur stdDeviation="1" result="effect1_foregroundBlur_2003_2"/>
</filter>
<filter id="filter13_f_2003_2" x="637.098" y="871.913" width="39.6336" height="41.328" filterUnits="userSpaceOnUse" color-interpolation-filters="sRGB">
<feFlood flood-opacity="0" result="BackgroundImageFix"/>
<feBlend mode="normal" in="SourceGraphic" in2="BackgroundImageFix" result="shape"/>
<feGaussianBlur stdDeviation="6.74093" result="effect1_foregroundBlur_2003_2"/>
</filter>
<filter id="filter14_f_2003_2" x="653.871" y="887.57" width="8.08895" height="8.81063" filterUnits="userSpaceOnUse" color-interpolation-filters="sRGB">
<feFlood flood-opacity="0" result="BackgroundImageFix"/>
<feBlend mode="normal" in="SourceGraphic" in2="BackgroundImageFix" result="shape"/>
<feGaussianBlur stdDeviation="0.674093" result="effect1_foregroundBlur_2003_2"/>
</filter>
<filter id="filter15_f_2003_2" x="363.716" y="880.044" width="23.2289" height="24.222" filterUnits="userSpaceOnUse" color-interpolation-filters="sRGB">
<feFlood flood-opacity="0" result="BackgroundImageFix"/>
<feBlend mode="normal" in="SourceGraphic" in2="BackgroundImageFix" result="shape"/>
<feGaussianBlur stdDeviation="3.95077" result="effect1_foregroundBlur_2003_2"/>
</filter>
<filter id="filter16_f_2003_2" x="373.546" y="889.221" width="4.74047" height="5.16429" filterUnits="userSpaceOnUse" color-interpolation-filters="sRGB">
<feFlood flood-opacity="0" result="BackgroundImageFix"/>
<feBlend mode="normal" in="SourceGraphic" in2="BackgroundImageFix" result="shape"/>
<feGaussianBlur stdDeviation="0.395077" result="effect1_foregroundBlur_2003_2"/>
</filter>
<filter id="filter17_f_2003_2" x="1679.34" y="915.337" width="26.5098" height="27.6436" filterUnits="userSpaceOnUse" color-interpolation-filters="sRGB">
<feFlood flood-opacity="0" result="BackgroundImageFix"/>
<feBlend mode="normal" in="SourceGraphic" in2="BackgroundImageFix" result="shape"/>
<feGaussianBlur stdDeviation="4.5088" result="effect1_foregroundBlur_2003_2"/>
</filter>
<filter id="filter18_f_2003_2" x="1689.22" y="926.614" width="5.41094" height="5.89337" filterUnits="userSpaceOnUse" color-interpolation-filters="sRGB">
<feFlood flood-opacity="0" result="BackgroundImageFix"/>
<feBlend mode="normal" in="SourceGraphic" in2="BackgroundImageFix" result="shape"/>
<feGaussianBlur stdDeviation="0.45088" result="effect1_foregroundBlur_2003_2"/>
</filter>
<filter id="filter19_f_2003_2" x="1739.9" y="196.131" width="23.2289" height="24.222" filterUnits="userSpaceOnUse" color-interpolation-filters="sRGB">
<feFlood flood-opacity="0" result="BackgroundImageFix"/>
<feBlend mode="normal" in="SourceGraphic" in2="BackgroundImageFix" result="shape"/>
<feGaussianBlur stdDeviation="3.95077" result="effect1_foregroundBlur_2003_2"/>
</filter>
<filter id="filter20_f_2003_2" x="1748.55" y="206.013" width="4.74047" height="5.16381" filterUnits="userSpaceOnUse" color-interpolation-filters="sRGB">
<feFlood flood-opacity="0" result="BackgroundImageFix"/>
<feBlend mode="normal" in="SourceGraphic" in2="BackgroundImageFix" result="shape"/>
<feGaussianBlur stdDeviation="0.395077" result="effect1_foregroundBlur_2003_2"/>
</filter>
<filter id="filter21_f_2003_2" x="1641.78" y="485.541" width="29.7908" height="31.0652" filterUnits="userSpaceOnUse" color-interpolation-filters="sRGB">
<feFlood flood-opacity="0" result="BackgroundImageFix"/>
<feBlend mode="normal" in="SourceGraphic" in2="BackgroundImageFix" result="shape"/>
<feGaussianBlur stdDeviation="5.06683" result="effect1_foregroundBlur_2003_2"/>
</filter>
<filter id="filter22_f_2003_2" x="1652.89" y="498.214" width="6.07947" height="6.62244" filterUnits="userSpaceOnUse" color-interpolation-filters="sRGB">
<feFlood flood-opacity="0" result="BackgroundImageFix"/>
<feBlend mode="normal" in="SourceGraphic" in2="BackgroundImageFix" result="shape"/>
<feGaussianBlur stdDeviation="0.506683" result="effect1_foregroundBlur_2003_2"/>
</filter>
<filter id="filter23_f_2003_2" x="1766.45" y="674.925" width="19.946" height="20.8014" filterUnits="userSpaceOnUse" color-interpolation-filters="sRGB">
<feFlood flood-opacity="0" result="BackgroundImageFix"/>
<feBlend mode="normal" in="SourceGraphic" in2="BackgroundImageFix" result="shape"/>
<feGaussianBlur stdDeviation="3.39274" result="effect1_foregroundBlur_2003_2"/>
</filter>
<filter id="filter24_f_2003_2" x="1773.89" y="683.411" width="4.06999" height="4.43425" filterUnits="userSpaceOnUse" color-interpolation-filters="sRGB">
<feFlood flood-opacity="0" result="BackgroundImageFix"/>
<feBlend mode="normal" in="SourceGraphic" in2="BackgroundImageFix" result="shape"/>
<feGaussianBlur stdDeviation="0.339274" result="effect1_foregroundBlur_2003_2"/>
</filter>
<filter id="filter25_f_2003_2" x="1454.9" y="882.132" width="23.2289" height="24.222" filterUnits="userSpaceOnUse" color-interpolation-filters="sRGB">
<feFlood flood-opacity="0" result="BackgroundImageFix"/>
<feBlend mode="normal" in="SourceGraphic" in2="BackgroundImageFix" result="shape"/>
<feGaussianBlur stdDeviation="3.95077" result="effect1_foregroundBlur_2003_2"/>
</filter>
<filter id="filter26_f_2003_2" x="1463.55" y="892.013" width="4.74047" height="5.16429" filterUnits="userSpaceOnUse" color-interpolation-filters="sRGB">
<feFlood flood-opacity="0" result="BackgroundImageFix"/>
<feBlend mode="normal" in="SourceGraphic" in2="BackgroundImageFix" result="shape"/>
<feGaussianBlur stdDeviation="0.395077" result="effect1_foregroundBlur_2003_2"/>
</filter>
<filter id="filter27_f_2003_2" x="-39.9863" y="922.676" width="58.793" height="61.3096" filterUnits="userSpaceOnUse" color-interpolation-filters="sRGB">
<feFlood flood-opacity="0" result="BackgroundImageFix"/>
<feBlend mode="normal" in="SourceGraphic" in2="BackgroundImageFix" result="shape"/>
<feGaussianBlur stdDeviation="10" result="effect1_foregroundBlur_2003_2"/>
</filter>
<filter id="filter28_f_2003_2" x="1164.11" y="170.157" width="39.6336" height="41.3285" filterUnits="userSpaceOnUse" color-interpolation-filters="sRGB">
<feFlood flood-opacity="0" result="BackgroundImageFix"/>
<feBlend mode="normal" in="SourceGraphic" in2="BackgroundImageFix" result="shape"/>
<feGaussianBlur stdDeviation="6.74093" result="effect1_foregroundBlur_2003_2"/>
</filter>
<filter id="filter29_f_2003_2" x="1178.88" y="187.018" width="8.08895" height="8.81063" filterUnits="userSpaceOnUse" color-interpolation-filters="sRGB">
<feFlood flood-opacity="0" result="BackgroundImageFix"/>
<feBlend mode="normal" in="SourceGraphic" in2="BackgroundImageFix" result="shape"/>
<feGaussianBlur stdDeviation="0.674093" result="effect1_foregroundBlur_2003_2"/>
</filter>
<filter id="filter30_f_2003_2" x="1453.9" y="179.131" width="23.2289" height="24.222" filterUnits="userSpaceOnUse" color-interpolation-filters="sRGB">
<feFlood flood-opacity="0" result="BackgroundImageFix"/>
<feBlend mode="normal" in="SourceGraphic" in2="BackgroundImageFix" result="shape"/>
<feGaussianBlur stdDeviation="3.95077" result="effect1_foregroundBlur_2003_2"/>
</filter>
<filter id="filter31_f_2003_2" x="1462.55" y="189.013" width="4.74047" height="5.16381" filterUnits="userSpaceOnUse" color-interpolation-filters="sRGB">
<feFlood flood-opacity="0" result="BackgroundImageFix"/>
<feBlend mode="normal" in="SourceGraphic" in2="BackgroundImageFix" result="shape"/>
<feGaussianBlur stdDeviation="0.395077" result="effect1_foregroundBlur_2003_2"/>
</filter>
<filter id="filter32_f_2003_2" x="484.152" y="270.417" width="26.5098" height="27.6436" filterUnits="userSpaceOnUse" color-interpolation-filters="sRGB">
<feFlood flood-opacity="0" result="BackgroundImageFix"/>
<feBlend mode="normal" in="SourceGraphic" in2="BackgroundImageFix" result="shape"/>
<feGaussianBlur stdDeviation="4.5088" result="effect1_foregroundBlur_2003_2"/>
</filter>
<filter id="filter33_f_2003_2" x="495.372" y="280.891" width="5.41094" height="5.89337" filterUnits="userSpaceOnUse" color-interpolation-filters="sRGB">
<feFlood flood-opacity="0" result="BackgroundImageFix"/>
<feBlend mode="normal" in="SourceGraphic" in2="BackgroundImageFix" result="shape"/>
<feGaussianBlur stdDeviation="0.45088" result="effect1_foregroundBlur_2003_2"/>
</filter>
<filter id="filter34_f_2003_2" x="518.429" y="696.791" width="29.7908" height="31.0652" filterUnits="userSpaceOnUse" color-interpolation-filters="sRGB">
<feFlood flood-opacity="0" result="BackgroundImageFix"/>
<feBlend mode="normal" in="SourceGraphic" in2="BackgroundImageFix" result="shape"/>
<feGaussianBlur stdDeviation="5.06683" result="effect1_foregroundBlur_2003_2"/>
</filter>
<filter id="filter35_f_2003_2" x="531.035" y="708.561" width="6.07947" height="6.62244" filterUnits="userSpaceOnUse" color-interpolation-filters="sRGB">
<feFlood flood-opacity="0" result="BackgroundImageFix"/>
<feBlend mode="normal" in="SourceGraphic" in2="BackgroundImageFix" result="shape"/>
<feGaussianBlur stdDeviation="0.506683" result="effect1_foregroundBlur_2003_2"/>
</filter>
<filter id="filter36_f_2003_2" x="403.601" y="517.67" width="19.946" height="20.8014" filterUnits="userSpaceOnUse" color-interpolation-filters="sRGB">
<feFlood flood-opacity="0" result="BackgroundImageFix"/>
<feBlend mode="normal" in="SourceGraphic" in2="BackgroundImageFix" result="shape"/>
<feGaussianBlur stdDeviation="3.39274" result="effect1_foregroundBlur_2003_2"/>
</filter>
<filter id="filter37_f_2003_2" x="412.042" y="525.551" width="4.06999" height="4.43425" filterUnits="userSpaceOnUse" color-interpolation-filters="sRGB">
<feFlood flood-opacity="0" result="BackgroundImageFix"/>
<feBlend mode="normal" in="SourceGraphic" in2="BackgroundImageFix" result="shape"/>
<feGaussianBlur stdDeviation="0.339274" result="effect1_foregroundBlur_2003_2"/>
</filter>
<filter id="filter38_f_2003_2" x="711.876" y="307.044" width="23.2289" height="24.222" filterUnits="userSpaceOnUse" color-interpolation-filters="sRGB">
<feFlood flood-opacity="0" result="BackgroundImageFix"/>
<feBlend mode="normal" in="SourceGraphic" in2="BackgroundImageFix" result="shape"/>
<feGaussianBlur stdDeviation="3.95077" result="effect1_foregroundBlur_2003_2"/>
</filter>
<filter id="filter39_f_2003_2" x="721.706" y="316.221" width="4.74047" height="5.16381" filterUnits="userSpaceOnUse" color-interpolation-filters="sRGB">
<feFlood flood-opacity="0" result="BackgroundImageFix"/>
<feBlend mode="normal" in="SourceGraphic" in2="BackgroundImageFix" result="shape"/>
<feGaussianBlur stdDeviation="0.395077" result="effect1_foregroundBlur_2003_2"/>
</filter>
<filter id="filter40_f_2003_2" x="1431.34" y="384.417" width="26.5098" height="27.6436" filterUnits="userSpaceOnUse" color-interpolation-filters="sRGB">
<feFlood flood-opacity="0" result="BackgroundImageFix"/>
<feBlend mode="normal" in="SourceGraphic" in2="BackgroundImageFix" result="shape"/>
<feGaussianBlur stdDeviation="4.5088" result="effect1_foregroundBlur_2003_2"/>
</filter>
<filter id="filter41_f_2003_2" x="1441.22" y="394.89" width="5.41094" height="5.89337" filterUnits="userSpaceOnUse" color-interpolation-filters="sRGB">
<feFlood flood-opacity="0" result="BackgroundImageFix"/>
<feBlend mode="normal" in="SourceGraphic" in2="BackgroundImageFix" result="shape"/>
<feGaussianBlur stdDeviation="0.45088" result="effect1_foregroundBlur_2003_2"/>
</filter>
<filter id="filter42_f_2003_2" x="1393.78" y="810.791" width="29.7908" height="31.0652" filterUnits="userSpaceOnUse" color-interpolation-filters="sRGB">
<feFlood flood-opacity="0" result="BackgroundImageFix"/>
<feBlend mode="normal" in="SourceGraphic" in2="BackgroundImageFix" result="shape"/>
<feGaussianBlur stdDeviation="5.06683" result="effect1_foregroundBlur_2003_2"/>
</filter>
<filter id="filter43_f_2003_2" x="1404.89" y="822.561" width="6.07947" height="6.62244" filterUnits="userSpaceOnUse" color-interpolation-filters="sRGB">
<feFlood flood-opacity="0" result="BackgroundImageFix"/>
<feBlend mode="normal" in="SourceGraphic" in2="BackgroundImageFix" result="shape"/>
<feGaussianBlur stdDeviation="0.506683" result="effect1_foregroundBlur_2003_2"/>
</filter>
<filter id="filter44_f_2003_2" x="1518.45" y="631.67" width="19.946" height="20.8014" filterUnits="userSpaceOnUse" color-interpolation-filters="sRGB">
<feFlood flood-opacity="0" result="BackgroundImageFix"/>
<feBlend mode="normal" in="SourceGraphic" in2="BackgroundImageFix" result="shape"/>
<feGaussianBlur stdDeviation="3.39274" result="effect1_foregroundBlur_2003_2"/>
</filter>
<filter id="filter45_f_2003_2" x="1525.89" y="639.551" width="4.06999" height="4.43425" filterUnits="userSpaceOnUse" color-interpolation-filters="sRGB">
<feFlood flood-opacity="0" result="BackgroundImageFix"/>
<feBlend mode="normal" in="SourceGraphic" in2="BackgroundImageFix" result="shape"/>
<feGaussianBlur stdDeviation="0.339274" result="effect1_foregroundBlur_2003_2"/>
</filter>
<filter id="filter46_f_2003_2" x="1206.9" y="421.044" width="23.2289" height="24.222" filterUnits="userSpaceOnUse" color-interpolation-filters="sRGB">
<feFlood flood-opacity="0" result="BackgroundImageFix"/>
<feBlend mode="normal" in="SourceGraphic" in2="BackgroundImageFix" result="shape"/>
<feGaussianBlur stdDeviation="3.95077" result="effect1_foregroundBlur_2003_2"/>
</filter>
<filter id="filter47_f_2003_2" x="1215.55" y="430.221" width="4.74047" height="5.16429" filterUnits="userSpaceOnUse" color-interpolation-filters="sRGB">
<feFlood flood-opacity="0" result="BackgroundImageFix"/>
<feBlend mode="normal" in="SourceGraphic" in2="BackgroundImageFix" result="shape"/>
<feGaussianBlur stdDeviation="0.395077" result="effect1_foregroundBlur_2003_2"/>
</filter>
<linearGradient id="paint0_linear_2003_2" x1="148.014" y1="151.459" x2="150.392" y2="155.637" gradientUnits="userSpaceOnUse">
<stop stop-color="#FC7244"/>
<stop offset="1" stop-color="#AC3B41"/>
</linearGradient>
<linearGradient id="paint1_linear_2003_2" x1="89.1255" y1="872.719" x2="91.2097" y2="876.38" gradientUnits="userSpaceOnUse">
<stop stop-color="#FC7244"/>
<stop offset="1" stop-color="#AC3B41"/>
</linearGradient>
<linearGradient id="paint2_linear_2003_2" x1="183.9" y1="579.199" x2="186.573" y2="583.895" gradientUnits="userSpaceOnUse">
<stop stop-color="#FC7244"/>
<stop offset="1" stop-color="#AC3B41"/>
</linearGradient>
<linearGradient id="paint3_linear_2003_2" x1="64.2371" y1="395.978" x2="66.0269" y2="399.122" gradientUnits="userSpaceOnUse">
<stop stop-color="#FC7244"/>
<stop offset="1" stop-color="#AC3B41"/>
</linearGradient>
<linearGradient id="paint4_linear_2003_2" x1="374.125" y1="186.719" x2="376.21" y2="190.38" gradientUnits="userSpaceOnUse">
<stop stop-color="#FC7244"/>
<stop offset="1" stop-color="#AC3B41"/>
</linearGradient>
<linearGradient id="paint5_linear_2003_2" x1="1850.91" y1="123.9" x2="1856.19" y2="133.167" gradientUnits="userSpaceOnUse">
<stop stop-color="#FC7244"/>
<stop offset="1" stop-color="#AC3B41"/>
</linearGradient>
<linearGradient id="paint6_linear_2003_2" x1="656.565" y1="888.419" x2="660.121" y2="894.666" gradientUnits="userSpaceOnUse">
<stop stop-color="#FC7244"/>
<stop offset="1" stop-color="#AC3B41"/>
</linearGradient>
<linearGradient id="paint7_linear_2003_2" x1="375.125" y1="889.719" x2="377.21" y2="893.38" gradientUnits="userSpaceOnUse">
<stop stop-color="#FC7244"/>
<stop offset="1" stop-color="#AC3B41"/>
</linearGradient>
<linearGradient id="paint8_linear_2003_2" x1="1692.83" y1="931.939" x2="1690.45" y2="927.76" gradientUnits="userSpaceOnUse">
<stop stop-color="#FC7244"/>
<stop offset="1" stop-color="#AC3B41"/>
</linearGradient>
<linearGradient id="paint9_linear_2003_2" x1="1751.71" y1="210.679" x2="1749.63" y2="207.018" gradientUnits="userSpaceOnUse">
<stop stop-color="#FC7244"/>
<stop offset="1" stop-color="#AC3B41"/>
</linearGradient>
<linearGradient id="paint10_linear_2003_2" x1="1656.94" y1="504.198" x2="1654.27" y2="499.503" gradientUnits="userSpaceOnUse">
<stop stop-color="#FC7244"/>
<stop offset="1" stop-color="#AC3B41"/>
</linearGradient>
<linearGradient id="paint11_linear_2003_2" x1="1776.6" y1="687.418" x2="1774.81" y2="684.274" gradientUnits="userSpaceOnUse">
<stop stop-color="#FC7244"/>
<stop offset="1" stop-color="#AC3B41"/>
</linearGradient>
<linearGradient id="paint12_linear_2003_2" x1="1466.71" y1="896.679" x2="1464.63" y2="893.018" gradientUnits="userSpaceOnUse">
<stop stop-color="#FC7244"/>
<stop offset="1" stop-color="#AC3B41"/>
</linearGradient>
<linearGradient id="paint13_linear_2003_2" x1="1184.27" y1="194.978" x2="1180.72" y2="188.732" gradientUnits="userSpaceOnUse">
<stop stop-color="#FC7244"/>
<stop offset="1" stop-color="#AC3B41"/>
</linearGradient>
<linearGradient id="paint14_linear_2003_2" x1="1465.71" y1="193.679" x2="1463.63" y2="190.018" gradientUnits="userSpaceOnUse">
<stop stop-color="#FC7244"/>
<stop offset="1" stop-color="#AC3B41"/>
</linearGradient>
<linearGradient id="paint15_linear_2003_2" x1="497.174" y1="281.459" x2="499.553" y2="285.637" gradientUnits="userSpaceOnUse">
<stop stop-color="#FC7244"/>
<stop offset="1" stop-color="#AC3B41"/>
</linearGradient>
<linearGradient id="paint16_linear_2003_2" x1="533.06" y1="709.199" x2="535.733" y2="713.895" gradientUnits="userSpaceOnUse">
<stop stop-color="#FC7244"/>
<stop offset="1" stop-color="#AC3B41"/>
</linearGradient>
<linearGradient id="paint17_linear_2003_2" x1="413.397" y1="525.978" x2="415.187" y2="529.122" gradientUnits="userSpaceOnUse">
<stop stop-color="#FC7244"/>
<stop offset="1" stop-color="#AC3B41"/>
</linearGradient>
<linearGradient id="paint18_linear_2003_2" x1="723.286" y1="316.719" x2="725.37" y2="320.38" gradientUnits="userSpaceOnUse">
<stop stop-color="#FC7244"/>
<stop offset="1" stop-color="#AC3B41"/>
</linearGradient>
<linearGradient id="paint19_linear_2003_2" x1="1444.83" y1="395.459" x2="1442.45" y2="399.637" gradientUnits="userSpaceOnUse">
<stop stop-color="#FC7244"/>
<stop offset="1" stop-color="#AC3B41"/>
</linearGradient>
<linearGradient id="paint20_linear_2003_2" x1="1408.94" y1="823.199" x2="1406.27" y2="827.895" gradientUnits="userSpaceOnUse">
<stop stop-color="#FC7244"/>
<stop offset="1" stop-color="#AC3B41"/>
</linearGradient>
<linearGradient id="paint21_linear_2003_2" x1="1528.6" y1="639.978" x2="1526.81" y2="643.122" gradientUnits="userSpaceOnUse">
<stop stop-color="#FC7244"/>
<stop offset="1" stop-color="#AC3B41"/>
</linearGradient>
<linearGradient id="paint22_linear_2003_2" x1="1218.71" y1="430.719" x2="1216.63" y2="434.38" gradientUnits="userSpaceOnUse">
<stop stop-color="#FC7244"/>
<stop offset="1" stop-color="#AC3B41"/>
</linearGradient>
<clipPath id="clip0_2003_2">
<rect width="1920" height="972" fill="white"/>
</clipPath>
</defs>
</svg>
