<svg width="360" height="780" viewBox="0 0 360 780" fill="none" xmlns="http://www.w3.org/2000/svg">
<g clip-path="url(#clip0_2003_287)">
<rect width="360" height="780" fill="#1E042B"/>
<g filter="url(#filter0_f_2003_287)">
<circle cx="180" cy="390" r="128" fill="#DE4916" fill-opacity="0.38"/>
</g>
<g filter="url(#filter1_f_2003_287)">
<path d="M77.3628 7.49188L77.1903 7.85584C77.0736 8.10226 77.0451 8.38135 77.1097 8.64628C77.2218 9.1057 77.5955 9.45495 78.0615 9.5356L78.8448 9.6712C79.8737 9.84931 80.7957 9.01209 80.7173 7.97082C80.6568 7.16723 80.0093 6.53338 79.2046 6.49003L79.058 6.48214C78.3404 6.44348 77.6706 6.84245 77.3628 7.49188Z" fill="#822540"/>
</g>
<g filter="url(#filter2_f_2003_287)">
<path d="M78.4019 8.08776L78.3285 8.24268C78.2788 8.34756 78.2667 8.46636 78.2942 8.57912C78.3419 8.77467 78.501 8.92333 78.6993 8.95766L79.0327 9.01537C79.4707 9.09118 79.8631 8.73483 79.8298 8.29162C79.804 7.94957 79.5284 7.67978 79.1859 7.66133L79.1235 7.65797C78.818 7.64152 78.5329 7.81133 78.4019 8.08776Z" fill="url(#paint0_linear_2003_287)"/>
</g>
<g filter="url(#filter3_f_2003_287)">
<path d="M203.75 48.3947L203.528 48.8614C203.379 49.1775 203.342 49.5354 203.425 49.8752C203.569 50.4644 204.048 50.9123 204.646 51.0157L205.65 51.1896C206.97 51.418 208.152 50.3443 208.052 49.0089C207.974 47.9783 207.144 47.1654 206.112 47.1098L205.924 47.0997C205.003 47.0501 204.144 47.5618 203.75 48.3947Z" fill="#822540"/>
</g>
<g filter="url(#filter4_f_2003_287)">
<path d="M205.079 49.1587L204.985 49.3574C204.921 49.4919 204.905 49.6443 204.941 49.7889C205.002 50.0397 205.206 50.2304 205.46 50.2744L205.888 50.3484C206.449 50.4456 206.953 49.9886 206.91 49.4202C206.877 48.9815 206.523 48.6355 206.084 48.6118L206.004 48.6075C205.612 48.5864 205.247 48.8042 205.079 49.1587Z" fill="url(#paint1_linear_2003_287)"/>
</g>
<g filter="url(#filter5_f_2003_287)">
<path d="M284.198 -3.21391L284.05 -2.90136C283.949 -2.68974 283.925 -2.45007 283.98 -2.22256C284.077 -1.82804 284.398 -1.52812 284.798 -1.45885L285.47 -1.34241C286.354 -1.18946 287.146 -1.90842 287.078 -2.80262C287.026 -3.49271 286.47 -4.03703 285.779 -4.07425L285.653 -4.08103C285.037 -4.11423 284.462 -3.77161 284.198 -3.21391Z" fill="#822540"/>
</g>
<g filter="url(#filter6_f_2003_287)">
<path d="M68.7333 252.879L68.439 253.5C68.2398 253.921 68.1912 254.397 68.3014 254.849C68.4926 255.633 69.1304 256.229 69.9254 256.366L71.2619 256.598C73.0175 256.902 74.5906 255.473 74.4568 253.696C74.3536 252.325 73.2487 251.244 71.8757 251.17L71.6257 251.156C70.4013 251.09 69.2584 251.771 68.7333 252.879Z" fill="#822540"/>
</g>
<g filter="url(#filter7_f_2003_287)">
<path d="M70.5021 253.897L70.3769 254.161C70.2921 254.34 70.2714 254.543 70.3183 254.735C70.3997 255.069 70.6712 255.322 71.0096 255.381L71.5784 255.479C72.3257 255.609 72.9952 255.001 72.9383 254.244C72.8944 253.661 72.4241 253.2 71.8397 253.169L71.7333 253.163C71.2121 253.135 70.7257 253.425 70.5021 253.897Z" fill="url(#paint2_linear_2003_287)"/>
</g>
<g filter="url(#filter8_f_2003_287)">
<path d="M70.0015 131.354L69.829 131.718C69.7122 131.964 69.6838 132.243 69.7484 132.508C69.8604 132.968 70.2342 133.317 70.7002 133.397L71.4835 133.533C72.5124 133.711 73.4343 132.874 73.3559 131.833C73.2954 131.029 72.6479 130.395 71.8432 130.352L71.6967 130.344C70.9791 130.305 70.3093 130.704 70.0015 131.354Z" fill="#822540"/>
</g>
<g filter="url(#filter9_f_2003_287)">
<path d="M71.0367 131.95L70.9633 132.104C70.9136 132.209 70.9015 132.328 70.929 132.441C70.9767 132.636 71.1358 132.785 71.3341 132.819L71.6675 132.877C72.1055 132.953 72.4979 132.597 72.4645 132.153C72.4388 131.811 72.1632 131.542 71.8206 131.523L71.7583 131.52C71.4528 131.503 71.1677 131.673 71.0367 131.95Z" fill="url(#paint3_linear_2003_287)"/>
</g>
<g filter="url(#filter10_f_2003_287)">
<path d="M57.267 703.103L57.4638 702.687C57.5971 702.406 57.6296 702.088 57.5559 701.785C57.428 701.261 57.0014 700.862 56.4696 700.77L55.5757 700.615C54.4014 700.412 53.3493 701.368 53.4387 702.556C53.5078 703.473 54.2468 704.197 55.1651 704.246L55.3324 704.255C56.1514 704.299 56.9158 703.844 57.267 703.103Z" fill="#822540"/>
</g>
<g filter="url(#filter11_f_2003_287)">
<path d="M56.0878 702.422L56.1716 702.245C56.2283 702.125 56.2421 701.99 56.2107 701.861C56.1563 701.638 55.9747 701.468 55.7484 701.429L55.3679 701.363C54.8681 701.277 54.4202 701.683 54.4583 702.189C54.4877 702.579 54.8022 702.887 55.1931 702.908L55.2643 702.912C55.6129 702.931 55.9383 702.737 56.0878 702.422Z" fill="url(#paint4_linear_2003_287)"/>
</g>
<g filter="url(#filter12_f_2003_287)">
<path d="M242.879 687.633L243.1 687.166C243.25 686.85 243.287 686.492 243.204 686.153C243.06 685.563 242.581 685.116 241.983 685.012L240.979 684.838C239.659 684.61 238.477 685.684 238.577 687.019C238.655 688.05 239.485 688.862 240.517 688.918L240.705 688.928C241.626 688.978 242.485 688.466 242.879 687.633Z" fill="#822540"/>
</g>
<g filter="url(#filter13_f_2003_287)">
<path d="M241.55 686.869L241.644 686.67C241.708 686.536 241.724 686.384 241.688 686.239C241.627 685.988 241.423 685.797 241.169 685.753L240.741 685.679C240.179 685.582 239.676 686.039 239.719 686.608C239.752 687.046 240.106 687.392 240.545 687.416L240.625 687.42C241.017 687.441 241.382 687.224 241.55 686.869Z" fill="url(#paint5_linear_2003_287)"/>
</g>
<g filter="url(#filter14_f_2003_287)">
<path d="M162.431 739.242L162.579 738.929C162.68 738.718 162.704 738.478 162.649 738.25C162.552 737.856 162.231 737.556 161.831 737.487L161.159 737.37C160.275 737.217 159.483 737.936 159.551 738.83C159.603 739.521 160.159 740.065 160.85 740.102L160.975 740.109C161.592 740.142 162.167 739.799 162.431 739.242Z" fill="#822540"/>
</g>
<g filter="url(#filter15_f_2003_287)">
<path d="M161.542 738.73L161.605 738.597C161.648 738.507 161.658 738.405 161.634 738.308C161.593 738.14 161.457 738.012 161.287 737.983L161 737.933C160.624 737.868 160.287 738.174 160.316 738.555C160.338 738.849 160.575 739.08 160.869 739.096L160.922 739.099C161.185 739.113 161.429 738.967 161.542 738.73Z" fill="url(#paint6_linear_2003_287)"/>
</g>
<g filter="url(#filter16_f_2003_287)">
<path d="M72.1723 605.105L72.3448 604.741C72.4616 604.495 72.4901 604.216 72.4255 603.951C72.3134 603.491 71.9396 603.142 71.4737 603.062L70.6903 602.926C69.6614 602.748 68.7395 603.585 68.8179 604.626C68.8784 605.43 69.5259 606.064 70.3306 606.107L70.4772 606.115C71.1948 606.154 71.8646 605.755 72.1723 605.105Z" fill="#822540"/>
</g>
<g filter="url(#filter17_f_2003_287)">
<path d="M71.1332 604.51L71.2066 604.355C71.2563 604.251 71.2684 604.132 71.2409 604.019C71.1933 603.823 71.0342 603.675 70.8358 603.64L70.5024 603.583C70.0645 603.507 69.672 603.863 69.7054 604.307C69.7312 604.649 70.0068 604.918 70.3493 604.937L70.4117 604.94C70.7171 604.957 71.0022 604.787 71.1332 604.51Z" fill="url(#paint7_linear_2003_287)"/>
</g>
<g filter="url(#filter18_f_2003_287)">
<path d="M333.061 184.134L332.864 184.549C332.731 184.83 332.699 185.149 332.772 185.451C332.9 185.975 333.327 186.374 333.858 186.466L334.752 186.621C335.927 186.824 336.979 185.869 336.889 184.68C336.82 183.763 336.081 183.04 335.163 182.99L334.996 182.981C334.177 182.937 333.412 183.393 333.061 184.134Z" fill="#822540"/>
</g>
<g filter="url(#filter19_f_2003_287)">
<path d="M334.24 184.815L334.157 184.991C334.1 185.111 334.086 185.247 334.117 185.375C334.172 185.599 334.353 185.768 334.58 185.807L334.96 185.873C335.46 185.96 335.908 185.553 335.87 185.047C335.84 184.657 335.526 184.349 335.135 184.328L335.064 184.324C334.715 184.305 334.39 184.499 334.24 184.815Z" fill="url(#paint8_linear_2003_287)"/>
</g>
<g filter="url(#filter20_f_2003_287)">
<path d="M21.064 158.703L20.8915 159.067C20.7747 159.314 20.7463 159.593 20.8109 159.858C20.9229 160.317 21.2967 160.666 21.7627 160.747L22.546 160.883C23.5749 161.061 24.4968 160.224 24.4184 159.182C24.3579 158.379 23.7104 157.745 22.9057 157.701L22.7592 157.694C22.0416 157.655 21.3718 158.054 21.064 158.703Z" fill="#822540"/>
</g>
<g filter="url(#filter21_f_2003_287)">
<path d="M22.1031 159.3L22.0297 159.455C21.98 159.559 21.9679 159.678 21.9954 159.791C22.0431 159.987 22.2022 160.135 22.4005 160.17L22.7339 160.227C23.1719 160.303 23.5643 159.947 23.5309 159.504C23.5052 159.161 23.2296 158.892 22.887 158.873L22.8247 158.87C22.5192 158.853 22.2341 159.023 22.1031 159.3Z" fill="url(#paint9_linear_2003_287)"/>
</g>
<g filter="url(#filter22_f_2003_287)">
<path d="M147.451 199.606L147.23 200.073C147.08 200.389 147.043 200.747 147.126 201.087C147.27 201.676 147.749 202.124 148.347 202.227L149.352 202.401C150.671 202.629 151.853 201.556 151.753 200.22C151.675 199.19 150.845 198.377 149.813 198.321L149.625 198.311C148.705 198.262 147.846 198.773 147.451 199.606Z" fill="#822540"/>
</g>
<g filter="url(#filter23_f_2003_287)">
<path d="M148.78 200.37L148.686 200.569C148.622 200.703 148.606 200.856 148.642 201C148.703 201.251 148.907 201.442 149.161 201.486L149.589 201.56C150.151 201.657 150.654 201.2 150.611 200.632C150.578 200.193 150.225 199.847 149.785 199.823L149.705 199.819C149.314 199.798 148.948 200.016 148.78 200.37Z" fill="url(#paint10_linear_2003_287)"/>
</g>
<g filter="url(#filter24_f_2003_287)">
<path d="M227.897 147.995L227.749 148.307C227.649 148.519 227.624 148.758 227.68 148.986C227.776 149.38 228.097 149.68 228.497 149.75L229.17 149.866C230.053 150.019 230.845 149.3 230.778 148.406C230.726 147.716 230.17 147.171 229.479 147.134L229.353 147.127C228.736 147.094 228.161 147.437 227.897 147.995Z" fill="#822540"/>
</g>
<g filter="url(#filter25_f_2003_287)">
<path d="M228.786 148.506L228.723 148.639C228.68 148.729 228.67 148.831 228.694 148.928C228.735 149.096 228.871 149.223 229.042 149.253L229.328 149.302C229.704 149.368 230.041 149.062 230.012 148.681C229.99 148.387 229.754 148.156 229.459 148.14L229.406 148.137C229.144 148.123 228.899 148.269 228.786 148.506Z" fill="url(#paint11_linear_2003_287)"/>
</g>
<g filter="url(#filter26_f_2003_287)">
<path d="M318.156 282.129L317.983 282.493C317.867 282.739 317.838 283.019 317.903 283.283C318.015 283.743 318.389 284.092 318.854 284.173L319.638 284.308C320.667 284.487 321.589 283.649 321.51 282.608C321.45 281.804 320.802 281.171 319.998 281.127L319.851 281.119C319.133 281.081 318.464 281.48 318.156 282.129Z" fill="#822540"/>
</g>
<g filter="url(#filter27_f_2003_287)">
<path d="M319.195 282.725L319.122 282.88C319.072 282.985 319.06 283.104 319.087 283.217C319.135 283.412 319.294 283.561 319.492 283.595L319.826 283.653C320.264 283.729 320.656 283.373 320.623 282.929C320.597 282.587 320.321 282.317 319.979 282.299L319.916 282.296C319.611 282.279 319.326 282.449 319.195 282.725Z" fill="url(#paint12_linear_2003_287)"/>
</g>
<g filter="url(#filter28_f_2003_287)">
<path d="M12.4345 404.091L12.1402 404.712C11.9409 405.132 11.8924 405.608 12.0026 406.06C12.1938 406.844 12.8316 407.44 13.6266 407.578L14.9631 407.809C16.7187 408.113 18.2917 406.684 18.158 404.908C18.0547 403.537 16.9499 402.455 15.5769 402.381L15.3269 402.368C14.1024 402.302 12.9596 402.983 12.4345 404.091Z" fill="#822540"/>
</g>
<g filter="url(#filter29_f_2003_287)">
<path d="M14.1994 405.108L14.0742 405.372C13.9893 405.551 13.9687 405.754 14.0156 405.946C14.097 406.28 14.3684 406.534 14.7068 406.592L15.2757 406.691C16.023 406.82 16.6925 406.212 16.6356 405.456C16.5916 404.872 16.1214 404.412 15.537 404.38L15.4305 404.375C14.9094 404.347 14.4229 404.636 14.1994 405.108Z" fill="url(#paint13_linear_2003_287)"/>
</g>
<g filter="url(#filter30_f_2003_287)">
<path d="M13.7007 282.562L13.5282 282.926C13.4115 283.172 13.383 283.451 13.4476 283.716C13.5596 284.176 13.9334 284.525 14.3994 284.605L15.1827 284.741C16.2116 284.919 17.1336 284.082 17.0552 283.041C16.9947 282.237 16.3471 281.603 15.5424 281.56L15.3959 281.552C14.6783 281.513 14.0085 281.912 13.7007 282.562Z" fill="#822540"/>
</g>
<g filter="url(#filter31_f_2003_287)">
<path d="M14.7398 283.158L14.6664 283.312C14.6167 283.417 14.6046 283.536 14.6321 283.649C14.6798 283.844 14.8389 283.993 15.0372 284.027L15.3706 284.085C15.8086 284.161 16.201 283.805 16.1676 283.361C16.1419 283.019 15.8663 282.75 15.5238 282.731L15.4614 282.728C15.1559 282.711 14.8708 282.881 14.7398 283.158Z" fill="url(#paint14_linear_2003_287)"/>
</g>
<g filter="url(#filter32_f_2003_287)">
<path d="M283.692 595.699L283.495 595.284C283.362 595.003 283.329 594.684 283.403 594.382C283.531 593.858 283.958 593.459 284.489 593.367L285.383 593.212C286.558 593.009 287.61 593.964 287.52 595.153C287.451 596.07 286.712 596.793 285.794 596.843L285.627 596.852C284.808 596.896 284.043 596.44 283.692 595.699Z" fill="#822540"/>
</g>
<g filter="url(#filter33_f_2003_287)">
<path d="M284.871 595.018L284.787 594.842C284.731 594.722 284.717 594.586 284.748 594.458C284.803 594.234 284.984 594.065 285.211 594.026L285.591 593.96C286.091 593.873 286.539 594.28 286.501 594.786C286.471 595.176 286.157 595.484 285.766 595.505L285.695 595.509C285.346 595.528 285.021 595.334 284.871 595.018Z" fill="url(#paint15_linear_2003_287)"/>
</g>
<g filter="url(#filter34_f_2003_287)">
<path d="M98.0798 580.226L97.8586 579.759C97.7088 579.443 97.6723 579.085 97.7551 578.745C97.8988 578.156 98.3782 577.708 98.9758 577.605L99.9804 577.431C101.3 577.203 102.482 578.276 102.382 579.612C102.304 580.642 101.474 581.455 100.442 581.511L100.254 581.521C99.3335 581.571 98.4745 581.059 98.0798 580.226Z" fill="#822540"/>
</g>
<g filter="url(#filter35_f_2003_287)">
<path d="M99.4049 579.462L99.3108 579.263C99.247 579.129 99.2315 578.976 99.2667 578.832C99.3279 578.581 99.532 578.39 99.7863 578.346L100.214 578.272C100.776 578.175 101.279 578.632 101.236 579.2C101.203 579.639 100.85 579.985 100.41 580.009L100.33 580.013C99.9386 580.034 99.5729 579.816 99.4049 579.462Z" fill="url(#paint16_linear_2003_287)"/>
</g>
<g filter="url(#filter36_f_2003_287)">
<path d="M178.526 631.835L178.378 631.522C178.277 631.31 178.253 631.071 178.308 630.843C178.405 630.449 178.726 630.149 179.126 630.079L179.798 629.963C180.682 629.81 181.474 630.529 181.406 631.423C181.355 632.113 180.798 632.658 180.107 632.695L179.982 632.702C179.365 632.735 178.79 632.392 178.526 631.835Z" fill="#822540"/>
</g>
<g filter="url(#filter37_f_2003_287)">
<path d="M179.415 631.323L179.352 631.19C179.309 631.1 179.299 630.998 179.323 630.901C179.364 630.733 179.5 630.605 179.67 630.576L179.957 630.526C180.333 630.461 180.67 630.767 180.641 631.148C180.619 631.441 180.382 631.673 180.088 631.689L180.035 631.692C179.772 631.706 179.528 631.56 179.415 631.323Z" fill="url(#paint17_linear_2003_287)"/>
</g>
<g filter="url(#filter38_f_2003_287)">
<path d="M268.785 497.702L268.612 497.338C268.495 497.092 268.467 496.812 268.532 496.548C268.644 496.088 269.017 495.739 269.483 495.658L270.267 495.523C271.296 495.345 272.218 496.182 272.139 497.223C272.079 498.027 271.431 498.66 270.626 498.704L270.48 498.712C269.762 498.75 269.092 498.351 268.785 497.702Z" fill="#822540"/>
</g>
<g filter="url(#filter39_f_2003_287)">
<path d="M269.82 497.107L269.747 496.952C269.697 496.847 269.685 496.728 269.712 496.616C269.76 496.42 269.919 496.271 270.117 496.237L270.451 496.179C270.889 496.104 271.281 496.46 271.248 496.903C271.222 497.245 270.946 497.515 270.604 497.533L270.541 497.537C270.236 497.553 269.951 497.383 269.82 497.107Z" fill="url(#paint18_linear_2003_287)"/>
</g>
</g>
<defs>
<filter id="filter0_f_2003_287" x="-328" y="-118" width="1016" height="1016" filterUnits="userSpaceOnUse" color-interpolation-filters="sRGB">
<feFlood flood-opacity="0" result="BackgroundImageFix"/>
<feBlend mode="normal" in="SourceGraphic" in2="BackgroundImageFix" result="shape"/>
<feGaussianBlur stdDeviation="190" result="effect1_foregroundBlur_2003_287"/>
</filter>
<filter id="filter1_f_2003_287" x="73.6542" y="3.05751" width="10.4904" height="10.0598" filterUnits="userSpaceOnUse" color-interpolation-filters="sRGB">
<feFlood flood-opacity="0" result="BackgroundImageFix"/>
<feBlend mode="normal" in="SourceGraphic" in2="BackgroundImageFix" result="shape"/>
<feGaussianBlur stdDeviation="1.71099" result="effect1_foregroundBlur_2003_287"/>
</filter>
<filter id="filter2_f_2003_287" x="77.9371" y="7.31454" width="2.23713" height="2.05305" filterUnits="userSpaceOnUse" color-interpolation-filters="sRGB">
<feFlood flood-opacity="0" result="BackgroundImageFix"/>
<feBlend mode="normal" in="SourceGraphic" in2="BackgroundImageFix" result="shape"/>
<feGaussianBlur stdDeviation="0.171099" result="effect1_foregroundBlur_2003_287"/>
</filter>
<filter id="filter3_f_2003_287" x="198.992" y="42.7075" width="13.4551" height="12.9014" filterUnits="userSpaceOnUse" color-interpolation-filters="sRGB">
<feFlood flood-opacity="0" result="BackgroundImageFix"/>
<feBlend mode="normal" in="SourceGraphic" in2="BackgroundImageFix" result="shape"/>
<feGaussianBlur stdDeviation="2.19433" result="effect1_foregroundBlur_2003_287"/>
</filter>
<filter id="filter4_f_2003_287" x="204.483" y="48.1671" width="2.86797" height="2.6331" filterUnits="userSpaceOnUse" color-interpolation-filters="sRGB">
<feFlood flood-opacity="0" result="BackgroundImageFix"/>
<feBlend mode="normal" in="SourceGraphic" in2="BackgroundImageFix" result="shape"/>
<feGaussianBlur stdDeviation="0.219433" result="effect1_foregroundBlur_2003_287"/>
</filter>
<filter id="filter5_f_2003_287" x="281.013" y="-7.02165" width="9.00814" height="8.63851" filterUnits="userSpaceOnUse" color-interpolation-filters="sRGB">
<feFlood flood-opacity="0" result="BackgroundImageFix"/>
<feBlend mode="normal" in="SourceGraphic" in2="BackgroundImageFix" result="shape"/>
<feGaussianBlur stdDeviation="1.46932" result="effect1_foregroundBlur_2003_287"/>
</filter>
<filter id="filter6_f_2003_287" x="62.4055" y="245.313" width="17.8981" height="17.1642" filterUnits="userSpaceOnUse" color-interpolation-filters="sRGB">
<feFlood flood-opacity="0" result="BackgroundImageFix"/>
<feBlend mode="normal" in="SourceGraphic" in2="BackgroundImageFix" result="shape"/>
<feGaussianBlur stdDeviation="2.91934" result="effect1_foregroundBlur_2003_287"/>
</filter>
<filter id="filter7_f_2003_287" x="69.7091" y="252.577" width="3.81617" height="3.50319" filterUnits="userSpaceOnUse" color-interpolation-filters="sRGB">
<feFlood flood-opacity="0" result="BackgroundImageFix"/>
<feBlend mode="normal" in="SourceGraphic" in2="BackgroundImageFix" result="shape"/>
<feGaussianBlur stdDeviation="0.291934" result="effect1_foregroundBlur_2003_287"/>
</filter>
<filter id="filter8_f_2003_287" x="66.2929" y="126.919" width="10.4904" height="10.0598" filterUnits="userSpaceOnUse" color-interpolation-filters="sRGB">
<feFlood flood-opacity="0" result="BackgroundImageFix"/>
<feBlend mode="normal" in="SourceGraphic" in2="BackgroundImageFix" result="shape"/>
<feGaussianBlur stdDeviation="1.71099" result="effect1_foregroundBlur_2003_287"/>
</filter>
<filter id="filter9_f_2003_287" x="70.5719" y="131.176" width="2.23713" height="2.05305" filterUnits="userSpaceOnUse" color-interpolation-filters="sRGB">
<feFlood flood-opacity="0" result="BackgroundImageFix"/>
<feBlend mode="normal" in="SourceGraphic" in2="BackgroundImageFix" result="shape"/>
<feGaussianBlur stdDeviation="0.171099" result="effect1_foregroundBlur_2003_287"/>
</filter>
<filter id="filter10_f_2003_287" x="49.5283" y="696.683" width="11.9708" height="11.4806" filterUnits="userSpaceOnUse" color-interpolation-filters="sRGB">
<feFlood flood-opacity="0" result="BackgroundImageFix"/>
<feBlend mode="normal" in="SourceGraphic" in2="BackgroundImageFix" result="shape"/>
<feGaussianBlur stdDeviation="1.95266" result="effect1_foregroundBlur_2003_287"/>
</filter>
<filter id="filter11_f_2003_287" x="54.0645" y="700.961" width="2.55255" height="2.34259" filterUnits="userSpaceOnUse" color-interpolation-filters="sRGB">
<feFlood flood-opacity="0" result="BackgroundImageFix"/>
<feBlend mode="normal" in="SourceGraphic" in2="BackgroundImageFix" result="shape"/>
<feGaussianBlur stdDeviation="0.195266" result="effect1_foregroundBlur_2003_287"/>
</filter>
<filter id="filter12_f_2003_287" x="234.182" y="680.419" width="13.4551" height="12.9014" filterUnits="userSpaceOnUse" color-interpolation-filters="sRGB">
<feFlood flood-opacity="0" result="BackgroundImageFix"/>
<feBlend mode="normal" in="SourceGraphic" in2="BackgroundImageFix" result="shape"/>
<feGaussianBlur stdDeviation="2.19433" result="effect1_foregroundBlur_2003_287"/>
</filter>
<filter id="filter13_f_2003_287" x="239.278" y="685.227" width="2.86797" height="2.63359" filterUnits="userSpaceOnUse" color-interpolation-filters="sRGB">
<feFlood flood-opacity="0" result="BackgroundImageFix"/>
<feBlend mode="normal" in="SourceGraphic" in2="BackgroundImageFix" result="shape"/>
<feGaussianBlur stdDeviation="0.219433" result="effect1_foregroundBlur_2003_287"/>
</filter>
<filter id="filter14_f_2003_287" x="156.608" y="734.411" width="9.00814" height="8.639" filterUnits="userSpaceOnUse" color-interpolation-filters="sRGB">
<feFlood flood-opacity="0" result="BackgroundImageFix"/>
<feBlend mode="normal" in="SourceGraphic" in2="BackgroundImageFix" result="shape"/>
<feGaussianBlur stdDeviation="1.46932" result="effect1_foregroundBlur_2003_287"/>
</filter>
<filter id="filter15_f_2003_287" x="160.021" y="737.631" width="1.91976" height="1.76253" filterUnits="userSpaceOnUse" color-interpolation-filters="sRGB">
<feFlood flood-opacity="0" result="BackgroundImageFix"/>
<feBlend mode="normal" in="SourceGraphic" in2="BackgroundImageFix" result="shape"/>
<feGaussianBlur stdDeviation="0.146932" result="effect1_foregroundBlur_2003_287"/>
</filter>
<filter id="filter16_f_2003_287" x="65.3905" y="599.48" width="10.4904" height="10.0588" filterUnits="userSpaceOnUse" color-interpolation-filters="sRGB">
<feFlood flood-opacity="0" result="BackgroundImageFix"/>
<feBlend mode="normal" in="SourceGraphic" in2="BackgroundImageFix" result="shape"/>
<feGaussianBlur stdDeviation="1.71099" result="effect1_foregroundBlur_2003_287"/>
</filter>
<filter id="filter17_f_2003_287" x="69.3609" y="603.23" width="2.23713" height="2.05354" filterUnits="userSpaceOnUse" color-interpolation-filters="sRGB">
<feFlood flood-opacity="0" result="BackgroundImageFix"/>
<feBlend mode="normal" in="SourceGraphic" in2="BackgroundImageFix" result="shape"/>
<feGaussianBlur stdDeviation="0.171099" result="effect1_foregroundBlur_2003_287"/>
</filter>
<filter id="filter18_f_2003_287" x="328.829" y="179.073" width="11.9708" height="11.4806" filterUnits="userSpaceOnUse" color-interpolation-filters="sRGB">
<feFlood flood-opacity="0" result="BackgroundImageFix"/>
<feBlend mode="normal" in="SourceGraphic" in2="BackgroundImageFix" result="shape"/>
<feGaussianBlur stdDeviation="1.95266" result="effect1_foregroundBlur_2003_287"/>
</filter>
<filter id="filter19_f_2003_287" x="333.711" y="183.932" width="2.55255" height="2.34308" filterUnits="userSpaceOnUse" color-interpolation-filters="sRGB">
<feFlood flood-opacity="0" result="BackgroundImageFix"/>
<feBlend mode="normal" in="SourceGraphic" in2="BackgroundImageFix" result="shape"/>
<feGaussianBlur stdDeviation="0.195266" result="effect1_foregroundBlur_2003_287"/>
</filter>
<filter id="filter20_f_2003_287" x="17.3554" y="154.269" width="10.4904" height="10.0598" filterUnits="userSpaceOnUse" color-interpolation-filters="sRGB">
<feFlood flood-opacity="0" result="BackgroundImageFix"/>
<feBlend mode="normal" in="SourceGraphic" in2="BackgroundImageFix" result="shape"/>
<feGaussianBlur stdDeviation="1.71099" result="effect1_foregroundBlur_2003_287"/>
</filter>
<filter id="filter21_f_2003_287" x="21.6383" y="158.526" width="2.23713" height="2.05305" filterUnits="userSpaceOnUse" color-interpolation-filters="sRGB">
<feFlood flood-opacity="0" result="BackgroundImageFix"/>
<feBlend mode="normal" in="SourceGraphic" in2="BackgroundImageFix" result="shape"/>
<feGaussianBlur stdDeviation="0.171099" result="effect1_foregroundBlur_2003_287"/>
</filter>
<filter id="filter22_f_2003_287" x="142.693" y="193.919" width="13.4551" height="12.9014" filterUnits="userSpaceOnUse" color-interpolation-filters="sRGB">
<feFlood flood-opacity="0" result="BackgroundImageFix"/>
<feBlend mode="normal" in="SourceGraphic" in2="BackgroundImageFix" result="shape"/>
<feGaussianBlur stdDeviation="2.19433" result="effect1_foregroundBlur_2003_287"/>
</filter>
<filter id="filter23_f_2003_287" x="148.184" y="199.379" width="2.86797" height="2.6331" filterUnits="userSpaceOnUse" color-interpolation-filters="sRGB">
<feFlood flood-opacity="0" result="BackgroundImageFix"/>
<feBlend mode="normal" in="SourceGraphic" in2="BackgroundImageFix" result="shape"/>
<feGaussianBlur stdDeviation="0.219433" result="effect1_foregroundBlur_2003_287"/>
</filter>
<filter id="filter24_f_2003_287" x="224.712" y="144.187" width="9.00814" height="8.63851" filterUnits="userSpaceOnUse" color-interpolation-filters="sRGB">
<feFlood flood-opacity="0" result="BackgroundImageFix"/>
<feBlend mode="normal" in="SourceGraphic" in2="BackgroundImageFix" result="shape"/>
<feGaussianBlur stdDeviation="1.46932" result="effect1_foregroundBlur_2003_287"/>
</filter>
<filter id="filter25_f_2003_287" x="228.388" y="147.842" width="1.91976" height="1.76302" filterUnits="userSpaceOnUse" color-interpolation-filters="sRGB">
<feFlood flood-opacity="0" result="BackgroundImageFix"/>
<feBlend mode="normal" in="SourceGraphic" in2="BackgroundImageFix" result="shape"/>
<feGaussianBlur stdDeviation="0.146932" result="effect1_foregroundBlur_2003_287"/>
</filter>
<filter id="filter26_f_2003_287" x="314.447" y="277.695" width="10.4904" height="10.0598" filterUnits="userSpaceOnUse" color-interpolation-filters="sRGB">
<feFlood flood-opacity="0" result="BackgroundImageFix"/>
<feBlend mode="normal" in="SourceGraphic" in2="BackgroundImageFix" result="shape"/>
<feGaussianBlur stdDeviation="1.71099" result="effect1_foregroundBlur_2003_287"/>
</filter>
<filter id="filter27_f_2003_287" x="318.73" y="281.952" width="2.23713" height="2.05305" filterUnits="userSpaceOnUse" color-interpolation-filters="sRGB">
<feFlood flood-opacity="0" result="BackgroundImageFix"/>
<feBlend mode="normal" in="SourceGraphic" in2="BackgroundImageFix" result="shape"/>
<feGaussianBlur stdDeviation="0.171099" result="effect1_foregroundBlur_2003_287"/>
</filter>
<filter id="filter28_f_2003_287" x="6.10662" y="396.525" width="17.8981" height="17.1637" filterUnits="userSpaceOnUse" color-interpolation-filters="sRGB">
<feFlood flood-opacity="0" result="BackgroundImageFix"/>
<feBlend mode="normal" in="SourceGraphic" in2="BackgroundImageFix" result="shape"/>
<feGaussianBlur stdDeviation="2.91934" result="effect1_foregroundBlur_2003_287"/>
</filter>
<filter id="filter29_f_2003_287" x="13.4064" y="403.789" width="3.81617" height="3.5027" filterUnits="userSpaceOnUse" color-interpolation-filters="sRGB">
<feFlood flood-opacity="0" result="BackgroundImageFix"/>
<feBlend mode="normal" in="SourceGraphic" in2="BackgroundImageFix" result="shape"/>
<feGaussianBlur stdDeviation="0.291934" result="effect1_foregroundBlur_2003_287"/>
</filter>
<filter id="filter30_f_2003_287" x="9.99208" y="278.127" width="10.4904" height="10.0598" filterUnits="userSpaceOnUse" color-interpolation-filters="sRGB">
<feFlood flood-opacity="0" result="BackgroundImageFix"/>
<feBlend mode="normal" in="SourceGraphic" in2="BackgroundImageFix" result="shape"/>
<feGaussianBlur stdDeviation="1.71099" result="effect1_foregroundBlur_2003_287"/>
</filter>
<filter id="filter31_f_2003_287" x="14.275" y="282.384" width="2.23713" height="2.05305" filterUnits="userSpaceOnUse" color-interpolation-filters="sRGB">
<feFlood flood-opacity="0" result="BackgroundImageFix"/>
<feBlend mode="normal" in="SourceGraphic" in2="BackgroundImageFix" result="shape"/>
<feGaussianBlur stdDeviation="0.171099" result="effect1_foregroundBlur_2003_287"/>
</filter>
<filter id="filter32_f_2003_287" x="279.46" y="589.279" width="11.9708" height="11.4806" filterUnits="userSpaceOnUse" color-interpolation-filters="sRGB">
<feFlood flood-opacity="0" result="BackgroundImageFix"/>
<feBlend mode="normal" in="SourceGraphic" in2="BackgroundImageFix" result="shape"/>
<feGaussianBlur stdDeviation="1.95266" result="effect1_foregroundBlur_2003_287"/>
</filter>
<filter id="filter33_f_2003_287" x="284.342" y="593.558" width="2.55255" height="2.34259" filterUnits="userSpaceOnUse" color-interpolation-filters="sRGB">
<feFlood flood-opacity="0" result="BackgroundImageFix"/>
<feBlend mode="normal" in="SourceGraphic" in2="BackgroundImageFix" result="shape"/>
<feGaussianBlur stdDeviation="0.195266" result="effect1_foregroundBlur_2003_287"/>
</filter>
<filter id="filter34_f_2003_287" x="93.3223" y="573.012" width="13.4551" height="12.9014" filterUnits="userSpaceOnUse" color-interpolation-filters="sRGB">
<feFlood flood-opacity="0" result="BackgroundImageFix"/>
<feBlend mode="normal" in="SourceGraphic" in2="BackgroundImageFix" result="shape"/>
<feGaussianBlur stdDeviation="2.19433" result="effect1_foregroundBlur_2003_287"/>
</filter>
<filter id="filter35_f_2003_287" x="98.8092" y="577.82" width="2.86797" height="2.63359" filterUnits="userSpaceOnUse" color-interpolation-filters="sRGB">
<feFlood flood-opacity="0" result="BackgroundImageFix"/>
<feBlend mode="normal" in="SourceGraphic" in2="BackgroundImageFix" result="shape"/>
<feGaussianBlur stdDeviation="0.219433" result="effect1_foregroundBlur_2003_287"/>
</filter>
<filter id="filter36_f_2003_287" x="175.341" y="627.004" width="9.00814" height="8.639" filterUnits="userSpaceOnUse" color-interpolation-filters="sRGB">
<feFlood flood-opacity="0" result="BackgroundImageFix"/>
<feBlend mode="normal" in="SourceGraphic" in2="BackgroundImageFix" result="shape"/>
<feGaussianBlur stdDeviation="1.46932" result="effect1_foregroundBlur_2003_287"/>
</filter>
<filter id="filter37_f_2003_287" x="179.017" y="630.224" width="1.91976" height="1.76253" filterUnits="userSpaceOnUse" color-interpolation-filters="sRGB">
<feFlood flood-opacity="0" result="BackgroundImageFix"/>
<feBlend mode="normal" in="SourceGraphic" in2="BackgroundImageFix" result="shape"/>
<feGaussianBlur stdDeviation="0.146932" result="effect1_foregroundBlur_2003_287"/>
</filter>
<filter id="filter38_f_2003_287" x="265.076" y="492.077" width="10.4904" height="10.0588" filterUnits="userSpaceOnUse" color-interpolation-filters="sRGB">
<feFlood flood-opacity="0" result="BackgroundImageFix"/>
<feBlend mode="normal" in="SourceGraphic" in2="BackgroundImageFix" result="shape"/>
<feGaussianBlur stdDeviation="1.71099" result="effect1_foregroundBlur_2003_287"/>
</filter>
<filter id="filter39_f_2003_287" x="269.355" y="495.827" width="2.23713" height="2.05354" filterUnits="userSpaceOnUse" color-interpolation-filters="sRGB">
<feFlood flood-opacity="0" result="BackgroundImageFix"/>
<feBlend mode="normal" in="SourceGraphic" in2="BackgroundImageFix" result="shape"/>
<feGaussianBlur stdDeviation="0.171099" result="effect1_foregroundBlur_2003_287"/>
</filter>
<linearGradient id="paint0_linear_2003_287" x1="79.9583" y1="7.9985" x2="78.3727" y2="8.90113" gradientUnits="userSpaceOnUse">
<stop stop-color="#FC7244"/>
<stop offset="1" stop-color="#AC3B41"/>
</linearGradient>
<linearGradient id="paint1_linear_2003_287" x1="207.075" y1="49.0443" x2="205.041" y2="50.2019" gradientUnits="userSpaceOnUse">
<stop stop-color="#FC7244"/>
<stop offset="1" stop-color="#AC3B41"/>
</linearGradient>
<linearGradient id="paint2_linear_2003_287" x1="73.1577" y1="253.744" x2="70.4523" y2="255.284" gradientUnits="userSpaceOnUse">
<stop stop-color="#FC7244"/>
<stop offset="1" stop-color="#AC3B41"/>
</linearGradient>
<linearGradient id="paint3_linear_2003_287" x1="72.5931" y1="131.86" x2="71.0075" y2="132.763" gradientUnits="userSpaceOnUse">
<stop stop-color="#FC7244"/>
<stop offset="1" stop-color="#AC3B41"/>
</linearGradient>
<linearGradient id="paint4_linear_2003_287" x1="54.3116" y1="702.524" x2="56.1211" y2="701.493" gradientUnits="userSpaceOnUse">
<stop stop-color="#FC7244"/>
<stop offset="1" stop-color="#AC3B41"/>
</linearGradient>
<linearGradient id="paint5_linear_2003_287" x1="239.554" y1="686.984" x2="241.588" y2="685.826" gradientUnits="userSpaceOnUse">
<stop stop-color="#FC7244"/>
<stop offset="1" stop-color="#AC3B41"/>
</linearGradient>
<linearGradient id="paint6_linear_2003_287" x1="160.205" y1="738.807" x2="161.567" y2="738.031" gradientUnits="userSpaceOnUse">
<stop stop-color="#FC7244"/>
<stop offset="1" stop-color="#AC3B41"/>
</linearGradient>
<linearGradient id="paint7_linear_2003_287" x1="69.5769" y1="604.6" x2="71.1624" y2="603.697" gradientUnits="userSpaceOnUse">
<stop stop-color="#FC7244"/>
<stop offset="1" stop-color="#AC3B41"/>
</linearGradient>
<linearGradient id="paint8_linear_2003_287" x1="336.017" y1="184.713" x2="334.207" y2="185.743" gradientUnits="userSpaceOnUse">
<stop stop-color="#FC7244"/>
<stop offset="1" stop-color="#AC3B41"/>
</linearGradient>
<linearGradient id="paint9_linear_2003_287" x1="23.6595" y1="159.21" x2="22.0739" y2="160.113" gradientUnits="userSpaceOnUse">
<stop stop-color="#FC7244"/>
<stop offset="1" stop-color="#AC3B41"/>
</linearGradient>
<linearGradient id="paint10_linear_2003_287" x1="150.776" y1="200.256" x2="148.742" y2="201.413" gradientUnits="userSpaceOnUse">
<stop stop-color="#FC7244"/>
<stop offset="1" stop-color="#AC3B41"/>
</linearGradient>
<linearGradient id="paint11_linear_2003_287" x1="230.123" y1="148.429" x2="228.761" y2="149.204" gradientUnits="userSpaceOnUse">
<stop stop-color="#FC7244"/>
<stop offset="1" stop-color="#AC3B41"/>
</linearGradient>
<linearGradient id="paint12_linear_2003_287" x1="320.751" y1="282.636" x2="319.166" y2="283.539" gradientUnits="userSpaceOnUse">
<stop stop-color="#FC7244"/>
<stop offset="1" stop-color="#AC3B41"/>
</linearGradient>
<linearGradient id="paint13_linear_2003_287" x1="16.8549" y1="404.956" x2="14.1496" y2="406.496" gradientUnits="userSpaceOnUse">
<stop stop-color="#FC7244"/>
<stop offset="1" stop-color="#AC3B41"/>
</linearGradient>
<linearGradient id="paint14_linear_2003_287" x1="16.2962" y1="283.068" x2="14.7106" y2="283.971" gradientUnits="userSpaceOnUse">
<stop stop-color="#FC7244"/>
<stop offset="1" stop-color="#AC3B41"/>
</linearGradient>
<linearGradient id="paint15_linear_2003_287" x1="286.647" y1="595.12" x2="284.838" y2="594.09" gradientUnits="userSpaceOnUse">
<stop stop-color="#FC7244"/>
<stop offset="1" stop-color="#AC3B41"/>
</linearGradient>
<linearGradient id="paint16_linear_2003_287" x1="101.401" y1="579.576" x2="99.3675" y2="578.419" gradientUnits="userSpaceOnUse">
<stop stop-color="#FC7244"/>
<stop offset="1" stop-color="#AC3B41"/>
</linearGradient>
<linearGradient id="paint17_linear_2003_287" x1="180.752" y1="631.399" x2="179.39" y2="630.624" gradientUnits="userSpaceOnUse">
<stop stop-color="#FC7244"/>
<stop offset="1" stop-color="#AC3B41"/>
</linearGradient>
<linearGradient id="paint18_linear_2003_287" x1="271.376" y1="497.196" x2="269.791" y2="496.294" gradientUnits="userSpaceOnUse">
<stop stop-color="#FC7244"/>
<stop offset="1" stop-color="#AC3B41"/>
</linearGradient>
<clipPath id="clip0_2003_287">
<rect width="360" height="780" fill="white"/>
</clipPath>
</defs>
</svg>
