<svg width="768" height="1024" viewBox="0 0 768 1024" fill="none" xmlns="http://www.w3.org/2000/svg">
<g clip-path="url(#clip0_2003_145)">
<rect width="768" height="1024" fill="#1E042B"/>
<g filter="url(#filter0_f_2003_145)">
<circle cx="384" cy="512" r="185" fill="#DE4916" fill-opacity="0.38"/>
</g>
<g filter="url(#filter1_f_2003_145)">
<path d="M-5.05374 169.247L-4.41347 169.55C-3.97995 169.755 -3.48897 169.805 -3.02291 169.692C-2.21471 169.495 -1.6003 168.837 -1.45841 168.017L-1.21987 166.639C-0.906542 164.829 -2.37937 163.207 -4.21119 163.345C-5.62488 163.452 -6.73995 164.591 -6.8162 166.007L-6.83009 166.264C-6.89809 167.527 -6.19622 168.705 -5.05374 169.247Z" fill="#822540"/>
</g>
<g filter="url(#filter2_f_2003_145)">
<path d="M209.5 707.073L210.592 707.59C211.332 707.941 212.17 708.026 212.965 707.832C214.344 707.496 215.392 706.374 215.634 704.976L216.041 702.624C216.576 699.536 214.063 696.769 210.937 697.004C208.525 697.186 206.623 699.129 206.493 701.545L206.469 701.984C206.353 704.138 207.55 706.149 209.5 707.073Z" fill="#822540"/>
</g>
<g filter="url(#filter3_f_2003_145)">
<path d="M211.289 703.966L211.754 704.187C212.069 704.336 212.426 704.372 212.764 704.29C213.351 704.146 213.797 703.669 213.9 703.074L214.074 702.073C214.301 700.758 213.231 699.58 211.901 699.68C210.874 699.758 210.065 700.585 210.009 701.613L209.999 701.8C209.95 702.717 210.46 703.573 211.289 703.966Z" fill="url(#paint0_linear_2003_145)"/>
</g>
<g filter="url(#filter4_f_2003_145)">
<path d="M-4.29202 704.844L-3.65175 705.148C-3.21824 705.353 -2.72725 705.403 -2.26119 705.289C-1.45299 705.092 -0.838578 704.435 -0.696688 703.615L-0.45815 702.237C-0.144824 700.427 -1.61765 698.805 -3.44948 698.943C-4.86316 699.049 -5.97823 700.189 -6.05448 701.604L-6.06837 701.862C-6.13637 703.124 -5.43451 704.303 -4.29202 704.844Z" fill="#822540"/>
</g>
<g filter="url(#filter5_f_2003_145)">
<path d="M614.588 163.202L613.496 162.684C612.756 162.333 611.918 162.248 611.123 162.442C609.744 162.778 608.696 163.9 608.454 165.299L608.047 167.65C607.512 170.739 610.025 173.506 613.151 173.271C615.563 173.089 617.465 171.145 617.595 168.73L617.619 168.29C617.735 166.136 616.538 164.126 614.588 163.202Z" fill="#822540"/>
</g>
<g filter="url(#filter6_f_2003_145)">
<path d="M612.799 166.308L612.334 166.088C612.019 165.939 611.662 165.902 611.324 165.985C610.737 166.128 610.291 166.606 610.188 167.201L610.014 168.202C609.787 169.516 610.856 170.694 612.187 170.594C613.213 170.517 614.023 169.689 614.079 168.661L614.089 168.474C614.138 167.557 613.628 166.701 612.799 166.308Z" fill="url(#paint1_linear_2003_145)"/>
</g>
<g filter="url(#filter7_f_2003_145)">
<path d="M88.5675 242.07L89.2982 242.416C89.793 242.65 90.3533 242.708 90.8852 242.578C91.8075 242.353 92.5087 241.603 92.6707 240.667L92.9429 239.094C93.3005 237.029 91.6196 235.178 89.5291 235.335C87.9157 235.457 86.6431 236.757 86.5561 238.372L86.5402 238.666C86.4626 240.107 87.2636 241.452 88.5675 242.07Z" fill="#822540"/>
</g>
<g filter="url(#filter8_f_2003_145)">
<path d="M89.7647 239.992L90.0757 240.14C90.2863 240.24 90.5248 240.264 90.7512 240.209C91.1438 240.113 91.4423 239.794 91.5112 239.395L91.6271 238.726C91.7793 237.847 91.0638 237.059 90.174 237.126C89.4873 237.178 88.9456 237.731 88.9086 238.419L88.9018 238.544C88.8688 239.157 89.2097 239.729 89.7647 239.992Z" fill="url(#paint2_linear_2003_145)"/>
</g>
<g filter="url(#filter9_f_2003_145)">
<path d="M43.8291 790.934L44.4693 791.237C44.9029 791.443 45.3938 791.493 45.8599 791.379C46.6681 791.182 47.2825 790.525 47.4244 789.705L47.6629 788.327C47.9763 786.517 46.5034 784.895 44.6716 785.033C43.2579 785.139 42.1429 786.278 42.0666 787.694L42.0527 787.952C41.9847 789.214 42.6866 790.393 43.8291 790.934Z" fill="#822540"/>
</g>
<g filter="url(#filter10_f_2003_145)">
<path d="M44.8777 789.114L45.1502 789.243C45.3348 789.331 45.5437 789.352 45.7421 789.304C46.0861 789.22 46.3476 788.94 46.408 788.591L46.5096 788.004C46.6429 787.234 46.016 786.544 45.2363 786.602C44.6346 786.648 44.16 787.132 44.1275 787.735L44.1216 787.845C44.0927 788.382 44.3914 788.884 44.8777 789.114Z" fill="url(#paint3_linear_2003_145)"/>
</g>
<g filter="url(#filter11_f_2003_145)">
<path d="M115.782 568.598L116.604 568.987C117.16 569.251 117.789 569.315 118.387 569.169C119.424 568.916 120.212 568.073 120.393 567.022L120.699 565.254C121.101 562.933 119.212 560.853 116.863 561.03C115.05 561.166 113.62 562.627 113.522 564.443L113.504 564.773C113.417 566.393 114.317 567.904 115.782 568.598Z" fill="#822540"/>
</g>
<g filter="url(#filter12_f_2003_145)">
<path d="M117.126 566.263L117.476 566.429C117.712 566.541 117.98 566.568 118.235 566.506C118.676 566.399 119.011 566.04 119.089 565.592L119.219 564.84C119.39 563.852 118.586 562.967 117.586 563.042C116.815 563.1 116.206 563.722 116.164 564.495L116.157 564.635C116.119 565.325 116.503 565.968 117.126 566.263Z" fill="url(#paint4_linear_2003_145)"/>
</g>
<g filter="url(#filter13_f_2003_145)">
<path d="M24.991 427.076L25.5409 427.336C25.9132 427.513 26.3348 427.556 26.735 427.458C27.4291 427.289 27.9567 426.724 28.0785 426.02L28.2834 424.837C28.5525 423.282 27.2877 421.89 25.7146 422.008C24.5006 422.099 23.543 423.078 23.4775 424.293L23.4656 424.515C23.4072 425.599 24.0099 426.611 24.991 427.076Z" fill="#822540"/>
</g>
<g filter="url(#filter14_f_2003_145)">
<path d="M25.8911 425.512L26.1251 425.623C26.2836 425.698 26.4631 425.716 26.6334 425.674C26.9288 425.602 27.1534 425.362 27.2053 425.062L27.2925 424.559C27.407 423.897 26.8687 423.304 26.1991 423.355C25.6823 423.394 25.2748 423.81 25.2469 424.327L25.2418 424.422C25.217 424.883 25.4735 425.314 25.8911 425.512Z" fill="url(#paint5_linear_2003_145)"/>
</g>
<g filter="url(#filter15_f_2003_145)">
<path d="M260.962 268.289L261.602 268.593C262.036 268.798 262.527 268.848 262.993 268.735C263.801 268.538 264.415 267.88 264.557 267.06L264.796 265.682C265.109 263.872 263.636 262.25 261.804 262.388C260.391 262.495 259.276 263.634 259.199 265.049L259.186 265.307C259.118 266.57 259.819 267.748 260.962 268.289Z" fill="#822540"/>
</g>
<g filter="url(#filter16_f_2003_145)">
<path d="M262.011 266.469L262.283 266.598C262.468 266.686 262.677 266.707 262.875 266.659C263.219 266.575 263.48 266.295 263.541 265.946L263.642 265.359C263.776 264.589 263.149 263.899 262.369 263.957C261.767 264.003 261.293 264.487 261.26 265.09L261.254 265.2C261.225 265.737 261.524 266.239 262.011 266.469Z" fill="url(#paint6_linear_2003_145)"/>
</g>
<g filter="url(#filter17_f_2003_145)">
<path d="M475.515 806.116L476.608 806.633C477.347 806.984 478.185 807.069 478.98 806.875C480.359 806.539 481.408 805.417 481.65 804.019L482.057 801.667C482.591 798.579 480.078 795.812 476.953 796.047C474.541 796.228 472.638 798.172 472.508 800.587L472.484 801.027C472.368 803.181 473.566 805.192 475.515 806.116Z" fill="#822540"/>
</g>
<g filter="url(#filter18_f_2003_145)">
<path d="M477.305 803.009L477.77 803.23C478.085 803.379 478.441 803.415 478.78 803.333C479.367 803.189 479.813 802.712 479.916 802.117L480.089 801.116C480.317 799.801 479.247 798.623 477.917 798.723C476.89 798.801 476.08 799.628 476.025 800.656L476.015 800.843C475.965 801.76 476.475 802.616 477.305 803.009Z" fill="url(#paint7_linear_2003_145)"/>
</g>
<g filter="url(#filter19_f_2003_145)">
<path d="M261.724 803.886L262.364 804.19C262.797 804.395 263.288 804.445 263.754 804.331C264.563 804.134 265.177 803.477 265.319 802.657L265.557 801.279C265.871 799.469 264.398 797.847 262.566 797.985C261.152 798.091 260.037 799.231 259.961 800.646L259.947 800.904C259.879 802.166 260.581 803.345 261.724 803.886Z" fill="#822540"/>
</g>
<g filter="url(#filter20_f_2003_145)">
<path d="M262.772 802.066L263.045 802.195C263.229 802.283 263.438 802.304 263.637 802.256C263.981 802.172 264.242 801.892 264.303 801.543L264.404 800.957C264.537 800.186 263.911 799.496 263.131 799.554C262.529 799.6 262.055 800.085 262.022 800.687L262.016 800.797C261.987 801.334 262.286 801.836 262.772 802.066Z" fill="url(#paint8_linear_2003_145)"/>
</g>
<g filter="url(#filter21_f_2003_145)">
<path d="M640.198 355.144L639.558 355.447C639.124 355.653 638.634 355.703 638.167 355.589C637.359 355.392 636.745 354.735 636.603 353.915L636.364 352.537C636.051 350.727 637.524 349.105 639.356 349.243C640.769 349.349 641.884 350.488 641.961 351.904L641.975 352.162C642.043 353.424 641.341 354.603 640.198 355.144Z" fill="#822540"/>
</g>
<g filter="url(#filter22_f_2003_145)">
<path d="M639.15 353.323L638.877 353.452C638.693 353.54 638.484 353.561 638.285 353.513C637.941 353.429 637.68 353.149 637.619 352.8L637.518 352.213C637.384 351.443 638.011 350.753 638.791 350.811C639.393 350.857 639.867 351.341 639.9 351.944L639.906 352.054C639.935 352.591 639.636 353.093 639.15 353.323Z" fill="url(#paint9_linear_2003_145)"/>
</g>
<g filter="url(#filter23_f_2003_145)">
<path d="M425.645 892.969L424.552 893.487C423.813 893.837 422.975 893.923 422.18 893.729C420.801 893.393 419.752 892.271 419.51 890.872L419.103 888.521C418.569 885.432 421.082 882.665 424.207 882.9C426.619 883.082 428.522 885.026 428.652 887.441L428.676 887.881C428.792 890.035 427.594 892.045 425.645 892.969Z" fill="#822540"/>
</g>
<g filter="url(#filter24_f_2003_145)">
<path d="M423.855 889.863L423.39 890.083C423.075 890.232 422.719 890.269 422.38 890.186C421.793 890.043 421.347 889.565 421.244 888.97L421.071 887.969C420.843 886.655 421.913 885.477 423.243 885.577C424.27 885.654 425.08 886.482 425.135 887.51L425.145 887.697C425.195 888.614 424.685 889.469 423.855 889.863Z" fill="url(#paint10_linear_2003_145)"/>
</g>
<g filter="url(#filter25_f_2003_145)">
<path d="M639.437 890.74L638.796 891.043C638.363 891.249 637.872 891.299 637.406 891.185C636.598 890.988 635.983 890.33 635.841 889.511L635.603 888.133C635.289 886.322 636.762 884.701 638.594 884.838C640.008 884.945 641.123 886.084 641.199 887.5L641.213 887.757C641.281 889.02 640.579 890.198 639.437 890.74Z" fill="#822540"/>
</g>
<g filter="url(#filter26_f_2003_145)">
<path d="M638.388 888.92L638.115 889.049C637.931 889.136 637.722 889.158 637.524 889.109C637.18 889.025 636.918 888.746 636.858 888.397L636.756 887.81C636.623 887.04 637.25 886.349 638.029 886.408C638.631 886.453 639.106 886.938 639.138 887.541L639.144 887.65C639.173 888.188 638.874 888.689 638.388 888.92Z" fill="url(#paint11_linear_2003_145)"/>
</g>
</g>
<defs>
<filter id="filter0_f_2003_145" x="-361" y="-233" width="1490" height="1490" filterUnits="userSpaceOnUse" color-interpolation-filters="sRGB">
<feFlood flood-opacity="0" result="BackgroundImageFix"/>
<feBlend mode="normal" in="SourceGraphic" in2="BackgroundImageFix" result="shape"/>
<feGaussianBlur stdDeviation="280" result="effect1_foregroundBlur_2003_145"/>
</filter>
<filter id="filter1_f_2003_145" x="-12.854" y="157.317" width="17.6962" height="18.4545" filterUnits="userSpaceOnUse" color-interpolation-filters="sRGB">
<feFlood flood-opacity="0" result="BackgroundImageFix"/>
<feBlend mode="normal" in="SourceGraphic" in2="BackgroundImageFix" result="shape"/>
<feGaussianBlur stdDeviation="3.00999" result="effect1_foregroundBlur_2003_145"/>
</filter>
<filter id="filter2_f_2003_145" x="196.189" y="686.719" width="30.1953" height="31.4863" filterUnits="userSpaceOnUse" color-interpolation-filters="sRGB">
<feFlood flood-opacity="0" result="BackgroundImageFix"/>
<feBlend mode="normal" in="SourceGraphic" in2="BackgroundImageFix" result="shape"/>
<feGaussianBlur stdDeviation="5.13573" result="effect1_foregroundBlur_2003_145"/>
</filter>
<filter id="filter3_f_2003_145" x="208.969" y="698.648" width="6.16171" height="6.7125" filterUnits="userSpaceOnUse" color-interpolation-filters="sRGB">
<feFlood flood-opacity="0" result="BackgroundImageFix"/>
<feBlend mode="normal" in="SourceGraphic" in2="BackgroundImageFix" result="shape"/>
<feGaussianBlur stdDeviation="0.513573" result="effect1_foregroundBlur_2003_145"/>
</filter>
<filter id="filter4_f_2003_145" x="-12.0922" y="692.915" width="17.6962" height="18.454" filterUnits="userSpaceOnUse" color-interpolation-filters="sRGB">
<feFlood flood-opacity="0" result="BackgroundImageFix"/>
<feBlend mode="normal" in="SourceGraphic" in2="BackgroundImageFix" result="shape"/>
<feGaussianBlur stdDeviation="3.00999" result="effect1_foregroundBlur_2003_145"/>
</filter>
<filter id="filter5_f_2003_145" x="597.703" y="152.069" width="30.1953" height="31.4873" filterUnits="userSpaceOnUse" color-interpolation-filters="sRGB">
<feFlood flood-opacity="0" result="BackgroundImageFix"/>
<feBlend mode="normal" in="SourceGraphic" in2="BackgroundImageFix" result="shape"/>
<feGaussianBlur stdDeviation="5.13573" result="effect1_foregroundBlur_2003_145"/>
</filter>
<filter id="filter6_f_2003_145" x="608.957" y="164.914" width="6.16171" height="6.71298" filterUnits="userSpaceOnUse" color-interpolation-filters="sRGB">
<feFlood flood-opacity="0" result="BackgroundImageFix"/>
<feBlend mode="normal" in="SourceGraphic" in2="BackgroundImageFix" result="shape"/>
<feGaussianBlur stdDeviation="0.513573" result="effect1_foregroundBlur_2003_145"/>
</filter>
<filter id="filter7_f_2003_145" x="79.6649" y="228.455" width="20.1956" height="21.0609" filterUnits="userSpaceOnUse" color-interpolation-filters="sRGB">
<feFlood flood-opacity="0" result="BackgroundImageFix"/>
<feBlend mode="normal" in="SourceGraphic" in2="BackgroundImageFix" result="shape"/>
<feGaussianBlur stdDeviation="3.43514" result="effect1_foregroundBlur_2003_145"/>
</filter>
<filter id="filter8_f_2003_145" x="88.2134" y="236.435" width="4.1221" height="4.48978" filterUnits="userSpaceOnUse" color-interpolation-filters="sRGB">
<feFlood flood-opacity="0" result="BackgroundImageFix"/>
<feBlend mode="normal" in="SourceGraphic" in2="BackgroundImageFix" result="shape"/>
<feGaussianBlur stdDeviation="0.343514" result="effect1_foregroundBlur_2003_145"/>
</filter>
<filter id="filter9_f_2003_145" x="36.0289" y="779.004" width="17.6962" height="18.454" filterUnits="userSpaceOnUse" color-interpolation-filters="sRGB">
<feFlood flood-opacity="0" result="BackgroundImageFix"/>
<feBlend mode="normal" in="SourceGraphic" in2="BackgroundImageFix" result="shape"/>
<feGaussianBlur stdDeviation="3.00999" result="effect1_foregroundBlur_2003_145"/>
</filter>
<filter id="filter10_f_2003_145" x="43.5171" y="785.997" width="3.6122" height="3.93446" filterUnits="userSpaceOnUse" color-interpolation-filters="sRGB">
<feFlood flood-opacity="0" result="BackgroundImageFix"/>
<feBlend mode="normal" in="SourceGraphic" in2="BackgroundImageFix" result="shape"/>
<feGaussianBlur stdDeviation="0.300999" result="effect1_foregroundBlur_2003_145"/>
</filter>
<filter id="filter11_f_2003_145" x="105.777" y="553.299" width="22.697" height="23.6667" filterUnits="userSpaceOnUse" color-interpolation-filters="sRGB">
<feFlood flood-opacity="0" result="BackgroundImageFix"/>
<feBlend mode="normal" in="SourceGraphic" in2="BackgroundImageFix" result="shape"/>
<feGaussianBlur stdDeviation="3.86028" result="effect1_foregroundBlur_2003_145"/>
</filter>
<filter id="filter12_f_2003_145" x="115.382" y="562.265" width="4.632" height="5.04607" filterUnits="userSpaceOnUse" color-interpolation-filters="sRGB">
<feFlood flood-opacity="0" result="BackgroundImageFix"/>
<feBlend mode="normal" in="SourceGraphic" in2="BackgroundImageFix" result="shape"/>
<feGaussianBlur stdDeviation="0.386028" result="effect1_foregroundBlur_2003_145"/>
</filter>
<filter id="filter13_f_2003_145" x="18.2913" y="416.831" width="15.1987" height="15.8472" filterUnits="userSpaceOnUse" color-interpolation-filters="sRGB">
<feFlood flood-opacity="0" result="BackgroundImageFix"/>
<feBlend mode="normal" in="SourceGraphic" in2="BackgroundImageFix" result="shape"/>
<feGaussianBlur stdDeviation="2.58484" result="effect1_foregroundBlur_2003_145"/>
</filter>
<filter id="filter14_f_2003_145" x="24.7233" y="422.835" width="3.10229" height="3.37866" filterUnits="userSpaceOnUse" color-interpolation-filters="sRGB">
<feFlood flood-opacity="0" result="BackgroundImageFix"/>
<feBlend mode="normal" in="SourceGraphic" in2="BackgroundImageFix" result="shape"/>
<feGaussianBlur stdDeviation="0.258484" result="effect1_foregroundBlur_2003_145"/>
</filter>
<filter id="filter15_f_2003_145" x="253.162" y="256.36" width="17.6962" height="18.4545" filterUnits="userSpaceOnUse" color-interpolation-filters="sRGB">
<feFlood flood-opacity="0" result="BackgroundImageFix"/>
<feBlend mode="normal" in="SourceGraphic" in2="BackgroundImageFix" result="shape"/>
<feGaussianBlur stdDeviation="3.00999" result="effect1_foregroundBlur_2003_145"/>
</filter>
<filter id="filter16_f_2003_145" x="260.65" y="263.352" width="3.6122" height="3.93446" filterUnits="userSpaceOnUse" color-interpolation-filters="sRGB">
<feFlood flood-opacity="0" result="BackgroundImageFix"/>
<feBlend mode="normal" in="SourceGraphic" in2="BackgroundImageFix" result="shape"/>
<feGaussianBlur stdDeviation="0.300999" result="effect1_foregroundBlur_2003_145"/>
</filter>
<filter id="filter17_f_2003_145" x="462.205" y="785.762" width="30.1953" height="31.4863" filterUnits="userSpaceOnUse" color-interpolation-filters="sRGB">
<feFlood flood-opacity="0" result="BackgroundImageFix"/>
<feBlend mode="normal" in="SourceGraphic" in2="BackgroundImageFix" result="shape"/>
<feGaussianBlur stdDeviation="5.13573" result="effect1_foregroundBlur_2003_145"/>
</filter>
<filter id="filter18_f_2003_145" x="474.985" y="797.691" width="6.16171" height="6.7125" filterUnits="userSpaceOnUse" color-interpolation-filters="sRGB">
<feFlood flood-opacity="0" result="BackgroundImageFix"/>
<feBlend mode="normal" in="SourceGraphic" in2="BackgroundImageFix" result="shape"/>
<feGaussianBlur stdDeviation="0.513573" result="effect1_foregroundBlur_2003_145"/>
</filter>
<filter id="filter19_f_2003_145" x="253.923" y="791.957" width="17.6962" height="18.454" filterUnits="userSpaceOnUse" color-interpolation-filters="sRGB">
<feFlood flood-opacity="0" result="BackgroundImageFix"/>
<feBlend mode="normal" in="SourceGraphic" in2="BackgroundImageFix" result="shape"/>
<feGaussianBlur stdDeviation="3.00999" result="effect1_foregroundBlur_2003_145"/>
</filter>
<filter id="filter20_f_2003_145" x="261.412" y="798.949" width="3.6122" height="3.93446" filterUnits="userSpaceOnUse" color-interpolation-filters="sRGB">
<feFlood flood-opacity="0" result="BackgroundImageFix"/>
<feBlend mode="normal" in="SourceGraphic" in2="BackgroundImageFix" result="shape"/>
<feGaussianBlur stdDeviation="0.300999" result="effect1_foregroundBlur_2003_145"/>
</filter>
<filter id="filter21_f_2003_145" x="630.302" y="343.214" width="17.6962" height="18.454" filterUnits="userSpaceOnUse" color-interpolation-filters="sRGB">
<feFlood flood-opacity="0" result="BackgroundImageFix"/>
<feBlend mode="normal" in="SourceGraphic" in2="BackgroundImageFix" result="shape"/>
<feGaussianBlur stdDeviation="3.00999" result="effect1_foregroundBlur_2003_145"/>
</filter>
<filter id="filter22_f_2003_145" x="636.898" y="350.206" width="3.6122" height="3.93446" filterUnits="userSpaceOnUse" color-interpolation-filters="sRGB">
<feFlood flood-opacity="0" result="BackgroundImageFix"/>
<feBlend mode="normal" in="SourceGraphic" in2="BackgroundImageFix" result="shape"/>
<feGaussianBlur stdDeviation="0.300999" result="effect1_foregroundBlur_2003_145"/>
</filter>
<filter id="filter23_f_2003_145" x="408.76" y="872.615" width="30.1953" height="31.4863" filterUnits="userSpaceOnUse" color-interpolation-filters="sRGB">
<feFlood flood-opacity="0" result="BackgroundImageFix"/>
<feBlend mode="normal" in="SourceGraphic" in2="BackgroundImageFix" result="shape"/>
<feGaussianBlur stdDeviation="5.13573" result="effect1_foregroundBlur_2003_145"/>
</filter>
<filter id="filter24_f_2003_145" x="420.014" y="884.544" width="6.16171" height="6.7125" filterUnits="userSpaceOnUse" color-interpolation-filters="sRGB">
<feFlood flood-opacity="0" result="BackgroundImageFix"/>
<feBlend mode="normal" in="SourceGraphic" in2="BackgroundImageFix" result="shape"/>
<feGaussianBlur stdDeviation="0.513573" result="effect1_foregroundBlur_2003_145"/>
</filter>
<filter id="filter25_f_2003_145" x="629.541" y="878.81" width="17.6962" height="18.454" filterUnits="userSpaceOnUse" color-interpolation-filters="sRGB">
<feFlood flood-opacity="0" result="BackgroundImageFix"/>
<feBlend mode="normal" in="SourceGraphic" in2="BackgroundImageFix" result="shape"/>
<feGaussianBlur stdDeviation="3.00999" result="effect1_foregroundBlur_2003_145"/>
</filter>
<filter id="filter26_f_2003_145" x="636.136" y="885.802" width="3.6122" height="3.93446" filterUnits="userSpaceOnUse" color-interpolation-filters="sRGB">
<feFlood flood-opacity="0" result="BackgroundImageFix"/>
<feBlend mode="normal" in="SourceGraphic" in2="BackgroundImageFix" result="shape"/>
<feGaussianBlur stdDeviation="0.300999" result="effect1_foregroundBlur_2003_145"/>
</filter>
<linearGradient id="paint0_linear_2003_145" x1="211.021" y1="699.295" x2="213.731" y2="704.054" gradientUnits="userSpaceOnUse">
<stop stop-color="#FC7244"/>
<stop offset="1" stop-color="#AC3B41"/>
</linearGradient>
<linearGradient id="paint1_linear_2003_145" x1="613.067" y1="170.98" x2="610.357" y2="166.221" gradientUnits="userSpaceOnUse">
<stop stop-color="#FC7244"/>
<stop offset="1" stop-color="#AC3B41"/>
</linearGradient>
<linearGradient id="paint2_linear_2003_145" x1="89.5855" y1="236.868" x2="91.3977" y2="240.051" gradientUnits="userSpaceOnUse">
<stop stop-color="#FC7244"/>
<stop offset="1" stop-color="#AC3B41"/>
</linearGradient>
<linearGradient id="paint3_linear_2003_145" x1="44.7207" y1="786.376" x2="46.3086" y2="789.165" gradientUnits="userSpaceOnUse">
<stop stop-color="#FC7244"/>
<stop offset="1" stop-color="#AC3B41"/>
</linearGradient>
<linearGradient id="paint4_linear_2003_145" x1="116.925" y1="562.752" x2="118.961" y2="566.329" gradientUnits="userSpaceOnUse">
<stop stop-color="#FC7244"/>
<stop offset="1" stop-color="#AC3B41"/>
</linearGradient>
<linearGradient id="paint5_linear_2003_145" x1="25.7563" y1="423.16" x2="27.1199" y2="425.556" gradientUnits="userSpaceOnUse">
<stop stop-color="#FC7244"/>
<stop offset="1" stop-color="#AC3B41"/>
</linearGradient>
<linearGradient id="paint6_linear_2003_145" x1="261.853" y1="263.731" x2="263.441" y2="266.52" gradientUnits="userSpaceOnUse">
<stop stop-color="#FC7244"/>
<stop offset="1" stop-color="#AC3B41"/>
</linearGradient>
<linearGradient id="paint7_linear_2003_145" x1="477.037" y1="798.338" x2="479.746" y2="803.097" gradientUnits="userSpaceOnUse">
<stop stop-color="#FC7244"/>
<stop offset="1" stop-color="#AC3B41"/>
</linearGradient>
<linearGradient id="paint8_linear_2003_145" x1="262.615" y1="799.328" x2="264.203" y2="802.118" gradientUnits="userSpaceOnUse">
<stop stop-color="#FC7244"/>
<stop offset="1" stop-color="#AC3B41"/>
</linearGradient>
<linearGradient id="paint9_linear_2003_145" x1="639.307" y1="350.585" x2="637.719" y2="353.374" gradientUnits="userSpaceOnUse">
<stop stop-color="#FC7244"/>
<stop offset="1" stop-color="#AC3B41"/>
</linearGradient>
<linearGradient id="paint10_linear_2003_145" x1="424.123" y1="885.191" x2="421.414" y2="889.95" gradientUnits="userSpaceOnUse">
<stop stop-color="#FC7244"/>
<stop offset="1" stop-color="#AC3B41"/>
</linearGradient>
<linearGradient id="paint11_linear_2003_145" x1="638.545" y1="886.182" x2="636.957" y2="888.971" gradientUnits="userSpaceOnUse">
<stop stop-color="#FC7244"/>
<stop offset="1" stop-color="#AC3B41"/>
</linearGradient>
<clipPath id="clip0_2003_145">
<rect width="768" height="1024" fill="white"/>
</clipPath>
</defs>
</svg>
