<svg width="465" height="179" viewBox="0 0 465 179" fill="none" xmlns="http://www.w3.org/2000/svg">
<path fill-rule="evenodd" clip-rule="evenodd" d="M236.749 153.501C273.169 153.501 302.694 123.976 302.694 87.5557C302.694 51.135 273.169 21.6102 236.749 21.6102C200.328 21.6102 170.803 51.135 170.803 87.5557C170.803 123.976 200.328 153.501 236.749 153.501ZM236.749 161.238C277.442 161.238 310.431 128.249 310.431 87.5557C310.431 46.8622 277.442 13.8735 236.749 13.8735C196.055 13.8735 163.066 46.8622 163.066 87.5557C163.066 128.249 196.055 161.238 236.749 161.238Z" fill="url(#paint0_angular_338_60587)"/>
<path fill-rule="evenodd" clip-rule="evenodd" d="M236.749 153.501C273.169 153.501 302.694 123.976 302.694 87.5557C302.694 51.135 273.169 21.6102 236.749 21.6102C200.328 21.6102 170.803 51.135 170.803 87.5557C170.803 123.976 200.328 153.501 236.749 153.501ZM236.749 161.238C277.442 161.238 310.431 128.249 310.431 87.5557C310.431 46.8622 277.442 13.8735 236.749 13.8735C196.055 13.8735 163.066 46.8622 163.066 87.5557C163.066 128.249 196.055 161.238 236.749 161.238Z" fill="url(#paint1_angular_338_60587)"/>
<path fill-rule="evenodd" clip-rule="evenodd" d="M229.88 139.645C241.28 132.34 253.386 119.525 263.071 102.751C272.755 85.9766 277.8 69.0843 278.427 55.5594C279.074 41.5941 275.068 33.5303 269.741 30.4547C264.414 27.3791 255.428 27.9422 243.657 35.4851C232.258 42.7901 220.151 55.6055 210.466 72.3796C200.782 89.1538 195.737 106.046 195.11 119.571C194.463 133.536 198.469 141.6 203.796 144.676C209.123 147.751 218.109 147.188 229.88 139.645ZM199.928 151.376C218.154 161.899 249.424 141.861 269.771 106.619C290.118 71.3774 291.836 34.2777 273.61 23.7546C255.383 13.2314 224.113 33.2697 203.766 68.5113C183.42 103.753 181.701 140.853 199.928 151.376Z" fill="url(#paint2_angular_338_60587)"/>
<path fill-rule="evenodd" clip-rule="evenodd" d="M206.682 131.932C220.493 131.932 237.505 127.327 254.165 117.708C270.824 108.09 283.319 95.6591 290.224 83.6989C297.247 71.5345 297.78 61.3605 293.873 54.5941C289.966 47.8277 280.889 43.2021 266.843 43.202C253.032 43.202 236.02 47.8072 219.36 57.4255C202.701 67.0438 190.206 79.4746 183.301 91.4349C176.278 103.599 175.745 113.773 179.652 120.54C183.559 127.306 192.636 131.932 206.682 131.932ZM172.952 124.408C184.699 144.755 222.791 144.755 258.033 124.408C293.275 104.062 312.321 71.0728 300.573 50.7258C288.826 30.3788 250.734 30.3786 215.492 50.7254C180.25 71.0721 161.205 104.061 172.952 124.408Z" fill="url(#paint3_angular_338_60587)"/>
<path fill-rule="evenodd" clip-rule="evenodd" d="M180.586 89.4891C186.76 102.566 198.671 115.612 215.1 125.097C231.529 134.582 248.783 138.375 263.194 137.183C277.642 135.988 288.452 129.938 293.878 120.541C299.303 111.144 299.138 98.7569 292.948 85.6475C286.774 72.5708 274.863 59.5248 258.434 50.0397C242.006 40.5545 224.752 36.762 210.34 37.9536C195.892 39.1482 185.082 45.1986 179.657 54.5955C174.231 63.9924 174.397 76.3798 180.586 89.4891ZM172.957 50.7272C158.854 75.1541 175.99 111.45 211.232 131.797C246.473 152.144 286.475 148.836 300.578 124.409C314.681 99.9825 297.544 63.6863 262.303 43.3396C227.061 22.9928 187.059 26.3004 172.957 50.7272Z" fill="url(#paint4_angular_338_60587)"/>
<path d="M233.89 93.898V93.5348C233.899 91.8495 234.057 90.5087 234.365 89.5123C234.681 88.516 235.128 87.7152 235.705 87.11C236.283 86.4955 236.986 85.9321 237.814 85.42C238.382 85.0662 238.89 84.6797 239.337 84.2607C239.793 83.8324 240.152 83.3575 240.412 82.8361C240.673 82.3053 240.803 81.7141 240.803 81.0623C240.803 80.3267 240.631 79.6889 240.287 79.1488C239.942 78.6087 239.477 78.1897 238.89 77.8918C238.313 77.5938 237.665 77.4448 236.948 77.4448C236.287 77.4448 235.659 77.5891 235.063 77.8778C234.476 78.1571 233.987 78.5855 233.596 79.1628C233.215 79.7308 233 80.4524 232.954 81.3277H227.982C228.028 79.5585 228.457 78.078 229.267 76.8861C230.086 75.6943 231.166 74.8004 232.507 74.2045C233.857 73.6085 235.347 73.3106 236.976 73.3106C238.755 73.3106 240.319 73.6225 241.669 74.2464C243.029 74.8702 244.086 75.7595 244.84 76.9141C245.603 78.0594 245.985 79.4188 245.985 80.9924C245.985 82.0539 245.813 83.0037 245.468 83.8417C245.133 84.6797 244.654 85.4247 244.03 86.0764C243.406 86.7282 242.666 87.3102 241.809 87.8223C241.055 88.2879 240.436 88.7721 239.951 89.2749C239.477 89.7777 239.123 90.369 238.89 91.0487C238.666 91.7191 238.55 92.5478 238.541 93.5348V93.898H233.89ZM236.32 102.613C235.482 102.613 234.76 102.315 234.155 101.72C233.55 101.124 233.247 100.397 233.247 99.5407C233.247 98.7027 233.55 97.9857 234.155 97.3898C234.76 96.7938 235.482 96.4959 236.32 96.4959C237.149 96.4959 237.866 96.7938 238.471 97.3898C239.085 97.9857 239.393 98.7027 239.393 99.5407C239.393 100.109 239.248 100.625 238.96 101.091C238.68 101.557 238.308 101.929 237.842 102.208C237.386 102.478 236.879 102.613 236.32 102.613Z" fill="#F3CFFF"/>
<path d="M71.4769 160.823V128.829H0V116.283L74.2424 13.4019H88.7079V114.819H111.683V128.829H88.7079V160.823H71.4769ZM71.4769 114.819V33.8944H76.1569L14.4656 119.21V114.819H71.4769Z" fill="#F3CFFF"/>
<path d="M424.395 160.823V128.829H352.918V116.283L427.16 13.4019H441.626V114.819H464.601V128.829H441.626V160.823H424.395ZM424.395 114.819V33.8944H429.075L367.384 119.21V114.819H424.395Z" fill="#F3CFFF"/>
<defs>
<radialGradient id="paint0_angular_338_60587" cx="0" cy="0" r="1" gradientUnits="userSpaceOnUse" gradientTransform="translate(236.749 87.5557) rotate(45) scale(79.7148)">
<stop offset="0.0269499" stop-color="#F3CFFF"/>
<stop offset="0.224318" stop-color="#F3CFFF"/>
<stop offset="0.424397" stop-color="#F3CFFF" stop-opacity="0"/>
<stop offset="0.492824" stop-color="#F3CFFF" stop-opacity="0"/>
<stop offset="0.76105" stop-color="#F3CFFF"/>
<stop offset="0.864444" stop-color="#F3CFFF"/>
</radialGradient>
<radialGradient id="paint1_angular_338_60587" cx="0" cy="0" r="1" gradientUnits="userSpaceOnUse" gradientTransform="translate(236.749 87.5557) rotate(45) scale(79.7148)">
<stop offset="0.0269499" stop-color="#F3CFFF"/>
<stop offset="0.224318" stop-color="#F3CFFF"/>
<stop offset="0.361518" stop-color="#F3CFFF" stop-opacity="0"/>
<stop offset="0.465013" stop-color="#F3CFFF" stop-opacity="0"/>
<stop offset="0.565022" stop-color="#F3CFFF" stop-opacity="0"/>
<stop offset="0.76105" stop-color="#F3CFFF"/>
<stop offset="0.864444" stop-color="#F3CFFF"/>
</radialGradient>
<radialGradient id="paint2_angular_338_60587" cx="0" cy="0" r="1" gradientUnits="userSpaceOnUse" gradientTransform="translate(236.769 87.5652) rotate(120) scale(73.6822 38.1077)">
<stop stop-color="#F3CFFF"/>
<stop offset="0.485" stop-color="#F3CFFF"/>
<stop offset="0.741768" stop-color="#F3CFFF" stop-opacity="0"/>
<stop offset="1" stop-color="#F3CFFF" stop-opacity="0"/>
</radialGradient>
<radialGradient id="paint3_angular_338_60587" cx="0" cy="0" r="1" gradientUnits="userSpaceOnUse" gradientTransform="translate(237.108 87.3691) rotate(151.777) scale(74.0075 128.183)">
<stop offset="0.0219535" stop-color="#F3CFFF" stop-opacity="0"/>
<stop offset="0.484341" stop-color="#F3CFFF"/>
<stop offset="0.869039" stop-color="#F3CFFF" stop-opacity="0"/>
</radialGradient>
<radialGradient id="paint4_angular_338_60587" cx="0" cy="0" r="1" gradientUnits="userSpaceOnUse" gradientTransform="translate(236.767 87.5683) rotate(120) scale(51.071 73.6822)">
<stop offset="0.348771" stop-color="#F3CFFF"/>
<stop offset="0.448731" stop-color="#F3CFFF" stop-opacity="0"/>
<stop offset="0.705" stop-color="#F3CFFF" stop-opacity="0"/>
<stop offset="0.81" stop-color="#F3CFFF"/>
</radialGradient>
</defs>
</svg>
