<svg width="768" height="1024" fill="none" xmlns="http://www.w3.org/2000/svg"><g clip-path="url(#a)"><path fill="#1E042B" d="M0 0h768v1024H0z"/><g filter="url(#b)"><circle cx="384" cy="512" r="185" fill="#DE4916" fill-opacity=".38"/></g><g filter="url(#c)"><path d="m-5.054 169.247.64.303a2.09 2.09 0 0 0 2.955-1.533l.24-1.378a2.82 2.82 0 1 0-5.597-.632l-.014.257a3.116 3.116 0 0 0 1.776 2.983Z" fill="#822540"/></g><g filter="url(#d)"><path d="m209.5 707.073 1.092.517a3.565 3.565 0 0 0 5.042-2.614l.407-2.352c.535-3.088-1.978-5.855-5.104-5.62a4.813 4.813 0 0 0-4.444 4.541l-.024.439a5.315 5.315 0 0 0 3.031 5.089Z" fill="#822540"/></g><g filter="url(#e)"><path d="m211.289 703.966.465.221a1.52 1.52 0 0 0 2.146-1.113l.174-1.001a2.05 2.05 0 1 0-4.065-.46l-.01.187a2.264 2.264 0 0 0 1.29 2.166Z" fill="url(#f)"/></g><g filter="url(#g)"><path d="m-4.292 704.844.64.304a2.09 2.09 0 0 0 2.955-1.533l.239-1.378a2.82 2.82 0 1 0-5.596-.633l-.014.258a3.114 3.114 0 0 0 1.776 2.982Z" fill="#822540"/></g><g filter="url(#h)"><path d="m614.588 163.202-1.092-.518a3.565 3.565 0 0 0-5.042 2.615l-.407 2.351a4.813 4.813 0 1 0 9.548 1.08l.024-.44a5.313 5.313 0 0 0-3.031-5.088Z" fill="#822540"/></g><g filter="url(#i)"><path d="m612.799 166.308-.465-.22a1.517 1.517 0 0 0-2.146 1.113l-.174 1.001a2.05 2.05 0 1 0 4.065.459l.01-.187a2.264 2.264 0 0 0-1.29-2.166Z" fill="url(#j)"/></g><g filter="url(#k)"><path d="m88.567 242.07.731.346a2.387 2.387 0 0 0 3.373-1.749l.272-1.573a3.22 3.22 0 1 0-6.387-.722l-.016.294a3.555 3.555 0 0 0 2.027 3.404Z" fill="#822540"/></g><g filter="url(#l)"><path d="m89.765 239.992.31.148a1.016 1.016 0 0 0 1.436-.745l.116-.669a1.37 1.37 0 1 0-2.718-.307l-.007.125a1.512 1.512 0 0 0 .863 1.448Z" fill="url(#m)"/></g><g filter="url(#n)"><path d="m43.83 790.934.64.303a2.09 2.09 0 0 0 2.955-1.532l.238-1.378a2.82 2.82 0 1 0-5.596-.633l-.014.258a3.115 3.115 0 0 0 1.776 2.982Z" fill="#822540"/></g><g filter="url(#o)"><path d="m44.878 789.114.272.129a.889.889 0 0 0 1.258-.652l.102-.587a1.201 1.201 0 1 0-2.383-.269l-.005.11c-.03.537.27 1.039.756 1.269Z" fill="url(#p)"/></g><g filter="url(#q)"><path d="m115.782 568.598.822.389a2.679 2.679 0 0 0 3.789-1.965l.306-1.768a3.617 3.617 0 1 0-7.177-.811l-.018.33a3.994 3.994 0 0 0 2.278 3.825Z" fill="#822540"/></g><g filter="url(#r)"><path d="m117.126 566.263.35.166a1.141 1.141 0 0 0 1.613-.837l.13-.752a1.54 1.54 0 1 0-3.055-.345l-.007.14c-.038.69.346 1.333.969 1.628Z" fill="url(#s)"/></g><g filter="url(#t)"><path d="m24.991 427.076.55.26a1.795 1.795 0 0 0 2.538-1.316l.204-1.183a2.423 2.423 0 1 0-4.806-.544l-.011.222a2.675 2.675 0 0 0 1.525 2.561Z" fill="#822540"/></g><g filter="url(#u)"><path d="m25.891 425.512.234.111a.764.764 0 0 0 1.08-.561l.088-.503a1.03 1.03 0 1 0-2.046-.232l-.005.095c-.025.461.232.892.65 1.09Z" fill="url(#v)"/></g><g filter="url(#w)"><path d="m260.962 268.289.64.304a2.09 2.09 0 0 0 2.955-1.533l.239-1.378a2.821 2.821 0 1 0-5.597-.633l-.013.258a3.112 3.112 0 0 0 1.776 2.982Z" fill="#822540"/></g><g filter="url(#x)"><path d="m262.011 266.469.272.129a.89.89 0 0 0 1.258-.652l.101-.587a1.2 1.2 0 1 0-2.382-.269l-.006.11c-.029.537.27 1.039.757 1.269Z" fill="url(#y)"/></g><g filter="url(#z)"><path d="m475.515 806.116 1.093.517a3.567 3.567 0 0 0 5.042-2.614l.407-2.352c.534-3.088-1.979-5.855-5.104-5.62a4.813 4.813 0 0 0-4.445 4.54l-.024.44a5.316 5.316 0 0 0 3.031 5.089Z" fill="#822540"/></g><g filter="url(#A)"><path d="m477.305 803.009.465.221a1.52 1.52 0 0 0 2.146-1.113l.173-1.001a2.049 2.049 0 1 0-4.064-.46l-.01.187a2.26 2.26 0 0 0 1.29 2.166Z" fill="url(#B)"/></g><g filter="url(#C)"><path d="m261.724 803.886.64.304a2.09 2.09 0 0 0 2.955-1.533l.238-1.378a2.82 2.82 0 1 0-5.596-.633l-.014.258a3.114 3.114 0 0 0 1.777 2.982Z" fill="#822540"/></g><g filter="url(#D)"><path d="m262.772 802.066.273.129a.889.889 0 0 0 1.258-.652l.101-.586a1.201 1.201 0 1 0-2.382-.27l-.006.11c-.029.537.27 1.039.756 1.269Z" fill="url(#E)"/></g><g filter="url(#F)"><path d="m640.198 355.144-.64.303a2.09 2.09 0 0 1-2.955-1.532l-.239-1.378a2.821 2.821 0 1 1 5.597-.633l.014.258a3.114 3.114 0 0 1-1.777 2.982Z" fill="#822540"/></g><g filter="url(#G)"><path d="m639.15 353.323-.273.129a.889.889 0 0 1-1.258-.652l-.101-.587a1.2 1.2 0 1 1 2.382-.269l.006.11a1.325 1.325 0 0 1-.756 1.269Z" fill="url(#H)"/></g><g filter="url(#I)"><path d="m425.645 892.969-1.093.518a3.568 3.568 0 0 1-5.042-2.615l-.407-2.351a4.814 4.814 0 1 1 9.549-1.08l.024.44a5.315 5.315 0 0 1-3.031 5.088Z" fill="#822540"/></g><g filter="url(#J)"><path d="m423.855 889.863-.465.22a1.517 1.517 0 0 1-2.146-1.113l-.173-1.001a2.048 2.048 0 1 1 4.064-.459l.01.187c.05.917-.46 1.772-1.29 2.166Z" fill="url(#K)"/></g><g filter="url(#L)"><path d="m639.437 890.74-.641.303a2.092 2.092 0 0 1-2.955-1.532l-.238-1.378a2.821 2.821 0 1 1 5.596-.633l.014.257a3.116 3.116 0 0 1-1.776 2.983Z" fill="#822540"/></g><g filter="url(#M)"><path d="m638.388 888.92-.273.129a.889.889 0 0 1-1.257-.652l-.102-.587a1.201 1.201 0 1 1 2.382-.269l.006.109a1.327 1.327 0 0 1-.756 1.27Z" fill="url(#N)"/></g></g><defs><filter id="b" x="-361" y="-233" width="1490" height="1490" filterUnits="userSpaceOnUse" color-interpolation-filters="sRGB"><feFlood flood-opacity="0" result="BackgroundImageFix"/><feBlend in="SourceGraphic" in2="BackgroundImageFix" result="shape"/><feGaussianBlur stdDeviation="280" result="effect1_foregroundBlur_2003_145"/></filter><filter id="c" x="-12.854" y="157.317" width="17.696" height="18.454" filterUnits="userSpaceOnUse" color-interpolation-filters="sRGB"><feFlood flood-opacity="0" result="BackgroundImageFix"/><feBlend in="SourceGraphic" in2="BackgroundImageFix" result="shape"/><feGaussianBlur stdDeviation="3.01" result="effect1_foregroundBlur_2003_145"/></filter><filter id="d" x="196.189" y="686.719" width="30.195" height="31.486" filterUnits="userSpaceOnUse" color-interpolation-filters="sRGB"><feFlood flood-opacity="0" result="BackgroundImageFix"/><feBlend in="SourceGraphic" in2="BackgroundImageFix" result="shape"/><feGaussianBlur stdDeviation="5.136" result="effect1_foregroundBlur_2003_145"/></filter><filter id="e" x="208.969" y="698.648" width="6.162" height="6.713" filterUnits="userSpaceOnUse" color-interpolation-filters="sRGB"><feFlood flood-opacity="0" result="BackgroundImageFix"/><feBlend in="SourceGraphic" in2="BackgroundImageFix" result="shape"/><feGaussianBlur stdDeviation=".514" result="effect1_foregroundBlur_2003_145"/></filter><filter id="g" x="-12.092" y="692.915" width="17.696" height="18.454" filterUnits="userSpaceOnUse" color-interpolation-filters="sRGB"><feFlood flood-opacity="0" result="BackgroundImageFix"/><feBlend in="SourceGraphic" in2="BackgroundImageFix" result="shape"/><feGaussianBlur stdDeviation="3.01" result="effect1_foregroundBlur_2003_145"/></filter><filter id="h" x="597.703" y="152.069" width="30.195" height="31.487" filterUnits="userSpaceOnUse" color-interpolation-filters="sRGB"><feFlood flood-opacity="0" result="BackgroundImageFix"/><feBlend in="SourceGraphic" in2="BackgroundImageFix" result="shape"/><feGaussianBlur stdDeviation="5.136" result="effect1_foregroundBlur_2003_145"/></filter><filter id="i" x="608.957" y="164.914" width="6.162" height="6.713" filterUnits="userSpaceOnUse" color-interpolation-filters="sRGB"><feFlood flood-opacity="0" result="BackgroundImageFix"/><feBlend in="SourceGraphic" in2="BackgroundImageFix" result="shape"/><feGaussianBlur stdDeviation=".514" result="effect1_foregroundBlur_2003_145"/></filter><filter id="k" x="79.665" y="228.455" width="20.196" height="21.061" filterUnits="userSpaceOnUse" color-interpolation-filters="sRGB"><feFlood flood-opacity="0" result="BackgroundImageFix"/><feBlend in="SourceGraphic" in2="BackgroundImageFix" result="shape"/><feGaussianBlur stdDeviation="3.435" result="effect1_foregroundBlur_2003_145"/></filter><filter id="l" x="88.213" y="236.435" width="4.122" height="4.49" filterUnits="userSpaceOnUse" color-interpolation-filters="sRGB"><feFlood flood-opacity="0" result="BackgroundImageFix"/><feBlend in="SourceGraphic" in2="BackgroundImageFix" result="shape"/><feGaussianBlur stdDeviation=".344" result="effect1_foregroundBlur_2003_145"/></filter><filter id="n" x="36.029" y="779.004" width="17.696" height="18.454" filterUnits="userSpaceOnUse" color-interpolation-filters="sRGB"><feFlood flood-opacity="0" result="BackgroundImageFix"/><feBlend in="SourceGraphic" in2="BackgroundImageFix" result="shape"/><feGaussianBlur stdDeviation="3.01" result="effect1_foregroundBlur_2003_145"/></filter><filter id="o" x="43.517" y="785.997" width="3.612" height="3.934" filterUnits="userSpaceOnUse" color-interpolation-filters="sRGB"><feFlood flood-opacity="0" result="BackgroundImageFix"/><feBlend in="SourceGraphic" in2="BackgroundImageFix" result="shape"/><feGaussianBlur stdDeviation=".301" result="effect1_foregroundBlur_2003_145"/></filter><filter id="q" x="105.777" y="553.299" width="22.697" height="23.667" filterUnits="userSpaceOnUse" color-interpolation-filters="sRGB"><feFlood flood-opacity="0" result="BackgroundImageFix"/><feBlend in="SourceGraphic" in2="BackgroundImageFix" result="shape"/><feGaussianBlur stdDeviation="3.86" result="effect1_foregroundBlur_2003_145"/></filter><filter id="r" x="115.382" y="562.265" width="4.632" height="5.046" filterUnits="userSpaceOnUse" color-interpolation-filters="sRGB"><feFlood flood-opacity="0" result="BackgroundImageFix"/><feBlend in="SourceGraphic" in2="BackgroundImageFix" result="shape"/><feGaussianBlur stdDeviation=".386" result="effect1_foregroundBlur_2003_145"/></filter><filter id="t" x="18.291" y="416.831" width="15.199" height="15.847" filterUnits="userSpaceOnUse" color-interpolation-filters="sRGB"><feFlood flood-opacity="0" result="BackgroundImageFix"/><feBlend in="SourceGraphic" in2="BackgroundImageFix" result="shape"/><feGaussianBlur stdDeviation="2.585" result="effect1_foregroundBlur_2003_145"/></filter><filter id="u" x="24.723" y="422.835" width="3.102" height="3.379" filterUnits="userSpaceOnUse" color-interpolation-filters="sRGB"><feFlood flood-opacity="0" result="BackgroundImageFix"/><feBlend in="SourceGraphic" in2="BackgroundImageFix" result="shape"/><feGaussianBlur stdDeviation=".258" result="effect1_foregroundBlur_2003_145"/></filter><filter id="w" x="253.162" y="256.36" width="17.696" height="18.454" filterUnits="userSpaceOnUse" color-interpolation-filters="sRGB"><feFlood flood-opacity="0" result="BackgroundImageFix"/><feBlend in="SourceGraphic" in2="BackgroundImageFix" result="shape"/><feGaussianBlur stdDeviation="3.01" result="effect1_foregroundBlur_2003_145"/></filter><filter id="x" x="260.65" y="263.352" width="3.612" height="3.934" filterUnits="userSpaceOnUse" color-interpolation-filters="sRGB"><feFlood flood-opacity="0" result="BackgroundImageFix"/><feBlend in="SourceGraphic" in2="BackgroundImageFix" result="shape"/><feGaussianBlur stdDeviation=".301" result="effect1_foregroundBlur_2003_145"/></filter><filter id="z" x="462.205" y="785.762" width="30.195" height="31.486" filterUnits="userSpaceOnUse" color-interpolation-filters="sRGB"><feFlood flood-opacity="0" result="BackgroundImageFix"/><feBlend in="SourceGraphic" in2="BackgroundImageFix" result="shape"/><feGaussianBlur stdDeviation="5.136" result="effect1_foregroundBlur_2003_145"/></filter><filter id="A" x="474.985" y="797.691" width="6.162" height="6.713" filterUnits="userSpaceOnUse" color-interpolation-filters="sRGB"><feFlood flood-opacity="0" result="BackgroundImageFix"/><feBlend in="SourceGraphic" in2="BackgroundImageFix" result="shape"/><feGaussianBlur stdDeviation=".514" result="effect1_foregroundBlur_2003_145"/></filter><filter id="C" x="253.923" y="791.957" width="17.696" height="18.454" filterUnits="userSpaceOnUse" color-interpolation-filters="sRGB"><feFlood flood-opacity="0" result="BackgroundImageFix"/><feBlend in="SourceGraphic" in2="BackgroundImageFix" result="shape"/><feGaussianBlur stdDeviation="3.01" result="effect1_foregroundBlur_2003_145"/></filter><filter id="D" x="261.412" y="798.949" width="3.612" height="3.934" filterUnits="userSpaceOnUse" color-interpolation-filters="sRGB"><feFlood flood-opacity="0" result="BackgroundImageFix"/><feBlend in="SourceGraphic" in2="BackgroundImageFix" result="shape"/><feGaussianBlur stdDeviation=".301" result="effect1_foregroundBlur_2003_145"/></filter><filter id="F" x="630.302" y="343.214" width="17.696" height="18.454" filterUnits="userSpaceOnUse" color-interpolation-filters="sRGB"><feFlood flood-opacity="0" result="BackgroundImageFix"/><feBlend in="SourceGraphic" in2="BackgroundImageFix" result="shape"/><feGaussianBlur stdDeviation="3.01" result="effect1_foregroundBlur_2003_145"/></filter><filter id="G" x="636.898" y="350.206" width="3.612" height="3.934" filterUnits="userSpaceOnUse" color-interpolation-filters="sRGB"><feFlood flood-opacity="0" result="BackgroundImageFix"/><feBlend in="SourceGraphic" in2="BackgroundImageFix" result="shape"/><feGaussianBlur stdDeviation=".301" result="effect1_foregroundBlur_2003_145"/></filter><filter id="I" x="408.76" y="872.615" width="30.195" height="31.486" filterUnits="userSpaceOnUse" color-interpolation-filters="sRGB"><feFlood flood-opacity="0" result="BackgroundImageFix"/><feBlend in="SourceGraphic" in2="BackgroundImageFix" result="shape"/><feGaussianBlur stdDeviation="5.136" result="effect1_foregroundBlur_2003_145"/></filter><filter id="J" x="420.014" y="884.544" width="6.162" height="6.713" filterUnits="userSpaceOnUse" color-interpolation-filters="sRGB"><feFlood flood-opacity="0" result="BackgroundImageFix"/><feBlend in="SourceGraphic" in2="BackgroundImageFix" result="shape"/><feGaussianBlur stdDeviation=".514" result="effect1_foregroundBlur_2003_145"/></filter><filter id="L" x="629.541" y="878.81" width="17.696" height="18.454" filterUnits="userSpaceOnUse" color-interpolation-filters="sRGB"><feFlood flood-opacity="0" result="BackgroundImageFix"/><feBlend in="SourceGraphic" in2="BackgroundImageFix" result="shape"/><feGaussianBlur stdDeviation="3.01" result="effect1_foregroundBlur_2003_145"/></filter><filter id="M" x="636.136" y="885.802" width="3.612" height="3.934" filterUnits="userSpaceOnUse" color-interpolation-filters="sRGB"><feFlood flood-opacity="0" result="BackgroundImageFix"/><feBlend in="SourceGraphic" in2="BackgroundImageFix" result="shape"/><feGaussianBlur stdDeviation=".301" result="effect1_foregroundBlur_2003_145"/></filter><linearGradient id="f" x1="211.021" y1="699.295" x2="213.731" y2="704.054" gradientUnits="userSpaceOnUse"><stop stop-color="#FC7244"/><stop offset="1" stop-color="#AC3B41"/></linearGradient><linearGradient id="j" x1="613.067" y1="170.98" x2="610.357" y2="166.221" gradientUnits="userSpaceOnUse"><stop stop-color="#FC7244"/><stop offset="1" stop-color="#AC3B41"/></linearGradient><linearGradient id="m" x1="89.585" y1="236.868" x2="91.398" y2="240.051" gradientUnits="userSpaceOnUse"><stop stop-color="#FC7244"/><stop offset="1" stop-color="#AC3B41"/></linearGradient><linearGradient id="p" x1="44.721" y1="786.376" x2="46.309" y2="789.165" gradientUnits="userSpaceOnUse"><stop stop-color="#FC7244"/><stop offset="1" stop-color="#AC3B41"/></linearGradient><linearGradient id="s" x1="116.925" y1="562.752" x2="118.961" y2="566.329" gradientUnits="userSpaceOnUse"><stop stop-color="#FC7244"/><stop offset="1" stop-color="#AC3B41"/></linearGradient><linearGradient id="v" x1="25.756" y1="423.16" x2="27.12" y2="425.556" gradientUnits="userSpaceOnUse"><stop stop-color="#FC7244"/><stop offset="1" stop-color="#AC3B41"/></linearGradient><linearGradient id="y" x1="261.853" y1="263.731" x2="263.441" y2="266.52" gradientUnits="userSpaceOnUse"><stop stop-color="#FC7244"/><stop offset="1" stop-color="#AC3B41"/></linearGradient><linearGradient id="B" x1="477.037" y1="798.338" x2="479.746" y2="803.097" gradientUnits="userSpaceOnUse"><stop stop-color="#FC7244"/><stop offset="1" stop-color="#AC3B41"/></linearGradient><linearGradient id="E" x1="262.615" y1="799.328" x2="264.203" y2="802.118" gradientUnits="userSpaceOnUse"><stop stop-color="#FC7244"/><stop offset="1" stop-color="#AC3B41"/></linearGradient><linearGradient id="H" x1="639.307" y1="350.585" x2="637.719" y2="353.374" gradientUnits="userSpaceOnUse"><stop stop-color="#FC7244"/><stop offset="1" stop-color="#AC3B41"/></linearGradient><linearGradient id="K" x1="424.123" y1="885.191" x2="421.414" y2="889.95" gradientUnits="userSpaceOnUse"><stop stop-color="#FC7244"/><stop offset="1" stop-color="#AC3B41"/></linearGradient><linearGradient id="N" x1="638.545" y1="886.182" x2="636.957" y2="888.971" gradientUnits="userSpaceOnUse"><stop stop-color="#FC7244"/><stop offset="1" stop-color="#AC3B41"/></linearGradient><clipPath id="a"><path fill="#fff" d="M0 0h768v1024H0z"/></clipPath></defs></svg>