<svg width="1920" height="972" fill="none" xmlns="http://www.w3.org/2000/svg"><g clip-path="url(#a)"><path fill="#1E042B" d="M0 0h1920v972H0z"/><g filter="url(#b)"><circle cx="964" cy="488" r="231" fill="#DE4916" fill-opacity=".38"/></g><g filter="url(#c)"><path d="m146.678 158.287.959.455a3.129 3.129 0 0 0 4.426-2.296l.358-2.064c.469-2.712-1.737-5.141-4.481-4.934a4.224 4.224 0 0 0-3.902 3.986l-.021.386a4.664 4.664 0 0 0 2.661 4.467Z" fill="#822540"/></g><g filter="url(#d)"><path d="m148.249 155.56.408.194a1.331 1.331 0 0 0 1.884-.977l.152-.879a1.798 1.798 0 1 0-3.568-.404l-.009.165a1.987 1.987 0 0 0 1.133 1.901Z" fill="url(#e)"/></g><g filter="url(#f)"><path d="m87.956 878.702.84.398a2.742 2.742 0 0 0 3.879-2.011l.313-1.809a3.703 3.703 0 1 0-7.346-.831l-.018.339a4.088 4.088 0 0 0 2.332 3.914Z" fill="#822540"/></g><g filter="url(#g)"><path d="m89.332 876.312.357.17a1.167 1.167 0 0 0 1.65-.856l.135-.77a1.576 1.576 0 1 0-3.127-.354l-.008.144a1.74 1.74 0 0 0 .993 1.666Z" fill="url(#h)"/></g><g filter="url(#i)"><path d="m182.4 586.872 1.078.511a3.52 3.52 0 0 0 4.974-2.58l.402-2.319c.527-3.047-1.952-5.777-5.036-5.545a4.749 4.749 0 0 0-4.385 4.479l-.023.434a5.243 5.243 0 0 0 2.99 5.02Z" fill="#822540"/></g><g filter="url(#j)"><path d="m184.165 583.808.458.218a1.498 1.498 0 0 0 2.118-1.098l.171-.988a2.021 2.021 0 1 0-4.01-.453l-.01.184a2.23 2.23 0 0 0 1.273 2.137Z" fill="url(#k)"/></g><g filter="url(#l)"><path d="m63.233 401.116.722.342a2.354 2.354 0 0 0 3.33-1.727l.27-1.553a3.18 3.18 0 1 0-6.309-.714l-.015.291a3.51 3.51 0 0 0 2.002 3.361Z" fill="#822540"/></g><g filter="url(#m)"><path d="m64.414 399.064.307.146a1.003 1.003 0 0 0 1.418-.735l.114-.662a1.353 1.353 0 1 0-2.684-.303l-.007.124a1.493 1.493 0 0 0 .852 1.43Z" fill="url(#n)"/></g><g filter="url(#o)"><path d="m372.955 192.702.841.398a2.743 2.743 0 0 0 3.879-2.011l.313-1.809a3.703 3.703 0 1 0-7.346-.831l-.018.339a4.089 4.089 0 0 0 2.331 3.914Z" fill="#822540"/></g><g filter="url(#p)"><path d="m374.332 190.312.357.17a1.166 1.166 0 0 0 1.651-.856l.133-.77a1.575 1.575 0 1 0-3.126-.354l-.008.144a1.74 1.74 0 0 0 .993 1.666Z" fill="url(#q)"/></g><g filter="url(#r)"><path d="m1847.95 139.044 2.13 1.009c1.44.682 3.07.848 4.62.471a6.942 6.942 0 0 0 5.19-5.563l.8-4.578c1.04-6.014-3.86-11.402-9.94-10.944a9.38 9.38 0 0 0-8.66 8.841l-.04.857a10.332 10.332 0 0 0 5.9 9.907Z" fill="#822540"/></g><g filter="url(#s)"><path d="m1851.43 132.996.91.429c.61.291 1.3.361 1.96.201a2.969 2.969 0 0 0 2.22-2.368l.33-1.949c.45-2.559-1.64-4.853-4.23-4.658a3.987 3.987 0 0 0-3.68 3.763l-.02.365c-.1 1.785.9 3.451 2.51 4.217Z" fill="url(#t)"/></g><g filter="url(#u)"><path d="m654.569 898.628 1.434.68a4.683 4.683 0 0 0 6.618-3.432l.534-3.086c.702-4.054-2.596-7.686-6.699-7.377a6.317 6.317 0 0 0-5.834 5.959l-.031.578a6.976 6.976 0 0 0 3.978 6.678Z" fill="#822540"/></g><g filter="url(#v)"><path d="m656.917 894.551.61.289a1.993 1.993 0 0 0 2.817-1.46l.228-1.314a2.69 2.69 0 1 0-5.335-.603l-.013.245a2.968 2.968 0 0 0 1.693 2.843Z" fill="url(#w)"/></g><g filter="url(#x)"><path d="m373.955 895.702.841.398a2.743 2.743 0 0 0 3.879-2.011l.313-1.809a3.703 3.703 0 1 0-7.346-.831l-.018.339a4.089 4.089 0 0 0 2.331 3.914Z" fill="#822540"/></g><g filter="url(#y)"><path d="m375.332 893.312.357.17a1.166 1.166 0 0 0 1.651-.856l.133-.77a1.575 1.575 0 1 0-3.126-.354l-.008.144a1.74 1.74 0 0 0 .993 1.666Z" fill="url(#z)"/></g><g filter="url(#A)"><path d="m1694.16 925.111-.96-.455a3.124 3.124 0 0 0-4.42 2.296l-.36 2.064c-.47 2.712 1.74 5.141 4.48 4.934a4.217 4.217 0 0 0 3.9-3.986l.02-.386a4.67 4.67 0 0 0-2.66-4.467Z" fill="#822540"/></g><g filter="url(#B)"><path d="m1692.59 927.837-.41-.193a1.329 1.329 0 0 0-1.88.977l-.15.879a1.797 1.797 0 0 0 1.9 2.1c.9-.068 1.62-.794 1.66-1.697l.01-.164c.05-.805-.4-1.557-1.13-1.902Z" fill="url(#C)"/></g><g filter="url(#D)"><path d="m1752.88 204.695-.84-.398a2.736 2.736 0 0 0-3.87 2.012l-.32 1.808a3.703 3.703 0 0 0 3.93 4.324 3.708 3.708 0 0 0 3.42-3.493l.02-.338a4.095 4.095 0 0 0-2.34-3.915Z" fill="#822540"/></g><g filter="url(#E)"><path d="m1751.51 207.085-.36-.169a1.168 1.168 0 0 0-1.65.856l-.13.77a1.57 1.57 0 0 0 1.67 1.84 1.569 1.569 0 0 0 1.45-1.487l.01-.144a1.733 1.733 0 0 0-.99-1.666Z" fill="url(#F)"/></g><g filter="url(#G)"><path d="m1658.44 496.525-1.08-.511a3.515 3.515 0 0 0-4.97 2.58l-.4 2.32c-.53 3.047 1.95 5.777 5.03 5.545a4.754 4.754 0 0 0 4.39-4.48l.02-.434a5.255 5.255 0 0 0-2.99-5.02Z" fill="#822540"/></g><g filter="url(#H)"><path d="m1656.68 499.589-.46-.217a1.515 1.515 0 0 0-1-.102c-.58.141-1.02.613-1.12 1.2l-.17.987a2.017 2.017 0 0 0 2.14 2.36 2.03 2.03 0 0 0 1.87-1.906l.01-.185a2.241 2.241 0 0 0-1.27-2.137Z" fill="url(#I)"/></g><g filter="url(#J)"><path d="m1777.61 682.28-.72-.342a2.366 2.366 0 0 0-3.34 1.728l-.26 1.553c-.36 2.04 1.3 3.868 3.37 3.713a3.172 3.172 0 0 0 2.93-3l.02-.29a3.516 3.516 0 0 0-2-3.362Z" fill="#822540"/></g><g filter="url(#K)"><path d="m1776.43 684.332-.31-.145a1.003 1.003 0 0 0-1.42.735l-.11.661c-.15.868.55 1.647 1.43 1.58a1.354 1.354 0 0 0 1.25-1.276l.01-.124a1.51 1.51 0 0 0-.85-1.431Z" fill="url(#L)"/></g><g filter="url(#M)"><path d="m1467.88 890.695-.84-.398a2.736 2.736 0 0 0-3.87 2.012l-.32 1.808a3.703 3.703 0 0 0 3.93 4.324 3.708 3.708 0 0 0 3.42-3.493l.02-.338a4.095 4.095 0 0 0-2.34-3.915Z" fill="#822540"/></g><g filter="url(#N)"><path d="m1466.51 893.085-.36-.169a1.168 1.168 0 0 0-1.65.856l-.13.77a1.57 1.57 0 0 0 1.67 1.84 1.569 1.569 0 0 0 1.45-1.487l.01-.144a1.733 1.733 0 0 0-.99-1.666Z" fill="url(#O)"/></g><g filter="url(#P)"><path d="m-7.11 944.353-2.127-1.008a6.945 6.945 0 0 0-9.818 5.091l-.792 4.579c-1.04 6.013 3.853 11.402 9.938 10.943a9.371 9.371 0 0 0 8.655-8.841l.046-.856a10.348 10.348 0 0 0-5.901-9.908Z" fill="#822540"/></g><g filter="url(#Q)"><path d="m1186.27 184.769-1.43-.679a4.681 4.681 0 0 0-6.62 3.432l-.54 3.086c-.7 4.054 2.6 7.686 6.7 7.377a6.318 6.318 0 0 0 5.84-5.959l.03-.578a6.98 6.98 0 0 0-3.98-6.679Z" fill="#822540"/></g><g filter="url(#R)"><path d="m1183.92 188.847-.61-.289a1.985 1.985 0 0 0-2.81 1.46l-.23 1.314a2.686 2.686 0 0 0 2.85 3.14 2.681 2.681 0 0 0 2.48-2.537l.02-.245a2.98 2.98 0 0 0-1.7-2.843Z" fill="url(#S)"/></g><g filter="url(#T)"><path d="m1466.88 187.695-.84-.398a2.736 2.736 0 0 0-3.87 2.012l-.32 1.808a3.703 3.703 0 0 0 3.93 4.324 3.708 3.708 0 0 0 3.42-3.493l.02-.338a4.095 4.095 0 0 0-2.34-3.915Z" fill="#822540"/></g><g filter="url(#U)"><path d="m1465.51 190.085-.36-.169a1.168 1.168 0 0 0-1.65.856l-.13.77a1.57 1.57 0 0 0 1.67 1.84 1.569 1.569 0 0 0 1.45-1.487l.01-.144a1.733 1.733 0 0 0-.99-1.666Z" fill="url(#V)"/></g><g filter="url(#W)"><path d="m495.838 288.287.959.455a3.131 3.131 0 0 0 4.427-2.296l.357-2.064c.469-2.712-1.737-5.141-4.481-4.934a4.224 4.224 0 0 0-3.902 3.986l-.021.386a4.666 4.666 0 0 0 2.661 4.467Z" fill="#822540"/></g><g filter="url(#X)"><path d="m497.409 285.56.408.194a1.335 1.335 0 0 0 1.885-.977l.152-.879a1.8 1.8 0 1 0-3.569-.404l-.008.165a1.984 1.984 0 0 0 1.132 1.901Z" fill="url(#Y)"/></g><g filter="url(#Z)"><path d="m531.56 716.872 1.078.511a3.52 3.52 0 0 0 4.975-2.58l.401-2.319c.528-3.047-1.952-5.777-5.035-5.545a4.747 4.747 0 0 0-4.385 4.479l-.024.434a5.243 5.243 0 0 0 2.99 5.02Z" fill="#822540"/></g><g filter="url(#aa)"><path d="m533.325 713.808.458.218a1.498 1.498 0 0 0 2.118-1.098l.171-.988a2.021 2.021 0 1 0-4.01-.453l-.01.184a2.23 2.23 0 0 0 1.273 2.137Z" fill="url(#ab)"/></g><g filter="url(#ac)"><path d="m412.393 531.116.722.342a2.356 2.356 0 0 0 3.331-1.727l.269-1.553a3.18 3.18 0 1 0-6.308-.714l-.016.291a3.51 3.51 0 0 0 2.002 3.361Z" fill="#822540"/></g><g filter="url(#ad)"><path d="m413.574 529.064.307.146a1.004 1.004 0 0 0 1.418-.735l.115-.662a1.354 1.354 0 1 0-2.685-.303l-.007.124a1.493 1.493 0 0 0 .852 1.43Z" fill="url(#ae)"/></g><g filter="url(#af)"><path d="m722.116 322.702.84.398a2.743 2.743 0 0 0 3.879-2.011l.313-1.809a3.703 3.703 0 1 0-7.346-.831l-.018.339a4.088 4.088 0 0 0 2.332 3.914Z" fill="#822540"/></g><g filter="url(#ag)"><path d="m723.492 320.312.357.17a1.166 1.166 0 0 0 1.651-.856l.134-.77a1.577 1.577 0 1 0-3.127-.354l-.008.144a1.74 1.74 0 0 0 .993 1.666Z" fill="url(#ah)"/></g><g filter="url(#ai)"><path d="m1446.16 402.287-.96.454a3.127 3.127 0 0 1-4.42-2.295l-.36-2.065c-.47-2.711 1.74-5.141 4.48-4.934a4.218 4.218 0 0 1 3.9 3.986l.02.387a4.67 4.67 0 0 1-2.66 4.467Z" fill="#822540"/></g><g filter="url(#aj)"><path d="m1444.59 399.56-.41.194a1.33 1.33 0 0 1-1.88-.977l-.15-.879a1.797 1.797 0 0 1 1.9-2.1c.9.068 1.62.794 1.66 1.696l.01.165a1.97 1.97 0 0 1-1.13 1.901Z" fill="url(#ak)"/></g><g filter="url(#al)"><path d="m1410.44 830.872-1.08.511a3.515 3.515 0 0 1-4.97-2.58l-.4-2.319c-.53-3.047 1.95-5.777 5.03-5.545a4.753 4.753 0 0 1 4.39 4.479l.02.434a5.254 5.254 0 0 1-2.99 5.02Z" fill="#822540"/></g><g filter="url(#am)"><path d="m1408.68 827.808-.46.218c-.31.147-.67.183-1 .101a1.492 1.492 0 0 1-1.12-1.199l-.17-.988a2.017 2.017 0 0 1 2.14-2.36 2.03 2.03 0 0 1 1.87 1.907l.01.184c.05.905-.46 1.749-1.27 2.137Z" fill="url(#an)"/></g><g filter="url(#ao)"><path d="m1529.61 645.116-.72.342a2.366 2.366 0 0 1-3.34-1.727l-.26-1.553c-.36-2.041 1.3-3.869 3.37-3.713a3.172 3.172 0 0 1 2.93 2.999l.02.291a3.515 3.515 0 0 1-2 3.361Z" fill="#822540"/></g><g filter="url(#ap)"><path d="m1528.43 643.064-.31.146a1.002 1.002 0 0 1-1.42-.735l-.11-.662a1.35 1.35 0 0 1 1.43-1.58c.68.051 1.21.598 1.25 1.277l.01.124c.03.605-.31 1.171-.85 1.43Z" fill="url(#aq)"/></g><g filter="url(#ar)"><path d="m1219.88 436.702-.84.398c-.57.27-1.21.336-1.82.186a2.73 2.73 0 0 1-2.05-2.197l-.32-1.809a3.703 3.703 0 0 1 3.93-4.324 3.708 3.708 0 0 1 3.42 3.493l.02.339a4.093 4.093 0 0 1-2.34 3.914Z" fill="#822540"/></g><g filter="url(#as)"><path d="m1218.51 434.312-.36.17a1.166 1.166 0 0 1-1.65-.856l-.13-.77a1.57 1.57 0 0 1 1.67-1.841c.79.06 1.41.696 1.45 1.487l.01.144c.04.705-.35 1.364-.99 1.666Z" fill="url(#at)"/></g></g><defs><filter id="b" x="33" y="-443" width="1862" height="1862" filterUnits="userSpaceOnUse" color-interpolation-filters="sRGB"><feFlood flood-opacity="0" result="BackgroundImageFix"/><feBlend in="SourceGraphic" in2="BackgroundImageFix" result="shape"/><feGaussianBlur stdDeviation="350" result="effect1_foregroundBlur_2003_2"/></filter><filter id="c" x="134.992" y="140.417" width="26.51" height="27.644" filterUnits="userSpaceOnUse" color-interpolation-filters="sRGB"><feFlood flood-opacity="0" result="BackgroundImageFix"/><feBlend in="SourceGraphic" in2="BackgroundImageFix" result="shape"/><feGaussianBlur stdDeviation="4.509" result="effect1_foregroundBlur_2003_2"/></filter><filter id="d" x="146.212" y="150.891" width="5.411" height="5.893" filterUnits="userSpaceOnUse" color-interpolation-filters="sRGB"><feFlood flood-opacity="0" result="BackgroundImageFix"/><feBlend in="SourceGraphic" in2="BackgroundImageFix" result="shape"/><feGaussianBlur stdDeviation=".451" result="effect1_foregroundBlur_2003_2"/></filter><filter id="f" x="77.716" y="863.044" width="23.229" height="24.222" filterUnits="userSpaceOnUse" color-interpolation-filters="sRGB"><feFlood flood-opacity="0" result="BackgroundImageFix"/><feBlend in="SourceGraphic" in2="BackgroundImageFix" result="shape"/><feGaussianBlur stdDeviation="3.951" result="effect1_foregroundBlur_2003_2"/></filter><filter id="g" x="87.546" y="872.221" width="4.74" height="5.164" filterUnits="userSpaceOnUse" color-interpolation-filters="sRGB"><feFlood flood-opacity="0" result="BackgroundImageFix"/><feBlend in="SourceGraphic" in2="BackgroundImageFix" result="shape"/><feGaussianBlur stdDeviation=".395" result="effect1_foregroundBlur_2003_2"/></filter><filter id="i" x="169.269" y="566.791" width="29.791" height="31.065" filterUnits="userSpaceOnUse" color-interpolation-filters="sRGB"><feFlood flood-opacity="0" result="BackgroundImageFix"/><feBlend in="SourceGraphic" in2="BackgroundImageFix" result="shape"/><feGaussianBlur stdDeviation="5.067" result="effect1_foregroundBlur_2003_2"/></filter><filter id="j" x="181.875" y="578.561" width="6.079" height="6.622" filterUnits="userSpaceOnUse" color-interpolation-filters="sRGB"><feFlood flood-opacity="0" result="BackgroundImageFix"/><feBlend in="SourceGraphic" in2="BackgroundImageFix" result="shape"/><feGaussianBlur stdDeviation=".507" result="effect1_foregroundBlur_2003_2"/></filter><filter id="l" x="54.441" y="387.67" width="19.946" height="20.801" filterUnits="userSpaceOnUse" color-interpolation-filters="sRGB"><feFlood flood-opacity="0" result="BackgroundImageFix"/><feBlend in="SourceGraphic" in2="BackgroundImageFix" result="shape"/><feGaussianBlur stdDeviation="3.393" result="effect1_foregroundBlur_2003_2"/></filter><filter id="m" x="62.882" y="395.551" width="4.07" height="4.434" filterUnits="userSpaceOnUse" color-interpolation-filters="sRGB"><feFlood flood-opacity="0" result="BackgroundImageFix"/><feBlend in="SourceGraphic" in2="BackgroundImageFix" result="shape"/><feGaussianBlur stdDeviation=".339" result="effect1_foregroundBlur_2003_2"/></filter><filter id="o" x="362.716" y="177.044" width="23.229" height="24.222" filterUnits="userSpaceOnUse" color-interpolation-filters="sRGB"><feFlood flood-opacity="0" result="BackgroundImageFix"/><feBlend in="SourceGraphic" in2="BackgroundImageFix" result="shape"/><feGaussianBlur stdDeviation="3.951" result="effect1_foregroundBlur_2003_2"/></filter><filter id="p" x="372.546" y="186.221" width="4.74" height="5.164" filterUnits="userSpaceOnUse" color-interpolation-filters="sRGB"><feFlood flood-opacity="0" result="BackgroundImageFix"/><feBlend in="SourceGraphic" in2="BackgroundImageFix" result="shape"/><feGaussianBlur stdDeviation=".395" result="effect1_foregroundBlur_2003_2"/></filter><filter id="r" x="1822.03" y="99.412" width="58.793" height="61.31" filterUnits="userSpaceOnUse" color-interpolation-filters="sRGB"><feFlood flood-opacity="0" result="BackgroundImageFix"/><feBlend in="SourceGraphic" in2="BackgroundImageFix" result="shape"/><feGaussianBlur stdDeviation="10" result="effect1_foregroundBlur_2003_2"/></filter><filter id="s" x="1846.91" y="122.64" width="12" height="13.07" filterUnits="userSpaceOnUse" color-interpolation-filters="sRGB"><feFlood flood-opacity="0" result="BackgroundImageFix"/><feBlend in="SourceGraphic" in2="BackgroundImageFix" result="shape"/><feGaussianBlur stdDeviation="1" result="effect1_foregroundBlur_2003_2"/></filter><filter id="u" x="637.098" y="871.913" width="39.634" height="41.328" filterUnits="userSpaceOnUse" color-interpolation-filters="sRGB"><feFlood flood-opacity="0" result="BackgroundImageFix"/><feBlend in="SourceGraphic" in2="BackgroundImageFix" result="shape"/><feGaussianBlur stdDeviation="6.741" result="effect1_foregroundBlur_2003_2"/></filter><filter id="v" x="653.871" y="887.57" width="8.089" height="8.811" filterUnits="userSpaceOnUse" color-interpolation-filters="sRGB"><feFlood flood-opacity="0" result="BackgroundImageFix"/><feBlend in="SourceGraphic" in2="BackgroundImageFix" result="shape"/><feGaussianBlur stdDeviation=".674" result="effect1_foregroundBlur_2003_2"/></filter><filter id="x" x="363.716" y="880.044" width="23.229" height="24.222" filterUnits="userSpaceOnUse" color-interpolation-filters="sRGB"><feFlood flood-opacity="0" result="BackgroundImageFix"/><feBlend in="SourceGraphic" in2="BackgroundImageFix" result="shape"/><feGaussianBlur stdDeviation="3.951" result="effect1_foregroundBlur_2003_2"/></filter><filter id="y" x="373.546" y="889.221" width="4.74" height="5.164" filterUnits="userSpaceOnUse" color-interpolation-filters="sRGB"><feFlood flood-opacity="0" result="BackgroundImageFix"/><feBlend in="SourceGraphic" in2="BackgroundImageFix" result="shape"/><feGaussianBlur stdDeviation=".395" result="effect1_foregroundBlur_2003_2"/></filter><filter id="A" x="1679.34" y="915.337" width="26.51" height="27.644" filterUnits="userSpaceOnUse" color-interpolation-filters="sRGB"><feFlood flood-opacity="0" result="BackgroundImageFix"/><feBlend in="SourceGraphic" in2="BackgroundImageFix" result="shape"/><feGaussianBlur stdDeviation="4.509" result="effect1_foregroundBlur_2003_2"/></filter><filter id="B" x="1689.22" y="926.614" width="5.411" height="5.893" filterUnits="userSpaceOnUse" color-interpolation-filters="sRGB"><feFlood flood-opacity="0" result="BackgroundImageFix"/><feBlend in="SourceGraphic" in2="BackgroundImageFix" result="shape"/><feGaussianBlur stdDeviation=".451" result="effect1_foregroundBlur_2003_2"/></filter><filter id="D" x="1739.9" y="196.131" width="23.229" height="24.222" filterUnits="userSpaceOnUse" color-interpolation-filters="sRGB"><feFlood flood-opacity="0" result="BackgroundImageFix"/><feBlend in="SourceGraphic" in2="BackgroundImageFix" result="shape"/><feGaussianBlur stdDeviation="3.951" result="effect1_foregroundBlur_2003_2"/></filter><filter id="E" x="1748.55" y="206.013" width="4.74" height="5.164" filterUnits="userSpaceOnUse" color-interpolation-filters="sRGB"><feFlood flood-opacity="0" result="BackgroundImageFix"/><feBlend in="SourceGraphic" in2="BackgroundImageFix" result="shape"/><feGaussianBlur stdDeviation=".395" result="effect1_foregroundBlur_2003_2"/></filter><filter id="G" x="1641.78" y="485.541" width="29.791" height="31.065" filterUnits="userSpaceOnUse" color-interpolation-filters="sRGB"><feFlood flood-opacity="0" result="BackgroundImageFix"/><feBlend in="SourceGraphic" in2="BackgroundImageFix" result="shape"/><feGaussianBlur stdDeviation="5.067" result="effect1_foregroundBlur_2003_2"/></filter><filter id="H" x="1652.89" y="498.214" width="6.079" height="6.622" filterUnits="userSpaceOnUse" color-interpolation-filters="sRGB"><feFlood flood-opacity="0" result="BackgroundImageFix"/><feBlend in="SourceGraphic" in2="BackgroundImageFix" result="shape"/><feGaussianBlur stdDeviation=".507" result="effect1_foregroundBlur_2003_2"/></filter><filter id="J" x="1766.45" y="674.925" width="19.946" height="20.801" filterUnits="userSpaceOnUse" color-interpolation-filters="sRGB"><feFlood flood-opacity="0" result="BackgroundImageFix"/><feBlend in="SourceGraphic" in2="BackgroundImageFix" result="shape"/><feGaussianBlur stdDeviation="3.393" result="effect1_foregroundBlur_2003_2"/></filter><filter id="K" x="1773.89" y="683.411" width="4.07" height="4.434" filterUnits="userSpaceOnUse" color-interpolation-filters="sRGB"><feFlood flood-opacity="0" result="BackgroundImageFix"/><feBlend in="SourceGraphic" in2="BackgroundImageFix" result="shape"/><feGaussianBlur stdDeviation=".339" result="effect1_foregroundBlur_2003_2"/></filter><filter id="M" x="1454.9" y="882.132" width="23.229" height="24.222" filterUnits="userSpaceOnUse" color-interpolation-filters="sRGB"><feFlood flood-opacity="0" result="BackgroundImageFix"/><feBlend in="SourceGraphic" in2="BackgroundImageFix" result="shape"/><feGaussianBlur stdDeviation="3.951" result="effect1_foregroundBlur_2003_2"/></filter><filter id="N" x="1463.55" y="892.013" width="4.74" height="5.164" filterUnits="userSpaceOnUse" color-interpolation-filters="sRGB"><feFlood flood-opacity="0" result="BackgroundImageFix"/><feBlend in="SourceGraphic" in2="BackgroundImageFix" result="shape"/><feGaussianBlur stdDeviation=".395" result="effect1_foregroundBlur_2003_2"/></filter><filter id="P" x="-39.986" y="922.676" width="58.793" height="61.31" filterUnits="userSpaceOnUse" color-interpolation-filters="sRGB"><feFlood flood-opacity="0" result="BackgroundImageFix"/><feBlend in="SourceGraphic" in2="BackgroundImageFix" result="shape"/><feGaussianBlur stdDeviation="10" result="effect1_foregroundBlur_2003_2"/></filter><filter id="Q" x="1164.11" y="170.157" width="39.634" height="41.328" filterUnits="userSpaceOnUse" color-interpolation-filters="sRGB"><feFlood flood-opacity="0" result="BackgroundImageFix"/><feBlend in="SourceGraphic" in2="BackgroundImageFix" result="shape"/><feGaussianBlur stdDeviation="6.741" result="effect1_foregroundBlur_2003_2"/></filter><filter id="R" x="1178.88" y="187.018" width="8.089" height="8.811" filterUnits="userSpaceOnUse" color-interpolation-filters="sRGB"><feFlood flood-opacity="0" result="BackgroundImageFix"/><feBlend in="SourceGraphic" in2="BackgroundImageFix" result="shape"/><feGaussianBlur stdDeviation=".674" result="effect1_foregroundBlur_2003_2"/></filter><filter id="T" x="1453.9" y="179.131" width="23.229" height="24.222" filterUnits="userSpaceOnUse" color-interpolation-filters="sRGB"><feFlood flood-opacity="0" result="BackgroundImageFix"/><feBlend in="SourceGraphic" in2="BackgroundImageFix" result="shape"/><feGaussianBlur stdDeviation="3.951" result="effect1_foregroundBlur_2003_2"/></filter><filter id="U" x="1462.55" y="189.013" width="4.74" height="5.164" filterUnits="userSpaceOnUse" color-interpolation-filters="sRGB"><feFlood flood-opacity="0" result="BackgroundImageFix"/><feBlend in="SourceGraphic" in2="BackgroundImageFix" result="shape"/><feGaussianBlur stdDeviation=".395" result="effect1_foregroundBlur_2003_2"/></filter><filter id="W" x="484.152" y="270.417" width="26.51" height="27.644" filterUnits="userSpaceOnUse" color-interpolation-filters="sRGB"><feFlood flood-opacity="0" result="BackgroundImageFix"/><feBlend in="SourceGraphic" in2="BackgroundImageFix" result="shape"/><feGaussianBlur stdDeviation="4.509" result="effect1_foregroundBlur_2003_2"/></filter><filter id="X" x="495.372" y="280.891" width="5.411" height="5.893" filterUnits="userSpaceOnUse" color-interpolation-filters="sRGB"><feFlood flood-opacity="0" result="BackgroundImageFix"/><feBlend in="SourceGraphic" in2="BackgroundImageFix" result="shape"/><feGaussianBlur stdDeviation=".451" result="effect1_foregroundBlur_2003_2"/></filter><filter id="Z" x="518.429" y="696.791" width="29.791" height="31.065" filterUnits="userSpaceOnUse" color-interpolation-filters="sRGB"><feFlood flood-opacity="0" result="BackgroundImageFix"/><feBlend in="SourceGraphic" in2="BackgroundImageFix" result="shape"/><feGaussianBlur stdDeviation="5.067" result="effect1_foregroundBlur_2003_2"/></filter><filter id="aa" x="531.035" y="708.561" width="6.079" height="6.622" filterUnits="userSpaceOnUse" color-interpolation-filters="sRGB"><feFlood flood-opacity="0" result="BackgroundImageFix"/><feBlend in="SourceGraphic" in2="BackgroundImageFix" result="shape"/><feGaussianBlur stdDeviation=".507" result="effect1_foregroundBlur_2003_2"/></filter><filter id="ac" x="403.601" y="517.67" width="19.946" height="20.801" filterUnits="userSpaceOnUse" color-interpolation-filters="sRGB"><feFlood flood-opacity="0" result="BackgroundImageFix"/><feBlend in="SourceGraphic" in2="BackgroundImageFix" result="shape"/><feGaussianBlur stdDeviation="3.393" result="effect1_foregroundBlur_2003_2"/></filter><filter id="ad" x="412.042" y="525.551" width="4.07" height="4.434" filterUnits="userSpaceOnUse" color-interpolation-filters="sRGB"><feFlood flood-opacity="0" result="BackgroundImageFix"/><feBlend in="SourceGraphic" in2="BackgroundImageFix" result="shape"/><feGaussianBlur stdDeviation=".339" result="effect1_foregroundBlur_2003_2"/></filter><filter id="af" x="711.876" y="307.044" width="23.229" height="24.222" filterUnits="userSpaceOnUse" color-interpolation-filters="sRGB"><feFlood flood-opacity="0" result="BackgroundImageFix"/><feBlend in="SourceGraphic" in2="BackgroundImageFix" result="shape"/><feGaussianBlur stdDeviation="3.951" result="effect1_foregroundBlur_2003_2"/></filter><filter id="ag" x="721.706" y="316.221" width="4.74" height="5.164" filterUnits="userSpaceOnUse" color-interpolation-filters="sRGB"><feFlood flood-opacity="0" result="BackgroundImageFix"/><feBlend in="SourceGraphic" in2="BackgroundImageFix" result="shape"/><feGaussianBlur stdDeviation=".395" result="effect1_foregroundBlur_2003_2"/></filter><filter id="ai" x="1431.34" y="384.417" width="26.51" height="27.644" filterUnits="userSpaceOnUse" color-interpolation-filters="sRGB"><feFlood flood-opacity="0" result="BackgroundImageFix"/><feBlend in="SourceGraphic" in2="BackgroundImageFix" result="shape"/><feGaussianBlur stdDeviation="4.509" result="effect1_foregroundBlur_2003_2"/></filter><filter id="aj" x="1441.22" y="394.89" width="5.411" height="5.893" filterUnits="userSpaceOnUse" color-interpolation-filters="sRGB"><feFlood flood-opacity="0" result="BackgroundImageFix"/><feBlend in="SourceGraphic" in2="BackgroundImageFix" result="shape"/><feGaussianBlur stdDeviation=".451" result="effect1_foregroundBlur_2003_2"/></filter><filter id="al" x="1393.78" y="810.791" width="29.791" height="31.065" filterUnits="userSpaceOnUse" color-interpolation-filters="sRGB"><feFlood flood-opacity="0" result="BackgroundImageFix"/><feBlend in="SourceGraphic" in2="BackgroundImageFix" result="shape"/><feGaussianBlur stdDeviation="5.067" result="effect1_foregroundBlur_2003_2"/></filter><filter id="am" x="1404.89" y="822.561" width="6.079" height="6.622" filterUnits="userSpaceOnUse" color-interpolation-filters="sRGB"><feFlood flood-opacity="0" result="BackgroundImageFix"/><feBlend in="SourceGraphic" in2="BackgroundImageFix" result="shape"/><feGaussianBlur stdDeviation=".507" result="effect1_foregroundBlur_2003_2"/></filter><filter id="ao" x="1518.45" y="631.67" width="19.946" height="20.801" filterUnits="userSpaceOnUse" color-interpolation-filters="sRGB"><feFlood flood-opacity="0" result="BackgroundImageFix"/><feBlend in="SourceGraphic" in2="BackgroundImageFix" result="shape"/><feGaussianBlur stdDeviation="3.393" result="effect1_foregroundBlur_2003_2"/></filter><filter id="ap" x="1525.89" y="639.551" width="4.07" height="4.434" filterUnits="userSpaceOnUse" color-interpolation-filters="sRGB"><feFlood flood-opacity="0" result="BackgroundImageFix"/><feBlend in="SourceGraphic" in2="BackgroundImageFix" result="shape"/><feGaussianBlur stdDeviation=".339" result="effect1_foregroundBlur_2003_2"/></filter><filter id="ar" x="1206.9" y="421.044" width="23.229" height="24.222" filterUnits="userSpaceOnUse" color-interpolation-filters="sRGB"><feFlood flood-opacity="0" result="BackgroundImageFix"/><feBlend in="SourceGraphic" in2="BackgroundImageFix" result="shape"/><feGaussianBlur stdDeviation="3.951" result="effect1_foregroundBlur_2003_2"/></filter><filter id="as" x="1215.55" y="430.221" width="4.74" height="5.164" filterUnits="userSpaceOnUse" color-interpolation-filters="sRGB"><feFlood flood-opacity="0" result="BackgroundImageFix"/><feBlend in="SourceGraphic" in2="BackgroundImageFix" result="shape"/><feGaussianBlur stdDeviation=".395" result="effect1_foregroundBlur_2003_2"/></filter><linearGradient id="e" x1="148.014" y1="151.459" x2="150.392" y2="155.637" gradientUnits="userSpaceOnUse"><stop stop-color="#FC7244"/><stop offset="1" stop-color="#AC3B41"/></linearGradient><linearGradient id="h" x1="89.126" y1="872.719" x2="91.21" y2="876.38" gradientUnits="userSpaceOnUse"><stop stop-color="#FC7244"/><stop offset="1" stop-color="#AC3B41"/></linearGradient><linearGradient id="k" x1="183.9" y1="579.199" x2="186.573" y2="583.895" gradientUnits="userSpaceOnUse"><stop stop-color="#FC7244"/><stop offset="1" stop-color="#AC3B41"/></linearGradient><linearGradient id="n" x1="64.237" y1="395.978" x2="66.027" y2="399.122" gradientUnits="userSpaceOnUse"><stop stop-color="#FC7244"/><stop offset="1" stop-color="#AC3B41"/></linearGradient><linearGradient id="q" x1="374.125" y1="186.719" x2="376.21" y2="190.38" gradientUnits="userSpaceOnUse"><stop stop-color="#FC7244"/><stop offset="1" stop-color="#AC3B41"/></linearGradient><linearGradient id="t" x1="1850.91" y1="123.9" x2="1856.19" y2="133.167" gradientUnits="userSpaceOnUse"><stop stop-color="#FC7244"/><stop offset="1" stop-color="#AC3B41"/></linearGradient><linearGradient id="w" x1="656.565" y1="888.419" x2="660.121" y2="894.666" gradientUnits="userSpaceOnUse"><stop stop-color="#FC7244"/><stop offset="1" stop-color="#AC3B41"/></linearGradient><linearGradient id="z" x1="375.125" y1="889.719" x2="377.21" y2="893.38" gradientUnits="userSpaceOnUse"><stop stop-color="#FC7244"/><stop offset="1" stop-color="#AC3B41"/></linearGradient><linearGradient id="C" x1="1692.83" y1="931.939" x2="1690.45" y2="927.76" gradientUnits="userSpaceOnUse"><stop stop-color="#FC7244"/><stop offset="1" stop-color="#AC3B41"/></linearGradient><linearGradient id="F" x1="1751.71" y1="210.679" x2="1749.63" y2="207.018" gradientUnits="userSpaceOnUse"><stop stop-color="#FC7244"/><stop offset="1" stop-color="#AC3B41"/></linearGradient><linearGradient id="I" x1="1656.94" y1="504.198" x2="1654.27" y2="499.503" gradientUnits="userSpaceOnUse"><stop stop-color="#FC7244"/><stop offset="1" stop-color="#AC3B41"/></linearGradient><linearGradient id="L" x1="1776.6" y1="687.418" x2="1774.81" y2="684.274" gradientUnits="userSpaceOnUse"><stop stop-color="#FC7244"/><stop offset="1" stop-color="#AC3B41"/></linearGradient><linearGradient id="O" x1="1466.71" y1="896.679" x2="1464.63" y2="893.018" gradientUnits="userSpaceOnUse"><stop stop-color="#FC7244"/><stop offset="1" stop-color="#AC3B41"/></linearGradient><linearGradient id="S" x1="1184.27" y1="194.978" x2="1180.72" y2="188.732" gradientUnits="userSpaceOnUse"><stop stop-color="#FC7244"/><stop offset="1" stop-color="#AC3B41"/></linearGradient><linearGradient id="V" x1="1465.71" y1="193.679" x2="1463.63" y2="190.018" gradientUnits="userSpaceOnUse"><stop stop-color="#FC7244"/><stop offset="1" stop-color="#AC3B41"/></linearGradient><linearGradient id="Y" x1="497.174" y1="281.459" x2="499.553" y2="285.637" gradientUnits="userSpaceOnUse"><stop stop-color="#FC7244"/><stop offset="1" stop-color="#AC3B41"/></linearGradient><linearGradient id="ab" x1="533.06" y1="709.199" x2="535.733" y2="713.895" gradientUnits="userSpaceOnUse"><stop stop-color="#FC7244"/><stop offset="1" stop-color="#AC3B41"/></linearGradient><linearGradient id="ae" x1="413.397" y1="525.978" x2="415.187" y2="529.122" gradientUnits="userSpaceOnUse"><stop stop-color="#FC7244"/><stop offset="1" stop-color="#AC3B41"/></linearGradient><linearGradient id="ah" x1="723.286" y1="316.719" x2="725.37" y2="320.38" gradientUnits="userSpaceOnUse"><stop stop-color="#FC7244"/><stop offset="1" stop-color="#AC3B41"/></linearGradient><linearGradient id="ak" x1="1444.83" y1="395.459" x2="1442.45" y2="399.637" gradientUnits="userSpaceOnUse"><stop stop-color="#FC7244"/><stop offset="1" stop-color="#AC3B41"/></linearGradient><linearGradient id="an" x1="1408.94" y1="823.199" x2="1406.27" y2="827.895" gradientUnits="userSpaceOnUse"><stop stop-color="#FC7244"/><stop offset="1" stop-color="#AC3B41"/></linearGradient><linearGradient id="aq" x1="1528.6" y1="639.978" x2="1526.81" y2="643.122" gradientUnits="userSpaceOnUse"><stop stop-color="#FC7244"/><stop offset="1" stop-color="#AC3B41"/></linearGradient><linearGradient id="at" x1="1218.71" y1="430.719" x2="1216.63" y2="434.38" gradientUnits="userSpaceOnUse"><stop stop-color="#FC7244"/><stop offset="1" stop-color="#AC3B41"/></linearGradient><clipPath id="a"><path fill="#fff" d="M0 0h1920v972H0z"/></clipPath></defs></svg>