<svg width="465" height="179" fill="none" xmlns="http://www.w3.org/2000/svg"><path fill-rule="evenodd" clip-rule="evenodd" d="M236.749 153.501c36.42 0 65.945-29.525 65.945-65.945 0-36.421-29.525-65.946-65.945-65.946-36.421 0-65.946 29.525-65.946 65.946 0 36.42 29.525 65.945 65.946 65.945Zm0 7.737c40.693 0 73.682-32.989 73.682-73.682 0-40.694-32.989-73.682-73.682-73.682-40.694 0-73.683 32.988-73.683 73.682 0 40.693 32.989 73.682 73.683 73.682Z" fill="url(#a)"/><path fill-rule="evenodd" clip-rule="evenodd" d="M236.749 153.501c36.42 0 65.945-29.525 65.945-65.945 0-36.421-29.525-65.946-65.945-65.946-36.421 0-65.946 29.525-65.946 65.946 0 36.42 29.525 65.945 65.946 65.945Zm0 7.737c40.693 0 73.682-32.989 73.682-73.682 0-40.694-32.989-73.682-73.682-73.682-40.694 0-73.683 32.988-73.683 73.682 0 40.693 32.989 73.682 73.683 73.682Z" fill="url(#b)"/><path fill-rule="evenodd" clip-rule="evenodd" d="M229.88 139.645c11.4-7.305 23.506-20.12 33.191-36.894 9.684-16.774 14.729-33.667 15.356-47.192.647-13.965-3.359-22.029-8.686-25.104-5.327-3.076-14.313-2.513-26.084 5.03-11.399 7.305-23.506 20.12-33.191 36.895-9.684 16.774-14.729 33.666-15.356 47.191-.647 13.965 3.359 22.029 8.686 25.105 5.327 3.075 14.313 2.512 26.084-5.031Zm-29.952 11.731c18.226 10.523 49.496-9.515 69.843-44.757s22.065-72.341 3.839-82.864c-18.227-10.524-49.497 9.515-69.844 44.756-20.346 35.242-22.065 72.342-3.838 82.865Z" fill="url(#c)"/><path fill-rule="evenodd" clip-rule="evenodd" d="M206.682 131.932c13.811 0 30.823-4.605 47.483-14.224 16.659-9.618 29.154-22.049 36.059-34.01 7.023-12.163 7.556-22.337 3.649-29.104-3.907-6.766-12.984-11.392-27.03-11.392-13.811 0-30.823 4.605-47.483 14.224-16.659 9.618-29.154 22.049-36.059 34.009-7.023 12.164-7.556 22.338-3.649 29.105 3.907 6.766 12.984 11.392 27.03 11.392Zm-33.73-7.524c11.747 20.347 49.839 20.347 85.081 0 35.242-20.346 54.288-53.335 42.54-73.682-11.747-20.347-49.839-20.347-85.081 0-35.242 20.346-54.287 53.335-42.54 73.682Z" fill="url(#d)"/><path fill-rule="evenodd" clip-rule="evenodd" d="M180.586 89.49c6.174 13.076 18.085 26.122 34.514 35.607 16.429 9.485 33.683 13.278 48.094 12.086 14.448-1.195 25.258-7.245 30.684-16.642 5.425-9.397 5.26-21.784-.93-34.894-6.174-13.076-18.085-26.122-34.514-35.607-16.428-9.486-33.682-13.278-48.094-12.086-14.448 1.194-25.258 7.245-30.683 16.642-5.426 9.396-5.26 21.784.929 34.893Zm-7.629-38.763c-14.103 24.427 3.033 60.723 38.275 81.07 35.241 20.347 75.243 17.039 89.346-7.388 14.103-24.427-3.034-60.723-38.275-81.07-35.242-20.346-75.244-17.039-89.346 7.388Z" fill="url(#e)"/><path d="M233.89 93.898v-.363c.009-1.685.167-3.026.475-4.023.316-.996.763-1.797 1.34-2.402a10.337 10.337 0 0 1 2.109-1.69 9.775 9.775 0 0 0 1.523-1.16 5.034 5.034 0 0 0 1.075-1.424c.261-.53.391-1.122.391-1.774 0-.735-.172-1.373-.516-1.913-.345-.54-.81-.96-1.397-1.257-.577-.298-1.225-.447-1.942-.447a4.27 4.27 0 0 0-1.885.433 3.653 3.653 0 0 0-1.467 1.285c-.381.568-.596 1.29-.642 2.165h-4.972c.046-1.77.475-3.25 1.285-4.442a7.594 7.594 0 0 1 3.24-2.681c1.35-.596 2.84-.894 4.469-.894 1.779 0 3.343.311 4.693.935 1.36.624 2.417 1.514 3.171 2.668.763 1.145 1.145 2.505 1.145 4.078 0 1.062-.172 2.012-.517 2.85a6.91 6.91 0 0 1-1.438 2.234 10.522 10.522 0 0 1-2.221 1.746c-.754.466-1.373.95-1.858 1.453a4.84 4.84 0 0 0-1.061 1.774c-.224.67-.34 1.499-.349 2.486v.363h-4.651Zm2.43 8.715c-.838 0-1.56-.298-2.165-.893a2.945 2.945 0 0 1-.908-2.18c0-.837.303-1.554.908-2.15a2.978 2.978 0 0 1 2.165-.894c.829 0 1.546.298 2.151.894.614.596.922 1.313.922 2.15a2.89 2.89 0 0 1-.433 1.551c-.28.466-.652.838-1.118 1.117a2.93 2.93 0 0 1-1.522.405ZM71.477 160.823v-31.994H0v-12.546L74.242 13.402h14.466v101.417h22.975v14.01H88.708v31.994H71.477Zm0-46.004V33.894h4.68L14.466 119.21v-4.391h57.01ZM424.395 160.823v-31.994h-71.477v-12.546L427.16 13.402h14.466v101.417h22.975v14.01h-22.975v31.994h-17.231Zm0-46.004V33.894h4.68l-61.691 85.316v-4.391h57.011Z" fill="#F3CFFF"/><defs><radialGradient id="a" cx="0" cy="0" r="1" gradientUnits="userSpaceOnUse" gradientTransform="rotate(45 12.685 329.56) scale(79.7148)"><stop offset=".027" stop-color="#F3CFFF"/><stop offset=".224" stop-color="#F3CFFF"/><stop offset=".424" stop-color="#F3CFFF" stop-opacity="0"/><stop offset=".493" stop-color="#F3CFFF" stop-opacity="0"/><stop offset=".761" stop-color="#F3CFFF"/><stop offset=".864" stop-color="#F3CFFF"/></radialGradient><radialGradient id="b" cx="0" cy="0" r="1" gradientUnits="userSpaceOnUse" gradientTransform="rotate(45 12.685 329.56) scale(79.7148)"><stop offset=".027" stop-color="#F3CFFF"/><stop offset=".224" stop-color="#F3CFFF"/><stop offset=".362" stop-color="#F3CFFF" stop-opacity="0"/><stop offset=".465" stop-color="#F3CFFF" stop-opacity="0"/><stop offset=".565" stop-color="#F3CFFF" stop-opacity="0"/><stop offset=".761" stop-color="#F3CFFF"/><stop offset=".864" stop-color="#F3CFFF"/></radialGradient><radialGradient id="c" cx="0" cy="0" r="1" gradientUnits="userSpaceOnUse" gradientTransform="rotate(120 93.107 112.132) scale(73.6822 38.1077)"><stop stop-color="#F3CFFF"/><stop offset=".485" stop-color="#F3CFFF"/><stop offset=".742" stop-color="#F3CFFF" stop-opacity="0"/><stop offset="1" stop-color="#F3CFFF" stop-opacity="0"/></radialGradient><radialGradient id="d" cx="0" cy="0" r="1" gradientUnits="userSpaceOnUse" gradientTransform="matrix(-65.20902 34.99848 -60.61832 -112.9438 237.108 87.37)"><stop offset=".022" stop-color="#F3CFFF" stop-opacity="0"/><stop offset=".484" stop-color="#F3CFFF"/><stop offset=".869" stop-color="#F3CFFF" stop-opacity="0"/></radialGradient><radialGradient id="e" cx="0" cy="0" r="1" gradientUnits="userSpaceOnUse" gradientTransform="matrix(-25.5355 44.22878 -63.81066 -36.8411 236.767 87.568)"><stop offset=".349" stop-color="#F3CFFF"/><stop offset=".449" stop-color="#F3CFFF" stop-opacity="0"/><stop offset=".705" stop-color="#F3CFFF" stop-opacity="0"/><stop offset=".81" stop-color="#F3CFFF"/></radialGradient></defs></svg>