<svg width="360" height="780" fill="none" xmlns="http://www.w3.org/2000/svg"><g clip-path="url(#a)"><path fill="#1E042B" d="M0 0h360v780H0z"/><g filter="url(#b)"><circle cx="180" cy="390" r="128" fill="#DE4916" fill-opacity=".38"/></g><g filter="url(#c)"><path d="m77.363 7.492-.173.364a1.189 1.189 0 0 0 .871 1.68l.784.135a1.604 1.604 0 1 0 .36-3.181l-.147-.008a1.77 1.77 0 0 0-1.695 1.01Z" fill="#822540"/></g><g filter="url(#d)"><path d="m78.402 8.088-.073.155a.506.506 0 0 0 .37.715l.334.057a.683.683 0 1 0 .153-1.354l-.063-.003a.754.754 0 0 0-.721.43Z" fill="url(#e)"/></g><g filter="url(#f)"><path d="m203.75 48.395-.222.466a1.524 1.524 0 0 0 1.118 2.154l1.004.175a2.057 2.057 0 1 0 .462-4.08l-.188-.01a2.27 2.27 0 0 0-2.174 1.295Z" fill="#822540"/></g><g filter="url(#g)"><path d="m205.079 49.159-.094.198a.648.648 0 0 0 .475.917l.428.074a.875.875 0 1 0 .196-1.736l-.08-.005a.966.966 0 0 0-.925.552Z" fill="url(#h)"/></g><g filter="url(#i)"><path d="m284.198-3.214-.148.313a1.02 1.02 0 0 0 .748 1.442l.672.117a1.377 1.377 0 1 0 .309-2.732l-.126-.007a1.52 1.52 0 0 0-1.455.867Z" fill="#822540"/></g><g filter="url(#j)"><path d="m68.733 252.879-.294.621a2.03 2.03 0 0 0 1.486 2.866l1.337.232a2.736 2.736 0 1 0 .614-5.428l-.25-.014a3.021 3.021 0 0 0-2.893 1.723Z" fill="#822540"/></g><g filter="url(#k)"><path d="m70.502 253.897-.125.264a.863.863 0 0 0 .633 1.22l.568.098a1.164 1.164 0 1 0 .262-2.31l-.107-.006a1.286 1.286 0 0 0-1.23.734Z" fill="url(#l)"/></g><g filter="url(#m)"><path d="m70.001 131.354-.172.364a1.187 1.187 0 0 0 .871 1.679l.784.136a1.603 1.603 0 1 0 .36-3.181l-.147-.008a1.77 1.77 0 0 0-1.696 1.01Z" fill="#822540"/></g><g filter="url(#n)"><path d="m71.037 131.95-.074.154a.507.507 0 0 0 .371.715l.334.058a.682.682 0 1 0 .153-1.354l-.063-.003a.752.752 0 0 0-.721.43Z" fill="url(#o)"/></g><g filter="url(#p)"><path d="m57.267 703.103.197-.416a1.355 1.355 0 0 0-.994-1.917l-.894-.155a1.83 1.83 0 1 0-.41 3.631l.166.009a2.02 2.02 0 0 0 1.935-1.152Z" fill="#822540"/></g><g filter="url(#q)"><path d="m56.088 702.422.084-.177a.577.577 0 0 0-.424-.816l-.38-.066a.78.78 0 1 0-.175 1.545l.071.004a.86.86 0 0 0 .824-.49Z" fill="url(#r)"/></g><g filter="url(#s)"><path d="m242.879 687.633.221-.467a1.524 1.524 0 0 0-1.117-2.154l-1.004-.174a2.058 2.058 0 1 0-.462 4.08l.188.01c.921.05 1.78-.462 2.174-1.295Z" fill="#822540"/></g><g filter="url(#t)"><path d="m241.55 686.869.094-.199a.649.649 0 0 0-.475-.917l-.428-.074a.875.875 0 1 0-.196 1.737l.08.004a.965.965 0 0 0 .925-.551Z" fill="url(#u)"/></g><g filter="url(#v)"><path d="m162.431 739.242.148-.313a1.02 1.02 0 0 0-.748-1.442l-.672-.117a1.377 1.377 0 1 0-.309 2.732l.125.007a1.521 1.521 0 0 0 1.456-.867Z" fill="#822540"/></g><g filter="url(#w)"><path d="m161.542 738.73.063-.133a.433.433 0 0 0-.318-.614l-.287-.05a.586.586 0 1 0-.131 1.163l.053.003a.648.648 0 0 0 .62-.369Z" fill="url(#x)"/></g><g filter="url(#y)"><path d="m72.172 605.105.173-.364a1.187 1.187 0 0 0-.871-1.679l-.784-.136a1.603 1.603 0 1 0-.36 3.181l.147.008a1.77 1.77 0 0 0 1.695-1.01Z" fill="#822540"/></g><g filter="url(#z)"><path d="m71.133 604.51.074-.155a.504.504 0 0 0-.371-.715l-.334-.057a.682.682 0 1 0-.153 1.354l.063.003a.752.752 0 0 0 .721-.43Z" fill="url(#A)"/></g><g filter="url(#B)"><path d="m333.061 184.134-.197.415a1.357 1.357 0 0 0 .994 1.917l.894.155a1.83 1.83 0 1 0 .411-3.631l-.167-.009a2.022 2.022 0 0 0-1.935 1.153Z" fill="#822540"/></g><g filter="url(#C)"><path d="m334.24 184.815-.083.176a.577.577 0 0 0 .423.816l.38.066a.779.779 0 1 0 .175-1.545l-.071-.004a.86.86 0 0 0-.824.491Z" fill="url(#D)"/></g><g filter="url(#E)"><path d="m21.064 158.703-.172.364a1.19 1.19 0 0 0 .87 1.68l.784.136a1.604 1.604 0 1 0 .36-3.182l-.147-.007a1.77 1.77 0 0 0-1.695 1.009Z" fill="#822540"/></g><g filter="url(#F)"><path d="m22.103 159.3-.073.155a.504.504 0 0 0 .37.715l.334.057a.682.682 0 1 0 .153-1.354l-.062-.003a.752.752 0 0 0-.722.43Z" fill="url(#G)"/></g><g filter="url(#H)"><path d="m147.451 199.606-.221.467a1.523 1.523 0 0 0 1.117 2.154l1.005.174a2.057 2.057 0 1 0 .461-4.08l-.188-.01a2.272 2.272 0 0 0-2.174 1.295Z" fill="#822540"/></g><g filter="url(#I)"><path d="m148.78 200.37-.094.199a.649.649 0 0 0 .475.917l.428.074a.875.875 0 1 0 .196-1.737l-.08-.004a.967.967 0 0 0-.925.551Z" fill="url(#J)"/></g><g filter="url(#K)"><path d="m227.897 147.995-.148.312a1.02 1.02 0 0 0 .748 1.443l.673.116a1.377 1.377 0 1 0 .309-2.732l-.126-.007a1.52 1.52 0 0 0-1.456.868Z" fill="#822540"/></g><g filter="url(#L)"><path d="m228.786 148.506-.063.133a.434.434 0 0 0 .319.614l.286.049a.585.585 0 1 0 .131-1.162l-.053-.003a.65.65 0 0 0-.62.369Z" fill="url(#M)"/></g><g filter="url(#N)"><path d="m318.156 282.129-.173.364a1.19 1.19 0 0 0 .871 1.68l.784.135a1.602 1.602 0 1 0 .36-3.181l-.147-.008a1.772 1.772 0 0 0-1.695 1.01Z" fill="#822540"/></g><g filter="url(#O)"><path d="m319.195 282.725-.073.155a.506.506 0 0 0 .37.715l.334.058a.682.682 0 1 0 .153-1.354l-.063-.003a.752.752 0 0 0-.721.429Z" fill="url(#P)"/></g><g filter="url(#Q)"><path d="m12.434 404.091-.294.621a2.025 2.025 0 0 0 1.487 2.866l1.336.231a2.736 2.736 0 1 0 .614-5.428l-.25-.013a3.021 3.021 0 0 0-2.893 1.723Z" fill="#822540"/></g><g filter="url(#R)"><path d="m14.2 405.108-.126.264a.863.863 0 0 0 .633 1.22l.569.099a1.165 1.165 0 1 0 .261-2.311l-.107-.005a1.285 1.285 0 0 0-1.23.733Z" fill="url(#S)"/></g><g filter="url(#T)"><path d="m13.7 282.562-.172.364a1.187 1.187 0 0 0 .871 1.679l.784.136a1.603 1.603 0 1 0 .36-3.181l-.147-.008a1.77 1.77 0 0 0-1.695 1.01Z" fill="#822540"/></g><g filter="url(#U)"><path d="m14.74 283.158-.074.154a.507.507 0 0 0 .371.715l.334.058a.682.682 0 1 0 .153-1.354l-.063-.003a.752.752 0 0 0-.721.43Z" fill="url(#V)"/></g><g filter="url(#W)"><path d="m283.692 595.699-.197-.415a1.356 1.356 0 0 1 .994-1.917l.894-.155a1.83 1.83 0 1 1 .411 3.631l-.167.009a2.022 2.022 0 0 1-1.935-1.153Z" fill="#822540"/></g><g filter="url(#X)"><path d="m284.871 595.018-.084-.176a.577.577 0 0 1 .424-.816l.38-.066a.779.779 0 1 1 .175 1.545l-.071.004a.86.86 0 0 1-.824-.491Z" fill="url(#Y)"/></g><g filter="url(#Z)"><path d="m98.08 580.226-.221-.467a1.525 1.525 0 0 1 1.117-2.154l1.004-.174a2.057 2.057 0 1 1 .462 4.08l-.188.01a2.27 2.27 0 0 1-2.174-1.295Z" fill="#822540"/></g><g filter="url(#aa)"><path d="m99.405 579.462-.094-.199a.647.647 0 0 1 .475-.917l.428-.074a.875.875 0 1 1 .196 1.737l-.08.004a.967.967 0 0 1-.925-.551Z" fill="url(#ab)"/></g><g filter="url(#ac)"><path d="m178.526 631.835-.148-.313a1.02 1.02 0 0 1 .748-1.443l.672-.116a1.377 1.377 0 1 1 .309 2.732l-.125.007a1.521 1.521 0 0 1-1.456-.867Z" fill="#822540"/></g><g filter="url(#ad)"><path d="m179.415 631.323-.063-.133a.433.433 0 0 1 .318-.614l.287-.05a.586.586 0 1 1 .131 1.163l-.053.003a.648.648 0 0 1-.62-.369Z" fill="url(#ae)"/></g><g filter="url(#af)"><path d="m268.785 497.702-.173-.364a1.188 1.188 0 0 1 .871-1.68l.784-.135a1.603 1.603 0 1 1 .359 3.181l-.146.008a1.771 1.771 0 0 1-1.695-1.01Z" fill="#822540"/></g><g filter="url(#ag)"><path d="m269.82 497.107-.073-.155a.507.507 0 0 1 .37-.715l.334-.058a.683.683 0 1 1 .153 1.354l-.063.004a.755.755 0 0 1-.721-.43Z" fill="url(#ah)"/></g></g><defs><filter id="b" x="-328" y="-118" width="1016" height="1016" filterUnits="userSpaceOnUse" color-interpolation-filters="sRGB"><feFlood flood-opacity="0" result="BackgroundImageFix"/><feBlend in="SourceGraphic" in2="BackgroundImageFix" result="shape"/><feGaussianBlur stdDeviation="190" result="effect1_foregroundBlur_2003_287"/></filter><filter id="c" x="73.654" y="3.058" width="10.49" height="10.06" filterUnits="userSpaceOnUse" color-interpolation-filters="sRGB"><feFlood flood-opacity="0" result="BackgroundImageFix"/><feBlend in="SourceGraphic" in2="BackgroundImageFix" result="shape"/><feGaussianBlur stdDeviation="1.711" result="effect1_foregroundBlur_2003_287"/></filter><filter id="d" x="77.937" y="7.315" width="2.237" height="2.053" filterUnits="userSpaceOnUse" color-interpolation-filters="sRGB"><feFlood flood-opacity="0" result="BackgroundImageFix"/><feBlend in="SourceGraphic" in2="BackgroundImageFix" result="shape"/><feGaussianBlur stdDeviation=".171" result="effect1_foregroundBlur_2003_287"/></filter><filter id="f" x="198.992" y="42.708" width="13.455" height="12.901" filterUnits="userSpaceOnUse" color-interpolation-filters="sRGB"><feFlood flood-opacity="0" result="BackgroundImageFix"/><feBlend in="SourceGraphic" in2="BackgroundImageFix" result="shape"/><feGaussianBlur stdDeviation="2.194" result="effect1_foregroundBlur_2003_287"/></filter><filter id="g" x="204.483" y="48.167" width="2.868" height="2.633" filterUnits="userSpaceOnUse" color-interpolation-filters="sRGB"><feFlood flood-opacity="0" result="BackgroundImageFix"/><feBlend in="SourceGraphic" in2="BackgroundImageFix" result="shape"/><feGaussianBlur stdDeviation=".219" result="effect1_foregroundBlur_2003_287"/></filter><filter id="i" x="281.013" y="-7.022" width="9.008" height="8.639" filterUnits="userSpaceOnUse" color-interpolation-filters="sRGB"><feFlood flood-opacity="0" result="BackgroundImageFix"/><feBlend in="SourceGraphic" in2="BackgroundImageFix" result="shape"/><feGaussianBlur stdDeviation="1.469" result="effect1_foregroundBlur_2003_287"/></filter><filter id="j" x="62.406" y="245.313" width="17.898" height="17.164" filterUnits="userSpaceOnUse" color-interpolation-filters="sRGB"><feFlood flood-opacity="0" result="BackgroundImageFix"/><feBlend in="SourceGraphic" in2="BackgroundImageFix" result="shape"/><feGaussianBlur stdDeviation="2.919" result="effect1_foregroundBlur_2003_287"/></filter><filter id="k" x="69.709" y="252.577" width="3.816" height="3.503" filterUnits="userSpaceOnUse" color-interpolation-filters="sRGB"><feFlood flood-opacity="0" result="BackgroundImageFix"/><feBlend in="SourceGraphic" in2="BackgroundImageFix" result="shape"/><feGaussianBlur stdDeviation=".292" result="effect1_foregroundBlur_2003_287"/></filter><filter id="m" x="66.293" y="126.919" width="10.49" height="10.06" filterUnits="userSpaceOnUse" color-interpolation-filters="sRGB"><feFlood flood-opacity="0" result="BackgroundImageFix"/><feBlend in="SourceGraphic" in2="BackgroundImageFix" result="shape"/><feGaussianBlur stdDeviation="1.711" result="effect1_foregroundBlur_2003_287"/></filter><filter id="n" x="70.572" y="131.176" width="2.237" height="2.053" filterUnits="userSpaceOnUse" color-interpolation-filters="sRGB"><feFlood flood-opacity="0" result="BackgroundImageFix"/><feBlend in="SourceGraphic" in2="BackgroundImageFix" result="shape"/><feGaussianBlur stdDeviation=".171" result="effect1_foregroundBlur_2003_287"/></filter><filter id="p" x="49.528" y="696.683" width="11.971" height="11.481" filterUnits="userSpaceOnUse" color-interpolation-filters="sRGB"><feFlood flood-opacity="0" result="BackgroundImageFix"/><feBlend in="SourceGraphic" in2="BackgroundImageFix" result="shape"/><feGaussianBlur stdDeviation="1.953" result="effect1_foregroundBlur_2003_287"/></filter><filter id="q" x="54.065" y="700.961" width="2.553" height="2.343" filterUnits="userSpaceOnUse" color-interpolation-filters="sRGB"><feFlood flood-opacity="0" result="BackgroundImageFix"/><feBlend in="SourceGraphic" in2="BackgroundImageFix" result="shape"/><feGaussianBlur stdDeviation=".195" result="effect1_foregroundBlur_2003_287"/></filter><filter id="s" x="234.182" y="680.419" width="13.455" height="12.901" filterUnits="userSpaceOnUse" color-interpolation-filters="sRGB"><feFlood flood-opacity="0" result="BackgroundImageFix"/><feBlend in="SourceGraphic" in2="BackgroundImageFix" result="shape"/><feGaussianBlur stdDeviation="2.194" result="effect1_foregroundBlur_2003_287"/></filter><filter id="t" x="239.278" y="685.227" width="2.868" height="2.634" filterUnits="userSpaceOnUse" color-interpolation-filters="sRGB"><feFlood flood-opacity="0" result="BackgroundImageFix"/><feBlend in="SourceGraphic" in2="BackgroundImageFix" result="shape"/><feGaussianBlur stdDeviation=".219" result="effect1_foregroundBlur_2003_287"/></filter><filter id="v" x="156.608" y="734.411" width="9.008" height="8.639" filterUnits="userSpaceOnUse" color-interpolation-filters="sRGB"><feFlood flood-opacity="0" result="BackgroundImageFix"/><feBlend in="SourceGraphic" in2="BackgroundImageFix" result="shape"/><feGaussianBlur stdDeviation="1.469" result="effect1_foregroundBlur_2003_287"/></filter><filter id="w" x="160.021" y="737.631" width="1.92" height="1.763" filterUnits="userSpaceOnUse" color-interpolation-filters="sRGB"><feFlood flood-opacity="0" result="BackgroundImageFix"/><feBlend in="SourceGraphic" in2="BackgroundImageFix" result="shape"/><feGaussianBlur stdDeviation=".147" result="effect1_foregroundBlur_2003_287"/></filter><filter id="y" x="65.391" y="599.48" width="10.49" height="10.059" filterUnits="userSpaceOnUse" color-interpolation-filters="sRGB"><feFlood flood-opacity="0" result="BackgroundImageFix"/><feBlend in="SourceGraphic" in2="BackgroundImageFix" result="shape"/><feGaussianBlur stdDeviation="1.711" result="effect1_foregroundBlur_2003_287"/></filter><filter id="z" x="69.361" y="603.23" width="2.237" height="2.054" filterUnits="userSpaceOnUse" color-interpolation-filters="sRGB"><feFlood flood-opacity="0" result="BackgroundImageFix"/><feBlend in="SourceGraphic" in2="BackgroundImageFix" result="shape"/><feGaussianBlur stdDeviation=".171" result="effect1_foregroundBlur_2003_287"/></filter><filter id="B" x="328.829" y="179.073" width="11.971" height="11.481" filterUnits="userSpaceOnUse" color-interpolation-filters="sRGB"><feFlood flood-opacity="0" result="BackgroundImageFix"/><feBlend in="SourceGraphic" in2="BackgroundImageFix" result="shape"/><feGaussianBlur stdDeviation="1.953" result="effect1_foregroundBlur_2003_287"/></filter><filter id="C" x="333.711" y="183.932" width="2.553" height="2.343" filterUnits="userSpaceOnUse" color-interpolation-filters="sRGB"><feFlood flood-opacity="0" result="BackgroundImageFix"/><feBlend in="SourceGraphic" in2="BackgroundImageFix" result="shape"/><feGaussianBlur stdDeviation=".195" result="effect1_foregroundBlur_2003_287"/></filter><filter id="E" x="17.355" y="154.269" width="10.49" height="10.06" filterUnits="userSpaceOnUse" color-interpolation-filters="sRGB"><feFlood flood-opacity="0" result="BackgroundImageFix"/><feBlend in="SourceGraphic" in2="BackgroundImageFix" result="shape"/><feGaussianBlur stdDeviation="1.711" result="effect1_foregroundBlur_2003_287"/></filter><filter id="F" x="21.638" y="158.526" width="2.237" height="2.053" filterUnits="userSpaceOnUse" color-interpolation-filters="sRGB"><feFlood flood-opacity="0" result="BackgroundImageFix"/><feBlend in="SourceGraphic" in2="BackgroundImageFix" result="shape"/><feGaussianBlur stdDeviation=".171" result="effect1_foregroundBlur_2003_287"/></filter><filter id="H" x="142.693" y="193.919" width="13.455" height="12.901" filterUnits="userSpaceOnUse" color-interpolation-filters="sRGB"><feFlood flood-opacity="0" result="BackgroundImageFix"/><feBlend in="SourceGraphic" in2="BackgroundImageFix" result="shape"/><feGaussianBlur stdDeviation="2.194" result="effect1_foregroundBlur_2003_287"/></filter><filter id="I" x="148.184" y="199.379" width="2.868" height="2.633" filterUnits="userSpaceOnUse" color-interpolation-filters="sRGB"><feFlood flood-opacity="0" result="BackgroundImageFix"/><feBlend in="SourceGraphic" in2="BackgroundImageFix" result="shape"/><feGaussianBlur stdDeviation=".219" result="effect1_foregroundBlur_2003_287"/></filter><filter id="K" x="224.712" y="144.187" width="9.008" height="8.639" filterUnits="userSpaceOnUse" color-interpolation-filters="sRGB"><feFlood flood-opacity="0" result="BackgroundImageFix"/><feBlend in="SourceGraphic" in2="BackgroundImageFix" result="shape"/><feGaussianBlur stdDeviation="1.469" result="effect1_foregroundBlur_2003_287"/></filter><filter id="L" x="228.388" y="147.842" width="1.92" height="1.763" filterUnits="userSpaceOnUse" color-interpolation-filters="sRGB"><feFlood flood-opacity="0" result="BackgroundImageFix"/><feBlend in="SourceGraphic" in2="BackgroundImageFix" result="shape"/><feGaussianBlur stdDeviation=".147" result="effect1_foregroundBlur_2003_287"/></filter><filter id="N" x="314.447" y="277.695" width="10.49" height="10.06" filterUnits="userSpaceOnUse" color-interpolation-filters="sRGB"><feFlood flood-opacity="0" result="BackgroundImageFix"/><feBlend in="SourceGraphic" in2="BackgroundImageFix" result="shape"/><feGaussianBlur stdDeviation="1.711" result="effect1_foregroundBlur_2003_287"/></filter><filter id="O" x="318.73" y="281.952" width="2.237" height="2.053" filterUnits="userSpaceOnUse" color-interpolation-filters="sRGB"><feFlood flood-opacity="0" result="BackgroundImageFix"/><feBlend in="SourceGraphic" in2="BackgroundImageFix" result="shape"/><feGaussianBlur stdDeviation=".171" result="effect1_foregroundBlur_2003_287"/></filter><filter id="Q" x="6.107" y="396.525" width="17.898" height="17.164" filterUnits="userSpaceOnUse" color-interpolation-filters="sRGB"><feFlood flood-opacity="0" result="BackgroundImageFix"/><feBlend in="SourceGraphic" in2="BackgroundImageFix" result="shape"/><feGaussianBlur stdDeviation="2.919" result="effect1_foregroundBlur_2003_287"/></filter><filter id="R" x="13.406" y="403.789" width="3.816" height="3.503" filterUnits="userSpaceOnUse" color-interpolation-filters="sRGB"><feFlood flood-opacity="0" result="BackgroundImageFix"/><feBlend in="SourceGraphic" in2="BackgroundImageFix" result="shape"/><feGaussianBlur stdDeviation=".292" result="effect1_foregroundBlur_2003_287"/></filter><filter id="T" x="9.992" y="278.127" width="10.49" height="10.06" filterUnits="userSpaceOnUse" color-interpolation-filters="sRGB"><feFlood flood-opacity="0" result="BackgroundImageFix"/><feBlend in="SourceGraphic" in2="BackgroundImageFix" result="shape"/><feGaussianBlur stdDeviation="1.711" result="effect1_foregroundBlur_2003_287"/></filter><filter id="U" x="14.275" y="282.384" width="2.237" height="2.053" filterUnits="userSpaceOnUse" color-interpolation-filters="sRGB"><feFlood flood-opacity="0" result="BackgroundImageFix"/><feBlend in="SourceGraphic" in2="BackgroundImageFix" result="shape"/><feGaussianBlur stdDeviation=".171" result="effect1_foregroundBlur_2003_287"/></filter><filter id="W" x="279.46" y="589.279" width="11.971" height="11.481" filterUnits="userSpaceOnUse" color-interpolation-filters="sRGB"><feFlood flood-opacity="0" result="BackgroundImageFix"/><feBlend in="SourceGraphic" in2="BackgroundImageFix" result="shape"/><feGaussianBlur stdDeviation="1.953" result="effect1_foregroundBlur_2003_287"/></filter><filter id="X" x="284.342" y="593.558" width="2.553" height="2.343" filterUnits="userSpaceOnUse" color-interpolation-filters="sRGB"><feFlood flood-opacity="0" result="BackgroundImageFix"/><feBlend in="SourceGraphic" in2="BackgroundImageFix" result="shape"/><feGaussianBlur stdDeviation=".195" result="effect1_foregroundBlur_2003_287"/></filter><filter id="Z" x="93.322" y="573.012" width="13.455" height="12.901" filterUnits="userSpaceOnUse" color-interpolation-filters="sRGB"><feFlood flood-opacity="0" result="BackgroundImageFix"/><feBlend in="SourceGraphic" in2="BackgroundImageFix" result="shape"/><feGaussianBlur stdDeviation="2.194" result="effect1_foregroundBlur_2003_287"/></filter><filter id="aa" x="98.809" y="577.82" width="2.868" height="2.634" filterUnits="userSpaceOnUse" color-interpolation-filters="sRGB"><feFlood flood-opacity="0" result="BackgroundImageFix"/><feBlend in="SourceGraphic" in2="BackgroundImageFix" result="shape"/><feGaussianBlur stdDeviation=".219" result="effect1_foregroundBlur_2003_287"/></filter><filter id="ac" x="175.341" y="627.004" width="9.008" height="8.639" filterUnits="userSpaceOnUse" color-interpolation-filters="sRGB"><feFlood flood-opacity="0" result="BackgroundImageFix"/><feBlend in="SourceGraphic" in2="BackgroundImageFix" result="shape"/><feGaussianBlur stdDeviation="1.469" result="effect1_foregroundBlur_2003_287"/></filter><filter id="ad" x="179.017" y="630.224" width="1.92" height="1.763" filterUnits="userSpaceOnUse" color-interpolation-filters="sRGB"><feFlood flood-opacity="0" result="BackgroundImageFix"/><feBlend in="SourceGraphic" in2="BackgroundImageFix" result="shape"/><feGaussianBlur stdDeviation=".147" result="effect1_foregroundBlur_2003_287"/></filter><filter id="af" x="265.076" y="492.077" width="10.49" height="10.059" filterUnits="userSpaceOnUse" color-interpolation-filters="sRGB"><feFlood flood-opacity="0" result="BackgroundImageFix"/><feBlend in="SourceGraphic" in2="BackgroundImageFix" result="shape"/><feGaussianBlur stdDeviation="1.711" result="effect1_foregroundBlur_2003_287"/></filter><filter id="ag" x="269.355" y="495.827" width="2.237" height="2.054" filterUnits="userSpaceOnUse" color-interpolation-filters="sRGB"><feFlood flood-opacity="0" result="BackgroundImageFix"/><feBlend in="SourceGraphic" in2="BackgroundImageFix" result="shape"/><feGaussianBlur stdDeviation=".171" result="effect1_foregroundBlur_2003_287"/></filter><linearGradient id="e" x1="79.958" y1="7.998" x2="78.373" y2="8.901" gradientUnits="userSpaceOnUse"><stop stop-color="#FC7244"/><stop offset="1" stop-color="#AC3B41"/></linearGradient><linearGradient id="h" x1="207.075" y1="49.044" x2="205.041" y2="50.202" gradientUnits="userSpaceOnUse"><stop stop-color="#FC7244"/><stop offset="1" stop-color="#AC3B41"/></linearGradient><linearGradient id="l" x1="73.158" y1="253.744" x2="70.452" y2="255.284" gradientUnits="userSpaceOnUse"><stop stop-color="#FC7244"/><stop offset="1" stop-color="#AC3B41"/></linearGradient><linearGradient id="o" x1="72.593" y1="131.86" x2="71.007" y2="132.763" gradientUnits="userSpaceOnUse"><stop stop-color="#FC7244"/><stop offset="1" stop-color="#AC3B41"/></linearGradient><linearGradient id="r" x1="54.312" y1="702.524" x2="56.121" y2="701.493" gradientUnits="userSpaceOnUse"><stop stop-color="#FC7244"/><stop offset="1" stop-color="#AC3B41"/></linearGradient><linearGradient id="u" x1="239.554" y1="686.984" x2="241.588" y2="685.826" gradientUnits="userSpaceOnUse"><stop stop-color="#FC7244"/><stop offset="1" stop-color="#AC3B41"/></linearGradient><linearGradient id="x" x1="160.205" y1="738.807" x2="161.567" y2="738.031" gradientUnits="userSpaceOnUse"><stop stop-color="#FC7244"/><stop offset="1" stop-color="#AC3B41"/></linearGradient><linearGradient id="A" x1="69.577" y1="604.6" x2="71.162" y2="603.697" gradientUnits="userSpaceOnUse"><stop stop-color="#FC7244"/><stop offset="1" stop-color="#AC3B41"/></linearGradient><linearGradient id="D" x1="336.017" y1="184.713" x2="334.207" y2="185.743" gradientUnits="userSpaceOnUse"><stop stop-color="#FC7244"/><stop offset="1" stop-color="#AC3B41"/></linearGradient><linearGradient id="G" x1="23.66" y1="159.21" x2="22.074" y2="160.113" gradientUnits="userSpaceOnUse"><stop stop-color="#FC7244"/><stop offset="1" stop-color="#AC3B41"/></linearGradient><linearGradient id="J" x1="150.776" y1="200.256" x2="148.742" y2="201.413" gradientUnits="userSpaceOnUse"><stop stop-color="#FC7244"/><stop offset="1" stop-color="#AC3B41"/></linearGradient><linearGradient id="M" x1="230.123" y1="148.429" x2="228.761" y2="149.204" gradientUnits="userSpaceOnUse"><stop stop-color="#FC7244"/><stop offset="1" stop-color="#AC3B41"/></linearGradient><linearGradient id="P" x1="320.751" y1="282.636" x2="319.166" y2="283.539" gradientUnits="userSpaceOnUse"><stop stop-color="#FC7244"/><stop offset="1" stop-color="#AC3B41"/></linearGradient><linearGradient id="S" x1="16.855" y1="404.956" x2="14.15" y2="406.496" gradientUnits="userSpaceOnUse"><stop stop-color="#FC7244"/><stop offset="1" stop-color="#AC3B41"/></linearGradient><linearGradient id="V" x1="16.296" y1="283.068" x2="14.711" y2="283.971" gradientUnits="userSpaceOnUse"><stop stop-color="#FC7244"/><stop offset="1" stop-color="#AC3B41"/></linearGradient><linearGradient id="Y" x1="286.647" y1="595.12" x2="284.838" y2="594.09" gradientUnits="userSpaceOnUse"><stop stop-color="#FC7244"/><stop offset="1" stop-color="#AC3B41"/></linearGradient><linearGradient id="ab" x1="101.401" y1="579.576" x2="99.368" y2="578.419" gradientUnits="userSpaceOnUse"><stop stop-color="#FC7244"/><stop offset="1" stop-color="#AC3B41"/></linearGradient><linearGradient id="ae" x1="180.752" y1="631.399" x2="179.39" y2="630.624" gradientUnits="userSpaceOnUse"><stop stop-color="#FC7244"/><stop offset="1" stop-color="#AC3B41"/></linearGradient><linearGradient id="ah" x1="271.376" y1="497.196" x2="269.791" y2="496.294" gradientUnits="userSpaceOnUse"><stop stop-color="#FC7244"/><stop offset="1" stop-color="#AC3B41"/></linearGradient><clipPath id="a"><path fill="#fff" d="M0 0h360v780H0z"/></clipPath></defs></svg>