<svg width="80" height="80" viewBox="0 0 80 80" fill="none" xmlns="http://www.w3.org/2000/svg">
<path fill-rule="evenodd" clip-rule="evenodd" d="M39.9929 61.5414C52.222 61.5414 62.1356 51.6278 62.1356 39.3987C62.1356 27.1696 52.222 17.256 39.9929 17.256C27.7638 17.256 17.8502 27.1696 17.8502 39.3987C17.8502 51.6278 27.7638 61.5414 39.9929 61.5414ZM39.9929 64.1392C53.6567 64.1392 64.7334 53.0625 64.7334 39.3987C64.7334 25.7349 53.6567 14.6582 39.9929 14.6582C26.3291 14.6582 15.2524 25.7349 15.2524 39.3987C15.2524 53.0625 26.3291 64.1392 39.9929 64.1392Z" fill="url(#paint0_angular_2071_23)"/>
<path fill-rule="evenodd" clip-rule="evenodd" d="M39.9929 61.5414C52.222 61.5414 62.1356 51.6278 62.1356 39.3987C62.1356 27.1696 52.222 17.256 39.9929 17.256C27.7638 17.256 17.8502 27.1696 17.8502 39.3987C17.8502 51.6278 27.7638 61.5414 39.9929 61.5414ZM39.9929 64.1392C53.6567 64.1392 64.7334 53.0625 64.7334 39.3987C64.7334 25.7349 53.6567 14.6582 39.9929 14.6582C26.3291 14.6582 15.2524 25.7349 15.2524 39.3987C15.2524 53.0625 26.3291 64.1392 39.9929 64.1392Z" fill="url(#paint1_angular_2071_23)"/>
<path fill-rule="evenodd" clip-rule="evenodd" d="M37.6871 56.8889C41.5147 54.436 45.5798 50.133 48.8316 44.5007C52.0834 38.8684 53.7775 33.1964 53.9878 28.6551C54.2051 23.9659 52.8601 21.2583 51.0715 20.2256C49.2828 19.1929 46.2654 19.382 42.3131 21.9147C38.4854 24.3675 34.4203 28.6706 31.1685 34.3029C27.9167 39.9352 26.2227 45.6072 26.0123 50.1485C25.7951 54.8376 27.14 57.5452 28.9287 58.5779C30.7174 59.6106 33.7347 59.4216 37.6871 56.8889ZM27.6299 60.8277C33.7499 64.3611 44.2495 57.6327 51.0814 45.7996C57.9133 33.9664 58.4903 21.5093 52.3703 17.9759C46.2503 14.4425 35.7507 21.1708 28.9188 33.004C22.0869 44.8372 21.5098 57.2943 27.6299 60.8277Z" fill="url(#paint2_angular_2071_23)"/>
<path fill-rule="evenodd" clip-rule="evenodd" d="M29.8987 54.2992C34.5359 54.2993 40.2483 52.7529 45.842 49.5234C51.4358 46.2938 55.6312 42.1199 57.9497 38.104C60.3079 34.0195 60.4868 30.6033 59.175 28.3314C57.8633 26.0594 54.8154 24.5062 50.0991 24.5062C45.4619 24.5062 39.7495 26.0525 34.1557 29.2821C28.5619 32.5116 24.3666 36.6856 22.048 40.7015C19.6899 44.7859 19.511 48.2021 20.8227 50.4741C22.1344 52.7461 25.1824 54.2992 29.8987 54.2992ZM18.573 51.773C22.5174 58.6049 35.3077 58.605 47.1409 51.7731C58.9741 44.9412 65.3692 33.8645 61.4248 27.0325C57.4803 20.2005 44.69 20.2005 32.8568 27.0323C21.0236 33.8642 14.6286 44.941 18.573 51.773Z" fill="url(#paint3_angular_2071_23)"/>
<path fill-rule="evenodd" clip-rule="evenodd" d="M21.1359 40.0494C23.2089 44.4402 27.2084 48.8206 32.7248 52.0055C38.2411 55.1904 44.0344 56.4638 48.8735 56.0637C53.7246 55.6626 57.3545 53.631 59.1762 50.4758C60.9978 47.3205 60.9423 43.1612 58.8641 38.7594C56.7911 34.3686 52.7916 29.9882 47.2752 26.8033C41.7589 23.6184 35.9656 22.345 31.1265 22.7451C26.2754 23.1462 22.6455 25.1778 20.8238 28.333C19.0022 31.4883 19.0577 35.6476 21.1359 40.0494ZM18.5741 27.0342C13.8388 35.236 19.5927 47.4233 31.4259 54.2552C43.2591 61.0871 56.6905 59.9765 61.4259 51.7746C66.1612 43.5728 60.4073 31.3855 48.5741 24.5536C36.7409 17.7217 23.3095 18.8323 18.5741 27.0342Z" fill="url(#paint4_angular_2071_23)"/>
<path d="M34.4336 39.4021C35.7002 39.7872 36.8931 40.4806 37.8945 41.482C38.896 42.4834 39.5893 43.6763 39.9744 44.9428C40.3596 43.6763 41.0529 42.4834 42.0544 41.482C43.0558 40.4805 44.2486 39.7873 45.5151 39.4021C44.2486 39.0169 43.0558 38.3236 42.0544 37.3222C41.0529 36.3208 40.3596 35.1279 39.9744 33.8613C39.5893 35.1278 38.896 36.3207 37.8945 37.3221C36.8931 38.3236 35.7002 39.0169 34.4336 39.4021Z" fill="#F3CFFF"/>
<circle cx="40" cy="40" r="38.7692" stroke="#F3CFFF" stroke-opacity="0.15" stroke-width="2.46154"/>
<path d="M40 1.23077C50.2822 1.23077 60.1434 5.31538 67.414 12.586C74.6846 19.8567 78.7692 29.7178 78.7692 40C78.7692 50.2822 74.6846 60.1433 67.414 67.414C60.1433 74.6846 50.2822 78.7692 40 78.7692" stroke="#F3CFFF" stroke-width="2.46154"/>
<defs>
<radialGradient id="paint0_angular_2071_23" cx="0" cy="0" r="1" gradientUnits="userSpaceOnUse" gradientTransform="translate(39.9929 39.3987) rotate(45) scale(26.7661)">
<stop offset="0.0269499" stop-color="#F3CFFF"/>
<stop offset="0.224318" stop-color="#F3CFFF"/>
<stop offset="0.424397" stop-color="#F3CFFF" stop-opacity="0"/>
<stop offset="0.492824" stop-color="#F3CFFF" stop-opacity="0"/>
<stop offset="0.76105" stop-color="#F3CFFF"/>
<stop offset="0.864444" stop-color="#F3CFFF"/>
</radialGradient>
<radialGradient id="paint1_angular_2071_23" cx="0" cy="0" r="1" gradientUnits="userSpaceOnUse" gradientTransform="translate(39.9929 39.3987) rotate(45) scale(26.7661)">
<stop offset="0.0269499" stop-color="#F3CFFF"/>
<stop offset="0.224318" stop-color="#F3CFFF"/>
<stop offset="0.361518" stop-color="#F3CFFF" stop-opacity="0"/>
<stop offset="0.465013" stop-color="#F3CFFF" stop-opacity="0"/>
<stop offset="0.565022" stop-color="#F3CFFF" stop-opacity="0"/>
<stop offset="0.76105" stop-color="#F3CFFF"/>
<stop offset="0.864444" stop-color="#F3CFFF"/>
</radialGradient>
<radialGradient id="paint2_angular_2071_23" cx="0" cy="0" r="1" gradientUnits="userSpaceOnUse" gradientTransform="translate(40.0001 39.4018) rotate(120) scale(24.7405 12.7955)">
<stop stop-color="#F3CFFF"/>
<stop offset="0.485" stop-color="#F3CFFF"/>
<stop offset="0.741768" stop-color="#F3CFFF" stop-opacity="0"/>
<stop offset="1" stop-color="#F3CFFF" stop-opacity="0"/>
</radialGradient>
<radialGradient id="paint3_angular_2071_23" cx="0" cy="0" r="1" gradientUnits="userSpaceOnUse" gradientTransform="translate(40.1147 39.3363) rotate(151.777) scale(24.8497 43.0405)">
<stop offset="0.0219535" stop-color="#F3CFFF" stop-opacity="0"/>
<stop offset="0.484341" stop-color="#F3CFFF"/>
<stop offset="0.869039" stop-color="#F3CFFF" stop-opacity="0"/>
</radialGradient>
<radialGradient id="paint4_angular_2071_23" cx="0" cy="0" r="1" gradientUnits="userSpaceOnUse" gradientTransform="translate(40 39.4044) rotate(120) scale(17.1482 24.7405)">
<stop offset="0.348771" stop-color="#F3CFFF"/>
<stop offset="0.448731" stop-color="#F3CFFF" stop-opacity="0"/>
<stop offset="0.705" stop-color="#F3CFFF" stop-opacity="0"/>
<stop offset="0.81" stop-color="#F3CFFF"/>
</radialGradient>
</defs>
</svg>
