<svg width="34" height="34" viewBox="0 0 34 34" fill="none" xmlns="http://www.w3.org/2000/svg">
<g clip-path="url(#clip0_325_13134)">
<g filter="url(#filter0_i_325_13134)">
<rect width="34" height="34" rx="17" fill="#461153"/>
<rect x="0.317016" y="0.317016" width="33.366" height="33.366" rx="16.683" stroke="url(#paint0_linear_325_13134)" stroke-width="0.634033"/>
</g>
<g filter="url(#filter1_f_325_13134)">
<ellipse cx="16.9209" cy="60.0758" rx="33.2471" ry="33.2867" fill="#DE4916"/>
</g>
</g>
<path fill-rule="evenodd" clip-rule="evenodd" d="M16.9974 27.7028C22.8958 27.7028 27.6774 22.9212 27.6774 17.0228C27.6774 11.1244 22.8958 6.34281 16.9974 6.34281C11.099 6.34281 6.31741 11.1244 6.31741 17.0228C6.31741 22.9212 11.099 27.7028 16.9974 27.7028ZM16.9974 28.9558C23.5878 28.9558 28.9304 23.6132 28.9304 17.0228C28.9304 10.4324 23.5878 5.08984 16.9974 5.08984C10.407 5.08984 5.06445 10.4324 5.06445 17.0228C5.06445 23.6132 10.407 28.9558 16.9974 28.9558Z" fill="url(#paint1_angular_325_13134)"/>
<path fill-rule="evenodd" clip-rule="evenodd" d="M16.9974 27.7028C22.8958 27.7028 27.6774 22.9212 27.6774 17.0228C27.6774 11.1244 22.8958 6.34281 16.9974 6.34281C11.099 6.34281 6.31741 11.1244 6.31741 17.0228C6.31741 22.9212 11.099 27.7028 16.9974 27.7028ZM16.9974 28.9558C23.5878 28.9558 28.9304 23.6132 28.9304 17.0228C28.9304 10.4324 23.5878 5.08984 16.9974 5.08984C10.407 5.08984 5.06445 10.4324 5.06445 17.0228C5.06445 23.6132 10.407 28.9558 16.9974 28.9558Z" fill="url(#paint2_angular_325_13134)"/>
<path fill-rule="evenodd" clip-rule="evenodd" d="M15.8857 25.46C17.7319 24.2769 19.6926 22.2015 21.261 19.4849C22.8295 16.7683 23.6465 14.0325 23.748 11.8421C23.8528 9.58042 23.2041 8.27447 22.3413 7.77637C21.4786 7.27828 20.0233 7.36947 18.117 8.59106C16.2708 9.77412 14.3101 11.8496 12.7417 14.5662C11.1732 17.2828 10.3562 20.0186 10.2547 22.2089C10.1499 24.4706 10.7986 25.7766 11.6613 26.2747C12.5241 26.7728 13.9794 26.6816 15.8857 25.46ZM11.0349 27.3598C13.9867 29.064 19.0509 25.8188 22.3461 20.1113C25.6413 14.4039 25.9197 8.39552 22.9678 6.69128C20.016 4.98703 14.9518 8.23227 11.6566 13.9397C8.36137 19.6472 8.08302 25.6555 11.0349 27.3598Z" fill="url(#paint3_angular_325_13134)"/>
<path fill-rule="evenodd" clip-rule="evenodd" d="M12.1276 24.2117C14.3643 24.2118 17.1195 23.4659 19.8175 21.9082C22.5155 20.3505 24.5391 18.3373 25.6574 16.4004C26.7948 14.4303 26.881 12.7826 26.2484 11.6868C25.6157 10.5909 24.1456 9.84183 21.8708 9.84182C19.6342 9.8418 16.8789 10.5876 14.1809 12.1453C11.4829 13.703 9.45936 15.7162 8.34106 17.6532C7.20367 19.6232 7.11738 21.2709 7.75006 22.3668C8.38274 23.4626 9.85283 24.2117 12.1276 24.2117ZM6.66496 22.9933C8.56747 26.2885 14.7366 26.2885 20.444 22.9933C26.1515 19.6981 29.236 14.3555 27.3335 11.0603C25.431 7.76507 19.2619 7.76503 13.5544 11.0602C7.84697 14.3554 4.76246 19.698 6.66496 22.9933Z" fill="url(#paint4_angular_325_13134)"/>
<path fill-rule="evenodd" clip-rule="evenodd" d="M7.90229 17.3356C8.90216 19.4534 10.8312 21.5663 13.4919 23.1024C16.1526 24.6385 18.9468 25.2528 21.2809 25.0598C23.6207 24.8663 25.3715 23.8864 26.2501 22.3646C27.1287 20.8427 27.1019 18.8366 26.0996 16.7135C25.0997 14.5957 23.1706 12.4829 20.51 10.9467C17.8493 9.4106 15.055 8.79639 12.721 8.98937C10.3812 9.18285 8.63042 10.1627 7.75178 11.6846C6.87314 13.2064 6.89993 15.2126 7.90229 17.3356ZM6.66669 11.0581C4.3827 15.0141 7.15797 20.8923 12.8654 24.1875C18.5729 27.4827 25.0512 26.947 27.3352 22.9911C29.6192 19.0351 26.8439 13.1568 21.1365 9.86164C15.429 6.56644 8.95067 7.10211 6.66669 11.0581Z" fill="url(#paint5_angular_325_13134)"/>
<path d="M14.3164 17.024C14.9273 17.2098 15.5027 17.5442 15.9857 18.0272C16.4687 18.5102 16.8031 19.0856 16.9889 19.6965C17.1747 19.0856 17.5091 18.5102 17.9921 18.0272C18.4751 17.5442 19.0504 17.2098 19.6613 17.024C19.0504 16.8382 18.4751 16.5038 17.9921 16.0208C17.5091 15.5378 17.1747 14.9624 16.9889 14.3516C16.8031 14.9624 16.4687 15.5378 15.9857 16.0208C15.5027 16.5038 14.9273 16.8382 14.3164 17.024Z" fill="#F3CFFF"/>
<defs>
<filter id="filter0_i_325_13134" x="0" y="0" width="34" height="34" filterUnits="userSpaceOnUse" color-interpolation-filters="sRGB">
<feFlood flood-opacity="0" result="BackgroundImageFix"/>
<feBlend mode="normal" in="SourceGraphic" in2="BackgroundImageFix" result="shape"/>
<feColorMatrix in="SourceAlpha" type="matrix" values="0 0 0 0 0 0 0 0 0 0 0 0 0 0 0 0 0 0 127 0" result="hardAlpha"/>
<feMorphology radius="0.951049" operator="erode" in="SourceAlpha" result="effect1_innerShadow_325_13134"/>
<feOffset/>
<feGaussianBlur stdDeviation="0.634033"/>
<feComposite in2="hardAlpha" operator="arithmetic" k2="-1" k3="1"/>
<feColorMatrix type="matrix" values="0 0 0 0 0.950088 0 0 0 0 0.6625 0 0 0 0 1 0 0 0 0.42 0"/>
<feBlend mode="normal" in2="shape" result="effect1_innerShadow_325_13134"/>
</filter>
<filter id="filter1_f_325_13134" x="-36.1397" y="6.97554" width="106.121" height="106.201" filterUnits="userSpaceOnUse" color-interpolation-filters="sRGB">
<feFlood flood-opacity="0" result="BackgroundImageFix"/>
<feBlend mode="normal" in="SourceGraphic" in2="BackgroundImageFix" result="shape"/>
<feGaussianBlur stdDeviation="9.90676" result="effect1_foregroundBlur_325_13134"/>
</filter>
<linearGradient id="paint0_linear_325_13134" x1="0" y1="0" x2="35.4278" y2="1.55924" gradientUnits="userSpaceOnUse">
<stop stop-color="white" stop-opacity="0.64"/>
<stop offset="1" stop-color="white" stop-opacity="0.2"/>
</linearGradient>
<radialGradient id="paint1_angular_325_13134" cx="0" cy="0" r="1" gradientUnits="userSpaceOnUse" gradientTransform="translate(16.9974 17.0228) rotate(45) scale(12.91)">
<stop offset="0.0269499" stop-color="#F3CFFF"/>
<stop offset="0.224318" stop-color="#F3CFFF"/>
<stop offset="0.424397" stop-color="#F3CFFF" stop-opacity="0"/>
<stop offset="0.492824" stop-color="#F3CFFF" stop-opacity="0"/>
<stop offset="0.76105" stop-color="#F3CFFF"/>
<stop offset="0.864444" stop-color="#F3CFFF"/>
</radialGradient>
<radialGradient id="paint2_angular_325_13134" cx="0" cy="0" r="1" gradientUnits="userSpaceOnUse" gradientTransform="translate(16.9974 17.0228) rotate(45) scale(12.91)">
<stop offset="0.0269499" stop-color="#F3CFFF"/>
<stop offset="0.224318" stop-color="#F3CFFF"/>
<stop offset="0.361518" stop-color="#F3CFFF" stop-opacity="0"/>
<stop offset="0.465013" stop-color="#F3CFFF" stop-opacity="0"/>
<stop offset="0.565022" stop-color="#F3CFFF" stop-opacity="0"/>
<stop offset="0.76105" stop-color="#F3CFFF"/>
<stop offset="0.864444" stop-color="#F3CFFF"/>
</radialGradient>
<radialGradient id="paint3_angular_325_13134" cx="0" cy="0" r="1" gradientUnits="userSpaceOnUse" gradientTransform="translate(17.0013 17.0255) rotate(120) scale(11.933 6.17162)">
<stop stop-color="#F3CFFF"/>
<stop offset="0.485" stop-color="#F3CFFF"/>
<stop offset="0.741768" stop-color="#F3CFFF" stop-opacity="0"/>
<stop offset="1" stop-color="#F3CFFF" stop-opacity="0"/>
</radialGradient>
<radialGradient id="paint4_angular_325_13134" cx="0" cy="0" r="1" gradientUnits="userSpaceOnUse" gradientTransform="translate(17.0551 16.9948) rotate(151.777) scale(11.9857 20.7595)">
<stop offset="0.0219535" stop-color="#F3CFFF" stop-opacity="0"/>
<stop offset="0.484341" stop-color="#F3CFFF"/>
<stop offset="0.869039" stop-color="#F3CFFF" stop-opacity="0"/>
</radialGradient>
<radialGradient id="paint5_angular_325_13134" cx="0" cy="0" r="1" gradientUnits="userSpaceOnUse" gradientTransform="translate(17.0009 17.0246) rotate(120) scale(8.27104 11.933)">
<stop offset="0.348771" stop-color="#F3CFFF"/>
<stop offset="0.448731" stop-color="#F3CFFF" stop-opacity="0"/>
<stop offset="0.705" stop-color="#F3CFFF" stop-opacity="0"/>
<stop offset="0.81" stop-color="#F3CFFF"/>
</radialGradient>
<clipPath id="clip0_325_13134">
<rect width="34" height="34" rx="17" fill="white"/>
</clipPath>
</defs>
</svg>
