<svg width="14" height="14" viewBox="0 0 14 14" fill="none" xmlns="http://www.w3.org/2000/svg">
<path fill-rule="evenodd" clip-rule="evenodd" d="M8.40537 3.35266C8.52891 3.21317 8.72923 3.21317 8.85277 3.35266L11.7882 6.66685C11.8562 6.73236 11.8994 6.82987 11.8994 6.93875C11.8994 7.04624 11.8573 7.14263 11.7908 7.20811L8.85277 10.5252C8.72923 10.6647 8.52891 10.6647 8.40537 10.5252C8.28182 10.3858 8.28182 10.1596 8.40537 10.0201L10.8182 7.29594L4.83394 7.29594C4.65922 7.29594 4.51758 7.13602 4.51758 6.93875C4.51758 6.74148 4.65922 6.58157 4.83394 6.58157L10.8178 6.58157L8.40537 3.8578C8.28182 3.71831 8.28182 3.49215 8.40537 3.35266Z" fill="#F3CFFF" stroke="#F3CFFF" stroke-width="0.28" stroke-linecap="round" stroke-linejoin="round"/>
<path d="M5.44091 1.75H1.925C1.82835 1.75 1.75 1.82835 1.75 1.925V11.725C1.75 11.8217 1.82835 11.9 1.925 11.9H5.44091" stroke="#F3CFFF" stroke-width="0.98" stroke-linecap="round"/>
</svg>
