<svg width="14" height="14" viewBox="0 0 14 14" fill="none" xmlns="http://www.w3.org/2000/svg">
<g clip-path="url(#clip0_325_10325)">
<path fill-rule="evenodd" clip-rule="evenodd" d="M7.00117 12.3542C9.95866 12.3542 12.3562 9.9567 12.3562 6.99922C12.3562 4.04173 9.95866 1.64422 7.00117 1.64422C4.04369 1.64422 1.64617 4.04173 1.64617 6.99922C1.64617 9.9567 4.04369 12.3542 7.00117 12.3542ZM7.00117 13.2992C10.4806 13.2992 13.3012 10.4786 13.3012 6.99922C13.3012 3.51982 10.4806 0.699219 7.00117 0.699219C3.52178 0.699219 0.701172 3.51982 0.701172 6.99922C0.701172 10.4786 3.52178 13.2992 7.00117 13.2992Z" fill="#F3CFFF"/>
<path d="M6.37117 4.18522C6.37117 3.99965 6.5216 3.84922 6.70717 3.84922H7.29517C7.48074 3.84922 7.63117 3.99965 7.63117 4.18522V4.77322C7.63117 4.95879 7.48074 5.10922 7.29517 5.10922H6.70717C6.5216 5.10922 6.37117 4.95879 6.37117 4.77322V4.18522Z" fill="#F3CFFF"/>
<path d="M6.37117 6.70522C6.37117 6.51965 6.5216 6.36922 6.70717 6.36922H7.29517C7.48074 6.36922 7.63117 6.51965 7.63117 6.70522V9.81322C7.63117 9.99879 7.48074 10.1492 7.29517 10.1492H6.70717C6.5216 10.1492 6.37117 9.99879 6.37117 9.81322V6.70522Z" fill="#F3CFFF"/>
</g>
<defs>
<clipPath id="clip0_325_10325">
<rect width="14" height="14" fill="white"/>
</clipPath>
</defs>
</svg>
