<svg width="16" height="16" viewBox="0 0 16 16" fill="none" xmlns="http://www.w3.org/2000/svg">
<path fill-rule="evenodd" clip-rule="evenodd" d="M2.94944 4.7549L7.49513 0.209209C7.77408 -0.0697363 8.22634 -0.0697362 8.50528 0.209209L13.051 4.7549C13.3299 5.03384 13.3299 5.4861 13.051 5.76505C12.772 6.04399 12.3198 6.04399 12.0408 5.76505L8.71449 2.43872L8.71449 11L7.28592 11L7.28592 2.43872L3.9596 5.76505C3.68065 6.04399 3.22839 6.04399 2.94944 5.76505C2.6705 5.4861 2.6705 5.03384 2.94944 4.7549Z" fill="white"/>
<path d="M0 12.1426V13.2854C0 14.5478 1.02335 15.5711 2.28571 15.5711H13.7143C14.9767 15.5711 16 14.5478 16 13.2854V12.1426H14.2857V13.2854C14.2857 13.601 14.0299 13.8569 13.7143 13.8569H2.28571C1.97012 13.8569 1.71429 13.601 1.71429 13.2854V12.1426H0Z" fill="white"/>
</svg>
