<svg width="14" height="14" viewBox="0 0 14 14" fill="none" xmlns="http://www.w3.org/2000/svg">
<path fill-rule="evenodd" clip-rule="evenodd" d="M6.10143 0.778665C6.05807 0.822084 6.02259 0.864751 6.02259 0.873536C6.02259 0.894718 5.82966 1.84925 5.79774 1.98624C5.77942 2.06469 5.7093 2.10892 5.53379 2.15274C5.4024 2.18557 5.08194 2.31301 4.82175 2.43594L4.34862 2.65947L3.81576 2.30709C3.5227 2.11328 3.24666 1.95471 3.20234 1.95471C3.09228 1.95471 1.95724 3.10044 1.95724 3.21153C1.95724 3.26042 2.11434 3.53886 2.30636 3.8302L2.65548 4.36002L2.4348 4.82639C2.31344 5.08289 2.18556 5.40003 2.15057 5.5311C2.11564 5.66221 2.0522 5.77987 2.00959 5.79257C1.96698 5.80527 1.69696 5.86294 1.40953 5.92072C0.637764 6.07593 0.702508 5.97985 0.702508 6.96997C0.702508 7.6813 0.715156 7.82587 0.782259 7.88159C0.826125 7.91798 1.13379 8.00547 1.46589 8.07595L2.06972 8.20415L2.20643 8.60572C2.28162 8.82658 2.41477 9.14864 2.5024 9.32137L2.6617 9.63544L2.30521 10.1668C2.04638 10.5527 1.95619 10.7281 1.97606 10.8073C2.00573 10.9255 3.11225 12.0442 3.19948 12.0442C3.22869 12.0442 3.49249 11.886 3.78564 11.6928C4.07885 11.4995 4.33075 11.3414 4.34551 11.3414C4.36021 11.3414 4.55726 11.4299 4.78336 11.5379C5.00946 11.646 5.325 11.7746 5.48451 11.8236C5.6952 11.8884 5.78092 11.9411 5.79789 12.0162C5.81069 12.073 5.86866 12.3453 5.92662 12.6214C6.07488 13.327 6.03177 13.2991 6.97438 13.2991C7.52691 13.2991 7.78569 13.2803 7.84652 13.2358C7.90484 13.1932 7.97561 12.9669 8.06404 12.54L8.19509 11.9074L8.4765 11.8215C8.63128 11.7744 8.95129 11.6453 9.18758 11.5348L9.6173 11.3338L10.1768 11.6943L10.7363 12.0549L10.9091 11.9481C11.1949 11.7714 11.9951 10.9024 11.9951 10.7687C11.9951 10.7043 11.8454 10.4221 11.6623 10.1416L11.3296 9.63163L11.5315 9.19397C11.6426 8.95328 11.7727 8.63031 11.8206 8.47631L11.9076 8.19637L12.5011 8.08197C13.3148 7.92521 13.2716 7.97636 13.2916 7.14596C13.3184 6.02975 13.349 6.07688 12.484 5.90325L11.9201 5.79011L11.7661 5.36575C11.6813 5.13234 11.5515 4.82353 11.4774 4.67952C11.3027 4.34004 11.2922 4.38722 11.6689 3.82377C11.8587 3.53996 11.9951 3.28205 11.9951 3.20721C11.9951 3.06179 10.9193 1.95471 10.778 1.95471C10.735 1.95471 10.4575 2.11439 10.1614 2.3096L9.62308 2.66444L9.34106 2.51536C9.18598 2.43338 8.87836 2.30398 8.65753 2.22788C8.4367 2.15173 8.23935 2.07523 8.21893 2.05782C8.19855 2.0404 8.1339 1.77852 8.07533 1.47589C7.91533 0.64966 7.98459 0.699806 7.00369 0.699806C6.32212 0.699806 6.16673 0.713409 6.10143 0.778665ZM7.52872 1.4904C7.65179 2.1055 7.7338 2.42706 7.78268 2.48594C7.81069 2.51967 7.99071 2.58578 8.18274 2.63286C8.37481 2.67995 8.77352 2.83847 9.06878 2.98514L9.60561 3.25188L9.78403 3.15817C9.88215 3.10667 10.1318 2.95046 10.3388 2.81111L10.7151 2.55777L11.0619 2.90458L11.4087 3.25138L11.0935 3.73794C10.6913 4.35891 10.694 4.3417 10.9287 4.77539C11.1288 5.14514 11.2921 5.56167 11.3938 5.96168C11.4604 6.22355 11.549 6.26848 12.2586 6.40004L12.748 6.4908V6.98257C12.748 7.4515 12.7427 7.4756 12.635 7.5001C12.5729 7.51425 12.3086 7.57228 12.0475 7.629C11.4619 7.75625 11.4828 7.73797 11.3179 8.26719C11.2431 8.50708 11.0815 8.90318 10.9589 9.14744C10.6997 9.66355 10.6955 9.62947 11.0949 10.2378C11.2587 10.4875 11.3929 10.7074 11.3929 10.7266C11.3929 10.7722 10.7789 11.3916 10.7337 11.3916C10.7146 11.3916 10.4675 11.2448 10.1845 11.0653C9.90153 10.8859 9.65188 10.7391 9.6298 10.7391C9.60767 10.7391 9.36862 10.8501 9.0985 10.9858C8.82838 11.1215 8.43795 11.2816 8.23092 11.3416C7.74233 11.4832 7.74704 11.4771 7.60621 12.1422C7.53996 12.4551 7.4558 12.7301 7.41916 12.7533C7.34513 12.8003 6.75726 12.8111 6.59846 12.7684C6.51369 12.7456 6.4778 12.6483 6.38305 12.1846C6.24899 11.5286 6.21446 11.4524 6.03368 11.4139C5.71121 11.3451 5.11707 11.1171 4.77262 10.9299C4.34039 10.695 4.37306 10.6886 3.65334 11.1503L3.25329 11.407L2.90773 11.0605L2.56213 10.714L2.88705 10.2186C3.26779 9.6382 3.26799 9.6367 3.02377 9.16782C2.92028 8.96909 2.75651 8.56933 2.6599 8.27944L2.48423 7.75238L1.95724 7.63879C1.6674 7.57634 1.37861 7.51355 1.31552 7.49934C1.20445 7.47429 1.20124 7.45803 1.21514 6.989L1.2295 6.5045L1.80668 6.38488C2.49066 6.24313 2.50446 6.23164 2.68032 5.65498C2.75425 5.41248 2.90412 5.04434 3.01338 4.83693C3.2707 4.34827 3.26975 4.34049 2.88163 3.74802L2.55129 3.2438L2.89468 2.90041L3.23803 2.55697L3.56376 2.77447C3.74293 2.89409 3.99483 3.05321 4.12352 3.12805L4.35755 3.26418L4.8337 3.01877C5.09559 2.88375 5.4956 2.71965 5.72255 2.65405C6.21938 2.51049 6.23925 2.48524 6.37341 1.82696C6.42942 1.55214 6.48563 1.29905 6.49828 1.26451C6.51449 1.22034 6.66205 1.20177 6.99616 1.20177H7.47095L7.52872 1.4904ZM6.20061 3.98671C4.2894 4.53304 3.35447 6.63802 4.2383 8.40493C5.17308 10.2736 7.67156 10.6582 9.16414 9.1632C10.785 7.5396 10.1675 4.83924 7.99604 4.05487C7.61711 3.91794 6.57894 3.87853 6.20061 3.98671ZM7.80035 4.56356C9.2857 5.07466 9.97641 6.75649 9.27431 8.15245C8.34631 9.99746 5.70313 10.0206 4.7287 8.1922C3.64913 6.16643 5.63628 3.8189 7.80035 4.56356Z" fill="#F3CFFF" stroke="#F3CFFF" stroke-width="0.28"/>
</svg>
