<svg width="16" height="16" viewBox="0 0 16 16" fill="none" xmlns="http://www.w3.org/2000/svg">
<path d="M14.5843 12.025C13.0063 10.119 10.3763 8.982 7.55027 8.982C4.72327 8.982 2.09427 10.119 0.515265 12.026C0.165265 12.45 -0.00773476 12.903 0.000265237 13.371C0.00826524 13.797 0.170265 14.223 0.470265 14.601C1.07727 15.371 2.14226 15.849 3.32026 15.849H11.8483C12.9553 15.849 14.0213 15.372 14.6283 14.604C14.9283 14.224 15.0923 13.797 15.0983 13.368C15.1053 12.898 14.9323 12.447 14.5843 12.025ZM13.3203 13.569C13.0793 13.875 12.5303 14.183 11.7753 14.183H3.25127C2.56827 14.183 2.01927 13.875 1.77827 13.569C1.69827 13.467 1.66826 13.384 1.66826 13.34C1.66626 13.297 1.70127 13.208 1.79927 13.088C3.06427 11.561 5.21426 10.648 7.54926 10.648C9.88526 10.648 12.0353 11.561 13.2993 13.088C13.3853 13.191 13.4333 13.284 13.4323 13.341C13.4323 13.384 13.4023 13.467 13.3203 13.569ZM7.55227 7.416C9.32127 7.416 10.7603 5.977 10.7603 4.208C10.7592 3.35751 10.4209 2.54216 9.81949 1.94077C9.21811 1.33938 8.40275 1.00106 7.55227 1C6.70178 1.00106 5.88642 1.33938 5.28504 1.94077C4.68365 2.54216 4.34532 3.35751 4.34426 4.208C4.34426 5.978 5.78327 7.416 7.55227 7.416ZM7.55227 2.666C8.40227 2.666 9.09326 3.358 9.09326 4.208C9.09326 5.058 8.40127 5.75 7.55227 5.75C6.70227 5.75 6.01027 5.058 6.01027 4.208C6.01027 3.358 6.70227 2.666 7.55227 2.666Z" fill="#0A040A"/>
</svg>
