<svg width="85" height="64" viewBox="0 0 85 64" fill="none" xmlns="http://www.w3.org/2000/svg">
<path fill-rule="evenodd" clip-rule="evenodd" d="M42.4932 31.6155C50.5318 31.6155 57.0484 25.0738 57.0484 17.0042C57.0484 8.9346 50.5318 2.39289 42.4932 2.39289C34.4546 2.39289 27.9381 8.9346 27.9381 17.0042C27.9381 25.0738 34.4546 31.6155 42.4932 31.6155ZM42.4932 33.3297C51.4749 33.3297 58.756 26.0205 58.756 17.0042C58.756 7.98789 51.4749 0.678711 42.4932 0.678711C33.5115 0.678711 26.2305 7.98789 26.2305 17.0042C26.2305 26.0205 33.5115 33.3297 42.4932 33.3297Z" fill="url(#paint0_angular_335_30283)"/>
<path fill-rule="evenodd" clip-rule="evenodd" d="M42.4932 31.6155C50.5318 31.6155 57.0484 25.0738 57.0484 17.0042C57.0484 8.9346 50.5318 2.39289 42.4932 2.39289C34.4546 2.39289 27.9381 8.9346 27.9381 17.0042C27.9381 25.0738 34.4546 31.6155 42.4932 31.6155ZM42.4932 33.3297C51.4749 33.3297 58.756 26.0205 58.756 17.0042C58.756 7.98789 51.4749 0.678711 42.4932 0.678711C33.5115 0.678711 26.2305 7.98789 26.2305 17.0042C26.2305 26.0205 33.5115 33.3297 42.4932 33.3297Z" fill="url(#paint1_angular_335_30283)"/>
<path fill-rule="evenodd" clip-rule="evenodd" d="M40.9799 28.5379C43.496 26.9193 46.1681 24.0799 48.3056 20.3633C50.4432 16.6467 51.5567 12.9039 51.695 9.90725C51.8378 6.81302 50.9537 5.02634 49.778 4.34489C48.6022 3.66345 46.6188 3.7882 44.0208 5.45946C41.5047 7.07802 38.8326 9.91748 36.6951 13.6341C34.5576 17.3506 33.444 21.0934 33.3058 24.0901C33.163 27.1843 34.047 28.971 35.2228 29.6524C36.3986 30.3339 38.382 30.2091 40.9799 28.5379ZM34.369 31.137C38.3919 33.4685 45.2936 29.0287 49.7845 21.2204C54.2753 13.412 54.6546 5.19195 50.6317 2.86037C46.6089 0.528791 39.7071 4.9686 35.2163 12.777C30.7255 20.5853 30.3461 28.8054 34.369 31.137Z" fill="url(#paint2_angular_335_30283)"/>
<path fill-rule="evenodd" clip-rule="evenodd" d="M35.8505 26.8341C38.8986 26.8341 42.6536 25.8137 46.3306 23.6826C50.0075 21.5515 52.7653 18.7973 54.2894 16.1473C55.8394 13.4521 55.957 11.1979 55.0948 9.69864C54.2325 8.19943 52.229 7.17456 49.1289 7.17454C46.0807 7.17453 42.3257 8.19489 38.6488 10.326C34.9718 12.4571 32.214 15.2113 30.69 17.8613C29.1399 20.5565 29.0223 22.8108 29.8845 24.31C30.7468 25.8092 32.7503 26.834 35.8505 26.8341ZM28.4057 25.1671C30.9985 29.6753 39.406 29.6753 47.1844 25.1671C54.9627 20.659 59.1664 13.3498 56.5736 8.84155C53.9808 4.33334 45.5733 4.3333 37.795 8.84146C30.0166 13.3496 25.8129 20.6588 28.4057 25.1671Z" fill="url(#paint3_angular_335_30283)"/>
<path fill-rule="evenodd" clip-rule="evenodd" d="M30.0968 17.4247C31.4595 20.3221 34.0885 23.2127 37.7145 25.3142C41.3406 27.4158 45.1488 28.2561 48.3296 27.9921C51.5185 27.7274 53.9045 26.3869 55.1019 24.3048C56.2994 22.2228 56.2629 19.4782 54.8968 16.5736C53.5341 13.6762 50.9051 10.7857 47.2791 8.68407C43.653 6.58248 39.8448 5.74217 36.6639 6.0062C33.4751 6.27089 31.0891 7.61146 29.8917 9.6935C28.6942 11.7755 28.7307 14.5202 30.0968 17.4247ZM28.4128 8.83641C25.3001 14.2486 29.0824 22.2906 36.8607 26.7988C44.6391 31.3069 53.468 30.5741 56.5807 25.1619C59.6934 19.7497 55.9112 11.7077 48.1329 7.19955C40.3545 2.69139 31.5256 3.42423 28.4128 8.83641Z" fill="url(#paint4_angular_335_30283)"/>
<path d="M38.8379 17.0009C39.6704 17.2551 40.4546 17.7126 41.1129 18.3734C41.7712 19.0342 42.2269 19.8213 42.4801 20.6571C42.7333 19.8213 43.189 19.0342 43.8473 18.3733C44.5055 17.7125 45.2896 17.2551 46.1221 17.0009C45.2896 16.7467 44.5055 16.2893 43.8473 15.6285C43.189 14.9676 42.7333 14.1805 42.4801 13.3447C42.2269 14.1805 41.7712 14.9676 41.1129 15.6284C40.4546 16.2892 39.6704 16.7467 38.8379 17.0009Z" fill="#F3CFFF"/>
<path d="M0.378 59L5.814 46.778H7.74L13.176 59H10.89L9.72 56.102H3.834L2.664 59H0.378ZM4.572 54.266H8.982L6.786 49.064L4.572 54.266ZM19.0018 59.27C15.5278 59.27 13.7278 57.056 13.7278 54.338C13.7278 51.62 15.7978 49.424 18.8218 49.424C19.9738 49.424 21.3238 49.766 22.1518 50.54V52.538C22.1518 52.538 21.0538 51.134 18.8218 51.134C16.9858 51.134 15.6178 52.574 15.6178 54.338C15.6178 56.264 16.9318 57.56 19.0018 57.56C21.1798 57.56 22.3318 56.588 22.3318 56.588V58.388C21.4858 59.054 19.9558 59.27 19.0018 59.27ZM27.1288 59V51.278H23.4928V49.694H32.6728V51.278H29.0728V59H27.1288ZM34.4693 62.816V49.694H36.4133V50.594C37.0613 49.946 38.1953 49.424 39.5453 49.424C42.3893 49.424 44.4053 51.638 44.4053 54.356C44.4053 57.074 42.3893 59.27 39.5453 59.27C38.0153 59.27 37.0253 58.676 36.4133 58.01V62.816H34.4693ZM39.5813 57.542C41.3273 57.542 42.5153 56.12 42.5153 54.356C42.5153 52.592 41.3273 51.152 39.5813 51.152C37.8353 51.152 36.3053 52.322 36.3053 54.356C36.3053 56.372 37.8353 57.542 39.5813 57.542ZM50.937 59.27C48.111 59.27 45.843 57.074 45.843 54.356C45.843 51.638 48.111 49.424 50.937 49.424C53.763 49.424 56.031 51.638 56.031 54.356C56.031 57.074 53.763 59.27 50.937 59.27ZM50.937 57.524C52.773 57.524 54.159 56.102 54.159 54.356C54.159 52.592 52.773 51.17 50.937 51.17C49.101 51.17 47.715 52.592 47.715 54.356C47.715 56.102 49.101 57.524 50.937 57.524ZM58.3798 59V46.778H60.3238V56.048L66.6418 46.778H68.7658V59H66.8218V49.568L60.4858 59H58.3798ZM72.0028 59V46.778H73.9468V56.048L80.2648 46.778H82.3888V59H80.4448V49.568L74.1088 59H72.0028Z" fill="#F3CFFF"/>
<defs>
<radialGradient id="paint0_angular_335_30283" cx="0" cy="0" r="1" gradientUnits="userSpaceOnUse" gradientTransform="translate(42.4932 17.0042) rotate(45.1103) scale(17.6282 17.6281)">
<stop offset="0.0269499" stop-color="#F3CFFF"/>
<stop offset="0.224318" stop-color="#F3CFFF"/>
<stop offset="0.424397" stop-color="#F3CFFF" stop-opacity="0"/>
<stop offset="0.492824" stop-color="#F3CFFF" stop-opacity="0"/>
<stop offset="0.76105" stop-color="#F3CFFF"/>
<stop offset="0.864444" stop-color="#F3CFFF"/>
</radialGradient>
<radialGradient id="paint1_angular_335_30283" cx="0" cy="0" r="1" gradientUnits="userSpaceOnUse" gradientTransform="translate(42.4932 17.0042) rotate(45.1103) scale(17.6282 17.6281)">
<stop offset="0.0269499" stop-color="#F3CFFF"/>
<stop offset="0.224318" stop-color="#F3CFFF"/>
<stop offset="0.361518" stop-color="#F3CFFF" stop-opacity="0"/>
<stop offset="0.465013" stop-color="#F3CFFF" stop-opacity="0"/>
<stop offset="0.565022" stop-color="#F3CFFF" stop-opacity="0"/>
<stop offset="0.76105" stop-color="#F3CFFF"/>
<stop offset="0.864444" stop-color="#F3CFFF"/>
</radialGradient>
<radialGradient id="paint2_angular_335_30283" cx="0" cy="0" r="1" gradientUnits="userSpaceOnUse" gradientTransform="translate(42.5004 16.9987) rotate(119.905) scale(16.3098 8.41902)">
<stop stop-color="#F3CFFF"/>
<stop offset="0.485" stop-color="#F3CFFF"/>
<stop offset="0.741768" stop-color="#F3CFFF" stop-opacity="0"/>
<stop offset="1" stop-color="#F3CFFF" stop-opacity="0"/>
</radialGradient>
<radialGradient id="paint3_angular_335_30283" cx="0" cy="0" r="1" gradientUnits="userSpaceOnUse" gradientTransform="translate(42.5658 16.9605) rotate(151.684) scale(16.3487 28.3766)">
<stop offset="0.0219535" stop-color="#F3CFFF" stop-opacity="0"/>
<stop offset="0.484341" stop-color="#F3CFFF"/>
<stop offset="0.869039" stop-color="#F3CFFF" stop-opacity="0"/>
</radialGradient>
<radialGradient id="paint4_angular_335_30283" cx="0" cy="0" r="1" gradientUnits="userSpaceOnUse" gradientTransform="translate(42.4968 16.9992) rotate(119.905) scale(11.3048 16.2784)">
<stop offset="0.348771" stop-color="#F3CFFF"/>
<stop offset="0.448731" stop-color="#F3CFFF" stop-opacity="0"/>
<stop offset="0.705" stop-color="#F3CFFF" stop-opacity="0"/>
<stop offset="0.81" stop-color="#F3CFFF"/>
</radialGradient>
</defs>
</svg>
