<svg width="165" height="40" viewBox="0 0 165 40" fill="none" xmlns="http://www.w3.org/2000/svg">
<path fill-rule="evenodd" clip-rule="evenodd" d="M19.9956 34.3609C28.1483 34.3609 34.7574 27.7518 34.7574 19.5991C34.7574 11.4464 28.1483 4.8373 19.9956 4.8373C11.8429 4.8373 5.23379 11.4464 5.23379 19.5991C5.23379 27.7518 11.8429 34.3609 19.9956 34.3609ZM19.9956 36.0928C29.1048 36.0928 36.4893 28.7083 36.4893 19.5991C36.4893 10.4899 29.1048 3.10547 19.9956 3.10547C10.8864 3.10547 3.50195 10.4899 3.50195 19.5991C3.50195 28.7083 10.8864 36.0928 19.9956 36.0928Z" fill="url(#paint0_angular_202_1309)"/>
<path fill-rule="evenodd" clip-rule="evenodd" d="M19.9956 34.3609C28.1483 34.3609 34.7574 27.7518 34.7574 19.5991C34.7574 11.4464 28.1483 4.8373 19.9956 4.8373C11.8429 4.8373 5.23379 11.4464 5.23379 19.5991C5.23379 27.7518 11.8429 34.3609 19.9956 34.3609ZM19.9956 36.0928C29.1048 36.0928 36.4893 28.7083 36.4893 19.5991C36.4893 10.4899 29.1048 3.10547 19.9956 3.10547C10.8864 3.10547 3.50195 10.4899 3.50195 19.5991C3.50195 28.7083 10.8864 36.0928 19.9956 36.0928Z" fill="url(#paint1_angular_202_1309)"/>
<path fill-rule="evenodd" clip-rule="evenodd" d="M18.458 31.2594C21.0098 29.6242 23.7199 26.7555 25.8878 23.0006C28.0556 19.2458 29.185 15.4644 29.3252 12.4369C29.4701 9.31078 28.5734 7.50571 27.381 6.81724C26.1885 6.12877 24.177 6.25481 21.5421 7.94329C18.9903 9.57851 16.2802 12.4472 14.1124 16.2021C11.9445 19.9569 10.8151 23.7383 10.6749 26.7658C10.5301 29.8919 11.4267 31.697 12.6192 32.3855C13.8116 33.0739 15.8232 32.9479 18.458 31.2594ZM11.7532 33.8853C15.8332 36.2409 22.833 31.7553 27.3876 23.8665C31.9422 15.9777 32.3269 7.67302 28.2469 5.31743C24.1669 2.96183 17.1671 7.44737 12.6125 15.3362C8.05795 23.225 7.67323 31.5297 11.7532 33.8853Z" fill="url(#paint2_angular_202_1309)"/>
<path fill-rule="evenodd" clip-rule="evenodd" d="M13.2655 29.5327C16.3569 29.5327 20.1652 28.5018 23.8944 26.3488C27.6235 24.1957 30.4204 21.4131 31.9662 18.7358C33.5382 16.0128 33.6575 13.7354 32.783 12.2207C31.9085 10.7061 29.8766 9.67066 26.7324 9.67065C23.6409 9.67063 19.8327 10.7015 16.1035 12.8545C12.3743 15.0076 9.57741 17.7902 8.03169 20.4675C6.4596 23.1905 6.34033 25.4679 7.21481 26.9826C8.0893 28.4972 10.1213 29.5326 13.2655 29.5327ZM5.71501 27.8485C8.34463 32.4031 16.8715 32.4032 24.7603 27.8486C32.6491 23.294 36.9125 15.9095 34.2828 11.3548C31.6532 6.80018 23.1264 6.80014 15.2376 11.3547C7.34877 15.9093 3.08538 23.2938 5.71501 27.8485Z" fill="url(#paint3_angular_202_1309)"/>
<path fill-rule="evenodd" clip-rule="evenodd" d="M7.42393 20.0319C8.80594 22.9591 11.4723 25.8794 15.1498 28.0027C18.8274 30.1259 22.6896 30.9749 25.9157 30.7081C29.1498 30.4407 31.5697 29.0864 32.7841 26.9829C33.9986 24.8794 33.9615 22.1065 32.5761 19.172C31.1941 16.2448 28.5277 13.3245 24.8502 11.2012C21.1726 9.07799 17.3104 8.22903 14.0843 8.49577C10.8502 8.76319 8.43034 10.1176 7.21589 12.221C6.00144 14.3245 6.03847 17.0974 7.42393 20.0319ZM5.71608 11.3551C2.55918 16.8231 6.39513 24.9479 14.2839 29.5025C22.1727 34.0571 31.127 33.3167 34.2839 27.8488C37.4408 22.3809 33.6049 14.256 25.7161 9.70142C17.8273 5.14682 8.87298 5.88721 5.71608 11.3551Z" fill="url(#paint4_angular_202_1309)"/>
<path d="M16.2891 19.6011C17.1334 19.8578 17.9287 20.32 18.5964 20.9877C19.264 21.6553 19.7262 22.4506 19.983 23.2949C20.2397 22.4505 20.7019 21.6553 21.3696 20.9876C22.0372 20.32 22.8324 19.8578 23.6767 19.6011C22.8324 19.3443 22.0372 18.8821 21.3696 18.2145C20.7019 17.5468 20.2397 16.7516 19.983 15.9072C19.7262 16.7516 19.264 17.5468 18.5964 18.2144C17.9287 18.8821 17.1334 19.3443 16.2891 19.6011Z" fill="#F3CFFF"/>
<path d="M52.504 28.5L59.752 12.204H62.32L69.568 28.5H66.52L64.96 24.636H57.112L55.552 28.5H52.504ZM58.096 22.188H63.976L61.048 15.252L58.096 22.188ZM77.3358 28.86C72.7038 28.86 70.3038 25.908 70.3038 22.284C70.3038 18.66 73.0638 15.732 77.0958 15.732C78.6318 15.732 80.4318 16.188 81.5358 17.22V19.884C81.5358 19.884 80.0718 18.012 77.0958 18.012C74.6478 18.012 72.8238 19.932 72.8238 22.284C72.8238 24.852 74.5758 26.58 77.3358 26.58C80.2398 26.58 81.7758 25.284 81.7758 25.284V27.684C80.6478 28.572 78.6078 28.86 77.3358 28.86ZM88.1718 28.5V18.204H83.3238V16.092H95.5638V18.204H90.7638V28.5H88.1718ZM97.9591 33.588V16.092H100.551V17.292C101.415 16.428 102.927 15.732 104.727 15.732C108.519 15.732 111.207 18.684 111.207 22.308C111.207 25.932 108.519 28.86 104.727 28.86C102.687 28.86 101.367 28.068 100.551 27.18V33.588H97.9591ZM104.775 26.556C107.103 26.556 108.687 24.66 108.687 22.308C108.687 19.956 107.103 18.036 104.775 18.036C102.447 18.036 100.407 19.596 100.407 22.308C100.407 24.996 102.447 26.556 104.775 26.556ZM119.916 28.86C116.148 28.86 113.124 25.932 113.124 22.308C113.124 18.684 116.148 15.732 119.916 15.732C123.684 15.732 126.708 18.684 126.708 22.308C126.708 25.932 123.684 28.86 119.916 28.86ZM119.916 26.532C122.364 26.532 124.212 24.636 124.212 22.308C124.212 19.956 122.364 18.06 119.916 18.06C117.468 18.06 115.62 19.956 115.62 22.308C115.62 24.636 117.468 26.532 119.916 26.532ZM129.84 28.5V12.204H132.432V24.564L140.856 12.204H143.688V28.5H141.096V15.924L132.648 28.5H129.84ZM148.004 28.5V12.204H150.596V24.564L159.02 12.204H161.852V28.5H159.26V15.924L150.812 28.5H148.004Z" fill="#F3CFFF"/>
<defs>
<radialGradient id="paint0_angular_202_1309" cx="0" cy="0" r="1" gradientUnits="userSpaceOnUse" gradientTransform="translate(19.9956 19.5991) rotate(45) scale(17.844)">
<stop offset="0.0269499" stop-color="#F3CFFF"/>
<stop offset="0.224318" stop-color="#F3CFFF"/>
<stop offset="0.424397" stop-color="#F3CFFF" stop-opacity="0"/>
<stop offset="0.492824" stop-color="#F3CFFF" stop-opacity="0"/>
<stop offset="0.76105" stop-color="#F3CFFF"/>
<stop offset="0.864444" stop-color="#F3CFFF"/>
</radialGradient>
<radialGradient id="paint1_angular_202_1309" cx="0" cy="0" r="1" gradientUnits="userSpaceOnUse" gradientTransform="translate(19.9956 19.5991) rotate(45) scale(17.844)">
<stop offset="0.0269499" stop-color="#F3CFFF"/>
<stop offset="0.224318" stop-color="#F3CFFF"/>
<stop offset="0.361518" stop-color="#F3CFFF" stop-opacity="0"/>
<stop offset="0.465013" stop-color="#F3CFFF" stop-opacity="0"/>
<stop offset="0.565022" stop-color="#F3CFFF" stop-opacity="0"/>
<stop offset="0.76105" stop-color="#F3CFFF"/>
<stop offset="0.864444" stop-color="#F3CFFF"/>
</radialGradient>
<radialGradient id="paint2_angular_202_1309" cx="0" cy="0" r="1" gradientUnits="userSpaceOnUse" gradientTransform="translate(20.0001 19.6013) rotate(120) scale(16.4937 8.53036)">
<stop stop-color="#F3CFFF"/>
<stop offset="0.485" stop-color="#F3CFFF"/>
<stop offset="0.741768" stop-color="#F3CFFF" stop-opacity="0"/>
<stop offset="1" stop-color="#F3CFFF" stop-opacity="0"/>
</radialGradient>
<radialGradient id="paint3_angular_202_1309" cx="0" cy="0" r="1" gradientUnits="userSpaceOnUse" gradientTransform="translate(20.0762 19.5574) rotate(151.777) scale(16.5665 28.6937)">
<stop offset="0.0219535" stop-color="#F3CFFF" stop-opacity="0"/>
<stop offset="0.484341" stop-color="#F3CFFF"/>
<stop offset="0.869039" stop-color="#F3CFFF" stop-opacity="0"/>
</radialGradient>
<radialGradient id="paint4_angular_202_1309" cx="0" cy="0" r="1" gradientUnits="userSpaceOnUse" gradientTransform="translate(20 19.602) rotate(120) scale(11.4322 16.4936)">
<stop offset="0.348771" stop-color="#F3CFFF"/>
<stop offset="0.448731" stop-color="#F3CFFF" stop-opacity="0"/>
<stop offset="0.705" stop-color="#F3CFFF" stop-opacity="0"/>
<stop offset="0.81" stop-color="#F3CFFF"/>
</radialGradient>
</defs>
</svg>
