<svg width="60" height="60" viewBox="0 0 60 60" fill="none" xmlns="http://www.w3.org/2000/svg">
<path fill-rule="evenodd" clip-rule="evenodd" d="M29.9924 51.5414C42.2215 51.5414 52.1352 41.6278 52.1352 29.3987C52.1352 17.1696 42.2215 7.25595 29.9924 7.25595C17.7633 7.25595 7.8497 17.1696 7.8497 29.3987C7.8497 41.6278 17.7633 51.5414 29.9924 51.5414ZM29.9924 54.1392C43.6562 54.1392 54.7329 43.0625 54.7329 29.3987C54.7329 15.7349 43.6562 4.6582 29.9924 4.6582C16.3286 4.6582 5.25195 15.7349 5.25195 29.3987C5.25195 43.0625 16.3286 54.1392 29.9924 54.1392Z" fill="url(#paint0_angular_334_29881)"/>
<path fill-rule="evenodd" clip-rule="evenodd" d="M29.9924 51.5414C42.2215 51.5414 52.1352 41.6278 52.1352 29.3987C52.1352 17.1696 42.2215 7.25595 29.9924 7.25595C17.7633 7.25595 7.8497 17.1696 7.8497 29.3987C7.8497 41.6278 17.7633 51.5414 29.9924 51.5414ZM29.9924 54.1392C43.6562 54.1392 54.7329 43.0625 54.7329 29.3987C54.7329 15.7349 43.6562 4.6582 29.9924 4.6582C16.3286 4.6582 5.25195 15.7349 5.25195 29.3987C5.25195 43.0625 16.3286 54.1392 29.9924 54.1392Z" fill="url(#paint1_angular_334_29881)"/>
<path fill-rule="evenodd" clip-rule="evenodd" d="M27.6871 46.8889C31.5147 44.436 35.5798 40.133 38.8316 34.5007C42.0834 28.8684 43.7775 23.1964 43.9878 18.6551C44.2051 13.9659 42.8601 11.2583 41.0715 10.2256C39.2828 9.19292 36.2654 9.38198 32.3131 11.9147C28.4854 14.3675 24.4203 18.6706 21.1685 24.3029C17.9167 29.9352 16.2227 35.6072 16.0123 40.1485C15.7951 44.8376 17.14 47.5452 18.9287 48.5779C20.7174 49.6106 23.7348 49.4216 27.6871 46.8889ZM17.6299 50.8277C23.7499 54.3611 34.2495 47.6327 41.0814 35.7996C47.9133 23.9664 48.4903 11.5093 42.3703 7.9759C36.2503 4.44251 25.7507 11.1708 18.9188 23.004C12.0869 34.8372 11.5098 47.2943 17.6299 50.8277Z" fill="url(#paint2_angular_334_29881)"/>
<path fill-rule="evenodd" clip-rule="evenodd" d="M19.8992 44.2992C24.5364 44.2993 30.2488 42.7529 35.8425 39.5234C41.4363 36.2938 45.6316 32.1199 47.9502 28.104C50.3083 24.0195 50.4873 20.6033 49.1755 18.3314C47.8638 16.0594 44.8159 14.5062 40.0996 14.5062C35.4624 14.5062 29.75 16.0525 24.1562 19.2821C18.5624 22.5116 14.3671 26.6856 12.0485 30.7015C9.69038 34.7859 9.51147 38.2021 10.8232 40.4741C12.1349 42.7461 15.1829 44.2992 19.8992 44.2992ZM8.57348 41.773C12.5179 48.6049 25.3082 48.605 37.1414 41.7731C48.9746 34.9412 55.3697 23.8645 51.4252 17.0325C47.4808 10.2005 34.6905 10.2005 22.8573 17.0323C11.0241 23.8642 4.62904 34.941 8.57348 41.773Z" fill="url(#paint3_angular_334_29881)"/>
<path fill-rule="evenodd" clip-rule="evenodd" d="M11.1359 30.0494C13.2089 34.4402 17.2084 38.8206 22.7248 42.0055C28.2411 45.1904 34.0344 46.4638 38.8735 46.0637C43.7246 45.6626 47.3545 43.631 49.1762 40.4758C50.9978 37.3205 50.9423 33.1612 48.8641 28.7594C46.7911 24.3686 42.7916 19.9882 37.2752 16.8033C31.7589 13.6184 25.9656 12.345 21.1265 12.7451C16.2754 13.1462 12.6455 15.1778 10.8238 18.333C9.00217 21.4883 9.05771 25.6476 11.1359 30.0494ZM8.57412 17.0342C3.83876 25.236 9.59269 37.4233 21.4259 44.2552C33.2591 51.0871 46.6905 49.9765 51.4259 41.7746C56.1612 33.5728 50.4073 21.3855 38.5741 14.5536C26.7409 7.72169 13.3095 8.83228 8.57412 17.0342Z" fill="url(#paint4_angular_334_29881)"/>
<path d="M24.4336 29.4021C25.7002 29.7872 26.8931 30.4806 27.8945 31.482C28.896 32.4834 29.5893 33.6763 29.9744 34.9428C30.3596 33.6763 31.0529 32.4834 32.0544 31.482C33.0558 30.4805 34.2486 29.7873 35.5151 29.4021C34.2486 29.0169 33.0558 28.3236 32.0544 27.3222C31.0529 26.3208 30.3596 25.1279 29.9744 23.8613C29.5893 25.1278 28.896 26.3207 27.8945 27.3221C26.8931 28.3236 25.7002 29.0169 24.4336 29.4021Z" fill="#F3CFFF"/>
<defs>
<radialGradient id="paint0_angular_334_29881" cx="0" cy="0" r="1" gradientUnits="userSpaceOnUse" gradientTransform="translate(29.9924 29.3987) rotate(45) scale(26.7661)">
<stop offset="0.0269499" stop-color="#F3CFFF"/>
<stop offset="0.224318" stop-color="#F3CFFF"/>
<stop offset="0.424397" stop-color="#F3CFFF" stop-opacity="0"/>
<stop offset="0.492824" stop-color="#F3CFFF" stop-opacity="0"/>
<stop offset="0.76105" stop-color="#F3CFFF"/>
<stop offset="0.864444" stop-color="#F3CFFF"/>
</radialGradient>
<radialGradient id="paint1_angular_334_29881" cx="0" cy="0" r="1" gradientUnits="userSpaceOnUse" gradientTransform="translate(29.9924 29.3987) rotate(45) scale(26.7661)">
<stop offset="0.0269499" stop-color="#F3CFFF"/>
<stop offset="0.224318" stop-color="#F3CFFF"/>
<stop offset="0.361518" stop-color="#F3CFFF" stop-opacity="0"/>
<stop offset="0.465013" stop-color="#F3CFFF" stop-opacity="0"/>
<stop offset="0.565022" stop-color="#F3CFFF" stop-opacity="0"/>
<stop offset="0.76105" stop-color="#F3CFFF"/>
<stop offset="0.864444" stop-color="#F3CFFF"/>
</radialGradient>
<radialGradient id="paint2_angular_334_29881" cx="0" cy="0" r="1" gradientUnits="userSpaceOnUse" gradientTransform="translate(30.0001 29.4018) rotate(120) scale(24.7405 12.7955)">
<stop stop-color="#F3CFFF"/>
<stop offset="0.485" stop-color="#F3CFFF"/>
<stop offset="0.741768" stop-color="#F3CFFF" stop-opacity="0"/>
<stop offset="1" stop-color="#F3CFFF" stop-opacity="0"/>
</radialGradient>
<radialGradient id="paint3_angular_334_29881" cx="0" cy="0" r="1" gradientUnits="userSpaceOnUse" gradientTransform="translate(30.1152 29.3363) rotate(151.777) scale(24.8497 43.0405)">
<stop offset="0.0219535" stop-color="#F3CFFF" stop-opacity="0"/>
<stop offset="0.484341" stop-color="#F3CFFF"/>
<stop offset="0.869039" stop-color="#F3CFFF" stop-opacity="0"/>
</radialGradient>
<radialGradient id="paint4_angular_334_29881" cx="0" cy="0" r="1" gradientUnits="userSpaceOnUse" gradientTransform="translate(30 29.4044) rotate(120) scale(17.1482 24.7405)">
<stop offset="0.348771" stop-color="#F3CFFF"/>
<stop offset="0.448731" stop-color="#F3CFFF" stop-opacity="0"/>
<stop offset="0.705" stop-color="#F3CFFF" stop-opacity="0"/>
<stop offset="0.81" stop-color="#F3CFFF"/>
</radialGradient>
</defs>
</svg>
