<svg width="80" height="80" viewBox="0 0 80 80" fill="none" xmlns="http://www.w3.org/2000/svg">
<g clip-path="url(#clip0_338_59473)">
<g filter="url(#filter0_i_338_59473)">
<rect width="80" height="80" rx="40" fill="#461153"/>
<rect x="0.745921" y="0.745921" width="78.5082" height="78.5082" rx="39.2541" stroke="url(#paint0_linear_338_59473)" stroke-width="1.49184"/>
</g>
</g>
<path d="M26.3838 35.5879C29.2439 35.5879 31.5625 33.2693 31.5625 30.4092C31.5625 27.549 29.2439 25.2305 26.3838 25.2305C23.5237 25.2305 21.2051 27.549 21.2051 30.4092C21.2051 33.2693 23.5237 35.5879 26.3838 35.5879Z" fill="#F3CFFF"/>
<path d="M53.0928 35.588C55.9529 35.588 58.2716 33.2694 58.2716 30.4092C58.2716 27.5491 55.9529 25.2305 53.0928 25.2305C50.2327 25.2305 47.9141 27.5491 47.9141 30.4092C47.9141 33.2694 50.2327 35.588 53.0928 35.588Z" fill="#F3CFFF"/>
<path d="M20.2759 57.2345C19.9992 57.2346 19.7184 57.1711 19.4549 57.037C18.5619 56.5828 18.2062 55.4906 18.6604 54.5976C20.2158 51.5396 23.1023 48.9376 27.0078 47.0727C30.8645 45.2312 35.4226 44.2578 40.1895 44.2578C44.9337 44.2578 49.4742 45.2227 53.3199 47.0483C57.2117 48.8958 60.1005 51.4763 61.674 54.511C62.1351 55.4005 61.7879 56.4954 60.8985 56.9566C60.009 57.4177 58.9141 57.0705 58.453 56.1811C57.2644 53.8888 54.8889 51.8094 51.764 50.326C48.4014 48.7298 44.399 47.8861 40.1895 47.8861C35.9602 47.8861 31.9427 48.737 28.5711 50.3468C25.4385 51.8427 23.0672 53.9364 21.8942 56.2425C21.5741 56.872 20.9368 57.2345 20.2759 57.2345Z" fill="#F3CFFF"/>
<defs>
<filter id="filter0_i_338_59473" x="0" y="0" width="80" height="80" filterUnits="userSpaceOnUse" color-interpolation-filters="sRGB">
<feFlood flood-opacity="0" result="BackgroundImageFix"/>
<feBlend mode="normal" in="SourceGraphic" in2="BackgroundImageFix" result="shape"/>
<feColorMatrix in="SourceAlpha" type="matrix" values="0 0 0 0 0 0 0 0 0 0 0 0 0 0 0 0 0 0 127 0" result="hardAlpha"/>
<feMorphology radius="2.23776" operator="erode" in="SourceAlpha" result="effect1_innerShadow_338_59473"/>
<feOffset/>
<feGaussianBlur stdDeviation="1.49184"/>
<feComposite in2="hardAlpha" operator="arithmetic" k2="-1" k3="1"/>
<feColorMatrix type="matrix" values="0 0 0 0 0.950088 0 0 0 0 0.6625 0 0 0 0 1 0 0 0 0.42 0"/>
<feBlend mode="normal" in2="shape" result="effect1_innerShadow_338_59473"/>
</filter>
<linearGradient id="paint0_linear_338_59473" x1="0" y1="0" x2="83.3595" y2="3.66881" gradientUnits="userSpaceOnUse">
<stop stop-color="white" stop-opacity="0.64"/>
<stop offset="1" stop-color="white" stop-opacity="0.2"/>
</linearGradient>
<clipPath id="clip0_338_59473">
<rect width="80" height="80" rx="40" fill="white"/>
</clipPath>
</defs>
</svg>
