<svg width="80" height="80" viewBox="0 0 80 80" fill="none" xmlns="http://www.w3.org/2000/svg">
<g clip-path="url(#clip0_338_57567)">
<g filter="url(#filter0_i_338_57567)">
<rect width="80" height="80" rx="40" fill="#461153"/>
<rect x="0.745921" y="0.745921" width="78.5082" height="78.5082" rx="39.2541" stroke="url(#paint0_linear_338_57567)" stroke-width="1.49184"/>
</g>
<g filter="url(#filter1_f_338_57567)">
<ellipse cx="39.8144" cy="141.351" rx="78.2284" ry="78.3217" fill="#DE4916"/>
</g>
</g>
<path d="M25.4508 36.3093C26.3272 35.4302 27.7481 35.4302 28.6245 36.3093L39.336 47.053C40.2125 47.932 40.2125 49.3572 39.336 50.2363L38.5426 51.0321C37.6662 51.9112 36.2452 51.9112 35.3688 51.0321L24.6573 40.2884C23.7809 39.4094 23.7809 37.9842 24.6573 37.1051L25.4508 36.3093Z" fill="#F3CFFF"/>
<path d="M53.2216 28.3507C54.098 27.4716 55.519 27.4716 56.3954 28.3507L57.1888 29.1465C58.0653 30.0256 58.0653 31.4508 57.1888 32.3298L38.5426 51.0321C37.6662 51.9112 36.2452 51.9112 35.3688 51.0321L34.5757 50.236C33.6992 49.357 33.6992 47.9317 34.5757 47.0527L53.2216 28.3507Z" fill="#F3CFFF"/>
<defs>
<filter id="filter0_i_338_57567" x="0" y="0" width="80" height="80" filterUnits="userSpaceOnUse" color-interpolation-filters="sRGB">
<feFlood flood-opacity="0" result="BackgroundImageFix"/>
<feBlend mode="normal" in="SourceGraphic" in2="BackgroundImageFix" result="shape"/>
<feColorMatrix in="SourceAlpha" type="matrix" values="0 0 0 0 0 0 0 0 0 0 0 0 0 0 0 0 0 0 127 0" result="hardAlpha"/>
<feMorphology radius="2.23776" operator="erode" in="SourceAlpha" result="effect1_innerShadow_338_57567"/>
<feOffset/>
<feGaussianBlur stdDeviation="1.49184"/>
<feComposite in2="hardAlpha" operator="arithmetic" k2="-1" k3="1"/>
<feColorMatrix type="matrix" values="0 0 0 0 0.950088 0 0 0 0 0.6625 0 0 0 0 1 0 0 0 0.42 0"/>
<feBlend mode="normal" in2="shape" result="effect1_innerShadow_338_57567"/>
</filter>
<filter id="filter1_f_338_57567" x="-85.0341" y="16.4092" width="249.697" height="249.883" filterUnits="userSpaceOnUse" color-interpolation-filters="sRGB">
<feFlood flood-opacity="0" result="BackgroundImageFix"/>
<feBlend mode="normal" in="SourceGraphic" in2="BackgroundImageFix" result="shape"/>
<feGaussianBlur stdDeviation="23.31" result="effect1_foregroundBlur_338_57567"/>
</filter>
<linearGradient id="paint0_linear_338_57567" x1="0" y1="0" x2="83.3595" y2="3.66881" gradientUnits="userSpaceOnUse">
<stop stop-color="white" stop-opacity="0.64"/>
<stop offset="1" stop-color="white" stop-opacity="0.2"/>
</linearGradient>
<clipPath id="clip0_338_57567">
<rect width="80" height="80" rx="40" fill="white"/>
</clipPath>
</defs>
</svg>
