<svg width="212" height="38" viewBox="0 0 212 38" fill="none" xmlns="http://www.w3.org/2000/svg">
<path d="M4 8C4 3.58172 7.58172 0 12 0H204C208.418 0 212 3.58172 212 8V30C212 34.4183 208.418 38 204 38H12C7.58173 38 4 34.4183 4 30V23L0 19L4 15V8Z" fill="#1B0326"/>
<path d="M4.5 23V22.7929L4.35355 22.6464L0.707107 19L4.35355 15.3536L4.5 15.2071V15V8C4.5 3.85786 7.85786 0.5 12 0.5H204C208.142 0.5 211.5 3.85786 211.5 8V30C211.5 34.1421 208.142 37.5 204 37.5H12C7.85787 37.5 4.5 34.1421 4.5 30V23Z" stroke="white" stroke-opacity="0.15"/>
</svg>
