<svg width="1827" height="814" viewBox="0 0 1827 814" fill="none" xmlns="http://www.w3.org/2000/svg">
<g filter="url(#filter0_f_2046_18)">
<path d="M92.8387 59.2643L93.7969 59.7181C94.4464 60.0257 95.182 60.1008 95.8802 59.9306C97.0908 59.6354 98.0111 58.6509 98.2236 57.4235L98.5807 55.3621C99.0501 52.6515 96.8433 50.2222 94.0991 50.4287C91.9819 50.5881 90.3122 52.2932 90.1979 54.4125L90.1772 54.7981C90.0753 56.6887 91.127 58.4535 92.8387 59.2643Z" fill="#822540"/>
</g>
<g filter="url(#filter1_f_2046_18)">
<path d="M94.4095 56.5381L94.8173 56.7313C95.0938 56.8622 95.4069 56.8942 95.7041 56.8217C96.2194 56.6961 96.6111 56.2771 96.7016 55.7546L96.8535 54.8772C97.0533 53.7234 96.114 52.6894 94.946 52.7773C94.0448 52.8452 93.3341 53.5709 93.2855 54.473L93.2766 54.6371C93.2333 55.4419 93.6809 56.193 94.4095 56.5381Z" fill="url(#paint0_linear_2046_18)"/>
</g>
<g filter="url(#filter2_f_2046_18)">
<path d="M34.1163 779.317L34.9558 779.715C35.525 779.985 36.1695 780.05 36.7813 779.901C37.8421 779.643 38.6485 778.78 38.8347 777.705L39.1476 775.898C39.5589 773.523 37.6253 771.395 35.2207 771.576C33.3655 771.715 31.9024 773.209 31.8023 775.066L31.7841 775.404C31.6948 777.061 32.6164 778.607 34.1163 779.317Z" fill="#822540"/>
</g>
<g filter="url(#filter3_f_2046_18)">
<path d="M35.492 776.929L35.8493 777.098C36.0916 777.213 36.3659 777.241 36.6263 777.177C37.0779 777.067 37.4211 776.7 37.5004 776.242L37.6335 775.473C37.8086 774.462 36.9856 773.556 35.9621 773.633C35.1724 773.693 34.5497 774.329 34.5071 775.119L34.4993 775.263C34.4613 775.968 34.8536 776.626 35.492 776.929Z" fill="url(#paint1_linear_2046_18)"/>
</g>
<g filter="url(#filter4_f_2046_18)">
<path d="M128.561 487.635L129.638 488.145C130.368 488.491 131.194 488.575 131.979 488.384C133.34 488.052 134.374 486.946 134.613 485.566L135.014 483.25C135.541 480.204 133.061 477.474 129.978 477.706C127.598 477.885 125.722 479.801 125.594 482.183L125.57 482.616C125.456 484.741 126.638 486.724 128.561 487.635Z" fill="#822540"/>
</g>
<g filter="url(#filter5_f_2046_18)">
<path d="M130.325 484.572L130.783 484.789C131.094 484.936 131.446 484.972 131.78 484.891C132.359 484.749 132.799 484.278 132.901 483.691L133.072 482.705C133.296 481.409 132.241 480.247 130.928 480.346C129.915 480.422 129.117 481.237 129.062 482.251L129.052 482.436C129.003 483.34 129.506 484.184 130.325 484.572Z" fill="url(#paint2_linear_2046_18)"/>
</g>
<g filter="url(#filter6_f_2046_18)">
<path d="M9.39382 301.972L10.1148 302.313C10.6035 302.545 11.157 302.601 11.6824 302.473C12.5934 302.251 13.2859 301.51 13.4458 300.587L13.7145 299.036C14.0677 296.996 12.4072 295.168 10.3422 295.323C8.74911 295.443 7.49266 296.726 7.40671 298.321L7.39107 298.611C7.31441 300.034 8.10578 301.362 9.39382 301.972Z" fill="#822540"/>
</g>
<g filter="url(#filter7_f_2046_18)">
<path d="M10.5745 299.92L10.8814 300.066C11.0894 300.164 11.325 300.188 11.5486 300.134C11.9363 300.039 12.2311 299.724 12.2992 299.331L12.4135 298.671C12.5639 297.802 11.8571 297.024 10.9782 297.091C10.3001 297.142 9.76526 297.688 9.72868 298.366L9.72202 298.49C9.68939 299.095 10.0262 299.661 10.5745 299.92Z" fill="url(#paint3_linear_2046_18)"/>
</g>
<g filter="url(#filter8_f_2046_18)">
<path d="M319.116 93.6612L319.956 94.0589C320.525 94.3285 321.169 94.3942 321.781 94.2451C322.842 93.9865 323.648 93.1238 323.835 92.0483L324.148 90.242C324.559 87.8669 322.625 85.7383 320.221 85.9193C318.366 86.0589 316.902 87.553 316.802 89.41L316.784 89.7479C316.695 91.4045 317.616 92.9508 319.116 93.6612Z" fill="#822540"/>
</g>
<g filter="url(#filter9_f_2046_18)">
<path d="M320.492 91.2725L320.849 91.4417C321.092 91.5565 321.366 91.5844 321.626 91.521C322.078 91.4109 322.421 91.0437 322.5 90.5859L322.634 89.8171C322.809 88.8061 321.986 87.9001 320.962 87.9771C320.172 88.0366 319.55 88.6725 319.507 89.4629L319.499 89.6068C319.461 90.3119 319.854 90.9701 320.492 91.2725Z" fill="url(#paint4_linear_2046_18)"/>
</g>
<g filter="url(#filter10_f_2046_18)">
<path d="M1794.11 40.0312L1796.24 41.0377C1797.68 41.7201 1799.31 41.8865 1800.86 41.509C1803.54 40.8544 1805.58 38.6709 1806.05 35.9487L1806.85 31.3766C1807.89 25.3648 1802.99 19.977 1796.91 20.4351C1792.21 20.7884 1788.51 24.5702 1788.25 29.2706L1788.21 30.1259C1787.98 34.3189 1790.31 38.233 1794.11 40.0312Z" fill="#822540"/>
</g>
<g filter="url(#filter11_f_2046_18)">
<path d="M1797.59 33.9852L1798.5 34.4136C1799.11 34.704 1799.8 34.7749 1800.46 34.6142C1801.61 34.3356 1802.48 33.4062 1802.68 32.2475L1803.01 30.3014C1803.46 27.7425 1801.37 25.4493 1798.78 25.6442C1796.78 25.7946 1795.21 27.4043 1795.1 29.405L1795.08 29.769C1794.98 31.5538 1795.98 33.2198 1797.59 33.9852Z" fill="url(#paint5_linear_2046_18)"/>
</g>
<g filter="url(#filter12_f_2046_18)">
<path d="M600.73 799.234L602.163 799.912C603.134 800.372 604.234 800.485 605.278 800.23C607.088 799.789 608.463 798.317 608.781 796.482L609.315 793.4C610.017 789.347 606.718 785.716 602.615 786.024C599.45 786.263 596.953 788.812 596.782 791.98L596.751 792.557C596.599 795.383 598.171 798.022 600.73 799.234Z" fill="#822540"/>
</g>
<g filter="url(#filter13_f_2046_18)">
<path d="M603.078 795.158L603.687 795.447C604.101 795.643 604.569 795.691 605.013 795.582C605.783 795.395 606.369 794.768 606.504 793.987L606.732 792.675C607.03 790.95 605.626 789.404 603.88 789.536C602.532 789.637 601.47 790.722 601.397 792.071L601.384 792.316C601.319 793.519 601.988 794.642 603.078 795.158Z" fill="url(#paint6_linear_2046_18)"/>
</g>
<g filter="url(#filter14_f_2046_18)">
<path d="M320.116 796.309L320.956 796.707C321.525 796.976 322.169 797.042 322.781 796.893C323.842 796.634 324.648 795.772 324.835 794.696L325.148 792.89C325.559 790.515 323.625 788.386 321.221 788.567C319.366 788.707 317.902 790.201 317.802 792.058L317.784 792.396C317.695 794.052 318.616 795.599 320.116 796.309Z" fill="#822540"/>
</g>
<g filter="url(#filter15_f_2046_18)">
<path d="M321.492 793.92L321.849 794.09C322.092 794.204 322.366 794.232 322.626 794.169C323.078 794.059 323.421 793.692 323.5 793.234L323.634 792.465C323.809 791.454 322.986 790.548 321.962 790.625C321.172 790.685 320.55 791.32 320.507 792.111L320.499 792.255C320.461 792.96 320.854 793.618 321.492 793.92Z" fill="url(#paint7_linear_2046_18)"/>
</g>
<defs>
<filter id="filter0_f_2046_18" x="81.1523" y="41.3989" width="26.5098" height="27.6382" filterUnits="userSpaceOnUse" color-interpolation-filters="sRGB">
<feFlood flood-opacity="0" result="BackgroundImageFix"/>
<feBlend mode="normal" in="SourceGraphic" in2="BackgroundImageFix" result="shape"/>
<feGaussianBlur stdDeviation="4.5088" result="effect1_foregroundBlur_2046_18"/>
</filter>
<filter id="filter1_f_2046_18" x="92.3717" y="51.8702" width="5.41094" height="5.89141" filterUnits="userSpaceOnUse" color-interpolation-filters="sRGB">
<feFlood flood-opacity="0" result="BackgroundImageFix"/>
<feBlend mode="normal" in="SourceGraphic" in2="BackgroundImageFix" result="shape"/>
<feGaussianBlur stdDeviation="0.45088" result="effect1_foregroundBlur_2046_18"/>
</filter>
<filter id="filter2_f_2046_18" x="23.8758" y="763.663" width="23.2289" height="24.2176" filterUnits="userSpaceOnUse" color-interpolation-filters="sRGB">
<feFlood flood-opacity="0" result="BackgroundImageFix"/>
<feBlend mode="normal" in="SourceGraphic" in2="BackgroundImageFix" result="shape"/>
<feGaussianBlur stdDeviation="3.95077" result="effect1_foregroundBlur_2046_18"/>
</filter>
<filter id="filter3_f_2046_18" x="33.7059" y="772.839" width="4.74047" height="5.16185" filterUnits="userSpaceOnUse" color-interpolation-filters="sRGB">
<feFlood flood-opacity="0" result="BackgroundImageFix"/>
<feBlend mode="normal" in="SourceGraphic" in2="BackgroundImageFix" result="shape"/>
<feGaussianBlur stdDeviation="0.395077" result="effect1_foregroundBlur_2046_18"/>
</filter>
<filter id="filter4_f_2046_18" x="115.429" y="467.558" width="29.7888" height="31.0593" filterUnits="userSpaceOnUse" color-interpolation-filters="sRGB">
<feFlood flood-opacity="0" result="BackgroundImageFix"/>
<feBlend mode="normal" in="SourceGraphic" in2="BackgroundImageFix" result="shape"/>
<feGaussianBlur stdDeviation="5.06683" result="effect1_foregroundBlur_2046_18"/>
</filter>
<filter id="filter5_f_2046_18" x="128.035" y="479.326" width="6.07947" height="6.62" filterUnits="userSpaceOnUse" color-interpolation-filters="sRGB">
<feFlood flood-opacity="0" result="BackgroundImageFix"/>
<feBlend mode="normal" in="SourceGraphic" in2="BackgroundImageFix" result="shape"/>
<feGaussianBlur stdDeviation="0.506683" result="effect1_foregroundBlur_2046_18"/>
</filter>
<filter id="filter6_f_2046_18" x="0.601235" y="288.528" width="19.946" height="20.797" filterUnits="userSpaceOnUse" color-interpolation-filters="sRGB">
<feFlood flood-opacity="0" result="BackgroundImageFix"/>
<feBlend mode="normal" in="SourceGraphic" in2="BackgroundImageFix" result="shape"/>
<feGaussianBlur stdDeviation="3.39274" result="effect1_foregroundBlur_2046_18"/>
</filter>
<filter id="filter7_f_2046_18" x="9.04215" y="296.408" width="4.06999" height="4.43278" filterUnits="userSpaceOnUse" color-interpolation-filters="sRGB">
<feFlood flood-opacity="0" result="BackgroundImageFix"/>
<feBlend mode="normal" in="SourceGraphic" in2="BackgroundImageFix" result="shape"/>
<feGaussianBlur stdDeviation="0.339274" result="effect1_foregroundBlur_2046_18"/>
</filter>
<filter id="filter8_f_2046_18" x="308.876" y="78.0071" width="23.2289" height="24.2176" filterUnits="userSpaceOnUse" color-interpolation-filters="sRGB">
<feFlood flood-opacity="0" result="BackgroundImageFix"/>
<feBlend mode="normal" in="SourceGraphic" in2="BackgroundImageFix" result="shape"/>
<feGaussianBlur stdDeviation="3.95077" result="effect1_foregroundBlur_2046_18"/>
</filter>
<filter id="filter9_f_2046_18" x="318.706" y="87.1825" width="4.74047" height="5.16185" filterUnits="userSpaceOnUse" color-interpolation-filters="sRGB">
<feFlood flood-opacity="0" result="BackgroundImageFix"/>
<feBlend mode="normal" in="SourceGraphic" in2="BackgroundImageFix" result="shape"/>
<feGaussianBlur stdDeviation="0.395077" result="effect1_foregroundBlur_2046_18"/>
</filter>
<filter id="filter10_f_2046_18" x="1768.19" y="0.407715" width="58.793" height="61.2988" filterUnits="userSpaceOnUse" color-interpolation-filters="sRGB">
<feFlood flood-opacity="0" result="BackgroundImageFix"/>
<feBlend mode="normal" in="SourceGraphic" in2="BackgroundImageFix" result="shape"/>
<feGaussianBlur stdDeviation="10" result="effect1_foregroundBlur_2046_18"/>
</filter>
<filter id="filter11_f_2046_18" x="1793.07" y="23.6328" width="11.998" height="13.0654" filterUnits="userSpaceOnUse" color-interpolation-filters="sRGB">
<feFlood flood-opacity="0" result="BackgroundImageFix"/>
<feBlend mode="normal" in="SourceGraphic" in2="BackgroundImageFix" result="shape"/>
<feGaussianBlur stdDeviation="1" result="effect1_foregroundBlur_2046_18"/>
</filter>
<filter id="filter12_f_2046_18" x="583.258" y="772.524" width="39.6336" height="41.3211" filterUnits="userSpaceOnUse" color-interpolation-filters="sRGB">
<feFlood flood-opacity="0" result="BackgroundImageFix"/>
<feBlend mode="normal" in="SourceGraphic" in2="BackgroundImageFix" result="shape"/>
<feGaussianBlur stdDeviation="6.74093" result="effect1_foregroundBlur_2046_18"/>
</filter>
<filter id="filter13_f_2046_18" x="600.031" y="788.18" width="8.08895" height="8.8077" filterUnits="userSpaceOnUse" color-interpolation-filters="sRGB">
<feFlood flood-opacity="0" result="BackgroundImageFix"/>
<feBlend mode="normal" in="SourceGraphic" in2="BackgroundImageFix" result="shape"/>
<feGaussianBlur stdDeviation="0.674093" result="effect1_foregroundBlur_2046_18"/>
</filter>
<filter id="filter14_f_2046_18" x="309.876" y="780.655" width="23.2289" height="24.2176" filterUnits="userSpaceOnUse" color-interpolation-filters="sRGB">
<feFlood flood-opacity="0" result="BackgroundImageFix"/>
<feBlend mode="normal" in="SourceGraphic" in2="BackgroundImageFix" result="shape"/>
<feGaussianBlur stdDeviation="3.95077" result="effect1_foregroundBlur_2046_18"/>
</filter>
<filter id="filter15_f_2046_18" x="319.706" y="789.83" width="4.74047" height="5.16185" filterUnits="userSpaceOnUse" color-interpolation-filters="sRGB">
<feFlood flood-opacity="0" result="BackgroundImageFix"/>
<feBlend mode="normal" in="SourceGraphic" in2="BackgroundImageFix" result="shape"/>
<feGaussianBlur stdDeviation="0.395077" result="effect1_foregroundBlur_2046_18"/>
</filter>
<linearGradient id="paint0_linear_2046_18" x1="94.174" y1="52.4387" x2="96.5508" y2="56.6159" gradientUnits="userSpaceOnUse">
<stop stop-color="#FC7244"/>
<stop offset="1" stop-color="#AC3B41"/>
</linearGradient>
<linearGradient id="paint1_linear_2046_18" x1="35.2856" y1="773.337" x2="37.3682" y2="776.997" gradientUnits="userSpaceOnUse">
<stop stop-color="#FC7244"/>
<stop offset="1" stop-color="#AC3B41"/>
</linearGradient>
<linearGradient id="paint2_linear_2046_18" x1="130.06" y1="479.965" x2="132.731" y2="484.659" gradientUnits="userSpaceOnUse">
<stop stop-color="#FC7244"/>
<stop offset="1" stop-color="#AC3B41"/>
</linearGradient>
<linearGradient id="paint3_linear_2046_18" x1="10.3973" y1="296.836" x2="12.1857" y2="299.979" gradientUnits="userSpaceOnUse">
<stop stop-color="#FC7244"/>
<stop offset="1" stop-color="#AC3B41"/>
</linearGradient>
<linearGradient id="paint4_linear_2046_18" x1="320.286" y1="87.6804" x2="322.368" y2="91.3406" gradientUnits="userSpaceOnUse">
<stop stop-color="#FC7244"/>
<stop offset="1" stop-color="#AC3B41"/>
</linearGradient>
<linearGradient id="paint5_linear_2046_18" x1="1797.07" y1="24.8932" x2="1802.34" y2="34.1577" gradientUnits="userSpaceOnUse">
<stop stop-color="#FC7244"/>
<stop offset="1" stop-color="#AC3B41"/>
</linearGradient>
<linearGradient id="paint6_linear_2046_18" x1="602.725" y1="789.03" x2="606.279" y2="795.275" gradientUnits="userSpaceOnUse">
<stop stop-color="#FC7244"/>
<stop offset="1" stop-color="#AC3B41"/>
</linearGradient>
<linearGradient id="paint7_linear_2046_18" x1="321.286" y1="790.328" x2="323.368" y2="793.989" gradientUnits="userSpaceOnUse">
<stop stop-color="#FC7244"/>
<stop offset="1" stop-color="#AC3B41"/>
</linearGradient>
</defs>
</svg>
