<svg width="27" height="27" viewBox="0 0 27 27" fill="none" xmlns="http://www.w3.org/2000/svg">
<g clip-path="url(#clip0_2027_24)">
<path d="M0 13.4937C0 20.948 6.04213 26.9874 13.5 26.9874C20.9578 26.9874 27 20.948 27 13.4937C27 6.0393 20.9578 0 13.5 0C6.04213 0 0 6.05194 0 13.4937Z" fill="#FFD400"/>
<path d="M3.40234 4.54843C9.92482 3.99252 17.0794 3.97987 23.6019 4.54843C21.1242 1.75619 17.5217 0 13.5021 0C9.4824 0 5.87988 1.75619 3.40234 4.54843Z" fill="#231F20"/>
<path d="M23.7354 22.2998C17.4024 22.7926 9.86876 22.8304 3.25781 22.2998C5.73533 25.1804 9.40107 26.9998 13.4966 26.9998C17.592 26.9998 21.2578 25.1679 23.7354 22.2998Z" fill="#231F20"/>
<path d="M0.442416 10.0697C9.22753 9.91804 17.7852 9.89278 26.5576 10.0697C26.8484 11.1689 27 12.3186 27 13.4936C27 14.517 26.8862 15.5278 26.6713 16.488C17.785 16.7407 9.03792 16.6776 0.328653 16.488C0.113765 15.5278 0 14.5297 0 13.4936C0 12.3186 0.151686 11.1689 0.442416 10.0697Z" fill="#231F20"/>
</g>
<defs>
<clipPath id="clip0_2027_24">
<rect width="27" height="27" fill="white"/>
</clipPath>
</defs>
</svg>
