<svg width="27" height="27" viewBox="0 0 27 27" fill="none" xmlns="http://www.w3.org/2000/svg">
<g clip-path="url(#clip0_2027_73)">
<path d="M24.1788 5.14355C24.8172 5.9745 25.3492 6.88585 25.8014 7.8508L13.512 16.991L8.35156 13.7209V9.80752L13.4854 13.0508L24.1788 5.14355Z" fill="#21A038"/>
<path d="M3.11225 13.4508C3.11225 13.2632 3.11225 13.1024 3.13885 12.9147L0.0266004 12.7539C0.0266004 12.9683 0 13.2096 0 13.424C0 17.1767 1.51622 20.5808 3.96345 23.0468L6.17129 20.822C4.28266 18.9456 3.11225 16.3457 3.11225 13.4508Z" fill="url(#paint0_linear_2027_73)"/>
<path d="M13.4858 2.99841C13.672 2.99841 13.8317 2.99841 14.0178 3.02522L14.1774 -0.110891C13.9646 -0.110891 13.7252 -0.137695 13.5124 -0.137695C9.78838 -0.137695 6.41013 1.39015 3.96289 3.85614L6.17073 6.0809C8.03275 4.1778 10.6396 2.99841 13.4858 2.99841Z" fill="url(#paint1_linear_2027_73)"/>
<path d="M13.4846 23.9067C13.2984 23.9067 13.1388 23.9067 12.9526 23.8799L12.793 27.0161C13.0058 27.0161 13.2452 27.0428 13.458 27.0428C17.182 27.0428 20.5603 25.515 23.0075 23.049L20.7996 20.8242C18.9376 22.7541 16.3574 23.9067 13.4846 23.9067Z" fill="url(#paint2_linear_2027_73)"/>
<path d="M19.3384 4.82155L21.9718 2.86483C19.6576 0.988522 16.705 -0.164062 13.4863 -0.164062V2.97204C15.6676 2.99885 17.6893 3.66895 19.3384 4.82155Z" fill="url(#paint3_linear_2027_73)"/>
<path d="M26.9988 13.4529C26.9988 12.6219 26.919 11.8178 26.7859 11.0137L23.8865 13.1848C23.8865 13.2652 23.8865 13.3725 23.8865 13.4529C23.8865 16.5354 22.5564 19.2963 20.4551 21.1993L22.5564 23.5313C25.2696 21.0653 26.9988 17.4468 26.9988 13.4529Z" fill="#21A038"/>
<path d="M13.4861 23.906C10.4271 23.906 7.68724 22.5658 5.79862 20.4482L3.48438 22.5658C5.95822 25.3266 9.52266 27.042 13.4861 27.042V23.906Z" fill="url(#paint4_linear_2027_73)"/>
<path d="M6.5437 5.70699L4.44228 3.375C1.70243 5.8678 0 9.45959 0 13.4534H3.11225C3.11225 10.3977 4.44228 7.6101 6.5437 5.70699Z" fill="url(#paint5_linear_2027_73)"/>
</g>
<defs>
<linearGradient id="paint0_linear_2027_73" x1="3.63135" y1="22.6652" x2="0.453594" y2="13.4092" gradientUnits="userSpaceOnUse">
<stop offset="0.1444" stop-color="#F2E913"/>
<stop offset="0.3037" stop-color="#E7E518"/>
<stop offset="0.5823" stop-color="#CADB26"/>
<stop offset="0.891" stop-color="#A3CD39"/>
</linearGradient>
<linearGradient id="paint1_linear_2027_73" x1="4.85003" y1="3.50226" x2="12.9175" y2="0.404333" gradientUnits="userSpaceOnUse">
<stop offset="0.0592" stop-color="#0FA8E0"/>
<stop offset="0.5385" stop-color="#0099F9"/>
<stop offset="0.9234" stop-color="#0291EB"/>
</linearGradient>
<linearGradient id="paint2_linear_2027_73" x1="12.6102" y1="24.3757" x2="22.2279" y2="22.1854" gradientUnits="userSpaceOnUse">
<stop offset="0.1226" stop-color="#A3CD39"/>
<stop offset="0.2846" stop-color="#86C339"/>
<stop offset="0.8693" stop-color="#21A038"/>
</linearGradient>
<linearGradient id="paint3_linear_2027_73" x1="12.8469" y1="1.83341" x2="20.8433" y2="4.31957" gradientUnits="userSpaceOnUse">
<stop offset="0.0566" stop-color="#0291EB"/>
<stop offset="0.79" stop-color="#0C8ACB"/>
</linearGradient>
<linearGradient id="paint4_linear_2027_73" x1="4.27571" y1="23.0627" x2="12.8647" y2="26.2965" gradientUnits="userSpaceOnUse">
<stop offset="0.1324" stop-color="#F2E913"/>
<stop offset="0.2977" stop-color="#EBE716"/>
<stop offset="0.5306" stop-color="#D9E01F"/>
<stop offset="0.8023" stop-color="#BBD62D"/>
<stop offset="0.9829" stop-color="#A3CD39"/>
</linearGradient>
<linearGradient id="paint5_linear_2027_73" x1="2.38467" y1="13.8322" x2="5.82013" y2="4.82686" gradientUnits="userSpaceOnUse">
<stop offset="0.0698" stop-color="#A3CD39"/>
<stop offset="0.2599" stop-color="#81C55F"/>
<stop offset="0.9216" stop-color="#0FA8E0"/>
</linearGradient>
<clipPath id="clip0_2027_73">
<rect width="27" height="27" fill="white"/>
</clipPath>
</defs>
</svg>
