<svg width="58" height="19" viewBox="0 0 58 19" fill="none" xmlns="http://www.w3.org/2000/svg">
<g clip-path="url(#clip0_2027_3)">
<path d="M25.1432 18.6833H20.4106L23.3684 0.327984H28.1016L25.1432 18.6833ZM16.4292 0.327984L11.9174 12.9529L11.3835 10.2343L11.384 10.2353L9.79152 1.98067C9.79152 1.98067 9.59896 0.327984 7.54652 0.327984H0.0875242L0 0.638783C0 0.638783 2.28098 1.11799 4.95046 2.7368L9.06215 18.6838H13.9932L21.5227 0.327984H16.4292ZM53.6537 18.6833H57.9993L54.2105 0.327493H50.4061C48.6493 0.327493 48.2214 1.6954 48.2214 1.6954L41.1631 18.6833H46.0965L47.0831 15.9568H53.0994L53.6537 18.6833ZM48.446 12.1904L50.9327 5.32139L52.3316 12.1904H48.446ZM41.5331 4.74202L42.2085 0.800319C42.2085 0.800319 40.1245 0 37.9519 0C35.6033 0 30.0261 1.03649 30.0261 6.07654C30.0261 10.8186 36.5719 10.8775 36.5719 13.3683C36.5719 15.8591 30.7005 15.4128 28.7628 13.8421L28.0593 17.9635C28.0593 17.9635 30.1725 19 33.4011 19C36.6308 19 41.503 17.3115 41.503 12.7158C41.503 7.9433 34.8983 7.49895 34.8983 5.42401C34.8988 3.34858 39.5079 3.61519 41.5331 4.74202Z" fill="white"/>
<path d="M11.384 10.2344L9.79152 1.97984C9.79152 1.97984 9.59896 0.327148 7.54652 0.327148H0.0875243L0 0.637947C0 0.637947 3.58508 1.38819 7.02381 4.19913C10.3118 6.88585 11.384 10.2344 11.384 10.2344Z" fill="#F2AF0C"/>
</g>
<defs>
<clipPath id="clip0_2027_3">
<rect width="58" height="19" fill="white"/>
</clipPath>
</defs>
</svg>
