<svg width="74" height="23" viewBox="0 0 74 23" fill="none" xmlns="http://www.w3.org/2000/svg">
<g clip-path="url(#clip0_2027_10)">
<path d="M19.9411 1.09766V1.10674C19.932 1.10674 17.0497 1.09766 16.2811 3.83288C15.5765 6.34092 13.591 13.2623 13.5361 13.4531H12.9871C12.9871 13.4531 10.9557 6.37727 10.242 3.82379C9.47341 1.08857 6.58198 1.09766 6.58198 1.09766H0V21.9011H6.58503V9.54554H7.13404L10.9771 21.901H15.5491L19.3921 9.55463H19.9411V21.901H26.5262V1.09766H19.9411ZM43.9968 1.09766C43.9968 1.09766 42.0661 1.27031 41.1603 3.27866L36.4967 13.4531H35.9477V1.09766H29.3627V21.9011H35.5817C35.5817 21.9011 37.6039 21.7193 38.5099 19.7202L43.0819 9.54564H43.6309V21.9011H50.2159V1.09766H43.9968ZM53.1438 10.5452V21.9011H59.7289V15.2705H66.863C69.974 15.2705 72.6062 13.2986 73.5853 10.5482H53.1438V10.5452Z" fill="#4DB45E"/>
<path d="M66.865 1.09863H52.2188C52.9508 5.06061 55.9427 8.23807 59.8102 9.274C60.708 9.51551 61.6342 9.63776 62.5644 9.63758H73.8526C73.9532 9.16505 73.999 8.68343 73.999 8.18364C73.9991 4.27003 70.8057 1.09863 66.865 1.09863Z" fill="url(#paint0_linear_2027_10)"/>
</g>
<defs>
<linearGradient id="paint0_linear_2027_10" x1="52.2187" y1="5.36809" x2="73.999" y2="5.36809" gradientUnits="userSpaceOnUse">
<stop offset="0.3" stop-color="#00B4E6"/>
<stop offset="1" stop-color="#088CCB"/>
</linearGradient>
<clipPath id="clip0_2027_10">
<rect width="74" height="20.8125" fill="white" transform="translate(0 1.09375)"/>
</clipPath>
</defs>
</svg>
