<svg width="61" height="23" viewBox="0 0 61 23" fill="none" xmlns="http://www.w3.org/2000/svg">
<g clip-path="url(#clip0_2027_14)">
<mask id="mask0_2027_14" style="mask-type:luminance" maskUnits="userSpaceOnUse" x="0" y="0" width="61" height="23">
<path d="M61 0.137695H0V22.8632H61V0.137695Z" fill="white"/>
</mask>
<g mask="url(#mask0_2027_14)">
<mask id="mask1_2027_14" style="mask-type:alpha" maskUnits="userSpaceOnUse" x="0" y="0" width="61" height="23">
<path d="M0 8.13936L8.95488 6.89577V10.4466L0 11.4203V8.13936ZM2.85729 11.6197L6.13599 11.289V22.8622H2.85729V11.6197ZM10.1641 6.72765L13.6185 6.24782V22.8621H10.1641V6.72765ZM14.2623 6.15823L19.2506 5.46551V9.32749L14.2623 9.86963V6.15823ZM14.2623 12.6321L17.5371 12.3539V16.2351L14.2623 16.4118V12.6321ZM14.2623 19.1353L19.2506 18.9867V22.8621H14.2623V19.1353ZM32.1511 3.66782L36.6795 3.03869V22.8622H32.1511V3.66782ZM37.5258 2.9212L44.1254 2.00451V6.61877L37.5258 7.33617V2.9212ZM37.5258 10.657L41.8516 10.2905V14.9202L37.5258 15.1538V10.657ZM37.5256 18.4405L44.1252 18.2438V22.8621H37.5256V18.4405ZM20.5704 5.28206L24.5055 4.73545V22.8621H20.5704V5.28206ZM25.2399 18.8081L30.9522 18.6377V22.8621H25.2399V18.8081ZM58.9212 1.78726C60.2296 3.00978 60.8896 4.74127 60.7318 6.53806C60.4334 9.93424 58.7658 12.6554 54.123 17.1386L46.5245 17.3851C46.5245 17.3851 51.8175 12.6337 53.8082 10.3122C55.0981 8.80786 55.6444 7.18399 55.1146 6.10162C54.779 5.41571 54.0251 5.07435 53.0963 5.12538V0.228473C55.3918 -0.0975762 57.4908 0.450731 58.9212 1.78726ZM61 22.8621H45.5871V18.1168L61 17.7377V22.8621ZM52.2103 0.338411L52.213 5.32571C51.2732 5.71706 50.3445 6.42893 50.5621 9.43015L45.788 9.84872C45.5342 4.53643 47.7329 1.2804 52.2103 0.338411Z" fill="black"/>
</mask>
<g mask="url(#mask1_2027_14)">
<path d="M0 8.13936L8.95488 6.89577V10.4466L0 11.4203V8.13936ZM2.85729 11.6197L6.13599 11.289V22.8622H2.85729V11.6197ZM10.1641 6.72765L13.6185 6.24782V22.8621H10.1641V6.72765ZM14.2623 6.15823L19.2506 5.46551V9.32749L14.2623 9.86963V6.15823ZM14.2623 12.6321L17.5371 12.3539V16.2351L14.2623 16.4118V12.6321ZM14.2623 19.1353L19.2506 18.9867V22.8621H14.2623V19.1353ZM32.1511 3.66782L36.6795 3.03869V22.8622H32.1511V3.66782ZM37.5258 2.9212L44.1254 2.00451V6.61877L37.5258 7.33617V2.9212ZM37.5258 10.657L41.8516 10.2905V14.9202L37.5258 15.1538V10.657ZM37.5256 18.4405L44.1252 18.2438V22.8621H37.5256V18.4405ZM20.5704 5.28206L24.5055 4.73545V22.8621H20.5704V5.28206ZM25.2399 18.8081L30.9522 18.6377V22.8621H25.2399V18.8081ZM58.9212 1.78726C60.2296 3.00978 60.8896 4.74127 60.7318 6.53806C60.4334 9.93424 58.7658 12.6554 54.123 17.1386L46.5245 17.3851C46.5245 17.3851 51.8175 12.6337 53.8082 10.3122C55.0981 8.80786 55.6444 7.18399 55.1146 6.10162C54.779 5.41571 54.0251 5.07435 53.0963 5.12538V0.228473C55.3918 -0.0975762 57.4908 0.450731 58.9212 1.78726ZM61 22.8621H45.5871V18.1168L61 17.7377V22.8621ZM52.2103 0.338411L52.213 5.32571C51.2732 5.71706 50.3445 6.42893 50.5621 9.43015L45.788 9.84872C45.5342 4.53643 47.7329 1.2804 52.2103 0.338411Z" fill="white"/>
</g>
</g>
</g>
<defs>
<clipPath id="clip0_2027_14">
<rect width="61" height="22.7255" fill="white" transform="translate(0 0.137695)"/>
</clipPath>
</defs>
</svg>
