<svg width="21" height="27" viewBox="0 0 21 27" fill="none" xmlns="http://www.w3.org/2000/svg">
<g clip-path="url(#clip0_2027_36)">
<mask id="mask0_2027_36" style="mask-type:luminance" maskUnits="userSpaceOnUse" x="0" y="0" width="21" height="27">
<path d="M21 0.199219H0V26.7992H21V0.199219Z" fill="white"/>
</mask>
<g mask="url(#mask0_2027_36)">
<path d="M14.8172 0.219701L1.89245 8.33812C0.776054 9.03703 0.0998539 10.2467 0.0953158 11.555L1.7647e-05 24.7138C-0.00452054 25.7846 0.866817 26.6538 1.94691 26.6627L18.9833 26.7478C19.8456 26.7523 20.5489 26.0624 20.5535 25.2111L20.6261 11.4206C20.6307 10.8426 20.1586 10.3677 19.5688 10.3632L14.9216 10.3408L15.0032 0.322747C15.0032 0.224179 14.8943 0.165937 14.8172 0.219701Z" fill="#FFCC00"/>
<path d="M20.5707 20.6008L4.30122 24.5839C3.9291 24.678 3.71126 24.1806 4.0335 23.9745L14.8661 17.0568L14.907 10.3408L19.7538 10.3632C20.2394 10.3677 20.6251 10.753 20.6206 11.2279L20.5707 20.6008Z" fill="#D6AB05"/>
<path d="M11.2781 12.2474C12.0295 11.3971 12.1838 10.3162 11.6228 9.83301C11.0618 9.34992 9.99796 9.64756 9.24664 10.4979C8.49527 11.3482 8.34093 12.4292 8.90191 12.9123C9.46289 13.3954 10.5267 13.0978 11.2781 12.2474Z" fill="black"/>
</g>
</g>
<defs>
<clipPath id="clip0_2027_36">
<rect width="21" height="26.6" fill="white" transform="translate(0 0.200195)"/>
</clipPath>
</defs>
</svg>
