<svg width="27" height="27" viewBox="0 0 27 27" fill="none" xmlns="http://www.w3.org/2000/svg">
<path d="M20.0042 22.6407C21.7198 23.1054 23.5771 23.8557 25.745 26.5849C25.9655 26.8616 25.6303 27.1428 25.3805 26.9179C22.8864 24.6735 20.7883 24.0378 18.7137 23.9502C17.6136 23.9028 16.5178 24.0108 15.3748 24.1133C15.042 24.144 14.7089 24.1721 14.3758 24.1977C13.9719 24.2415 13.5635 24.2652 13.1495 24.2652C11.229 24.2735 9.34029 23.7748 7.67416 22.8196C6.00599 21.8774 4.62755 20.4967 3.68828 18.8268C2.73219 17.1418 2.23562 15.235 2.24828 13.2975C2.24828 11.3142 2.73202 9.44442 3.68603 7.74454C4.61266 6.07023 5.97421 4.6772 7.62691 3.71255C9.25514 2.75002 11.113 2.24477 13.0044 2.25004C14.999 2.25004 16.8631 2.73604 18.5462 3.69454C20.2183 4.64106 21.6007 6.02576 22.5445 7.69954C23.5078 9.38807 24.0091 11.3007 23.9979 13.2447C23.9985 14.1285 23.898 15.0095 23.6986 15.8703C23.6722 15.9891 23.6392 16.1064 23.5996 16.2213C23.4062 16.8492 23.0461 17.7402 22.3768 18.881C22.3047 19.0014 22.2642 18.9101 22.2553 18.8426C22.0212 17.1631 21.2968 15.8873 20.0188 15.0638L19.9557 15.0244C19.7403 14.8904 19.5159 14.7712 19.2841 14.6679C18.9648 14.5256 18.6349 14.4084 18.2975 14.3169C18.0815 14.2572 17.5989 14.283 17.7733 14.1064C17.8465 14.0333 18.8915 14.0164 20.1639 14.0985C20.1864 13.8432 20.1976 13.581 20.1976 13.311C20.1976 11.2152 19.5148 9.50629 18.1096 8.08655C16.7034 6.6668 15.0598 5.97604 13.0832 5.97604C11.0604 5.97604 9.41903 6.66792 8.06791 8.09104C6.70777 9.51979 6.04853 11.214 6.04853 13.2705C6.04853 15.3225 6.7269 17.01 8.12415 18.4298C9.5214 19.8484 11.1437 20.5392 13.0832 20.5392C13.1765 20.5392 13.2688 20.5358 13.3543 20.4615C13.2429 19.0149 13.2193 17.8122 13.5118 18.2971C13.6153 18.4692 13.7188 18.6312 13.8212 18.7875C14.1719 19.3276 14.5718 19.8342 15.0159 20.3006C16.3951 21.7227 17.753 22.0725 19.1953 22.4325L19.2876 22.4551C19.5237 22.5146 19.7635 22.5754 20.0042 22.6407ZM18.1119 19.8091C18.2233 19.6707 18.4044 19.5931 18.6215 19.5931C18.886 19.5931 19.1615 19.7055 19.4 19.9103C19.8804 20.3232 20.0278 20.8136 19.7724 21.1614C19.6317 21.3504 19.4011 21.4549 19.1278 21.4549C18.8578 21.4549 18.5821 21.3536 18.392 21.1849C17.9533 20.7969 17.8273 20.1668 18.1119 19.8091ZM20.5678 17.9258C20.6465 17.7795 20.8051 17.7333 21.0178 17.7964C21.4059 17.9809 21.5803 18.5726 21.6185 18.8618C21.6567 19.143 21.6275 19.3659 21.5352 19.4727C21.5178 19.4946 21.4954 19.5122 21.4701 19.5243C21.4449 19.5362 21.4171 19.5425 21.389 19.5423C21.2247 19.5423 21.019 19.3467 20.776 18.9618C20.5362 18.5829 20.4497 18.1452 20.5678 17.9258Z" fill="#FF8C00"/>
</svg>
