<svg width="52" height="27" viewBox="0 0 52 27" fill="none" xmlns="http://www.w3.org/2000/svg">
<g clip-path="url(#clip0_2027_46)">
<mask id="mask0_2027_46" style="mask-type:luminance" maskUnits="userSpaceOnUse" x="0" y="0" width="52" height="27">
<path d="M52 0.5H0V26.5H52V0.5Z" fill="white"/>
</mask>
<g mask="url(#mask0_2027_46)">
<path fill-rule="evenodd" clip-rule="evenodd" d="M26.8666 0.5V26.5H52V0.5H26.8666ZM0 0.5V26.5H25.1334V0.5H0Z" fill="#0055A5"/>
<path fill-rule="evenodd" clip-rule="evenodd" d="M50.7016 1.79883V25.1989H28.1682V1.79883H50.7016ZM13.6182 18.9012C13.3413 18.5541 13.2013 18.0983 13.2013 17.5471C13.2013 16.9815 13.3352 16.5261 13.5991 16.1933C13.8868 15.8289 14.3106 15.6443 14.8592 15.6443H14.9012V14.7005H14.8592C14.0034 14.7005 13.343 14.9761 12.8962 15.5191C12.4898 16.0109 12.2835 16.6951 12.2835 17.5544C12.2835 18.3847 12.5071 19.0671 12.9482 19.5833C13.4123 20.1258 14.0594 20.4014 14.8718 20.4014H14.9138V19.4576H14.8718C14.3362 19.4576 13.9142 19.2704 13.6182 18.9012ZM10.3586 18.9012C10.0817 18.5541 9.94133 18.0987 9.94133 17.5471C9.94133 16.9815 10.0752 16.5261 10.3391 16.1933C10.6269 15.8289 11.0507 15.6443 11.5993 15.6443H11.6413V14.7005H11.5993C10.7434 14.7005 10.083 14.9761 9.63626 15.5191C9.22979 16.0109 9.02353 16.6951 9.02353 17.5544C9.02353 18.3847 9.24756 19.0671 9.68869 19.5833C10.1528 20.1258 10.7998 20.4014 11.6123 20.4014H11.6543V19.4576H11.6123C11.0767 19.4576 10.6546 19.2704 10.3586 18.9012ZM13.3543 9.70977V12.3371H14.3276V6.89787H13.3543V8.79239H12.8247C12.6063 8.79239 12.4434 8.74127 12.3403 8.64029C12.2657 8.56879 12.2298 8.47347 12.2298 8.34823V6.89787H11.2565V8.45093C11.2565 8.80843 11.3939 9.11133 11.6651 9.35139C11.9334 9.58929 12.2618 9.70977 12.6427 9.70977H13.3543ZM22.6648 14.5713L22.5964 14.645L20.652 16.7333V14.8305H19.8018V20.2389H20.652V18.0172L21.8848 16.6743L22.0084 20.2389H22.875L22.6648 14.5713ZM16.2984 12.3371H17.2712V7.80223H18.0914V6.89829H15.4914V7.80223H16.2984V12.3371ZM18.5396 14.645L16.5952 16.7333V14.8305H15.745V20.2389H16.5952V18.0172L17.828 16.6743L17.951 20.2389H18.8178L18.6084 14.5709L18.5396 14.645ZM20.2898 7.80223H20.642C20.893 7.80223 21.0654 7.87937 21.1698 8.03883C21.254 8.17143 21.3138 8.42753 21.3518 8.77853H20.2664L20.2898 7.80223ZM20.249 9.68247L21.4636 9.68289L21.7366 12.3375L22.7168 12.3371L22.268 8.36079C22.2684 7.83949 22.112 7.44603 21.803 7.19859C21.5572 6.99927 21.2206 6.89787 20.8024 6.89787H19.3608L19.1818 12.3371H20.155L20.249 9.68247ZM3.28749 7.80223H4.49259V12.3375H5.46586V6.89787H2.31423V12.3371H3.28749V7.80223ZM3.74249 17.7832C3.67273 17.9219 3.59126 17.9912 3.50069 17.9912C3.41273 17.9912 3.33863 17.9314 3.27493 17.8075C3.20689 17.6761 3.17266 17.4842 3.17266 17.2359V15.6443H3.20819C3.40926 15.6443 3.56266 15.7587 3.67749 15.9931C3.79536 16.2349 3.85516 16.621 3.85516 17.1423C3.85473 17.4192 3.81703 17.635 3.74249 17.7832ZM3.21036 14.8387H2.30859V20.2355H3.17266V18.6667C3.33993 18.818 3.52236 18.9081 3.72213 18.9081C4.00986 18.9081 4.24906 18.7517 4.43409 18.4436C4.64123 18.0973 4.74566 17.5847 4.74566 16.9183C4.74566 16.4555 4.66159 16.0399 4.49606 15.685C4.23519 15.1239 3.80229 14.8387 3.21036 14.8387ZM8.99969 11.0067C8.87316 11.359 8.69463 11.5302 8.45499 11.5302C8.22533 11.5302 8.05199 11.3569 7.92503 10.9998C7.79243 10.6267 7.72526 10.1535 7.72526 9.59319C7.72526 9.01817 7.79113 8.54497 7.92156 8.18659C8.04549 7.84383 8.22013 7.67743 8.45499 7.67743C8.71846 7.67743 8.90653 7.84599 9.02873 8.19267C9.14226 8.51203 9.19946 8.97787 9.19946 9.57759C9.19946 10.1574 9.13229 10.638 8.99969 11.0067ZM9.75109 11.6216C10.0397 11.109 10.1862 10.4213 10.1862 9.57759C10.1862 8.74387 10.0345 8.06093 9.73636 7.54787C9.43129 7.02439 8.99969 6.75919 8.45326 6.75919C7.93499 6.75919 7.52246 7.02613 7.22779 7.55263C6.93919 8.06657 6.79273 8.75037 6.79273 9.58453C6.79273 10.4482 6.93269 11.1454 7.20916 11.6572C7.49169 12.1815 7.91029 12.4476 8.45326 12.4476C9.00489 12.448 9.44169 12.1702 9.75109 11.6216ZM7.31446 18.9355C7.20049 19.2912 7.03279 19.4715 6.81699 19.4715C6.60943 19.4715 6.44649 19.2886 6.33209 18.9281C6.21336 18.5523 6.15269 18.0761 6.15269 17.5119C6.15269 16.9335 6.21206 16.4572 6.32863 16.0963C6.44043 15.75 6.60466 15.5745 6.81656 15.5745C7.05706 15.5745 7.22866 15.7479 7.34003 16.1036C7.44186 16.4251 7.49343 16.8935 7.49343 17.4972C7.49386 18.0805 7.43363 18.5641 7.31446 18.9355ZM7.95709 15.4801C7.68626 14.9631 7.30319 14.7005 6.81786 14.7005C6.35766 14.7005 5.99149 14.9643 5.72976 15.4853C5.47279 15.9965 5.34193 16.6761 5.34193 17.5045C5.34193 18.363 5.46716 19.0567 5.71286 19.5655C5.96333 20.0833 6.33513 20.3459 6.81743 20.3459C7.30709 20.3459 7.69493 20.0712 7.97009 19.5283C8.22706 19.0199 8.35749 18.3365 8.35749 17.4972C8.35793 16.6678 8.22316 15.9892 7.95709 15.4801Z" fill="white"/>
<path fill-rule="evenodd" clip-rule="evenodd" d="M34.4251 9.01868C34.6113 9.44292 34.9177 9.87712 35.7515 10.463C35.9379 10.5943 36.1437 10.8673 35.9867 11.2508C35.8295 11.6347 35.5349 12.1803 35.7117 12.3918C35.8885 12.6045 36.5163 12.7155 37.0277 12.5031C37.0277 12.5031 37.1355 12.8364 37.3223 13.0483C37.3223 13.0483 37.2343 13.2303 36.9397 13.1397C36.9397 13.1397 37.0475 13.4122 36.9003 13.7052C36.9003 13.7052 36.5561 13.6449 36.4089 13.3208C36.4089 13.3208 36.2711 13.5739 35.9967 13.664C35.9967 13.664 35.7705 13.5435 35.8199 13.0786C35.8199 13.0786 35.6527 13.4928 35.1423 13.563C35.1423 13.563 34.8475 13.1796 35.2307 12.6639C35.2307 12.6639 34.9551 12.917 34.4549 12.7961C34.4549 12.7961 34.3757 12.5335 34.8277 12.169C34.8277 12.169 34.3163 12.1495 34.1205 11.7049C34.1205 11.7049 34.3363 11.4324 34.8671 11.493C34.8671 11.493 34.3757 11.3817 34.2677 10.7754C34.2677 10.7754 34.6213 10.5432 35.1817 10.9167C35.1817 10.9167 35.0829 10.7252 34.8475 10.5332C34.6109 10.3417 34.3267 9.80606 34.4251 9.01868ZM36.4799 15.1109C36.4114 15.0177 36.3539 14.9168 36.3087 14.8102C36.3967 15.5455 36.4283 16.0413 36.8141 16.5167C36.8141 16.5167 37.0471 16.1981 36.8967 15.4242C36.8226 15.4024 36.7524 15.3689 36.6887 15.325C36.6887 15.325 36.7771 15.6391 36.7221 15.9559C36.7221 15.9559 36.5831 15.8511 36.4799 15.1109ZM35.8125 15.0347C35.7456 14.947 35.6851 14.8545 35.6315 14.7582C35.5989 15.1846 35.4897 16.3082 35.8555 16.6597C35.8555 16.6597 36.1063 16.4711 36.1947 14.8331C36.1419 14.9246 36.0491 15.0221 36.0037 15.0754C36.0037 15.0754 36.0647 15.5954 35.8837 15.962C35.8837 15.962 35.7013 15.8199 35.8125 15.0347ZM34.9407 15.8931C35.2483 15.5143 35.3407 14.3799 35.3407 14.3799C35.3831 14.3509 35.4251 14.3183 35.4685 14.2833C35.4862 14.2689 35.5031 14.2538 35.5193 14.2377C35.5187 14.2793 35.5209 14.3218 35.5245 14.3647C35.4803 15.0472 35.4277 15.7509 35.2207 16.1015C35.0175 16.4451 34.6447 16.6228 34.6447 16.6228C34.2941 15.9828 34.7175 15.1226 35.0715 14.5255C35.1149 14.5081 35.1587 14.4873 35.2041 14.4635C35.0793 14.9241 34.8437 15.471 34.9407 15.8931ZM34.0727 13.9236C34.0701 13.9972 34.0835 14.0562 34.0931 14.0878C34.0971 14.0995 34.1017 14.1164 34.1101 14.1333C33.8163 14.4301 33.5991 14.7123 33.1645 15.3337C32.7289 15.9555 32.0405 15.9797 32.0405 15.9797C32.1063 15.4771 32.2397 15.0789 32.6081 14.6507C32.9769 14.2217 33.4479 13.8304 33.7949 13.5704C33.8839 13.6133 34.0003 13.6398 34.1473 13.622C34.1581 13.6207 34.1693 13.6194 34.1815 13.6172C34.1395 13.6716 34.1089 13.7338 34.0909 13.8001C33.8287 13.9548 33.0679 14.3521 32.7589 14.9917C32.7589 14.9917 33.2411 14.8371 34.0727 13.9236ZM33.5263 13.297L33.5553 13.2441C33.5645 13.2272 33.5746 13.2108 33.5857 13.1952C33.3031 13.3087 32.2943 13.7 31.9681 13.8733C31.6417 14.0479 31.1695 14.4431 30.9129 15.2457C30.9129 15.2457 31.5933 15.3089 32.1553 14.831C32.7165 14.3521 33.3711 13.6848 33.6507 13.472C33.6272 13.4492 33.6054 13.4246 33.5857 13.3984C33.5857 13.3984 32.8257 14.0913 32.0217 14.3899C32.0217 14.3899 32.1943 14.0692 32.5119 13.836C32.8985 13.5535 33.1883 13.4582 33.5263 13.297ZM32.9499 12.8247C32.9603 12.7969 32.9721 12.7705 32.9833 12.7449C32.6505 12.8151 31.8185 12.917 31.4467 13.034C31.0759 13.1514 30.4033 13.4313 30.0041 14.2131C30.0041 14.2131 30.5901 14.3994 31.6947 13.8642C32.7987 13.3299 33.1449 13.2194 33.3565 13.1622C33.2328 13.154 33.1129 13.1162 33.0067 13.0522C32.5661 13.2532 31.9767 13.4928 31.3917 13.508C31.3917 13.508 31.6811 13.2983 31.9833 13.1674C32.2971 13.0307 32.6202 12.9161 32.9499 12.8247ZM32.9777 12.2613C33.0861 12.3138 33.1689 12.3402 33.3101 12.3554C33.2271 12.41 33.1541 12.4788 33.0947 12.5586C32.7055 12.6739 32.0417 12.8 30.9475 12.8814C29.8525 12.9629 29.2689 12.7553 29.2689 12.7553C29.6505 12.5157 30.2585 12.2722 30.6697 12.1907C31.0811 12.1092 32.1609 12.1175 32.6341 12.0516C32.6401 12.0564 32.6973 12.1053 32.7897 12.163C32.3919 12.1998 31.5433 12.241 31.1053 12.4685C31.1053 12.4685 31.9139 12.5798 32.9777 12.2613ZM32.8959 11.6144C32.9509 11.5806 33.0175 11.5476 33.0987 11.516C32.5453 11.3435 31.7835 11.0684 30.6395 10.9908C29.7997 10.934 29.1925 10.9834 28.8793 11.0671C28.8793 11.0671 29.6437 11.6213 30.5177 11.8172C31.3917 12.013 32.1019 11.8887 32.6215 11.893C32.659 11.8309 32.7039 11.7736 32.7549 11.7223C32.1487 11.7262 31.1383 11.5645 30.7769 11.441C30.7769 11.441 31.6583 11.2521 32.8959 11.6144ZM32.8927 10.9444C32.8959 10.96 32.9599 11.2816 33.3223 11.4597C32.5449 11.1091 31.0113 10.9072 30.1879 10.5553C29.0739 10.0795 28.8711 9.48538 28.8711 9.48538C29.8347 9.45938 30.6139 9.70162 31.2145 9.89056C31.9177 10.1124 32.9885 10.5232 33.3633 10.6948C33.2229 10.7009 33.0687 10.7421 32.9391 10.8313C32.4153 10.6246 32.1717 10.538 31.6967 10.401C31.3219 10.2931 31.0441 10.2719 30.8107 10.2485C30.8107 10.2485 31.1399 10.473 31.6837 10.6524C32.2225 10.8287 32.4559 10.8582 32.8927 10.9444ZM32.8339 10.07C32.8651 10.1272 32.9573 10.2628 32.9937 10.3165C31.7627 10.1046 30.4097 9.1474 29.9917 8.5546C29.5731 7.96136 29.6921 7.0752 29.6921 7.0752C30.0977 7.1597 30.9801 7.94186 31.2079 8.1763C31.4363 8.41116 32.1267 9.10146 32.6037 9.48756L32.7537 9.93258C32.3592 9.60985 31.9599 9.29305 31.5559 8.98228C31.3233 8.8016 30.9745 8.54636 30.6281 8.42416C30.6281 8.42416 30.9471 8.85186 31.2045 9.05986C31.4711 9.27956 31.7549 9.47764 32.0529 9.65222C32.2745 9.77658 32.3867 9.84766 32.8339 10.07Z" fill="#0055A5"/>
<path fill-rule="evenodd" clip-rule="evenodd" d="M36.3041 13.6116C36.3415 13.5787 36.3735 13.5453 36.4009 13.5146C36.4575 13.5882 36.6469 13.8331 36.7401 14.0757C36.8117 14.2833 36.8865 14.5659 36.9247 14.7283C36.9619 14.8895 37.0747 15.2249 37.1423 15.3411C37.1423 15.3411 36.8423 15.3797 36.6205 15.1135C36.4025 14.8519 36.3281 14.5888 36.2943 14.3184C36.2698 14.0832 36.2731 13.846 36.3041 13.6116ZM35.8315 13.6524C35.8616 13.6969 35.9009 13.7346 35.9467 13.7629L35.9865 13.7841L36.0291 13.7702C36.0663 13.7577 36.1005 13.7434 36.1331 13.7269C36.1759 13.8517 36.1941 13.9119 36.2049 14.0181C36.2193 14.1585 36.2465 14.3803 36.1949 14.5615C36.1321 14.7825 36.0039 14.9169 35.9329 15.0027C35.9329 15.0027 35.7373 14.7807 35.6807 14.5975C35.6221 14.4059 35.6009 14.1828 35.6733 13.9548C35.7064 13.8449 35.76 13.7423 35.8315 13.6524ZM35.1559 13.6732C35.325 13.6519 35.4858 13.5867 35.6221 13.4842C35.6481 13.557 35.6871 13.655 35.6581 13.7932C35.6287 13.9319 35.5359 14.0857 35.4011 14.1967C35.1987 14.3625 34.9279 14.5191 34.6293 14.4709C34.6293 14.4709 34.5609 14.2409 35.1559 13.6732ZM34.9297 13.2879C34.9539 13.4933 35.0493 13.622 35.0571 13.632C34.9869 13.7178 34.7347 14.1637 34.2081 14.0883C34.2081 14.0883 34.0661 13.7854 34.4161 13.544C34.6541 13.3807 34.7667 13.3473 34.9297 13.2879ZM34.9755 12.9075C34.7959 12.952 34.6078 12.9507 34.4287 12.9036L34.3685 12.8893L34.3507 12.8286C34.0803 13.0557 33.7593 13.0929 33.6491 13.2975C33.6491 13.2975 33.7839 13.5549 34.1341 13.5115C34.2915 13.4946 34.4439 13.4457 34.5817 13.3678C34.7196 13.2898 34.8401 13.1845 34.9357 13.0583C34.9435 13.021 34.9587 12.9538 34.9755 12.9075ZM34.3685 12.5885C34.4187 12.5127 34.4529 12.3948 34.5579 12.2757C34.322 12.2318 34.0798 12.2349 33.8451 12.2848C33.5217 12.348 33.1915 12.426 33.0265 12.9317C33.0265 12.9317 33.2341 13.1133 33.6115 13.0344C33.9303 12.9673 34.2095 12.8256 34.3685 12.5885ZM34.2315 12.0395C34.1413 11.9596 34.0698 11.861 34.0219 11.7505L33.9941 11.6876C33.7145 11.5702 33.4221 11.5095 33.1365 11.6192C32.8513 11.7292 32.7751 11.8562 32.7031 11.9654C32.7031 11.9654 33.0195 12.238 33.3839 12.2484C33.7489 12.2601 34.0851 12.1522 34.2315 12.0395ZM34.3161 11.4484C34.3641 11.4294 34.4187 11.412 34.4799 11.3995C34.3559 11.2872 34.2337 11.1165 34.1743 10.86C34.0447 10.8912 33.7385 10.8912 33.6045 10.8383C33.4701 10.7854 33.2055 10.782 32.9991 10.9232C32.9991 10.9232 33.0685 11.2946 33.5357 11.422C33.9741 11.5412 34.1379 11.5104 34.3161 11.4484ZM34.1479 10.7226L34.2099 10.6823C34.2181 10.6767 34.3225 10.6108 34.5011 10.5969C34.3507 10.4812 33.9933 10.1727 33.7385 10.0249C33.4619 9.86504 33.0021 9.65357 32.7687 9.62194C32.7687 9.62194 32.9879 10.2143 33.2435 10.4526C33.5079 10.7001 33.6933 10.7919 34.1479 10.7226ZM34.6203 10.4505C34.5085 10.3005 34.4205 10.0947 34.3555 9.85117C34.3021 9.65314 34.1821 9.16174 34.1103 9.03434C34.0383 8.90694 33.7801 8.46104 33.2747 8.32324C33.2747 8.32324 33.1399 8.90304 33.3943 9.3628C33.6127 9.75887 34.0625 10.1766 34.6203 10.4505ZM37.4213 13.1493C37.4845 13.2134 37.5323 13.2498 37.6453 13.3079C37.6453 13.3079 37.8061 13.6238 37.6115 14.0055C37.4473 14.3267 37.3006 14.6565 37.1721 14.9935C37.1721 14.9935 37.0673 14.9783 36.9511 14.3799C36.8719 13.9743 36.7727 13.8738 36.6687 13.7351C36.7817 13.7941 36.8741 13.8123 36.8809 13.8136L36.9599 13.8274L36.9953 13.7555C37.0704 13.607 37.0997 13.4396 37.0795 13.2745C37.2605 13.2788 37.3577 13.1848 37.3941 13.1363C37.3975 13.1319 37.4009 13.128 37.4031 13.1241L37.4213 13.1493Z" fill="#0055A5"/>
<path fill-rule="evenodd" clip-rule="evenodd" d="M33.1296 8.56786C33.1275 8.62864 33.1272 8.68948 33.1287 8.75028L33.1387 8.89286C32.8415 8.50198 32.4843 8.02966 32.1433 7.59546C31.9097 7.29732 31.7135 7.11706 31.4937 6.97189C31.6788 7.52396 32.0085 7.96422 32.2435 8.18392C32.4775 8.40318 32.8159 8.77456 33.1461 9.00076L33.1781 9.11256C33.2037 9.21526 33.2423 9.32012 33.2973 9.41936C33.3745 9.55846 33.4759 9.69626 33.5955 9.82842C33.4911 9.77609 33.3855 9.72624 33.2787 9.67892L33.1764 9.63516C32.2677 9.13942 31.3659 8.11328 31.0011 7.39786C30.6362 6.68372 30.7879 5.85476 30.8849 5.41016C31.2971 5.76982 31.8911 6.47832 32.1503 6.86356C32.4683 7.33632 32.8761 8.00626 33.1287 8.55096L33.1296 8.56786ZM45.8743 11.6151C45.8098 11.5762 45.7417 11.5433 45.6711 11.5167C46.2249 11.3442 46.9867 11.0691 48.1311 10.9915C48.9709 10.9347 49.5767 10.9841 49.8909 11.0678C49.8909 11.0678 49.1265 11.622 48.2516 11.8179C47.3776 12.0137 46.6678 11.8894 46.1482 11.8937C46.114 11.8413 46.0759 11.7823 46.0147 11.723C46.621 11.7269 47.6315 11.5652 47.9925 11.4417C47.9929 11.4422 47.1124 11.2528 45.8743 11.6151ZM45.8769 10.9451C45.8743 10.9607 45.8098 11.2823 45.4475 11.4604C46.2253 11.1098 47.7589 10.9079 48.5823 10.556C49.6963 10.0802 49.8991 9.48608 49.8991 9.48608C48.9359 9.46008 48.1559 9.70232 47.5557 9.89126C46.8524 10.1131 45.7812 10.5239 45.4068 10.6955C45.5472 10.7016 45.701 10.7428 45.8306 10.832C46.3549 10.6253 46.598 10.5387 47.0734 10.4017C47.4478 10.2938 47.726 10.2726 47.9595 10.2492C47.9595 10.2492 47.6293 10.4737 47.0859 10.6531C46.5473 10.8294 46.3151 10.8589 45.8769 10.9451ZM45.9359 10.0707C45.9047 10.1279 45.8128 10.2635 45.7769 10.3172C47.0079 10.1053 48.3608 9.14808 48.7794 8.55528C49.1976 7.96206 49.078 7.07589 49.078 7.07589C48.6719 7.16039 47.7905 7.94256 47.5626 8.17698C47.3343 8.41186 46.6435 9.10216 46.1669 9.48826L46.0169 9.93328C46.4255 9.59528 46.9117 9.21698 47.2147 8.98298C47.4473 8.80228 47.7953 8.54706 48.1429 8.42486C48.1429 8.42486 47.8235 8.85256 47.5661 9.06056C47.2679 9.30236 46.9663 9.51208 46.7172 9.65292C46.4971 9.77728 46.3831 9.84836 45.9359 10.0707ZM45.6377 8.56786C45.6386 8.62288 45.6403 8.68528 45.6386 8.75028L45.6278 8.89286C45.9259 8.50198 46.283 8.02966 46.624 7.59546C46.8576 7.29732 47.0539 7.11706 47.2731 6.97189C47.0885 7.52396 46.7583 7.96422 46.5239 8.18392C46.2899 8.40318 45.9519 8.77456 45.6213 9.00076L45.5892 9.11256C45.563 9.21958 45.5231 9.32272 45.4701 9.41936C45.3862 9.56639 45.2862 9.7036 45.1719 9.82842C45.2681 9.78032 45.3786 9.72746 45.4887 9.67892L45.5909 9.63516C46.4992 9.13942 47.4014 8.11328 47.7663 7.39786C48.1303 6.68372 47.9795 5.85476 47.8824 5.41016C47.4699 5.76982 46.8762 6.47832 46.6167 6.86356C46.2981 7.33632 45.8913 8.00626 45.6386 8.55096L45.6377 8.56786ZM34.2913 14.2103C33.9169 14.5959 33.127 15.4595 33.2015 16.3977C33.2015 16.3977 33.9347 16.1615 34.2367 15.6083C34.5388 15.0557 34.7255 14.7091 34.8529 14.5843C34.7723 14.5956 34.6904 14.595 34.6099 14.5825L34.544 14.5713C34.3577 14.9197 33.9889 15.4907 33.6569 15.6897C33.6569 15.6897 33.5725 15.2277 34.5483 14.2905C34.5617 14.2519 34.5817 14.2089 34.6095 14.1604C34.5197 14.1925 34.4183 14.2125 34.3035 14.2095L34.2913 14.2103ZM44.3455 9.01938C44.1583 9.44362 43.852 9.87782 43.0191 10.4637C42.8328 10.595 42.6269 10.868 42.7839 11.2515C42.9411 11.6354 43.2358 12.181 43.0581 12.3924C42.8817 12.6052 42.2535 12.7161 41.7425 12.5038C41.7425 12.5038 41.6351 12.837 41.4479 13.0489C41.4479 13.0489 41.5363 13.2309 41.8309 13.1404C41.8309 13.1404 41.7231 13.4129 41.8703 13.7059C41.8703 13.7059 42.214 13.6456 42.3613 13.3215C42.3613 13.3215 42.4987 13.5746 42.7739 13.6647C42.7739 13.6647 42.9997 13.5442 42.9507 13.0793C42.9507 13.0793 43.1179 13.4935 43.6279 13.5637C43.6279 13.5637 43.9231 13.1802 43.54 12.6646C43.54 12.6646 43.8147 12.9176 44.3157 12.7967C44.3157 12.7967 44.3945 12.5341 43.9425 12.1697C43.9425 12.1697 44.453 12.1502 44.6502 11.7056C44.6502 11.7056 44.4335 11.4331 43.9035 11.4937C43.9035 11.4937 44.3945 11.3824 44.5024 10.7761C44.5024 10.7761 44.1493 10.5439 43.5899 10.9174C43.5899 10.9174 43.6877 10.7259 43.9235 10.5339C44.1583 10.3424 44.4435 9.80676 44.3455 9.01938ZM42.2899 15.1117C42.3643 15.0107 42.4199 14.9093 42.461 14.8109C42.3739 15.5463 42.3419 16.0419 41.9557 16.5173C41.9557 16.5173 41.7231 16.1989 41.8739 15.4249C41.9384 15.4059 42.0107 15.3747 42.0814 15.3257C42.0814 15.3257 41.993 15.6399 42.0481 15.9567C42.0476 15.9561 42.1871 15.8517 42.2899 15.1117ZM42.9571 15.0353C43.0247 14.9479 43.0855 14.8555 43.1391 14.7589C43.1708 15.1853 43.28 16.3089 42.9147 16.6603C42.9147 16.6603 42.6633 16.4719 42.5759 14.8339C42.6283 14.9253 42.7215 15.0227 42.7661 15.0761C42.7661 15.0761 42.7054 15.5961 42.8869 15.9627C42.8874 15.9627 43.0689 15.8205 42.9571 15.0353ZM43.8295 15.8937C43.5213 15.5151 43.4295 14.3805 43.4295 14.3805C43.3666 14.3376 43.3068 14.2901 43.2505 14.2385C43.2509 14.2801 43.2492 14.3225 43.2449 14.3655C43.2899 15.0479 43.3424 15.7517 43.5495 16.1023C43.7527 16.4459 44.1254 16.6235 44.1254 16.6235C44.476 15.9835 44.0522 15.1233 43.6995 14.5261C43.6538 14.5083 43.6095 14.4877 43.5664 14.4643C43.6908 14.9249 43.9261 15.4717 43.8295 15.8937ZM44.697 13.9243C44.6996 13.9979 44.6861 14.0569 44.6762 14.0885C44.6727 14.1002 44.6684 14.1171 44.6601 14.134C44.9531 14.4309 45.1711 14.7129 45.6057 15.3343C46.0407 15.9561 46.7297 15.9805 46.7297 15.9805C46.663 15.4777 46.53 15.0795 46.1617 14.6515C45.7929 14.2225 45.3214 13.8311 44.9752 13.5711C44.8855 13.614 44.7693 13.6404 44.6233 13.6227C44.6117 13.6215 44.6002 13.6199 44.5887 13.6179C44.635 13.6799 44.6632 13.7423 44.6792 13.8008C44.9414 13.9555 45.7032 14.3529 46.0113 14.9925C46.0113 14.9925 45.529 14.8377 44.697 13.9243ZM45.2435 13.2977L45.2148 13.2448C45.2057 13.2279 45.1956 13.2115 45.1845 13.1958C45.4666 13.3094 46.4758 13.7007 46.8021 13.874C47.1284 14.0486 47.6003 14.4439 47.8573 15.2463C47.8573 15.2463 47.1769 15.3097 46.6149 14.8317C46.0529 14.3529 45.3985 13.6855 45.1191 13.4727C45.1428 13.4499 45.1647 13.4253 45.1845 13.3991C45.1845 13.3991 45.9445 14.092 46.7475 14.3905C46.7475 14.3905 46.5759 14.0699 46.2583 13.8367C45.8713 13.5542 45.5823 13.4589 45.2435 13.2977ZM45.8202 12.8253C45.8095 12.7985 45.7981 12.7719 45.7859 12.7456C46.1192 12.8158 46.9512 12.9176 47.323 13.0346C47.6948 13.1516 48.3665 13.432 48.7651 14.2137C48.7651 14.2137 48.1801 14.4001 47.0751 13.8649C45.9705 13.3306 45.6252 13.2201 45.4137 13.1629C45.5823 13.1499 45.701 13.0914 45.7634 13.0528C46.2045 13.2539 46.793 13.4935 47.378 13.5087C47.378 13.5087 47.089 13.299 46.7861 13.1681C46.4726 13.0312 46.1498 12.9167 45.8202 12.8253ZM45.7929 12.262C45.6845 12.3144 45.6013 12.3409 45.4601 12.356C45.5372 12.4067 45.6105 12.4722 45.6759 12.5593C46.065 12.6745 46.7285 12.8006 47.8231 12.8821C48.9177 12.9636 49.5013 12.756 49.5013 12.756C49.1205 12.5164 48.5116 12.2728 48.1008 12.1914C47.6896 12.1099 46.6093 12.1181 46.1357 12.0523C46.0866 12.0932 46.0346 12.1304 45.9801 12.1637C46.3787 12.2005 47.2268 12.2417 47.6649 12.4692C47.6645 12.4692 46.8567 12.5805 45.7929 12.262Z" fill="#0055A5"/>
<path fill-rule="evenodd" clip-rule="evenodd" d="M42.4657 13.6116C42.4313 13.5815 42.399 13.5491 42.3691 13.5146C42.3113 13.5882 42.1229 13.8331 42.0297 14.0757C41.9577 14.2833 41.8823 14.5659 41.8451 14.7283C41.8075 14.8895 41.6951 15.2249 41.6275 15.3411C41.6275 15.3411 41.9275 15.3797 42.1489 15.1135C42.3669 14.8519 42.4419 14.5888 42.4747 14.3184C42.4994 14.0833 42.4962 13.8461 42.4657 13.6116ZM42.9375 13.6524C42.9076 13.6967 42.8688 13.7343 42.8235 13.7629L42.7837 13.7841L42.7403 13.7702C42.705 13.7584 42.6705 13.7439 42.6373 13.7269C42.5943 13.8517 42.5761 13.9119 42.5653 14.0181C42.5511 14.1585 42.5233 14.3803 42.5753 14.5615C42.6381 14.7825 42.7655 14.9169 42.8371 15.0027C42.8371 15.0027 43.0333 14.7807 43.0893 14.5975C43.1481 14.4059 43.1699 14.1828 43.0971 13.9548C43.0637 13.8448 43.0095 13.7421 42.9375 13.6524ZM43.6139 13.6732C43.4445 13.6519 43.2835 13.5868 43.1469 13.4842C43.1213 13.557 43.0827 13.655 43.1121 13.7932C43.1407 13.9319 43.2339 14.0857 43.3687 14.1967C43.5703 14.3625 43.8419 14.5191 44.1405 14.4709C44.1405 14.4709 44.2089 14.2409 43.6139 13.6732ZM43.8401 13.2879C43.8163 13.4933 43.7205 13.622 43.7133 13.632C43.7829 13.7178 44.0351 14.1637 44.5617 14.0883C44.5617 14.0883 44.7039 13.7854 44.3541 13.544C44.1153 13.3807 44.0035 13.3473 43.8401 13.2879ZM43.7943 12.9075C43.9347 12.9439 44.1171 12.9582 44.3407 12.9036L44.4005 12.8893L44.4191 12.8286C44.6891 13.0557 45.0097 13.0929 45.1203 13.2975C45.1203 13.2975 44.9855 13.5549 44.6357 13.5115C44.4782 13.4946 44.3258 13.4457 44.1878 13.3678C44.0499 13.2898 43.9295 13.1845 43.8337 13.0583C43.8241 13.0071 43.811 12.9567 43.7943 12.9075ZM44.4017 12.5885C44.3511 12.5127 44.3169 12.3948 44.2119 12.2757C44.448 12.2318 44.6905 12.2349 44.9253 12.2848C45.2485 12.348 45.5787 12.426 45.7433 12.9317C45.7433 12.9317 45.5359 13.1133 45.1589 13.0344C44.8391 12.9673 44.5603 12.8256 44.4017 12.5885ZM44.5383 12.0395C44.6197 11.9671 44.6935 11.8731 44.7475 11.7505L44.7749 11.6876C45.0557 11.5702 45.3473 11.5095 45.6325 11.6192C45.9185 11.7292 45.9939 11.8562 46.0667 11.9654C46.0667 11.9654 45.7503 12.238 45.3855 12.2484C45.0205 12.2601 44.6843 12.1522 44.5383 12.0395ZM44.4529 11.4484C44.4004 11.4272 44.3459 11.4109 44.2905 11.3995C44.4143 11.2872 44.5357 11.1165 44.5951 10.86C44.7255 10.8912 45.0319 10.8912 45.1657 10.8383C45.3001 10.7854 45.5649 10.782 45.7707 10.9232C45.7707 10.9232 45.7031 11.2946 45.2343 11.422C44.7949 11.5412 44.6323 11.5104 44.4529 11.4484ZM44.6219 10.7226L44.5603 10.6823C44.5517 10.6767 44.4469 10.6108 44.2683 10.5969C44.4195 10.4812 44.7771 10.1727 45.0319 10.0249C45.3079 9.86504 45.7673 9.65357 46.0017 9.62194C46.0017 9.62194 45.7823 10.2143 45.5267 10.4526C45.2619 10.7001 45.0765 10.7919 44.6219 10.7226ZM44.1491 10.4505C44.2609 10.3005 44.3497 10.0947 44.4147 9.85117C44.4677 9.65314 44.5881 9.16174 44.6601 9.03434C44.7325 8.90694 44.9903 8.46104 45.4955 8.32324C45.4955 8.32324 45.6299 8.90304 45.3755 9.3628C45.1557 9.75887 44.7077 10.1766 44.1491 10.4505ZM41.3489 13.1493C41.2845 13.2153 41.2087 13.269 41.1249 13.3079C41.1249 13.3079 40.9641 13.6238 41.1587 14.0055C41.3533 14.3877 41.5193 14.7777 41.5977 14.9935C41.5977 14.9935 41.7025 14.9783 41.8191 14.3799C41.8979 13.9743 41.9977 13.8738 42.1013 13.7351C42.0342 13.7709 41.9627 13.7973 41.8885 13.8136L41.8105 13.8274L41.7741 13.7555C41.6994 13.6069 41.6702 13.4396 41.6905 13.2745C41.5093 13.2788 41.4127 13.1848 41.3753 13.1363L41.3667 13.1241L41.3489 13.1493Z" fill="#0055A5"/>
<path fill-rule="evenodd" clip-rule="evenodd" d="M44.4777 14.2075C44.8521 14.5931 45.642 15.4569 45.5675 16.3949C45.5675 16.3949 44.8339 16.1589 44.5318 15.6055C44.2302 15.0529 44.043 14.7063 43.9161 14.5815C43.9975 14.5927 44.0785 14.5923 44.1591 14.5797L44.225 14.5685C44.4113 14.9169 44.7797 15.4881 45.1121 15.6869C45.1121 15.6869 45.1961 15.2249 44.2207 14.2877C44.2039 14.2427 44.1835 14.1993 44.1596 14.1577C44.2484 14.1897 44.3503 14.2097 44.4651 14.2067L44.4777 14.2075ZM38.8118 6.7299C38.8118 6.661 39.0688 6.60466 39.3843 6.60466C39.7006 6.60466 39.9571 6.661 39.9571 6.7299C39.9571 6.79922 39.7006 6.85512 39.3843 6.85512C39.0688 6.85512 38.8118 6.79966 38.8118 6.7299ZM36.8675 7.40806C36.8675 7.36992 37.0325 7.3396 37.2375 7.3396C37.4407 7.3396 37.6059 7.36992 37.6059 7.40806C37.6059 7.44576 37.4407 7.47652 37.2375 7.47652C37.0325 7.47652 36.8675 7.44576 36.8675 7.40806ZM39.4969 7.00636C39.4972 7.02137 39.4945 7.0363 39.489 7.05027C39.4835 7.06425 39.4752 7.07697 39.4648 7.08774C39.4542 7.0985 39.4418 7.10708 39.428 7.11296C39.4141 7.11886 39.3992 7.12195 39.3843 7.12206C39.3693 7.12188 39.3545 7.11876 39.3407 7.11285C39.3268 7.10694 39.3144 7.09836 39.3039 7.08761C39.2935 7.07686 39.2852 7.06415 39.2796 7.05021C39.2742 7.03626 39.2714 7.02136 39.2716 7.00636C39.2716 6.94266 39.3219 6.89066 39.3843 6.89066C39.4471 6.89066 39.4969 6.94266 39.4969 7.00636ZM38.7707 6.60812C38.58 6.14012 38.453 5.79606 38.4578 5.68036C38.4613 5.60972 38.5419 5.55816 38.6177 5.53432C38.6935 5.51006 38.7611 5.50572 38.8118 5.54516C38.9111 5.62359 39.0033 6.25409 39.0376 6.51669C38.944 6.53114 38.8535 6.5621 38.7707 6.60812ZM39.1186 6.50629C39.1667 6.50109 39.217 6.49762 39.2668 6.49632C39.2365 6.24586 39.1524 5.82812 39.1026 5.66346C39.0532 5.49922 38.9895 5.38049 38.8851 5.35059C38.8851 5.35059 38.9665 5.57982 39.0107 5.81729C39.0549 6.05476 39.09 6.28139 39.1186 6.50629ZM38.5154 7.34306C38.7251 7.2915 38.9405 7.06052 38.9405 7.06052C38.6017 7.11122 38.5154 7.34306 38.5154 7.34306ZM38.83 7.32182C38.5375 7.49776 38.2086 7.47002 38.2086 7.47002C38.2719 7.3513 38.3317 7.2408 38.515 7.10602C38.6987 6.97082 38.9973 6.93702 39.1151 6.95392C39.0891 7.0445 38.9691 7.2382 38.83 7.32182ZM37.7367 7.818V7.7933C37.4481 7.831 37.1079 7.81496 37.1079 7.81496C37.1261 7.92546 37.1708 8.0091 37.2466 8.06066C37.2653 7.8206 37.7367 7.818 37.7367 7.818ZM36.7803 7.4995C36.7803 7.4995 37.1443 7.63946 37.5092 7.62082C37.8732 7.60176 38.5445 7.59396 38.762 7.48606C38.762 7.48606 38.7256 7.62602 38.5527 7.7075C38.5527 7.7075 38.6445 7.7075 38.7338 7.78852C38.7338 7.78852 38.6814 7.90422 38.5267 7.9662C38.5267 7.9662 38.8045 8.2626 39.1004 8.24136C39.1004 8.24136 38.9639 8.41642 38.6597 8.34882C38.3564 8.28166 38.2589 8.1066 38.2065 8.039C38.2065 8.039 38.2455 8.20582 38.2268 8.27386C38.2268 8.27386 38.0933 8.26562 37.9889 8.13042C37.9889 8.13042 38.0652 8.26562 38.0803 8.37872C38.0803 8.37872 37.9967 8.38956 37.8468 8.2977C37.8468 8.2977 37.878 8.3809 37.8841 8.47796C37.8841 8.47796 37.5322 8.36182 37.3619 8.19802C37.3619 8.19802 37.3593 8.3107 37.3679 8.37612C37.3679 8.37612 36.8219 8.31936 36.7803 7.4995ZM36.6967 7.5567C36.7093 7.73436 36.7543 7.90986 36.8141 8.0338C36.8141 8.0338 36.5992 7.86696 36.5468 7.727C36.4943 7.58572 36.4818 7.4891 36.6967 7.5567ZM36.2655 8.2301C36.2775 8.23003 36.2892 8.22764 36.3002 8.22303C36.3111 8.21841 36.321 8.21169 36.3293 8.20324C36.3377 8.19478 36.3442 8.18476 36.3487 8.17375C36.3531 8.16275 36.3553 8.15096 36.3553 8.1391C36.3555 8.11503 36.3461 8.09186 36.3293 8.07465C36.3126 8.05743 36.2896 8.04757 36.2655 8.04722C36.2416 8.0478 36.2189 8.05775 36.2023 8.07495C36.1856 8.09214 36.1765 8.11518 36.1767 8.1391C36.1767 8.1898 36.217 8.2301 36.2655 8.2301ZM36.7912 8.12262C36.9351 8.1898 37.0629 8.34882 37.0629 8.34882C36.8453 8.4004 36.7479 8.46496 36.7479 8.46496C36.6401 8.37848 36.5058 8.33157 36.3676 8.33203C36.2293 8.33251 36.0955 8.38034 35.9882 8.46756C35.7625 8.3354 35.7183 8.01472 35.8313 7.84486C35.944 7.675 36.1984 7.7049 36.3189 7.73392C36.3951 7.98266 36.6621 8.06282 36.7912 8.12262ZM37.1105 8.4056C37.1105 8.4056 37.2631 8.61316 37.3727 8.7046C37.3727 8.7046 36.8115 8.6994 36.6703 9.1986C36.6703 9.1986 36.4761 8.89352 36.6179 8.6942C36.7704 8.47882 36.9112 8.45196 37.1105 8.4056Z" fill="#0055A5"/>
<path fill-rule="evenodd" clip-rule="evenodd" d="M37.726 8.53225C37.726 8.53225 37.9071 8.58643 37.9669 8.60245C37.9669 8.60245 37.9699 8.49455 37.9647 8.44343C38.0198 8.45643 38.0874 8.47593 38.1454 8.48069C38.1454 8.48069 38.3261 8.89583 38.4674 9.06309C38.4674 9.06309 38.4756 9.15495 38.3972 9.29493C38.3972 9.29493 38.2949 9.04965 38.1112 8.85335C38.0068 8.74199 37.9409 8.68609 37.726 8.53225ZM37.2484 8.44385C37.3069 8.45989 37.5955 8.55305 37.7359 8.65663C37.9119 8.78575 38.0323 8.93395 38.0137 9.18963C38.0137 9.18963 37.8724 8.98813 37.7156 8.89625C37.5912 8.82389 37.3667 8.62153 37.2484 8.44385ZM37.2528 6.56623C37.3061 6.56623 37.4096 6.59223 37.4096 6.68019C37.4096 6.76903 37.2753 6.98267 37.2389 7.07799H37.2363C37.1999 6.98267 37.0651 6.76903 37.0651 6.68019C37.0651 6.59223 37.1691 6.56623 37.2224 6.56623H37.2528ZM37.1353 7.25567C37.1098 7.13087 37.0621 6.80759 36.9871 6.73609C36.9161 6.66807 36.8116 6.66157 36.7601 6.66503C36.7451 6.66641 36.7306 6.67117 36.7176 6.67895C36.7047 6.68673 36.6938 6.69732 36.6854 6.70995C36.6772 6.72257 36.6719 6.7369 36.6699 6.75185C36.668 6.76681 36.6695 6.78202 36.6743 6.79633C36.6959 6.86913 36.9282 7.22749 36.9581 7.27257C37.0123 7.26347 37.0019 7.26649 37.1353 7.25567ZM37.3407 7.25567C37.3672 7.13087 37.4144 6.80759 37.4889 6.73609C37.5596 6.66807 37.6649 6.66157 37.716 6.66503C37.731 6.66633 37.7457 6.67104 37.7585 6.6788C37.7715 6.68655 37.7826 6.69716 37.7908 6.7098C37.7992 6.72245 37.8044 6.73682 37.8063 6.7518C37.8082 6.7668 37.8067 6.78202 37.8018 6.79633C37.7806 6.86913 37.5479 7.22749 37.5175 7.27257C37.4634 7.26347 37.4742 7.26649 37.3407 7.25567ZM37.4907 6.13159H37.3095V5.92577H37.1631V6.13159H36.9811V6.26117H37.1631V6.50383H37.3095V6.26117H37.4907V6.13159ZM35.2954 7.45933C35.2959 7.41989 35.2985 7.38003 35.3037 7.34103C35.3175 7.25617 35.3189 7.16977 35.308 7.08449C35.1784 7.13563 35.0896 7.16813 34.9102 7.46583C34.9102 7.46583 35.1962 7.28427 35.2954 7.45933ZM35.5455 7.93167C35.5493 7.85757 35.5961 7.62443 35.6559 7.45933C35.7292 7.25783 35.6876 6.96403 35.5996 6.78637C35.5143 6.61477 35.4675 6.45269 35.4826 6.27459C35.4826 6.27459 35.3123 6.33309 35.2153 6.39463C35.1992 6.60133 35.3162 6.80759 35.3725 6.92547C35.4384 7.06413 35.425 7.24483 35.4103 7.35577C35.3855 7.54339 35.4228 7.74403 35.5455 7.93167ZM35.5649 6.35259C35.558 6.31466 35.56 6.2756 35.571 6.23863C35.571 6.23863 35.8375 5.97127 36.0624 5.92577C36.1099 5.9147 36.1594 5.91542 36.2065 5.92789C36.2537 5.94035 36.2971 5.96418 36.3328 5.99727C36.3328 5.99727 36.2539 5.98773 36.1348 6.08739C36.0156 6.18749 35.8665 6.30839 35.7539 6.33873C35.6425 6.36863 35.6182 6.35953 35.5649 6.35259ZM36.3545 6.01719C36.455 6.12077 36.5399 6.22953 36.5382 6.32399C36.5365 6.42237 36.4255 6.66763 36.3675 6.76209C36.3094 6.85657 36.2245 6.97833 36.234 7.12783C36.2392 7.20237 36.2895 7.27907 36.3493 7.34189C36.3493 7.34189 36.0225 7.26217 35.9827 7.05459C35.9471 6.86913 36.0243 6.73869 36.0767 6.63599C36.1257 6.53979 36.2765 6.31403 36.3146 6.22043C36.3493 6.13507 36.3675 6.06399 36.3545 6.01719ZM38.2646 8.35545C38.33 8.59249 38.441 8.81565 38.5502 8.99115C38.6485 9.15019 38.7109 9.41063 38.7018 9.49859C38.7018 9.49859 38.85 9.16363 38.7738 8.92659C38.7153 8.74415 38.5567 8.47115 38.2646 8.35545ZM38.6321 8.43389C38.6321 8.43389 38.8557 8.43693 38.961 8.50799C39.0962 8.59985 39.2236 8.79919 39.273 9.03925C39.273 9.03925 39.0468 8.99895 38.935 8.88413C38.8232 8.76843 38.6849 8.59639 38.6321 8.43389ZM37.472 8.84989C37.3997 8.86089 37.3282 8.87682 37.258 8.89755C37.258 8.89755 37.4491 8.95475 37.544 9.03579C37.6254 9.10469 37.6956 9.21129 37.7286 9.39069C37.7745 9.64115 37.9184 9.91155 37.9613 9.99259L37.9786 9.98913C37.9517 9.81665 38.057 9.45873 38.083 9.40759C38.083 9.40759 37.9322 9.30965 37.8629 9.20783C37.8122 9.13329 37.7216 9.00893 37.472 8.84989ZM38.4652 9.38765C38.5207 9.51939 38.6689 9.75253 38.5996 9.99605C38.5302 10.2396 38.3764 10.3445 38.2806 10.5503C38.2806 10.5503 38.2048 10.1785 38.2221 9.89119C38.2377 9.60389 38.34 9.49253 38.4652 9.38765ZM38.8955 9.39763C38.8955 9.39763 39.1183 9.84179 39.1586 10.0164C39.1976 10.1885 39.1616 10.3037 39.0858 10.4082C39.0099 10.5126 38.8817 10.6248 38.7642 10.8445C38.7642 10.8445 38.6264 10.6586 38.6091 10.5603C38.5926 10.4623 38.6191 10.2288 38.6494 10.1308C38.6784 10.0333 38.7963 9.71873 38.8955 9.39763ZM39.0099 10.8164C38.9605 10.8705 38.7001 11.1925 38.665 11.2865C38.6303 11.3806 38.5701 11.5578 38.6507 11.6809C38.7322 11.8039 38.9172 12.0011 39.0797 12.0847C39.0797 12.0847 38.9038 11.8022 38.9215 11.5704C38.9332 11.4226 39.0442 11.2904 39.0654 11.1999C39.0866 11.1093 39.0732 10.9572 39.0099 10.8164ZM38.5003 10.6383C38.5402 10.6955 38.61 10.8337 38.6191 10.9693C38.6282 11.1019 38.6078 11.209 38.5372 11.404C38.4533 11.6238 38.3561 11.8382 38.246 12.0462C38.246 12.0462 38.1233 11.8663 38.0562 11.706C38.0562 11.706 38.2473 11.4369 38.3287 11.2462C38.4232 11.0222 38.4631 10.8146 38.5003 10.6383ZM38.4111 10.5343C38.4111 10.5343 38.3292 11.1665 37.9673 11.6367C37.7229 11.9547 37.5232 12.0652 37.3919 12.0652C37.193 12.0652 36.9932 11.8949 36.926 11.6999C36.8589 11.5049 36.8801 11.2025 37.0084 11.095C37.0084 11.095 37.128 11.4746 37.3823 11.4885C37.6701 11.5049 38.0406 11.1739 38.4111 10.5343Z" fill="#0055A5"/>
<path fill-rule="evenodd" clip-rule="evenodd" d="M38.1126 10.2682C38.1428 10.3813 38.1524 10.5551 38.1126 10.7189C38.0822 10.8428 38.0085 11.0062 37.8672 11.0967C37.7454 11.1752 37.4568 11.1942 37.3468 10.9139C37.3468 10.9139 37.8728 10.9546 38.1126 10.2682ZM38.9744 12.8192C39.0468 13.009 39.3046 13.25 39.3034 13.3982C39.2982 13.7921 39.1318 14.033 39.0918 14.163C39.0918 14.163 38.7854 13.9126 38.7308 13.6253C38.7032 13.4784 38.7356 13.0368 38.9744 12.8192ZM38.6316 13.097C38.6676 12.9952 38.7802 12.7174 38.9107 12.6199C38.9107 12.6199 39.0784 12.1147 38.5416 11.8048C38.5416 11.8048 38.321 12.106 38.2624 12.3885C38.204 12.6711 38.4968 12.8422 38.6316 13.097ZM37.9608 11.8235C37.8746 11.9296 37.7532 12.0778 37.6588 12.1242C37.6588 12.1242 37.6272 12.3499 37.645 12.4994C37.6722 12.7217 37.8114 12.9492 37.8708 13.1156C37.8708 13.1156 38.1052 12.8006 38.1324 12.6151C38.1593 12.4297 38.1546 12.2772 38.1636 12.1892C38.1636 12.1892 38.0328 11.9712 37.9608 11.8235ZM37.3434 12.9037C37.277 12.8002 37.0616 12.4176 37.0586 12.1402C37.0586 12.1402 37.3234 12.2845 37.5448 12.1788C37.5448 12.1788 37.5744 12.5398 37.5314 12.662C37.4964 12.7612 37.4508 12.8205 37.3434 12.9037ZM37.404 12.9813C37.4474 12.9432 37.5526 12.8431 37.5956 12.7902C37.5956 12.7902 37.7706 13.1208 37.801 13.2175C37.801 13.2175 37.713 13.2405 37.6168 13.1685C37.5397 13.1134 37.4684 13.0507 37.404 12.9813ZM38.2166 12.7872C38.1952 12.8708 37.9114 13.276 37.863 13.3258C37.863 13.3258 37.885 13.4727 37.9898 13.6837C38.0948 13.8948 38.2412 14.0421 38.3192 14.1171C38.3192 14.1171 38.4938 13.8029 38.5458 13.6647C38.6052 13.5065 38.5982 13.3505 38.5727 13.2929C38.5138 13.1564 38.308 12.9592 38.2166 12.7872ZM38.6434 13.848C38.7054 13.9788 38.8946 14.192 38.9242 14.3614C38.9471 14.4945 38.9263 14.6028 38.8916 14.6947C38.8566 14.7862 38.743 14.9642 38.6668 15.1008C38.6668 15.1008 38.408 14.8494 38.3508 14.67C38.3076 14.5348 38.324 14.3424 38.3864 14.2232C38.4484 14.1032 38.584 13.9723 38.6434 13.848ZM37.9088 13.8116C37.9764 13.9619 38.136 14.1123 38.1732 14.2444C38.2166 14.4 38.23 14.4997 38.1572 14.6804C38.0922 14.8403 38.0132 14.933 37.9864 15.0301C37.9864 15.0301 37.7762 14.7506 37.7416 14.634C37.706 14.517 37.6952 14.325 37.7382 14.2033C37.7818 14.0811 37.8578 13.9221 37.9088 13.8116ZM38.9454 14.8776C38.9454 14.8776 38.5832 15.3274 38.5918 15.5657C38.6026 15.8634 38.7942 16.0606 38.8214 16.2434C38.8214 16.2434 39.0108 16.0224 39.0832 15.8742C39.1642 15.7074 39.2262 15.5657 39.205 15.3772C39.1832 15.1887 39.1338 15.067 38.9454 14.8776ZM38.2784 14.8334C38.3356 14.9192 38.4978 15.2134 38.4514 15.3884C38.4058 15.5631 38.2274 15.8101 38.1684 15.9158C38.1684 15.9158 38.0246 15.613 37.9924 15.4742C37.9604 15.3356 37.9898 15.1112 38.2784 14.8334ZM41.899 7.40909C41.899 7.37096 41.7338 7.34063 41.5298 7.34063C41.3262 7.34063 41.161 7.37096 41.161 7.40909C41.161 7.44679 41.3262 7.47756 41.5298 7.47756C41.7338 7.47756 41.899 7.44679 41.899 7.40909ZM39.3856 6.24429C39.4099 6.07443 39.6014 5.71303 39.6014 5.55443C39.6021 5.4955 39.5795 5.4387 39.5383 5.39647C39.4973 5.35424 39.4412 5.33 39.3822 5.3291C39.3232 5.33 39.2671 5.35424 39.226 5.39647C39.1848 5.4387 39.1623 5.4955 39.163 5.55443C39.163 5.71303 39.3548 6.07443 39.3782 6.24429H39.3856ZM39.9966 6.60916C40.1878 6.14116 40.3142 5.7971 40.3096 5.6814C40.3056 5.61076 40.2258 5.5592 40.1496 5.53536C40.0729 5.5111 40.0054 5.50676 39.956 5.5462C39.8566 5.62463 39.7644 6.25513 39.7302 6.51773C39.8264 6.53723 39.8848 6.54936 39.9966 6.60916ZM39.6486 6.50733C39.5995 6.50202 39.5499 6.49869 39.5004 6.49736C39.5304 6.24689 39.6144 5.82916 39.6642 5.6645C39.7136 5.50026 39.7774 5.38153 39.8818 5.35163C39.8818 5.35163 39.8004 5.58086 39.7562 5.81833C39.7136 6.04691 39.6779 6.27667 39.6486 6.50733ZM39.8272 7.06199C39.8272 7.06199 40.0412 7.29296 40.2518 7.34453C40.2518 7.34453 40.1648 7.11226 39.8272 7.06199ZM39.6512 6.95496C39.7688 6.93806 40.0686 6.97186 40.2523 7.10706C40.4356 7.24226 40.4954 7.35233 40.5586 7.47106C40.5586 7.47106 40.2294 7.49879 39.9364 7.32286C39.7986 7.23923 39.6782 7.04553 39.6512 6.95496ZM41.5202 8.06169C41.5966 8.01013 41.6407 7.92649 41.6584 7.81599C41.6584 7.81599 41.3184 7.83203 41.0302 7.79433V7.81903C41.0302 7.81903 41.502 7.82163 41.5202 8.06169ZM41.3998 8.37716C41.4084 8.31216 41.4054 8.19906 41.4054 8.19906C41.2346 8.36329 40.8836 8.47899 40.8836 8.47899C40.8888 8.38193 40.92 8.29873 40.92 8.29873C40.771 8.39016 40.6866 8.37976 40.6866 8.37976C40.7026 8.26623 40.7788 8.13146 40.7788 8.13146C40.7506 8.17012 40.715 8.20274 40.674 8.22739C40.6329 8.25202 40.5873 8.26818 40.54 8.27489C40.5218 8.20729 40.5612 8.04003 40.5612 8.04003C40.5088 8.10763 40.4114 8.28269 40.1076 8.34986C39.803 8.41746 39.6668 8.24239 39.6668 8.24239C39.9638 8.26363 40.241 7.96723 40.241 7.96723C40.1527 7.93479 40.0791 7.87175 40.0334 7.78956C40.1232 7.70853 40.2146 7.70853 40.2146 7.70853C40.0412 7.62706 40.0048 7.48709 40.0048 7.48709C40.2228 7.59499 40.8936 7.60279 41.2585 7.62186C41.6225 7.64049 41.9874 7.50053 41.9874 7.50053C41.945 8.32039 41.3998 8.37716 41.3998 8.37716ZM42.071 7.55773C42.0576 7.73539 42.0134 7.91089 41.9532 8.03483C41.9532 8.03483 42.1676 7.86799 42.22 7.72803C42.273 7.58676 42.286 7.49013 42.071 7.55773ZM42.5898 8.14013C42.5899 8.12823 42.5877 8.11642 42.5833 8.10537C42.5789 8.09431 42.5724 8.08423 42.5642 8.0757C42.5558 8.06717 42.546 8.06036 42.535 8.05565C42.5241 8.05095 42.5123 8.04843 42.5004 8.04826C42.4764 8.04872 42.4536 8.05862 42.4369 8.07582C42.4202 8.09302 42.4109 8.11614 42.4112 8.14013C42.4112 8.19083 42.452 8.23113 42.5004 8.23113C42.5123 8.23107 42.5241 8.22866 42.5349 8.22405C42.5458 8.21944 42.5557 8.21271 42.564 8.20424C42.5724 8.19578 42.5789 8.18576 42.5833 8.17475C42.5877 8.16374 42.5899 8.15198 42.5898 8.14013ZM42.448 7.73539C42.5689 7.70636 42.8232 7.67646 42.9355 7.84633C43.0486 8.01619 43.004 8.33686 42.779 8.46903C42.779 8.46903 42.435 8.16439 42.0186 8.46643C42.0186 8.46643 41.921 8.40186 41.7036 8.35029C41.7036 8.35029 41.8322 8.19126 41.9762 8.12409C42.1048 8.06386 42.3718 7.98369 42.448 7.73539ZM41.6572 8.40663C41.6572 8.40663 41.5046 8.61419 41.395 8.70563C41.395 8.70563 41.9562 8.70043 42.0974 9.19963C42.0974 9.19963 42.2912 8.89456 42.1494 8.69523C41.997 8.47986 41.856 8.45299 41.6572 8.40663Z" fill="#0055A5"/>
<path fill-rule="evenodd" clip-rule="evenodd" d="M41.0412 8.52999C41.0412 8.52999 40.8601 8.58415 40.7998 8.60019C40.7998 8.60019 40.7968 8.49229 40.8024 8.44115C40.7474 8.45415 40.6789 8.47365 40.6213 8.47843C40.6213 8.47843 40.4406 8.89355 40.2993 9.06083C40.2993 9.06083 40.2911 9.15269 40.37 9.29265C40.37 9.29265 40.4718 9.04739 40.6555 8.85109C40.7591 8.73973 40.8263 8.68383 41.0412 8.52999ZM41.5183 8.44159C41.4598 8.45763 41.1703 8.55079 41.0304 8.65435C40.8549 8.78349 40.7335 8.93169 40.7522 9.18735C40.7522 9.18735 40.8943 8.98585 41.0507 8.89399C41.1755 8.82163 41.4 8.61925 41.5183 8.44159ZM41.5144 6.56396C41.4607 6.56396 41.3571 6.58996 41.3571 6.67793C41.3571 6.76676 41.4919 6.98039 41.5274 7.07573H41.5309C41.5664 6.98039 41.7012 6.76676 41.7012 6.67793C41.7012 6.58996 41.5976 6.56396 41.5439 6.56396H41.5144ZM41.631 7.25339C41.6565 7.12859 41.7042 6.80533 41.7792 6.73383C41.8502 6.66579 41.9542 6.65929 42.0067 6.66276C42.0216 6.66421 42.0361 6.66903 42.049 6.67683C42.0619 6.68463 42.0728 6.69522 42.081 6.70783C42.0892 6.72043 42.0946 6.73472 42.0966 6.74964C42.0985 6.76457 42.0972 6.77975 42.0925 6.79406C42.0708 6.86686 41.8381 7.22523 41.8078 7.27029C41.7536 7.26119 41.7649 7.26423 41.631 7.25339ZM41.4256 7.25339C41.4 7.12859 41.3528 6.80533 41.2774 6.73383C41.2063 6.66579 41.1023 6.65929 41.0499 6.66276C41.0349 6.66428 41.0205 6.66913 41.0076 6.67695C40.9949 6.68478 40.984 6.69539 40.9758 6.70798C40.9675 6.72058 40.9623 6.73484 40.9603 6.74974C40.9584 6.76464 40.9599 6.77978 40.9645 6.79406C40.9866 6.86686 41.2184 7.22523 41.2488 7.27029C41.3029 7.26119 41.2921 7.26423 41.4256 7.25339ZM41.2765 6.12933H41.4572V5.92349H41.6032V6.12933H41.7852V6.25889H41.6032V6.50156H41.4572V6.25889H41.2765V6.12933ZM39.1016 4.9108H39.2823V4.7041H39.4288V4.9108H39.6103V5.04036H39.4288V5.2826H39.2823V5.04036H39.1016V4.9108ZM43.4709 7.45706C43.4709 7.41763 43.4679 7.37776 43.4622 7.33876C43.4493 7.25383 43.4478 7.16755 43.4579 7.08223C43.5883 7.13336 43.6763 7.16586 43.8557 7.46356C43.8557 7.46356 43.5706 7.28199 43.4709 7.45706Z" fill="#0055A5"/>
<path fill-rule="evenodd" clip-rule="evenodd" d="M43.2257 7.93162C43.2223 7.85752 43.1751 7.62438 43.1157 7.45928C43.0429 7.25778 43.0845 6.96398 43.1725 6.78632C43.2569 6.61472 43.3047 6.45265 43.2891 6.27455C43.2891 6.27455 43.4589 6.33306 43.5559 6.39458C43.5719 6.60128 43.4549 6.80755 43.3995 6.92542C43.3327 7.06408 43.3467 7.24478 43.3613 7.35572C43.3865 7.54335 43.3483 7.74398 43.2257 7.93162ZM43.2071 6.35256C43.2144 6.31461 43.2122 6.27545 43.2007 6.23858C43.2007 6.23858 42.9341 5.97122 42.7097 5.92572C42.6621 5.91469 42.6125 5.91544 42.5653 5.9279C42.5182 5.94036 42.4747 5.96416 42.4389 5.99722C42.4389 5.99722 42.5177 5.98768 42.6369 6.08735C42.7565 6.18745 42.9047 6.30835 43.0177 6.33868C43.1291 6.36858 43.1539 6.35948 43.2071 6.35256ZM42.4167 6.01714C42.3161 6.12072 42.2317 6.22948 42.2335 6.32396C42.2355 6.42232 42.3457 6.66758 42.4041 6.76205C42.4627 6.85652 42.5475 6.97828 42.5371 7.12778C42.5315 7.20232 42.4821 7.27902 42.4227 7.34186C42.4227 7.34186 42.7495 7.26212 42.7893 7.05456C42.8245 6.86908 42.7477 6.73865 42.6953 6.63595C42.6459 6.53975 42.4955 6.31398 42.4575 6.22038C42.4233 6.13502 42.4051 6.06394 42.4167 6.01714ZM40.5083 8.35542C40.4429 8.57953 40.3466 8.79347 40.2223 8.99112C40.1231 9.15016 40.0607 9.41058 40.0707 9.49856C40.0707 9.49856 39.9225 9.16358 39.9987 8.92656C40.0573 8.74412 40.2145 8.47112 40.5083 8.35542ZM40.1391 8.43386C40.1391 8.43386 39.9155 8.43688 39.8107 8.50796C39.6759 8.59982 39.5477 8.79916 39.4983 9.03922C39.4983 9.03922 39.7249 8.99892 39.8367 8.88408C39.9489 8.76838 40.0871 8.59636 40.1391 8.43386ZM41.3005 8.84986C41.3429 8.85376 41.4577 8.88062 41.5137 8.89752C41.5137 8.89752 41.3229 8.95472 41.2281 9.03576C41.1467 9.10466 41.0769 9.21126 41.0439 9.39066C40.9975 9.64112 40.8541 9.91152 40.8107 9.99256L40.7935 9.98908C40.8203 9.81662 40.7145 9.45868 40.6885 9.40756C40.6885 9.40756 40.8403 9.30962 40.9095 9.20778C40.9599 9.13325 41.0509 9.00888 41.3005 8.84986ZM40.3073 9.38762C40.2513 9.51936 40.1035 9.75248 40.1721 9.99602C40.2409 10.2396 40.3961 10.3444 40.4909 10.5503C40.4909 10.5503 40.5673 10.1785 40.5503 9.89116C40.5339 9.60386 40.4321 9.49248 40.3073 9.38762ZM39.3911 10.0688C39.4003 9.92712 39.7223 9.58348 39.7063 9.39758C39.6893 9.21168 39.4489 9.07996 39.3899 9.05308H39.3869C39.3275 9.07996 39.0875 9.21168 39.0709 9.39758C39.0545 9.58348 39.3755 9.92712 39.3855 10.0688H39.3911ZM39.8765 9.39758C39.8765 9.39758 39.6533 9.84176 39.6135 10.0164C39.5749 10.1884 39.6105 10.3037 39.6867 10.4081C39.7621 10.513 39.8899 10.6248 40.0087 10.8445C40.0087 10.8445 40.1461 10.6586 40.1629 10.5602C40.1789 10.4623 40.1529 10.2287 40.1231 10.1308C40.0937 10.0333 39.9749 9.71868 39.8765 9.39758ZM39.3903 11.1166C39.4925 11.0261 39.5827 10.8922 39.6113 10.8124C39.6391 10.7327 39.6477 10.6161 39.5801 10.5273C39.4987 10.4207 39.3973 10.302 39.3903 10.2053H39.3851C39.3773 10.3024 39.2767 10.4207 39.1957 10.5273C39.1285 10.6161 39.1359 10.7327 39.1649 10.8124C39.1927 10.8922 39.2841 11.0261 39.3865 11.1166H39.3903ZM39.7625 10.8163C39.8111 10.8705 40.0715 11.1925 40.1067 11.2865C40.1417 11.3805 40.2015 11.5578 40.1201 11.6808C40.0395 11.8039 39.8549 12.0011 39.6923 12.0847C39.6923 12.0847 39.8679 11.8022 39.8505 11.5703C39.8389 11.4226 39.7271 11.2904 39.7057 11.1998C39.6845 11.1093 39.6989 10.9572 39.7625 10.8163ZM40.2721 10.6382C40.2063 10.7373 40.1654 10.8509 40.1529 10.9693C40.1439 11.1019 40.1647 11.2089 40.2357 11.4039C40.3245 11.6496 40.4615 11.9235 40.5265 12.0461C40.5265 12.0461 40.6487 11.8663 40.7159 11.706C40.7159 11.706 40.5247 11.4369 40.4437 11.2462C40.3485 11.0222 40.3089 10.8146 40.2721 10.6382ZM40.3609 10.5342C40.3609 10.5342 40.4429 11.1665 40.8047 11.6366C41.0495 11.9547 41.2485 12.0652 41.3807 12.0652C41.5795 12.0652 41.7785 11.8949 41.8461 11.6999C41.9127 11.5049 41.8915 11.2024 41.7633 11.095C41.7633 11.095 41.6441 11.4746 41.3897 11.4884C41.1015 11.5049 40.7307 11.1738 40.3609 10.5342Z" fill="#0055A5"/>
<path fill-rule="evenodd" clip-rule="evenodd" d="M40.6541 10.2686C40.6188 10.4167 40.6188 10.5711 40.6541 10.7192C40.6841 10.8432 40.7581 11.0065 40.8985 11.0971C41.0211 11.1755 41.3089 11.1946 41.4189 10.9142C41.4193 10.9142 40.8929 10.955 40.6541 10.2686ZM39.6081 11.9482C39.6753 11.8424 39.7389 11.647 39.7025 11.5083C39.6579 11.3367 39.5673 11.2674 39.5131 11.1604C39.4681 11.2028 39.4407 11.2358 39.3867 11.2687H39.3835C39.3289 11.2358 39.3003 11.2028 39.2553 11.1604C39.2011 11.2674 39.1105 11.3367 39.0655 11.5083C39.0305 11.647 39.0933 11.8424 39.1609 11.9482C39.2463 12.0825 39.3095 12.1102 39.3841 12.1466C39.4589 12.1102 39.5219 12.0825 39.6081 11.9482ZM39.3841 13.2131C39.4205 13.0462 39.7611 12.7221 39.7293 12.5457C39.6831 12.2818 39.5171 12.3377 39.3867 12.2259H39.3841C39.2527 12.3373 39.0859 12.2814 39.0391 12.5457C39.0083 12.7217 39.3473 13.0458 39.3841 13.2131ZM39.7927 12.8196C39.7199 13.0094 39.4615 13.2503 39.4633 13.3985C39.4677 13.7924 39.6345 14.0334 39.6747 14.1634C39.6747 14.1634 39.9811 13.9129 40.0349 13.6256C40.0627 13.4787 40.0309 13.0371 39.7927 12.8196ZM40.1345 13.0974C40.0981 12.9955 39.9855 12.7178 39.8551 12.6203C39.8551 12.6203 39.6883 12.115 40.2247 11.8052C40.2247 11.8052 40.4453 12.1063 40.5047 12.3889C40.5627 12.6714 40.2707 12.8426 40.1345 13.0974ZM40.8057 11.8238C40.8911 11.93 41.0133 12.0782 41.1079 12.1245C41.1079 12.1245 41.1391 12.3503 41.1213 12.4998C41.0939 12.7221 40.9545 12.9496 40.8959 13.116C40.8959 13.116 40.6611 12.801 40.6337 12.6155C40.6069 12.43 40.6117 12.2775 40.6025 12.1895C40.6025 12.1895 40.7335 11.9716 40.8057 11.8238ZM41.4237 12.9041C41.4895 12.8005 41.7053 12.4179 41.7079 12.1406C41.7079 12.1406 41.4433 12.2849 41.2217 12.1791C41.2217 12.1791 41.1927 12.5401 41.2357 12.6623C41.2703 12.7615 41.3163 12.8209 41.4237 12.9041ZM41.3627 12.9817C41.2948 12.9219 41.2306 12.8581 41.1707 12.7906C41.1707 12.7906 40.9955 13.1212 40.9653 13.2178C40.9653 13.2178 41.0533 13.2408 41.1495 13.1689C41.2457 13.0965 41.2677 13.0783 41.3627 12.9817ZM40.5501 12.7875C40.5713 12.8712 40.8551 13.2763 40.9029 13.3262C40.9029 13.3262 40.8817 13.4731 40.7759 13.6841C40.6921 13.8465 40.5809 13.9931 40.4469 14.1174C40.4469 14.1174 40.2723 13.8033 40.2199 13.665C40.1609 13.5069 40.1683 13.3509 40.1935 13.2932C40.2529 13.1567 40.4579 12.9596 40.5501 12.7875ZM39.6457 14.7509C39.6861 14.6361 39.6843 14.5027 39.6401 14.4117C39.5889 14.3059 39.4053 14.0455 39.3835 13.9701C39.3607 14.0455 39.1791 14.3055 39.1275 14.4117C39.0829 14.5027 39.0815 14.6365 39.1223 14.7509C39.1903 14.9429 39.3537 15.0747 39.3809 15.1861H39.3861C39.4135 15.0747 39.5769 14.9429 39.6457 14.7509ZM40.1237 13.8483C40.0609 13.9792 39.8723 14.1923 39.8429 14.3619C39.8195 14.4949 39.8403 14.6031 39.8749 14.6951C39.9097 14.7865 40.0241 14.9645 40.0995 15.1011C40.0995 15.1011 40.3585 14.8497 40.4153 14.6703C40.4587 14.5351 40.4427 14.3427 40.3807 14.2235C40.3175 14.1036 40.1827 13.9727 40.1237 13.8483ZM40.8577 13.8119C40.7897 13.9623 40.6299 14.1127 40.5931 14.2449C40.5501 14.4003 40.5363 14.5001 40.6095 14.6807C40.6737 14.8407 40.7525 14.9333 40.7797 15.0305C40.7797 15.0305 40.9895 14.7509 41.0251 14.6343C41.0605 14.5179 41.0709 14.3255 41.0285 14.2037C40.9843 14.0815 40.9089 13.9224 40.8577 13.8119ZM39.3841 17.3349C39.3975 17.1979 39.6731 16.7741 39.6861 16.3243C39.6929 16.0991 39.4971 15.7471 39.3867 15.6133H39.3809C39.2697 15.7471 39.0759 16.0991 39.0819 16.3243C39.0955 16.7741 39.3697 17.1975 39.3841 17.3349ZM39.8213 14.8779C39.8213 14.8779 40.1835 15.3277 40.1749 15.5661C40.1645 15.8637 39.9721 16.0609 39.9451 16.2437C39.9451 16.2437 39.7553 16.0227 39.6835 15.8745C39.6025 15.7077 39.5405 15.5661 39.5629 15.3775C39.5837 15.1891 39.6319 15.0673 39.8213 14.8779ZM40.4877 14.8337C40.4309 14.9195 40.2693 15.2137 40.3153 15.3889C40.3607 15.5635 40.5397 15.8105 40.5987 15.9161C40.5987 15.9161 40.7417 15.6133 40.7741 15.4747C40.8063 15.3359 40.7763 15.1115 40.4877 14.8337Z" fill="#0055A5"/>
<path fill-rule="evenodd" clip-rule="evenodd" d="M39.6331 18.0571C39.6551 17.7074 39.848 17.4981 39.8809 17.3161C39.9191 17.1163 39.9065 16.9253 39.7549 16.6943C39.6634 17.0246 39.5422 17.3459 39.393 17.6545L39.3847 17.6723L39.3774 17.6545C39.2278 17.346 39.1065 17.0246 39.0151 16.6943C38.8643 16.9248 38.8509 17.1163 38.8886 17.3161C38.9229 17.4981 39.1153 17.7074 39.1365 18.0571C39.1585 18.4073 38.7751 18.5407 38.7751 18.5407C38.9047 18.5879 39.0519 18.6091 39.2855 18.3817C39.3285 18.3401 39.3609 18.295 39.3847 18.2469C39.4095 18.2945 39.4415 18.3401 39.4845 18.3817C39.718 18.6091 39.8649 18.5883 39.9941 18.5407C39.9941 18.5407 39.6114 18.4068 39.6331 18.0571ZM38.4271 15.7314C38.4679 15.8623 38.587 16.1032 38.6021 16.1773C38.6307 16.3159 38.5922 16.4837 38.3465 16.6622C38.3465 16.6622 38.1871 16.5478 38.1237 16.3975C38.0653 16.2561 38.0991 16.1569 38.1611 16.0841C38.2221 16.0109 38.366 15.8415 38.4271 15.7314ZM38.9441 16.2493C38.9441 16.3195 38.8933 16.7151 38.7841 16.9113C38.6307 17.1874 38.4045 17.3928 38.2074 17.3928C38.0241 17.3928 37.9855 17.2805 37.8945 17.2347C37.8945 17.2347 37.9409 16.995 38.1463 16.9321C38.3993 16.8551 38.7872 16.5431 38.9441 16.2493Z" fill="#0055A5"/>
<path fill-rule="evenodd" clip-rule="evenodd" d="M38.2854 16.7538C38.243 16.7204 38.2056 16.697 38.155 16.6364C38.155 16.6364 37.9596 16.7109 37.7996 16.8218C37.6388 16.9328 37.4816 17.1213 37.3966 17.2205C37.3966 17.2205 37.6372 17.2846 37.7892 17.2132C37.7892 17.2132 37.8452 16.977 38.0158 16.8717C38.054 16.8487 38.174 16.8128 38.2854 16.7538ZM38.0848 16.551C38.048 16.4916 37.9716 16.3816 37.9882 16.21C37.9882 16.21 37.6506 16.4292 37.5488 16.5138C37.447 16.5982 37.2362 16.8223 37.1894 16.896C37.1894 16.896 37.4448 16.8388 37.641 16.7716C37.8568 16.6975 38.006 16.5982 38.0848 16.551ZM37.5124 16.9276C37.3308 16.9934 36.9208 17.0624 36.7496 17.1144C36.578 17.1664 36.4542 17.2578 36.2898 17.442C36.2898 17.442 36.5412 17.5134 36.676 17.5581C36.676 17.5581 36.89 17.4077 37.124 17.3154C37.2766 17.2552 37.3508 17.0901 37.5124 16.9276ZM37.1322 18.1691C37.1718 18.1249 37.2206 18.0733 37.1826 17.9689C37.1556 17.8922 37.0074 17.8086 36.9178 17.7635C36.7714 17.692 36.364 17.5797 36.2314 17.5394C36.2314 17.5394 36.1656 17.6196 36.13 17.7037C36.1144 17.7362 36.1352 17.7696 36.1928 17.7804C36.306 17.7999 36.579 17.7479 36.6452 17.7921C36.7172 17.8397 36.692 17.9048 36.692 17.9684C36.692 17.9684 36.8164 17.8904 36.8944 17.9078C37.0036 17.9334 37.0694 17.9854 37.1322 18.1691ZM36.7696 17.5871C36.799 17.5971 36.9576 17.6473 37.1124 17.7479C37.1124 17.7479 37.1812 17.721 37.2146 17.6556C37.2476 17.5932 37.387 17.3817 37.5144 17.3536C37.5144 17.3536 37.4058 17.3427 37.3438 17.3228C37.3438 17.3228 37.2108 17.3579 37.1172 17.3969C37.0236 17.4359 36.906 17.4957 36.7696 17.5871ZM37.82 17.3198C37.7948 17.3314 37.7542 17.3514 37.6588 17.3557C37.6588 17.3557 37.3 17.6114 37.2584 17.8658C37.2224 18.0842 37.3342 18.1881 37.388 18.2159C37.4422 18.2436 37.6922 18.3498 37.8552 18.0053C37.8552 18.0053 37.5774 18.0989 37.5024 17.9611C37.427 17.8242 37.5488 17.6244 37.6246 17.5668C37.7234 17.4909 37.9018 17.4394 38.0094 17.4593C38.0094 17.4593 37.9232 17.3739 37.82 17.3198Z" fill="#0055A5"/>
<path fill-rule="evenodd" clip-rule="evenodd" d="M35.4728 20.243C35.5165 20.0558 35.5647 19.8582 35.6479 19.6766C35.8095 19.3246 36.2069 18.3856 37.0345 18.2202C37.1129 18.205 36.9453 18.007 36.8707 18.0164C36.7971 18.026 36.6489 18.124 36.5839 18.1686C36.5839 18.1686 36.5839 17.9684 36.5817 17.9328C36.5795 17.8968 36.5492 17.8834 36.5167 17.8852C36.4855 17.8856 36.2845 17.8834 36.2216 17.9588C36.0327 18.1832 35.7141 18.7874 35.5343 19.2376C35.3532 19.687 35.2297 19.8244 35.0391 19.755C34.8488 19.687 34.7353 19.462 34.4025 19.5306C34.2881 19.5534 34.1603 19.6332 34.0605 19.7506C34.0879 19.8052 34.1234 19.872 34.2789 19.872C34.4337 19.872 34.7297 19.9392 34.8951 20.0584C35.0607 20.1762 35.2345 20.216 35.4728 20.243ZM38.7779 17.333C38.7965 17.4778 38.8645 17.6144 38.9403 17.7556C38.9403 17.7556 38.6881 18.952 37.7764 19.0448C37.7764 19.0448 37.7951 18.7968 38.065 18.6076C38.3349 18.4186 38.7389 18.126 38.7089 17.681C38.7089 17.681 38.637 17.6962 38.5075 17.863C38.3779 18.0298 38.0936 18.5114 37.6542 18.5148C37.6542 18.5148 37.7183 18.289 37.9133 18.159C38.1083 18.0298 38.3567 17.863 38.4685 17.6624C38.5798 17.4626 38.6994 17.3704 38.7779 17.333ZM38.3479 21.689L38.9022 22.4872L39.3225 21.718L39.1735 21.4436C39.0639 21.647 38.9464 21.8654 38.8793 21.9836L38.5053 21.4436L38.3479 21.689Z" fill="#0055A5"/>
<path fill-rule="evenodd" clip-rule="evenodd" d="M38.2086 21.0129C37.6687 20.2351 37.0009 19.2709 36.9333 19.1739L37.1431 19.0193L36.4813 18.7593L36.4939 19.4989L36.7175 19.3339L38.0526 21.2583L38.2086 21.0129ZM33.6487 16.6415C33.8125 16.4587 34.0893 16.6159 34.368 16.8811C34.6479 17.1447 34.8243 17.4151 34.6609 17.5983C34.5101 17.7673 34.2207 17.6235 33.9411 17.3591C33.6617 17.0953 33.4853 16.8243 33.6487 16.6415Z" fill="#0055A5"/>
<path fill-rule="evenodd" clip-rule="evenodd" d="M34.0962 19.8927C34.087 19.8853 34.0781 19.8775 34.0696 19.8693C33.9214 19.7354 33.837 19.53 33.837 19.3051C33.837 18.8727 34.1788 18.5207 34.5992 18.5207C35.0196 18.5207 35.361 18.8727 35.361 19.3051C35.361 19.3641 35.3502 19.4589 35.3502 19.4589C35.3852 19.3917 35.51 19.0927 35.536 19.0386C35.4222 18.6161 35.0452 18.3059 34.5996 18.3059C34.2162 18.3059 33.8842 18.5355 33.726 18.8683C33.7862 18.4731 33.977 18.1173 34.1134 17.9856C34.275 17.8283 34.5512 17.7781 34.5512 17.7781C34.3708 17.8079 34.132 17.6935 33.8652 17.4417C33.6116 17.2021 33.4812 16.9937 33.4738 16.8187C33.4898 17.0657 33.4826 17.2039 33.4144 17.4045C33.3218 17.6779 33.07 18.1815 33.1596 18.75C33.2096 19.0625 33.4296 19.5269 33.798 19.907C33.876 19.9923 33.9064 20.1185 33.915 20.1847C33.915 20.1847 34.4588 20.1847 34.5876 20.1961C34.5876 20.1961 34.7166 20.1847 34.7144 20.1011C34.7124 20.0188 34.6404 19.9975 34.5762 19.9975C34.5122 19.9975 34.2408 20.0037 34.0962 19.8927ZM37.0986 20.0825C36.7498 20.2129 36.4014 20.2809 36.0708 20.3329C35.8636 20.3664 35.6534 20.3783 35.4438 20.3685C35.4499 20.4071 35.4442 20.4468 35.4274 20.4821C35.4274 20.4821 35.468 20.5301 35.468 20.5843C35.673 20.5929 35.8862 20.5799 36.1038 20.5457C36.4642 20.4885 36.8448 20.4131 37.227 20.2649L37.0986 20.0825ZM37.672 20.0552C38.1348 19.7943 38.5876 19.3935 38.995 18.7521L39.0686 18.6261C38.9572 18.6767 38.8138 18.6421 38.8138 18.6421C38.8074 18.6525 38.7892 18.6811 38.78 18.6971C38.3996 19.2747 37.9788 19.6392 37.548 19.8771L37.672 20.0552ZM34.6166 20.2597C34.5532 20.2493 34.35 20.2545 34.2274 20.2741C34.0944 20.2957 33.9422 20.3239 33.9266 20.3993C33.911 20.4712 33.96 20.5479 34.0268 20.6567C34.0692 20.7239 34.1676 20.6853 34.223 20.6645C34.2786 20.6437 34.5914 20.4707 34.6422 20.414C34.6928 20.3563 34.7132 20.2767 34.6166 20.2597ZM34.9364 20.4725C34.9067 20.454 34.8731 20.4425 34.8384 20.4388C34.8038 20.4351 34.7686 20.4394 34.7358 20.4513C34.6512 20.4842 34.3422 20.6719 34.3218 20.7593C34.301 20.8465 34.3432 20.8915 34.3912 20.9111C34.4384 20.9305 34.497 20.9487 34.5394 20.9531C34.5762 20.9543 34.6127 20.9469 34.646 20.9313C34.6794 20.9158 34.7087 20.8927 34.7314 20.8638C34.7712 20.8139 34.9152 20.6341 34.9364 20.5934C34.9568 20.5531 34.9684 20.4941 34.9364 20.4725ZM34.9736 20.6697C34.9094 20.7451 34.8481 20.8227 34.7894 20.9023C34.7748 20.9283 34.7968 20.9678 34.8362 20.9639C34.8748 20.96 35.0868 20.9375 35.2094 20.8513C35.3312 20.7659 35.413 20.6007 35.3286 20.5405C35.2454 20.4795 35.1158 20.5067 34.9736 20.6697ZM35.042 20.1935C35.0018 20.1835 34.8414 20.141 34.8064 20.1961C34.7626 20.2637 34.7942 20.3369 34.9186 20.3989C35.043 20.4603 35.2782 20.5093 35.325 20.4435C35.3714 20.3763 35.3072 20.2637 35.042 20.1935ZM40.3414 15.7314C40.301 15.8623 40.1822 16.1032 40.1672 16.1773C40.1386 16.3159 40.1766 16.4837 40.4228 16.6622C40.4228 16.6622 40.5818 16.5478 40.6454 16.3975C40.7044 16.2561 40.6694 16.1569 40.6082 16.0841C40.5462 16.0109 40.4028 15.8415 40.3414 15.7314ZM39.824 16.2493C39.824 16.3195 39.875 16.7151 39.9846 16.9113C40.138 17.1874 40.3634 17.3928 40.561 17.3928C40.7448 17.3928 40.7828 17.2805 40.8738 17.2347C40.8738 17.2347 40.828 16.995 40.6212 16.9321C40.3694 16.8551 39.9816 16.5431 39.824 16.2493ZM40.4844 16.7537C40.5268 16.7203 40.5632 16.6969 40.6148 16.6362C40.6148 16.6362 40.8098 16.7107 40.9696 16.8217C41.13 16.9326 41.2872 17.1211 41.3726 17.2203C41.3726 17.2203 41.1326 17.2845 40.9796 17.2129C40.9796 17.2129 40.9236 16.9768 40.753 16.8715C40.7152 16.8485 40.5952 16.8125 40.4844 16.7537ZM40.6846 16.5509C40.7218 16.4915 40.798 16.3814 40.7816 16.2098C40.7816 16.2098 41.1192 16.4291 41.221 16.5135C41.3228 16.5981 41.5334 16.8221 41.5806 16.8957C41.5806 16.8957 41.3246 16.8385 41.1286 16.7714C40.9124 16.6973 40.7642 16.5981 40.6846 16.5509ZM41.2564 16.9274C41.438 16.9933 41.8476 17.0621 42.0192 17.1141C42.1908 17.1661 42.3152 17.2576 42.4794 17.4417C42.4794 17.4417 42.2276 17.5133 42.0932 17.5579C42.0932 17.5579 41.8792 17.4075 41.6452 17.3153C41.4922 17.255 41.4186 17.0899 41.2564 16.9274ZM41.637 18.1689C41.598 18.1247 41.549 18.0731 41.5868 17.9687C41.6136 17.892 41.7622 17.8083 41.8518 17.7633C41.9988 17.6918 42.4062 17.5795 42.5382 17.5393C42.5382 17.5393 42.6042 17.6195 42.6392 17.7035C42.6548 17.736 42.6344 17.7693 42.5768 17.7802C42.4634 17.7997 42.1898 17.7477 42.124 17.7919C42.0526 17.8395 42.0776 17.9045 42.0776 17.9683C42.0776 17.9683 41.9534 17.8903 41.8744 17.9076C41.7656 17.9331 41.6994 17.9851 41.637 18.1689ZM42.0002 17.5869C41.9706 17.5969 41.812 17.6471 41.6564 17.7477C41.6564 17.7477 41.5884 17.7209 41.555 17.6554C41.5222 17.593 41.3826 17.3815 41.2556 17.3533C41.2556 17.3533 41.363 17.3425 41.426 17.3226C41.426 17.3226 41.559 17.3577 41.6526 17.3967C41.7462 17.4357 41.8632 17.4955 42.0002 17.5869ZM40.9498 17.3195C40.9744 17.3313 41.0148 17.3512 41.1096 17.3555C41.1096 17.3555 41.4684 17.6112 41.5108 17.8655C41.5472 18.0839 41.4354 18.1879 41.3814 18.2157C41.3262 18.2435 41.077 18.3496 40.9142 18.0051C40.9142 18.0051 41.191 18.0987 41.267 17.9609C41.3424 17.8239 41.2206 17.6242 41.1446 17.5665C41.0458 17.4907 40.8678 17.4391 40.7586 17.4591C40.7586 17.4591 40.8466 17.3737 40.9498 17.3195Z" fill="#0055A5"/>
<path fill-rule="evenodd" clip-rule="evenodd" d="M43.295 20.243C43.2512 20.0558 43.2032 19.8582 43.1196 19.6766C42.9588 19.3246 42.5614 18.3856 41.7342 18.2202C41.6554 18.205 41.823 18.007 41.8966 18.0164C41.972 18.026 42.1194 18.124 42.1844 18.1686C42.1844 18.1686 42.1844 17.9684 42.1862 17.9328C42.1888 17.8968 42.219 17.8834 42.2512 17.8852C42.2828 17.8856 42.4838 17.8834 42.5466 17.9588C42.7356 18.1832 43.0536 18.7874 43.234 19.2376C43.415 19.687 43.5386 19.8244 43.7284 19.755C43.919 19.687 44.033 19.462 44.3658 19.5306C44.4802 19.5534 44.6072 19.6332 44.7076 19.7506C44.6804 19.8052 44.6448 19.872 44.4898 19.872C44.3342 19.872 44.0382 19.9392 43.8732 20.0584C43.7072 20.1762 43.5342 20.216 43.295 20.243ZM39.9896 17.333C39.9726 17.4778 39.9034 17.6144 39.828 17.7556C39.828 17.7556 40.0802 18.952 40.9914 19.0448C40.9914 19.0448 40.9732 18.7968 40.7038 18.6076C40.4334 18.4186 40.0298 18.126 40.0584 17.681C40.0584 17.681 40.1304 17.6962 40.2608 17.863C40.3904 18.0298 40.6742 18.5114 41.114 18.5148C41.114 18.5148 41.049 18.289 40.855 18.159C40.6604 18.0298 40.4116 17.863 40.2998 17.6624C40.1876 17.4626 40.0694 17.3704 39.9896 17.333ZM39.3856 18.4922C39.438 18.6518 39.7834 19.1518 39.9346 19.2948C40.0858 19.4378 40.4532 19.8152 40.6492 20.005C40.6492 20.005 40.0896 19.862 39.7756 19.5682C39.7756 19.5682 39.5506 19.703 39.3876 19.703H39.3786C39.2156 19.703 38.9912 19.5682 38.9912 19.5682C38.6766 19.862 38.1172 20.005 38.1172 20.005C38.3134 19.8152 38.681 19.4374 38.8318 19.2948C38.9834 19.1522 39.3284 18.6522 39.3816 18.4922H39.3856Z" fill="#0055A5"/>
<path fill-rule="evenodd" clip-rule="evenodd" d="M39.3884 19.8214C39.5118 19.8214 39.6298 19.7708 39.6948 19.7412C39.6298 19.8842 39.5044 20.1066 39.3858 20.1994H39.3832C39.2648 20.1066 39.14 19.8842 39.0742 19.7412C39.14 19.7704 39.2562 19.8214 39.3802 19.8214H39.3884Z" fill="#0055A5"/>
<path fill-rule="evenodd" clip-rule="evenodd" d="M39.8661 22.4878L42.0549 19.3344L42.2785 19.4994L42.2911 18.7598L41.6293 19.0198L41.8383 19.1744C41.7317 19.3296 40.0953 21.6882 39.8891 21.9842L38.8981 20.1378L38.7763 20.3293L37.8941 21.6995L37.6735 21.5478L37.6699 22.2776L38.3391 22.0042L38.1151 21.8512C38.2359 21.6618 38.7151 20.919 38.8751 20.6704L39.8661 22.4878Z" fill="#0055A5"/>
<path fill-rule="evenodd" clip-rule="evenodd" d="M40.265 21.2483C40.1168 21.0199 39.9681 20.7889 39.8927 20.6707C39.8377 20.7765 39.7242 20.9845 39.5994 21.2137L39.4434 20.9259L39.8689 20.1377L39.9915 20.3292L40.4301 21.0104L40.265 21.2483ZM40.7152 21.4537L40.8734 21.6989L41.0939 21.5473L41.0979 22.2771L40.4284 22.0037L40.6519 21.8507L40.5506 21.6916L40.7152 21.4537ZM45.1222 16.6415C44.958 16.4587 44.6815 16.6159 44.402 16.8811C44.1221 17.1447 43.9466 17.4151 44.1091 17.5983C44.2607 17.7673 44.5502 17.6235 44.8297 17.3591C45.1092 17.0953 45.2851 16.8244 45.1222 16.6415Z" fill="#0055A5"/>
<path fill-rule="evenodd" clip-rule="evenodd" d="M44.6718 19.8904C44.6807 19.883 44.6892 19.8752 44.6974 19.867C44.8464 19.7331 44.9308 19.5277 44.9308 19.3028C44.9308 18.8704 44.589 18.5184 44.1682 18.5184C43.7484 18.5184 43.4068 18.8704 43.4068 19.3028C43.4068 19.3618 43.4176 19.4566 43.4176 19.4566C43.3834 19.3894 43.2578 19.0904 43.2322 19.0363C43.3458 18.6138 43.7218 18.3036 44.1678 18.3036C44.5522 18.3036 44.884 18.5332 45.0418 18.866C44.9816 18.4708 44.79 18.115 44.6544 17.9833C44.4928 17.826 44.2158 17.7757 44.2158 17.7757C44.397 17.8056 44.6358 17.6912 44.9022 17.4394C45.1558 17.1998 45.2866 16.9914 45.294 16.8164C45.278 17.0634 45.2854 17.2016 45.3534 17.4022C45.4456 17.6756 45.6974 18.1792 45.6078 18.7477C45.5584 19.0601 45.3382 19.5246 44.9704 19.9047C44.891 19.99 44.8616 20.1162 44.8528 20.1824C44.8528 20.1824 44.31 20.1824 44.1808 20.1938C44.1808 20.1938 44.0516 20.1824 44.0538 20.0988C44.0564 20.0165 44.128 19.9952 44.1916 19.9952C44.257 19.9948 44.527 20.0014 44.6718 19.8904ZM41.0946 20.0524C40.6322 19.7912 40.1802 19.3908 39.772 18.7498L39.6992 18.6238C39.8102 18.6744 39.954 18.6398 39.954 18.6398C39.961 18.6502 39.9784 18.6788 39.9878 18.6948C40.3674 19.2716 40.7886 19.636 41.219 19.874L41.0946 20.0524ZM41.6666 20.0798C42.0168 20.211 42.3652 20.2791 42.6962 20.3311C42.9112 20.3654 43.1218 20.3766 43.3232 20.3666C43.3175 20.4054 43.3233 20.4449 43.3402 20.4802C43.3402 20.4802 43.2994 20.5282 43.2994 20.5824C43.0936 20.5911 42.8812 20.5781 42.6636 20.5438C42.3032 20.4866 41.9222 20.4112 41.5404 20.263L41.6666 20.0798ZM44.1514 20.2574C44.215 20.247 44.4182 20.2522 44.54 20.2718C44.6734 20.2934 44.8256 20.3216 44.8416 20.397C44.8568 20.4689 44.8086 20.5456 44.7402 20.6544C44.6982 20.7216 44.5998 20.683 44.544 20.6622C44.4894 20.641 44.1764 20.4684 44.1254 20.4117C44.075 20.354 44.0542 20.2744 44.1514 20.2574ZM43.8302 20.4702C43.86 20.4518 43.8937 20.4403 43.9286 20.4366C43.9634 20.4329 43.9987 20.4371 44.0318 20.449C44.1154 20.4819 44.4248 20.6696 44.4456 20.757C44.466 20.8442 44.4242 20.8892 44.3762 20.9088C44.3289 20.9289 44.2791 20.9432 44.228 20.9508C44.1912 20.952 44.1547 20.9447 44.1214 20.9291C44.088 20.9136 44.0587 20.8905 44.036 20.8615C43.9966 20.8116 43.8518 20.6318 43.8302 20.5911C43.8102 20.5508 43.799 20.4918 43.8302 20.4702ZM43.7934 20.6674C43.838 20.7185 43.9632 20.875 43.978 20.9C43.9918 20.926 43.9706 20.9655 43.932 20.9616C43.8922 20.9577 43.6798 20.9352 43.5586 20.849C43.4364 20.7636 43.3544 20.5984 43.439 20.5382C43.5222 20.4771 43.6526 20.5044 43.7934 20.6674ZM43.725 20.1912C43.7652 20.1812 43.926 20.1387 43.961 20.1938C44.0048 20.2614 43.9732 20.3346 43.8488 20.3965C43.7244 20.458 43.4892 20.507 43.4424 20.4412C43.3964 20.374 43.4614 20.2614 43.725 20.1912Z" fill="#0055A5"/>
</g>
</g>
<defs>
<clipPath id="clip0_2027_46">
<rect width="52" height="26" fill="white" transform="translate(0 0.5)"/>
</clipPath>
</defs>
</svg>
