<svg width="41" height="27" viewBox="0 0 41 27" fill="none" xmlns="http://www.w3.org/2000/svg">
<g clip-path="url(#clip0_2027_6)">
<path d="M26.0413 2.87793H14.9551V23.533H26.0413V2.87793Z" fill="#FF5F00"/>
<path d="M15.6596 13.2093C15.6576 11.2198 16.0922 9.25586 16.9306 7.46625C17.7691 5.67664 18.9892 4.10828 20.4989 2.87992C18.6297 1.35705 16.385 0.410063 14.0213 0.147199C11.6576 -0.115666 9.27026 0.316196 7.13209 1.39343C4.99393 2.47065 3.19123 4.14979 1.93003 6.23892C0.66882 8.32805 0 10.7429 0 13.2075C0 15.672 0.66882 18.0869 1.93003 20.176C3.19123 22.2651 4.99393 23.9443 7.13209 25.0214C9.27026 26.0988 11.6576 26.5305 14.0213 26.2677C16.385 26.0049 18.6297 25.0579 20.4989 23.535C18.9898 22.307 17.7698 20.7392 16.9314 18.9503C16.0931 17.1615 15.6582 15.1981 15.6596 13.2093Z" fill="#EB001B"/>
<path d="M41.0007 13.2088C41.0007 15.6735 40.3317 18.0886 39.0703 20.1777C37.8088 22.267 36.0059 23.9461 33.8674 25.0232C31.7291 26.1003 29.3414 26.5319 26.9776 26.2686C24.6137 26.0054 22.369 25.0579 20.5 23.5345C22.0085 22.3055 23.2281 20.7373 24.0667 18.9483C24.9054 17.1593 25.3411 15.1961 25.3411 13.207C25.3411 11.2179 24.9054 9.25482 24.0667 7.4658C23.2281 5.67677 22.0085 4.10856 20.5 2.87948C22.369 1.35614 24.6137 0.408691 26.9776 0.14545C29.3414 -0.117791 31.7291 0.313792 33.8674 1.39087C36.0059 2.46794 37.8088 4.14704 39.0703 6.23625C40.3317 8.32545 41.0007 10.7405 41.0007 13.2052V13.2088Z" fill="#F79E1B"/>
</g>
<defs>
<clipPath id="clip0_2027_6">
<rect width="41" height="26.8621" fill="white" transform="translate(0 0.0693359)"/>
</clipPath>
</defs>
</svg>
