<svg width="1827" height="814" fill="none" xmlns="http://www.w3.org/2000/svg"><g filter="url(#a)"><path d="m92.839 59.264.958.454a3.134 3.134 0 0 0 4.427-2.295l.357-2.06c.47-2.712-1.738-5.14-4.482-4.934a4.224 4.224 0 0 0-3.901 3.983l-.02.386a4.665 4.665 0 0 0 2.66 4.466Z" fill="#822540"/></g><g filter="url(#b)"><path d="m94.41 56.538.407.193a1.334 1.334 0 0 0 1.885-.976l.151-.878a1.799 1.799 0 1 0-3.567-.404l-.01.164a1.985 1.985 0 0 0 1.133 1.901Z" fill="url(#c)"/></g><g filter="url(#d)"><path d="m34.116 779.317.84.398a2.744 2.744 0 0 0 3.879-2.01l.313-1.807c.41-2.375-1.523-4.503-3.927-4.322a3.7 3.7 0 0 0-3.419 3.49l-.018.338a4.086 4.086 0 0 0 2.332 3.913Z" fill="#822540"/></g><g filter="url(#e)"><path d="m35.492 776.929.357.169a1.167 1.167 0 0 0 1.651-.856l.133-.769a1.576 1.576 0 1 0-3.126-.354l-.008.144a1.74 1.74 0 0 0 .993 1.666Z" fill="url(#f)"/></g><g filter="url(#g)"><path d="m128.561 487.635 1.077.51a3.52 3.52 0 0 0 4.975-2.579l.401-2.316c.527-3.046-1.953-5.776-5.036-5.544a4.745 4.745 0 0 0-4.384 4.477l-.024.433a5.243 5.243 0 0 0 2.991 5.019Z" fill="#822540"/></g><g filter="url(#h)"><path d="m130.325 484.572.458.217a1.5 1.5 0 0 0 2.118-1.098l.171-.986a2.021 2.021 0 1 0-4.01-.454l-.01.185a2.23 2.23 0 0 0 1.273 2.136Z" fill="url(#i)"/></g><g filter="url(#j)"><path d="m9.394 301.972.72.341a2.355 2.355 0 0 0 3.332-1.726l.268-1.551a3.18 3.18 0 1 0-6.307-.715l-.016.29a3.51 3.51 0 0 0 2.003 3.361Z" fill="#822540"/></g><g filter="url(#k)"><path d="m10.575 299.92.306.146a1.004 1.004 0 0 0 1.418-.735l.115-.66a1.353 1.353 0 1 0-2.685-.305l-.007.124a1.493 1.493 0 0 0 .853 1.43Z" fill="url(#l)"/></g><g filter="url(#m)"><path d="m319.116 93.661.84.398a2.744 2.744 0 0 0 3.879-2.01l.313-1.807a3.703 3.703 0 1 0-7.346-.832l-.018.338a4.087 4.087 0 0 0 2.332 3.913Z" fill="#822540"/></g><g filter="url(#n)"><path d="m320.492 91.272.357.17a1.17 1.17 0 0 0 1.651-.856l.134-.769a1.576 1.576 0 1 0-3.127-.354l-.008.144a1.74 1.74 0 0 0 .993 1.665Z" fill="url(#o)"/></g><g filter="url(#p)"><path d="m1794.11 40.031 2.13 1.007a6.94 6.94 0 0 0 9.81-5.089l.8-4.572c1.04-6.012-3.86-11.4-9.94-10.942a9.376 9.376 0 0 0-8.66 8.836l-.04.855a10.33 10.33 0 0 0 5.9 9.905Z" fill="#822540"/></g><g filter="url(#q)"><path d="m1797.59 33.985.91.429c.61.29 1.3.36 1.96.2a2.953 2.953 0 0 0 2.22-2.366l.33-1.947c.45-2.558-1.64-4.852-4.23-4.657-2 .15-3.57 1.76-3.68 3.761l-.02.364c-.1 1.785.9 3.45 2.51 4.216Z" fill="url(#r)"/></g><g filter="url(#s)"><path d="m600.73 799.234 1.433.678a4.682 4.682 0 0 0 6.618-3.43l.534-3.082c.702-4.053-2.597-7.684-6.7-7.376a6.316 6.316 0 0 0-5.833 5.956l-.031.577a6.974 6.974 0 0 0 3.979 6.677Z" fill="#822540"/></g><g filter="url(#t)"><path d="m603.078 795.158.609.289a1.99 1.99 0 0 0 2.817-1.46l.228-1.312a2.689 2.689 0 1 0-5.335-.604l-.013.245a2.967 2.967 0 0 0 1.694 2.842Z" fill="url(#u)"/></g><g filter="url(#v)"><path d="m320.116 796.309.84.398a2.745 2.745 0 0 0 3.879-2.011l.313-1.806a3.703 3.703 0 1 0-7.346-.832l-.018.338a4.087 4.087 0 0 0 2.332 3.913Z" fill="#822540"/></g><g filter="url(#w)"><path d="m321.492 793.92.357.17a1.166 1.166 0 0 0 1.651-.856l.134-.769a1.576 1.576 0 1 0-3.127-.354l-.008.144a1.74 1.74 0 0 0 .993 1.665Z" fill="url(#x)"/></g><defs><filter id="a" x="81.152" y="41.399" width="26.51" height="27.638" filterUnits="userSpaceOnUse" color-interpolation-filters="sRGB"><feFlood flood-opacity="0" result="BackgroundImageFix"/><feBlend in="SourceGraphic" in2="BackgroundImageFix" result="shape"/><feGaussianBlur stdDeviation="4.509" result="effect1_foregroundBlur_2046_18"/></filter><filter id="b" x="92.372" y="51.87" width="5.411" height="5.891" filterUnits="userSpaceOnUse" color-interpolation-filters="sRGB"><feFlood flood-opacity="0" result="BackgroundImageFix"/><feBlend in="SourceGraphic" in2="BackgroundImageFix" result="shape"/><feGaussianBlur stdDeviation=".451" result="effect1_foregroundBlur_2046_18"/></filter><filter id="d" x="23.876" y="763.663" width="23.229" height="24.218" filterUnits="userSpaceOnUse" color-interpolation-filters="sRGB"><feFlood flood-opacity="0" result="BackgroundImageFix"/><feBlend in="SourceGraphic" in2="BackgroundImageFix" result="shape"/><feGaussianBlur stdDeviation="3.951" result="effect1_foregroundBlur_2046_18"/></filter><filter id="e" x="33.706" y="772.839" width="4.74" height="5.162" filterUnits="userSpaceOnUse" color-interpolation-filters="sRGB"><feFlood flood-opacity="0" result="BackgroundImageFix"/><feBlend in="SourceGraphic" in2="BackgroundImageFix" result="shape"/><feGaussianBlur stdDeviation=".395" result="effect1_foregroundBlur_2046_18"/></filter><filter id="g" x="115.429" y="467.558" width="29.789" height="31.059" filterUnits="userSpaceOnUse" color-interpolation-filters="sRGB"><feFlood flood-opacity="0" result="BackgroundImageFix"/><feBlend in="SourceGraphic" in2="BackgroundImageFix" result="shape"/><feGaussianBlur stdDeviation="5.067" result="effect1_foregroundBlur_2046_18"/></filter><filter id="h" x="128.035" y="479.326" width="6.079" height="6.62" filterUnits="userSpaceOnUse" color-interpolation-filters="sRGB"><feFlood flood-opacity="0" result="BackgroundImageFix"/><feBlend in="SourceGraphic" in2="BackgroundImageFix" result="shape"/><feGaussianBlur stdDeviation=".507" result="effect1_foregroundBlur_2046_18"/></filter><filter id="j" x=".601" y="288.528" width="19.946" height="20.797" filterUnits="userSpaceOnUse" color-interpolation-filters="sRGB"><feFlood flood-opacity="0" result="BackgroundImageFix"/><feBlend in="SourceGraphic" in2="BackgroundImageFix" result="shape"/><feGaussianBlur stdDeviation="3.393" result="effect1_foregroundBlur_2046_18"/></filter><filter id="k" x="9.042" y="296.408" width="4.07" height="4.433" filterUnits="userSpaceOnUse" color-interpolation-filters="sRGB"><feFlood flood-opacity="0" result="BackgroundImageFix"/><feBlend in="SourceGraphic" in2="BackgroundImageFix" result="shape"/><feGaussianBlur stdDeviation=".339" result="effect1_foregroundBlur_2046_18"/></filter><filter id="m" x="308.876" y="78.007" width="23.229" height="24.218" filterUnits="userSpaceOnUse" color-interpolation-filters="sRGB"><feFlood flood-opacity="0" result="BackgroundImageFix"/><feBlend in="SourceGraphic" in2="BackgroundImageFix" result="shape"/><feGaussianBlur stdDeviation="3.951" result="effect1_foregroundBlur_2046_18"/></filter><filter id="n" x="318.706" y="87.183" width="4.74" height="5.162" filterUnits="userSpaceOnUse" color-interpolation-filters="sRGB"><feFlood flood-opacity="0" result="BackgroundImageFix"/><feBlend in="SourceGraphic" in2="BackgroundImageFix" result="shape"/><feGaussianBlur stdDeviation=".395" result="effect1_foregroundBlur_2046_18"/></filter><filter id="p" x="1768.19" y=".408" width="58.793" height="61.299" filterUnits="userSpaceOnUse" color-interpolation-filters="sRGB"><feFlood flood-opacity="0" result="BackgroundImageFix"/><feBlend in="SourceGraphic" in2="BackgroundImageFix" result="shape"/><feGaussianBlur stdDeviation="10" result="effect1_foregroundBlur_2046_18"/></filter><filter id="q" x="1793.07" y="23.633" width="11.998" height="13.065" filterUnits="userSpaceOnUse" color-interpolation-filters="sRGB"><feFlood flood-opacity="0" result="BackgroundImageFix"/><feBlend in="SourceGraphic" in2="BackgroundImageFix" result="shape"/><feGaussianBlur stdDeviation="1" result="effect1_foregroundBlur_2046_18"/></filter><filter id="s" x="583.258" y="772.524" width="39.634" height="41.321" filterUnits="userSpaceOnUse" color-interpolation-filters="sRGB"><feFlood flood-opacity="0" result="BackgroundImageFix"/><feBlend in="SourceGraphic" in2="BackgroundImageFix" result="shape"/><feGaussianBlur stdDeviation="6.741" result="effect1_foregroundBlur_2046_18"/></filter><filter id="t" x="600.031" y="788.18" width="8.089" height="8.808" filterUnits="userSpaceOnUse" color-interpolation-filters="sRGB"><feFlood flood-opacity="0" result="BackgroundImageFix"/><feBlend in="SourceGraphic" in2="BackgroundImageFix" result="shape"/><feGaussianBlur stdDeviation=".674" result="effect1_foregroundBlur_2046_18"/></filter><filter id="v" x="309.876" y="780.655" width="23.229" height="24.218" filterUnits="userSpaceOnUse" color-interpolation-filters="sRGB"><feFlood flood-opacity="0" result="BackgroundImageFix"/><feBlend in="SourceGraphic" in2="BackgroundImageFix" result="shape"/><feGaussianBlur stdDeviation="3.951" result="effect1_foregroundBlur_2046_18"/></filter><filter id="w" x="319.706" y="789.83" width="4.74" height="5.162" filterUnits="userSpaceOnUse" color-interpolation-filters="sRGB"><feFlood flood-opacity="0" result="BackgroundImageFix"/><feBlend in="SourceGraphic" in2="BackgroundImageFix" result="shape"/><feGaussianBlur stdDeviation=".395" result="effect1_foregroundBlur_2046_18"/></filter><linearGradient id="c" x1="94.174" y1="52.439" x2="96.551" y2="56.616" gradientUnits="userSpaceOnUse"><stop stop-color="#FC7244"/><stop offset="1" stop-color="#AC3B41"/></linearGradient><linearGradient id="f" x1="35.286" y1="773.337" x2="37.368" y2="776.997" gradientUnits="userSpaceOnUse"><stop stop-color="#FC7244"/><stop offset="1" stop-color="#AC3B41"/></linearGradient><linearGradient id="i" x1="130.06" y1="479.965" x2="132.731" y2="484.659" gradientUnits="userSpaceOnUse"><stop stop-color="#FC7244"/><stop offset="1" stop-color="#AC3B41"/></linearGradient><linearGradient id="l" x1="10.397" y1="296.836" x2="12.186" y2="299.979" gradientUnits="userSpaceOnUse"><stop stop-color="#FC7244"/><stop offset="1" stop-color="#AC3B41"/></linearGradient><linearGradient id="o" x1="320.286" y1="87.68" x2="322.368" y2="91.341" gradientUnits="userSpaceOnUse"><stop stop-color="#FC7244"/><stop offset="1" stop-color="#AC3B41"/></linearGradient><linearGradient id="r" x1="1797.07" y1="24.893" x2="1802.34" y2="34.158" gradientUnits="userSpaceOnUse"><stop stop-color="#FC7244"/><stop offset="1" stop-color="#AC3B41"/></linearGradient><linearGradient id="u" x1="602.725" y1="789.03" x2="606.279" y2="795.275" gradientUnits="userSpaceOnUse"><stop stop-color="#FC7244"/><stop offset="1" stop-color="#AC3B41"/></linearGradient><linearGradient id="x" x1="321.286" y1="790.328" x2="323.368" y2="793.989" gradientUnits="userSpaceOnUse"><stop stop-color="#FC7244"/><stop offset="1" stop-color="#AC3B41"/></linearGradient></defs></svg>